mtllib material.mtl
usemtl material_0
v -0.00412300 -0.04580200 0.37664100
v -0.00412300 -0.04580200 0.37664100
v -0.00038200 -0.04580200 0.37680000
v -0.00000000 -0.04580200 0.37690000
v -0.00014300 -0.04580200 0.37664300
v 0.00014300 -0.04580200 0.37664300
v -0.00445900 -0.04580200 0.37649700
v -0.00445900 -0.04580200 0.37649700
v -0.00818200 -0.04580200 0.37586600
v -0.00818200 -0.04580200 0.37586600
v -0.00846800 -0.04580200 0.37569000
v -0.01211100 -0.04580200 0.37459000
v -0.01234400 -0.04580200 0.37439000
v -0.01585000 -0.04580200 0.37283100
v -0.01602900 -0.04580200 0.37261800
v -0.01933800 -0.04580200 0.37061700
v -0.01933800 -0.04580200 0.37061700
v -0.01946500 -0.04580200 0.37040200
v -0.01946500 -0.04580200 0.37040200
v -0.02252200 -0.04580200 0.36798300
v -0.02252200 -0.04580200 0.36798300
v -0.02252200 -0.04580200 0.36798300
v -0.02259900 -0.04580200 0.36777500
v -0.02259900 -0.04580200 0.36777500
v -0.02259900 -0.04580200 0.36777500
v -0.02535000 -0.04580200 0.36497100
v -0.02535000 -0.04580200 0.36497100
v -0.02535000 -0.04580200 0.36497100
v -0.02538100 -0.04580200 0.36477900
v -0.02538100 -0.04580200 0.36477900
v -0.02777800 -0.04580200 0.36162900
v -0.02776900 -0.04580200 0.36146000
v -0.02976900 -0.04580200 0.35800800
v -0.02972500 -0.04580200 0.35786900
v -0.03129000 -0.04580200 0.35416700
v -0.03122000 -0.04580200 0.35406400
v -0.03231700 -0.04580200 0.35016500
v -0.03222900 -0.04580200 0.35010100
v -0.03283500 -0.04580200 0.34606600
v -0.03273800 -0.04580200 0.34604400
v -0.03283500 -0.04580200 0.34193400
v -0.03273800 -0.04580200 0.34195600
v -0.03222900 -0.04580200 0.33789800
v -0.03231700 -0.04580200 0.33783500
v -0.03122000 -0.04580200 0.33393600
v -0.03129000 -0.04580200 0.33383300
v -0.02972500 -0.04580200 0.33013000
v -0.02976900 -0.04580200 0.32999200
v -0.02776900 -0.04580200 0.32654000
v -0.02776900 -0.04580200 0.32654000
v -0.02777800 -0.04580200 0.32637100
v -0.02777800 -0.04580200 0.32637100
v -0.02538100 -0.04580200 0.32322100
v -0.02538100 -0.04580200 0.32322100
v -0.02538100 -0.04580200 0.32322100
v -0.02535000 -0.04580200 0.32302900
v -0.02535000 -0.04580200 0.32302900
v -0.02535000 -0.04580200 0.32302900
v -0.02259900 -0.04580200 0.32022500
v -0.02259900 -0.04580200 0.32022500
v -0.02259900 -0.04580200 0.32022500
v -0.02252200 -0.04580200 0.32001700
v -0.02252200 -0.04580200 0.32001700
v -0.02252200 -0.04580200 0.32001700
v -0.01946500 -0.04580200 0.31759800
v -0.01946500 -0.04580200 0.31759800
v -0.01933800 -0.04580200 0.31738300
v -0.01933800 -0.04580200 0.31738300
v -0.01602900 -0.04580200 0.31538100
v -0.01585000 -0.04580200 0.31516900
v -0.01234400 -0.04580200 0.31361000
v -0.01211100 -0.04580200 0.31341000
v -0.00846800 -0.04580200 0.31231000
v -0.00818200 -0.04580200 0.31213400
v -0.00818200 -0.04580200 0.31213400
v -0.00445900 -0.04580200 0.31150300
v -0.00445900 -0.04580200 0.31150300
v -0.00412300 -0.04580200 0.31135900
v -0.00412300 -0.04580200 0.31135900
v -0.00038200 -0.04580200 0.31120000
v -0.00000000 -0.04580200 0.31110000
v -0.00014300 -0.04580200 0.31135700
v 0.00014300 -0.04580200 0.31135700
v 0.00038200 -0.04580200 0.31120000
v 0.00412300 -0.04580200 0.31135900
v 0.00445900 -0.04580200 0.31150300
v 0.00818200 -0.04580200 0.31213400
v 0.00846800 -0.04580200 0.31231000
v 0.01211100 -0.04580200 0.31341000
v 0.01234400 -0.04580200 0.31361000
v 0.01585000 -0.04580200 0.31516900
v 0.01602900 -0.04580200 0.31538100
v 0.01933800 -0.04580200 0.31738300
v 0.01946500 -0.04580200 0.31759800
v 0.02252200 -0.04580200 0.32001700
v 0.02252200 -0.04580200 0.32001700
v 0.02259900 -0.04580200 0.32022500
v 0.02259900 -0.04580200 0.32022500
v 0.02535000 -0.04580200 0.32302900
v 0.02535000 -0.04580200 0.32302900
v 0.02538100 -0.04580200 0.32322100
v 0.02777800 -0.04580200 0.32637100
v 0.02776900 -0.04580200 0.32654000
v 0.02976900 -0.04580200 0.32999200
v 0.02972500 -0.04580200 0.33013000
v 0.03129000 -0.04580200 0.33383300
v 0.03122000 -0.04580200 0.33393600
v 0.03231700 -0.04580200 0.33783500
v 0.03222900 -0.04580200 0.33789800
v 0.03283500 -0.04580200 0.34193400
v 0.03273800 -0.04580200 0.34195600
v 0.03283500 -0.04580200 0.34606600
v 0.03273800 -0.04580200 0.34604400
v 0.03222900 -0.04580200 0.35010100
v 0.03231700 -0.04580200 0.35016500
v 0.03122000 -0.04580200 0.35406400
v 0.03129000 -0.04580200 0.35416700
v 0.02972500 -0.04580200 0.35786900
v 0.02976900 -0.04580200 0.35800800
v 0.02776900 -0.04580200 0.36146000
v 0.02776900 -0.04580200 0.36146000
v 0.02777800 -0.04580200 0.36162900
v 0.02777800 -0.04580200 0.36162900
v 0.02538100 -0.04580200 0.36477900
v 0.02538100 -0.04580200 0.36477900
v 0.02535000 -0.04580200 0.36497100
v 0.02535000 -0.04580200 0.36497100
v 0.02259900 -0.04580200 0.36777500
v 0.02259900 -0.04580200 0.36777500
v 0.02252200 -0.04580200 0.36798300
v 0.02252200 -0.04580200 0.36798300
v 0.01946500 -0.04580200 0.37040200
v 0.01933800 -0.04580200 0.37061700
v 0.01602900 -0.04580200 0.37261800
v 0.01585000 -0.04580200 0.37283100
v 0.01234400 -0.04580200 0.37439000
v 0.01234400 -0.04580200 0.37439000
v 0.01211100 -0.04580200 0.37459000
v 0.01211100 -0.04580200 0.37459000
v 0.00846800 -0.04580200 0.37569000
v 0.00846800 -0.04580200 0.37569000
v 0.00818200 -0.04580200 0.37586600
v 0.00445900 -0.04580200 0.37649700
v 0.00412300 -0.04580200 0.37664100
v 0.00038200 -0.04580200 0.37680000
v -0.00389900 -0.03330200 0.31501100
v -0.00389900 -0.04580200 0.31501100
v -0.00000000 -0.03330200 0.31475000
v -0.00000000 -0.04580200 0.31475000
v -0.00000000 -0.03330200 0.31475000
v -0.00000000 -0.04580200 0.31475000
v 0.00389900 -0.03330200 0.31501100
v 0.00389900 -0.04580200 0.31501100
v 0.00772800 -0.03330200 0.31578900
v 0.00772800 -0.04580200 0.31578900
v 0.01141900 -0.03330200 0.31707100
v 0.01141900 -0.04580200 0.31707100
v 0.01490600 -0.03330200 0.31883300
v 0.01490600 -0.04580200 0.31883300
v 0.01812800 -0.03330200 0.32104500
v 0.01812800 -0.04580200 0.32104500
v 0.02102600 -0.03330200 0.32366600
v 0.02102600 -0.04580200 0.32366600
v 0.02354800 -0.03330200 0.32664900
v 0.02354800 -0.04580200 0.32664900
v 0.02565100 -0.03330200 0.32994300
v 0.02565100 -0.04580200 0.32994300
v 0.02729600 -0.03330200 0.33348700
v 0.02729600 -0.04580200 0.33348700
v 0.02845300 -0.03330200 0.33721900
v 0.02845300 -0.04580200 0.33721900
v 0.02910300 -0.03330200 0.34107200
v 0.02910300 -0.04580200 0.34107200
v 0.02923400 -0.03330200 0.34497700
v 0.02923400 -0.04580200 0.34497700
v 0.02884300 -0.03330200 0.34886500
v 0.02884300 -0.04580200 0.34886500
v 0.02793700 -0.03330200 0.35266600
v 0.02793700 -0.04580200 0.35266600
v 0.02653200 -0.03330200 0.35631200
v 0.02653200 -0.04580200 0.35631200
v 0.02465500 -0.03330200 0.35973900
v 0.02465500 -0.04580200 0.35973900
v 0.02233700 -0.03330200 0.36288500
v 0.02233700 -0.04580200 0.36288500
v 0.01962000 -0.03330200 0.36569300
v 0.01962000 -0.04580200 0.36569300
v 0.01655400 -0.03330200 0.36811500
v 0.01655400 -0.04580200 0.36811500
v 0.01319200 -0.03330200 0.37010600
v 0.01319200 -0.04580200 0.37010600
v 0.00959500 -0.03330200 0.37163200
v 0.00959500 -0.04580200 0.37163200
v 0.00582600 -0.03330200 0.37266400
v 0.00582600 -0.04580200 0.37266400
v 0.00195400 -0.03330200 0.37318500
v 0.00195400 -0.04580200 0.37318500
v -0.00195400 -0.03330200 0.37318500
v -0.00195400 -0.04580200 0.37318500
v -0.00582600 -0.03330200 0.37266400
v -0.00582600 -0.04580200 0.37266400
v -0.00959500 -0.03330200 0.37163200
v -0.00959500 -0.04580200 0.37163200
v -0.01319200 -0.03330200 0.37010600
v -0.01319200 -0.04580200 0.37010600
v -0.01655400 -0.03330200 0.36811500
v -0.01655400 -0.04580200 0.36811500
v -0.01962000 -0.03330200 0.36569300
v -0.01962000 -0.04580200 0.36569300
v -0.02233700 -0.03330200 0.36288500
v -0.02233700 -0.04580200 0.36288500
v -0.02465500 -0.03330200 0.35973900
v -0.02465500 -0.04580200 0.35973900
v -0.02653200 -0.03330200 0.35631200
v -0.02653200 -0.04580200 0.35631200
v -0.02793700 -0.03330200 0.35266600
v -0.02793700 -0.04580200 0.35266600
v -0.02884300 -0.03330200 0.34886500
v -0.02884300 -0.04580200 0.34886500
v -0.02923400 -0.03330200 0.34497700
v -0.02923400 -0.04580200 0.34497700
v -0.02910300 -0.03330200 0.34107200
v -0.02910300 -0.04580200 0.34107200
v -0.02845300 -0.03330200 0.33721900
v -0.02845300 -0.04580200 0.33721900
v -0.02729600 -0.03330200 0.33348700
v -0.02729600 -0.04580200 0.33348700
v -0.02565100 -0.03330200 0.32994300
v -0.02565100 -0.04580200 0.32994300
v -0.02354800 -0.03330200 0.32664900
v -0.02354800 -0.04580200 0.32664900
v -0.02102600 -0.03330200 0.32366600
v -0.02102600 -0.04580200 0.32366600
v -0.01812800 -0.03330200 0.32104500
v -0.01812800 -0.04580200 0.32104500
v -0.01490600 -0.03330200 0.31883300
v -0.01490600 -0.04580200 0.31883300
v -0.01141900 -0.03330200 0.31707100
v -0.01141900 -0.04580200 0.31707100
v -0.00772800 -0.03330200 0.31578900
v -0.00772800 -0.04580200 0.31578900
v 0.00412300 -0.04580200 0.37664100
v 0.00412300 -0.03330200 0.37664100
v -0.00000000 -0.04580200 0.37690000
v -0.00000000 -0.03330200 0.37690000
v -0.00000000 -0.04580200 0.37690000
v -0.00000000 -0.03330200 0.37690000
v -0.00412300 -0.04580200 0.37664100
v -0.00412300 -0.03330200 0.37664100
v -0.00818200 -0.03330200 0.37586600
v 0.00818200 -0.04580200 0.37586600
v 0.00818200 -0.03330200 0.37586600
v 0.01211100 -0.04580200 0.37459000
v 0.01211100 -0.03330200 0.37459000
v 0.01585000 -0.04580200 0.37283100
v 0.01585000 -0.03330200 0.37283100
v 0.01933800 -0.04580200 0.37061700
v 0.01933800 -0.03330200 0.37061700
v 0.02252200 -0.04580200 0.36798300
v 0.02252200 -0.03330200 0.36798300
v 0.02535000 -0.04580200 0.36497100
v 0.02535000 -0.03330200 0.36497100
v 0.02777800 -0.04580200 0.36162900
v 0.02777800 -0.03330200 0.36162900
v 0.02976900 -0.04580200 0.35800800
v 0.02976900 -0.03330200 0.35800800
v 0.03129000 -0.04580200 0.35416700
v 0.03129000 -0.03330200 0.35416700
v 0.03231700 -0.04580200 0.35016500
v 0.03231700 -0.03330200 0.35016500
v 0.03283500 -0.04580200 0.34606600
v 0.03283500 -0.03330200 0.34606600
v 0.03283500 -0.04580200 0.34193400
v 0.03283500 -0.03330200 0.34193400
v 0.03231700 -0.04580200 0.33783500
v 0.03231700 -0.03330200 0.33783500
v 0.03129000 -0.04580200 0.33383300
v 0.03129000 -0.03330200 0.33383300
v 0.02976900 -0.04580200 0.32999200
v 0.02976900 -0.03330200 0.32999200
v 0.02777800 -0.04580200 0.32637100
v 0.02777800 -0.03330200 0.32637100
v 0.02535000 -0.04580200 0.32302900
v 0.02535000 -0.03330200 0.32302900
v 0.02252200 -0.04580200 0.32001700
v 0.02252200 -0.03330200 0.32001700
v 0.01933800 -0.04580200 0.31738300
v 0.01933800 -0.03330200 0.31738300
v 0.01585000 -0.04580200 0.31516900
v 0.01585000 -0.03330200 0.31516900
v 0.01211100 -0.04580200 0.31341000
v 0.01211100 -0.03330200 0.31341000
v 0.00818200 -0.04580200 0.31213400
v 0.00818200 -0.03330200 0.31213400
v 0.00412300 -0.04580200 0.31135900
v 0.00412300 -0.03330200 0.31135900
v -0.00000000 -0.04580200 0.31110000
v -0.00000000 -0.03330200 0.31110000
v -0.00412300 -0.04580200 0.31135900
v -0.00412300 -0.03330200 0.31135900
v -0.00818200 -0.04580200 0.31213400
v -0.00818200 -0.03330200 0.31213400
v -0.01211100 -0.04580200 0.31341000
v -0.01211100 -0.03330200 0.31341000
v -0.01585000 -0.04580200 0.31516900
v -0.01585000 -0.03330200 0.31516900
v -0.01933800 -0.04580200 0.31738300
v -0.01933800 -0.03330200 0.31738300
v -0.02252200 -0.04580200 0.32001700
v -0.02252200 -0.03330200 0.32001700
v -0.02535000 -0.04580200 0.32302900
v -0.02535000 -0.03330200 0.32302900
v -0.02777800 -0.04580200 0.32637100
v -0.02777800 -0.03330200 0.32637100
v -0.02976900 -0.04580200 0.32999200
v -0.02976900 -0.03330200 0.32999200
v -0.03129000 -0.04580200 0.33383300
v -0.03129000 -0.03330200 0.33383300
v -0.03231700 -0.04580200 0.33783500
v -0.03231700 -0.03330200 0.33783500
v -0.03283500 -0.04580200 0.34193400
v -0.03283500 -0.03330200 0.34193400
v -0.03283500 -0.04580200 0.34606600
v -0.03283500 -0.03330200 0.34606600
v -0.03231700 -0.04580200 0.35016500
v -0.03231700 -0.03330200 0.35016500
v -0.03129000 -0.04580200 0.35416700
v -0.03129000 -0.03330200 0.35416700
v -0.02976900 -0.04580200 0.35800800
v -0.02976900 -0.03330200 0.35800800
v -0.02777800 -0.04580200 0.36162900
v -0.02777800 -0.03330200 0.36162900
v -0.02535000 -0.04580200 0.36497100
v -0.02535000 -0.03330200 0.36497100
v -0.02252200 -0.04580200 0.36798300
v -0.02252200 -0.03330200 0.36798300
v -0.01933800 -0.04580200 0.37061700
v -0.01933800 -0.03330200 0.37061700
v -0.01585000 -0.04580200 0.37283100
v -0.01585000 -0.03330200 0.37283100
v -0.01211100 -0.04580200 0.37459000
v -0.01211100 -0.03330200 0.37459000
v -0.00818200 -0.04580200 0.37586600
v 0.00412300 -0.03330200 0.37664100
v 0.00195400 -0.03330200 0.37318500
v -0.00000000 -0.03330200 0.37690000
v -0.00195400 -0.03330200 0.37318500
v -0.00412300 -0.03330200 0.37664100
v -0.00582600 -0.03330200 0.37266400
v -0.00818200 -0.03330200 0.37586600
v -0.00959500 -0.03330200 0.37163200
v -0.01211100 -0.03330200 0.37459000
v -0.01319200 -0.03330200 0.37010600
v -0.01585000 -0.03330200 0.37283100
v -0.01655400 -0.03330200 0.36811500
v -0.01933800 -0.03330200 0.37061700
v -0.01962000 -0.03330200 0.36569300
v -0.02252200 -0.03330200 0.36798300
v -0.02233700 -0.03330200 0.36288500
v -0.02535000 -0.03330200 0.36497100
v -0.02465500 -0.03330200 0.35973900
v -0.02777800 -0.03330200 0.36162900
v -0.02976900 -0.03330200 0.35800800
v -0.02653200 -0.03330200 0.35631200
v -0.03129000 -0.03330200 0.35416700
v -0.02793700 -0.03330200 0.35266600
v -0.03231700 -0.03330200 0.35016500
v -0.02884300 -0.03330200 0.34886500
v -0.03283500 -0.03330200 0.34606600
v -0.02923400 -0.03330200 0.34497700
v -0.03283500 -0.03330200 0.34193400
v -0.02910300 -0.03330200 0.34107200
v -0.03231700 -0.03330200 0.33783500
v -0.02845300 -0.03330200 0.33721900
v -0.03129000 -0.03330200 0.33383300
v -0.02729600 -0.03330200 0.33348700
v -0.02976900 -0.03330200 0.32999200
v -0.02565100 -0.03330200 0.32994300
v -0.02777800 -0.03330200 0.32637100
v -0.02354800 -0.03330200 0.32664900
v -0.02535000 -0.03330200 0.32302900
v -0.02102600 -0.03330200 0.32366600
v -0.02252200 -0.03330200 0.32001700
v -0.01812800 -0.03330200 0.32104500
v -0.01933800 -0.03330200 0.31738300
v -0.01490600 -0.03330200 0.31883300
v -0.01585000 -0.03330200 0.31516900
v -0.01141900 -0.03330200 0.31707100
v -0.01211100 -0.03330200 0.31341000
v -0.00772800 -0.03330200 0.31578900
v -0.00818200 -0.03330200 0.31213400
v -0.00389900 -0.03330200 0.31501100
v -0.00412300 -0.03330200 0.31135900
v -0.00000000 -0.03330200 0.31475000
v -0.00000000 -0.03330200 0.31110000
v 0.00412300 -0.03330200 0.31135900
v 0.00389900 -0.03330200 0.31501100
v 0.00818200 -0.03330200 0.31213400
v 0.00772800 -0.03330200 0.31578900
v 0.01211100 -0.03330200 0.31341000
v 0.01141900 -0.03330200 0.31707100
v 0.01585000 -0.03330200 0.31516900
v 0.01490600 -0.03330200 0.31883300
v 0.01933800 -0.03330200 0.31738300
v 0.01812800 -0.03330200 0.32104500
v 0.02252200 -0.03330200 0.32001700
v 0.02102600 -0.03330200 0.32366600
v 0.02535000 -0.03330200 0.32302900
v 0.02354800 -0.03330200 0.32664900
v 0.02777800 -0.03330200 0.32637100
v 0.02565100 -0.03330200 0.32994300
v 0.02976900 -0.03330200 0.32999200
v 0.02729600 -0.03330200 0.33348700
v 0.03129000 -0.03330200 0.33383300
v 0.02845300 -0.03330200 0.33721900
v 0.03231700 -0.03330200 0.33783500
v 0.02910300 -0.03330200 0.34107200
v 0.03283500 -0.03330200 0.34193400
v 0.02923400 -0.03330200 0.34497700
v 0.03283500 -0.03330200 0.34606600
v 0.02884300 -0.03330200 0.34886500
v 0.03231700 -0.03330200 0.35016500
v 0.02793700 -0.03330200 0.35266600
v 0.03129000 -0.03330200 0.35416700
v 0.02653200 -0.03330200 0.35631200
v 0.02976900 -0.03330200 0.35800800
v 0.02465500 -0.03330200 0.35973900
v 0.02777800 -0.03330200 0.36162900
v 0.02535000 -0.03330200 0.36497100
v 0.02233700 -0.03330200 0.36288500
v 0.02252200 -0.03330200 0.36798300
v 0.01962000 -0.03330200 0.36569300
v 0.01933800 -0.03330200 0.37061700
v 0.01655400 -0.03330200 0.36811500
v 0.01585000 -0.03330200 0.37283100
v 0.01319200 -0.03330200 0.37010600
v 0.01211100 -0.03330200 0.37459000
v 0.00959500 -0.03330200 0.37163200
v 0.00818200 -0.03330200 0.37586600
v 0.00582600 -0.03330200 0.37266400
vn -0.00000000 -1.00000000 -0.00000000
vn -0.00000000 -1.00000000 -0.00010000
vn -0.00000000 -1.00000000 -0.00000000
vn -0.00000000 -1.00000000 -0.00000000
vn -0.00000000 -1.00000000 -0.00000000
vn -0.00000000 -1.00000000 -0.00000000
vn -0.00000000 -1.00000000 -0.00010000
vn -0.00000000 -1.00000000 -0.00000000
vn -0.00000000 -1.00000000 -0.00000000
vn -0.00000000 -1.00000000 -0.00010000
vn -0.00000000 -1.00000000 -0.00000000
vn -0.00000000 -1.00000000 -0.00000000
vn -0.00000000 -1.00000000 -0.00000000
vn -0.00000000 -1.00000000 -0.00000000
vn -0.00000000 -1.00000000 -0.00000000
vn -0.00000000 -1.00000000 -0.00000000
vn -0.00000000 -1.00000000 0.00010000
vn -0.00000000 -1.00000000 -0.00000000
vn -0.00000000 -1.00000000 0.00010000
vn -0.00000000 -1.00000000 -0.00000000
vn -0.00000000 -1.00000000 0.00010000
vn -0.00000000 -1.00000000 -0.00010000
vn -0.00000000 -1.00000000 0.00010000
vn -0.00000000 -1.00000000 -0.00010000
vn -0.00000000 -1.00000000 -0.00000000
vn -0.00000000 -1.00000000 -0.00010000
vn -0.00000000 -1.00000000 -0.00000000
vn -0.00000000 -1.00000000 0.00010000
vn -0.00000000 -1.00000000 -0.00000000
vn -0.00000000 -1.00000000 0.00010000
vn -0.00000000 -1.00000000 -0.00000000
vn -0.00000000 -1.00000000 -0.00000000
vn -0.00000000 -1.00000000 -0.00000000
vn -0.00000000 -1.00000000 -0.00000000
vn -0.00000000 -1.00000000 -0.00000000
vn -0.00000000 -1.00000000 -0.00000000
vn -0.00000000 -1.00000000 -0.00000000
vn -0.00000000 -1.00000000 -0.00000000
vn -0.00000000 -1.00000000 -0.00000000
vn -0.00000000 -1.00000000 -0.00000000
vn -0.00000000 -1.00000000 -0.00000000
vn -0.00000000 -1.00000000 -0.00000000
vn -0.00000000 -1.00000000 -0.00000000
vn -0.00000000 -1.00000000 -0.00000000
vn -0.00000000 -1.00000000 -0.00000000
vn -0.00000000 -1.00000000 -0.00000000
vn -0.00000000 -1.00000000 -0.00000000
vn -0.00000000 -1.00000000 -0.00000000
vn -0.00000000 -1.00000000 0.00010000
vn -0.00000000 -1.00000000 -0.00000000
vn -0.00000000 -1.00000000 0.00010000
vn -0.00000000 -1.00000000 -0.00000000
vn -0.00000000 -1.00000000 0.00010000
vn -0.00000000 -1.00000000 -0.00000000
vn -0.00000000 -1.00000000 -0.00010000
vn -0.00000000 -1.00000000 0.00010000
vn -0.00000000 -1.00000000 -0.00000000
vn -0.00000000 -1.00000000 -0.00010000
vn -0.00000000 -1.00000000 -0.00010000
vn -0.00000000 -1.00000000 0.00010000
vn -0.00000000 -1.00000000 -0.00000000
vn -0.00000000 -1.00000000 0.00010000
vn -0.00000000 -1.00000000 -0.00010000
vn -0.00000000 -1.00000000 -0.00000000
vn -0.00000000 -1.00000000 -0.00010000
vn -0.00000000 -1.00000000 -0.00000000
vn -0.00000000 -1.00000000 -0.00010000
vn -0.00000000 -1.00000000 -0.00000000
vn -0.00000000 -1.00000000 -0.00000000
vn -0.00000000 -1.00000000 -0.00000000
vn -0.00000000 -1.00000000 -0.00000000
vn -0.00000000 -1.00000000 -0.00000000
vn -0.00000000 -1.00000000 -0.00000000
vn -0.00000000 -1.00000000 -0.00000000
vn -0.00000000 -1.00000000 0.00010000
vn -0.00000000 -1.00000000 -0.00000000
vn -0.00000000 -1.00000000 0.00010000
vn -0.00000000 -1.00000000 0.00010000
vn -0.00000000 -1.00000000 -0.00000000
vn -0.00000000 -1.00000000 -0.00000000
vn -0.00000000 -1.00000000 -0.00000000
vn -0.00000000 -1.00000000 -0.00000000
vn -0.00000000 -1.00000000 -0.00000000
vn -0.00000000 -1.00000000 -0.00000000
vn -0.00000000 -1.00000000 -0.00000000
vn -0.00000000 -1.00000000 -0.00000000
vn -0.00000000 -1.00000000 -0.00000000
vn -0.00000000 -1.00000000 -0.00000000
vn -0.00000000 -1.00000000 -0.00000000
vn -0.00000000 -1.00000000 -0.00000000
vn -0.00000000 -1.00000000 -0.00000000
vn -0.00000000 -1.00000000 -0.00000000
vn -0.00000000 -1.00000000 -0.00000000
vn -0.00000000 -1.00000000 -0.00000000
vn -0.00000000 -1.00000000 0.00010000
vn -0.00000000 -1.00000000 -0.00000000
vn -0.00000000 -1.00000000 0.00010000
vn -0.00000000 -1.00000000 -0.00000000
vn -0.00000000 -1.00000000 0.00010000
vn -0.00000000 -1.00000000 -0.00000000
vn -0.00000000 -1.00000000 -0.00000000
vn -0.00000000 -1.00000000 -0.00000000
vn -0.00000000 -1.00000000 -0.00000000
vn -0.00000000 -1.00000000 -0.00000000
vn -0.00000000 -1.00000000 -0.00000000
vn -0.00000000 -1.00000000 -0.00000000
vn -0.00000000 -1.00000000 -0.00000000
vn -0.00000000 -1.00000000 -0.00000000
vn -0.00000000 -1.00000000 -0.00000000
vn -0.00000000 -1.00000000 -0.00000000
vn -0.00000000 -1.00000000 -0.00000000
vn -0.00000000 -1.00000000 -0.00000000
vn -0.00000000 -1.00000000 -0.00000000
vn -0.00000000 -1.00000000 -0.00000000
vn -0.00000000 -1.00000000 -0.00000000
vn -0.00000000 -1.00000000 -0.00000000
vn -0.00000000 -1.00000000 -0.00000000
vn -0.00000000 -1.00000000 -0.00000000
vn -0.00000000 -1.00000000 -0.00000000
vn -0.00000000 -1.00000000 -0.00000000
vn -0.00000000 -1.00000000 -0.00010000
vn -0.00000000 -1.00000000 -0.00010000
vn -0.00000000 -1.00000000 -0.00000000
vn -0.00000000 -1.00000000 -0.00000000
vn -0.00000000 -1.00000000 -0.00010000
vn -0.00000000 -1.00000000 -0.00000000
vn -0.00000000 -1.00000000 -0.00010000
vn -0.00000000 -1.00000000 -0.00000000
vn -0.00000000 -1.00000000 -0.00010000
vn -0.00000000 -1.00000000 -0.00010000
vn -0.00000000 -1.00000000 -0.00000000
vn -0.00000000 -1.00000000 -0.00000000
vn -0.00000000 -1.00000000 -0.00000000
vn -0.00000000 -1.00000000 -0.00000000
vn -0.00000000 -1.00000000 -0.00000000
vn -0.00000000 -1.00000000 -0.00000000
vn -0.00000000 -1.00000000 -0.00010000
vn -0.00000000 -1.00000000 -0.00000000
vn -0.00000000 -1.00000000 -0.00010000
vn -0.00000000 -1.00000000 -0.00000000
vn -0.00000000 -1.00000000 -0.00010000
vn -0.00000000 -1.00000000 -0.00000000
vn -0.00000000 -1.00000000 -0.00000000
vn -0.00000000 -1.00000000 -0.00000000
vn -0.00000000 -1.00000000 -0.00000000
vn 0.13330000 -0.00000000 0.99110000
vn 0.13330000 -0.00000000 0.99110000
vn -0.00000000 -0.00000000 1.00000000
vn -0.00000000 -0.00000000 1.00000000
vn -0.00000000 -0.00000000 1.00000000
vn -0.00000000 -0.00000000 1.00000000
vn -0.13330000 -0.00000000 0.99110000
vn -0.13330000 -0.00000000 0.99110000
vn -0.26420000 -0.00000000 0.96450000
vn -0.26420000 -0.00000000 0.96450000
vn -0.39040000 -0.00000000 0.92070000
vn -0.39040000 -0.00000000 0.92060000
vn -0.50960000 -0.00000000 0.86040000
vn -0.50960000 -0.00000000 0.86040000
vn -0.61970000 -0.00000000 0.78480000
vn -0.61970000 -0.00000000 0.78480000
vn -0.71880000 -0.00000000 0.69520000
vn -0.71880000 -0.00000000 0.69520000
vn -0.80510000 -0.00000000 0.59320000
vn -0.80510000 -0.00000000 0.59320000
vn -0.87700000 -0.00000000 0.48060000
vn -0.87690000 -0.00000000 0.48060000
vn -0.93320000 -0.00000000 0.35940000
vn -0.93320000 -0.00000000 0.35940000
vn -0.97280000 -0.00000000 0.23180000
vn -0.97280000 -0.00000000 0.23180000
vn -0.99500000 -0.00000000 0.10010000
vn -0.99500000 -0.00000000 0.10010000
vn -0.99940000 -0.00000000 -0.03340000
vn -0.99940000 -0.00000000 -0.03340000
vn -0.98610000 -0.00000000 -0.16630000
vn -0.98610000 -0.00000000 -0.16630000
vn -0.95510000 -0.00000000 -0.29630000
vn -0.95510000 -0.00000000 -0.29630000
vn -0.90710000 -0.00000000 -0.42090000
vn -0.90710000 -0.00000000 -0.42090000
vn -0.84290000 -0.00000000 -0.53810000
vn -0.84290000 -0.00000000 -0.53810000
vn -0.76360000 -0.00000000 -0.64560000
vn -0.76370000 -0.00000000 -0.64560000
vn -0.67080000 -0.00000000 -0.74170000
vn -0.67080000 -0.00000000 -0.74170000
vn -0.56600000 -0.00000000 -0.82440000
vn -0.56600000 -0.00000000 -0.82440000
vn -0.45100000 -0.00000000 -0.89250000
vn -0.45100000 -0.00000000 -0.89250000
vn -0.32800000 -0.00000000 -0.94470000
vn -0.32800000 -0.00000000 -0.94470000
vn -0.19920000 -0.00000000 -0.98000000
vn -0.19920000 -0.00000000 -0.98000000
vn -0.06680000 -0.00000000 -0.99780000
vn -0.06680000 -0.00000000 -0.99780000
vn 0.06680000 -0.00000000 -0.99780000
vn 0.06680000 -0.00000000 -0.99780000
vn 0.19920000 -0.00000000 -0.98000000
vn 0.19920000 -0.00000000 -0.98000000
vn 0.32800000 -0.00000000 -0.94470000
vn 0.32800000 -0.00000000 -0.94470000
vn 0.45100000 -0.00000000 -0.89250000
vn 0.45100000 -0.00000000 -0.89250000
vn 0.56600000 -0.00000000 -0.82440000
vn 0.56600000 -0.00000000 -0.82440000
vn 0.67080000 -0.00000000 -0.74170000
vn 0.67080000 -0.00000000 -0.74170000
vn 0.76370000 -0.00000000 -0.64560000
vn 0.76360000 -0.00000000 -0.64560000
vn 0.84290000 -0.00000000 -0.53810000
vn 0.84290000 -0.00000000 -0.53810000
vn 0.90710000 -0.00000000 -0.42090000
vn 0.90710000 -0.00000000 -0.42090000
vn 0.95510000 -0.00000000 -0.29630000
vn 0.95510000 -0.00000000 -0.29630000
vn 0.98610000 -0.00000000 -0.16630000
vn 0.98610000 -0.00000000 -0.16630000
vn 0.99940000 -0.00000000 -0.03340000
vn 0.99940000 -0.00000000 -0.03340000
vn 0.99500000 -0.00000000 0.10010000
vn 0.99500000 -0.00000000 0.10010000
vn 0.97280000 -0.00000000 0.23180000
vn 0.97280000 -0.00000000 0.23180000
vn 0.93320000 -0.00000000 0.35940000
vn 0.93320000 -0.00000000 0.35940000
vn 0.87690000 -0.00000000 0.48060000
vn 0.87700000 -0.00000000 0.48060000
vn 0.80510000 -0.00000000 0.59320000
vn 0.80510000 -0.00000000 0.59320000
vn 0.71880000 -0.00000000 0.69520000
vn 0.71880000 -0.00000000 0.69520000
vn 0.61970000 -0.00000000 0.78480000
vn 0.61970000 -0.00000000 0.78480000
vn 0.50960000 -0.00000000 0.86040000
vn 0.50960000 -0.00000000 0.86040000
vn 0.39040000 -0.00000000 0.92060000
vn 0.39040000 -0.00000000 0.92070000
vn 0.26420000 -0.00000000 0.96450000
vn 0.26420000 -0.00000000 0.96450000
vn 0.12530000 -0.00000000 0.99210000
vn 0.12530000 -0.00000000 0.99210000
vn -0.00000000 -0.00000000 1.00000000
vn -0.00000000 -0.00000000 1.00000000
vn -0.00000000 -0.00000000 1.00000000
vn -0.00000000 -0.00000000 1.00000000
vn -0.12530000 -0.00000000 0.99210000
vn -0.12530000 -0.00000000 0.99210000
vn -0.24870000 -0.00000000 0.96860000
vn 0.24870000 -0.00000000 0.96860000
vn 0.24870000 -0.00000000 0.96860000
vn 0.36810000 -0.00000000 0.92980000
vn 0.36810000 -0.00000000 0.92980000
vn 0.48180000 -0.00000000 0.87630000
vn 0.48170000 -0.00000000 0.87630000
vn 0.58780000 -0.00000000 0.80900000
vn 0.58780000 -0.00000000 0.80900000
vn 0.68450000 -0.00000000 0.72900000
vn 0.68450000 -0.00000000 0.72900000
vn 0.77050000 -0.00000000 0.63740000
vn 0.77050000 -0.00000000 0.63740000
vn 0.84430000 -0.00000000 0.53580000
vn 0.84430000 -0.00000000 0.53580000
vn 0.90480000 -0.00000000 0.42580000
vn 0.90480000 -0.00000000 0.42580000
vn 0.95110000 -0.00000000 0.30900000
vn 0.95110000 -0.00000000 0.30900000
vn 0.98230000 -0.00000000 0.18740000
vn 0.98230000 -0.00000000 0.18740000
vn 0.99800000 -0.00000000 0.06280000
vn 0.99800000 -0.00000000 0.06280000
vn 0.99800000 -0.00000000 -0.06280000
vn 0.99800000 -0.00000000 -0.06280000
vn 0.98230000 -0.00000000 -0.18740000
vn 0.98230000 -0.00000000 -0.18740000
vn 0.95110000 -0.00000000 -0.30900000
vn 0.95110000 -0.00000000 -0.30900000
vn 0.90480000 -0.00000000 -0.42580000
vn 0.90480000 -0.00000000 -0.42580000
vn 0.84430000 -0.00000000 -0.53580000
vn 0.84430000 -0.00000000 -0.53580000
vn 0.77050000 -0.00000000 -0.63740000
vn 0.77050000 -0.00000000 -0.63740000
vn 0.68450000 -0.00000000 -0.72900000
vn 0.68450000 -0.00000000 -0.72900000
vn 0.58780000 -0.00000000 -0.80900000
vn 0.58780000 -0.00000000 -0.80900000
vn 0.48170000 -0.00000000 -0.87630000
vn 0.48170000 -0.00000000 -0.87630000
vn 0.36810000 -0.00000000 -0.92980000
vn 0.36810000 -0.00000000 -0.92980000
vn 0.24870000 -0.00000000 -0.96860000
vn 0.24870000 -0.00000000 -0.96860000
vn 0.12530000 -0.00000000 -0.99210000
vn 0.12530000 -0.00000000 -0.99210000
vn -0.00000000 -0.00000000 -1.00000000
vn -0.00000000 -0.00000000 -1.00000000
vn -0.12530000 -0.00000000 -0.99210000
vn -0.12530000 -0.00000000 -0.99210000
vn -0.24870000 -0.00000000 -0.96860000
vn -0.24870000 -0.00000000 -0.96860000
vn -0.36810000 -0.00000000 -0.92980000
vn -0.36810000 -0.00000000 -0.92980000
vn -0.48170000 -0.00000000 -0.87630000
vn -0.48170000 -0.00000000 -0.87630000
vn -0.58780000 -0.00000000 -0.80900000
vn -0.58780000 -0.00000000 -0.80900000
vn -0.68450000 -0.00000000 -0.72900000
vn -0.68450000 -0.00000000 -0.72900000
vn -0.77050000 -0.00000000 -0.63740000
vn -0.77050000 -0.00000000 -0.63740000
vn -0.84430000 -0.00000000 -0.53580000
vn -0.84430000 -0.00000000 -0.53580000
vn -0.90480000 -0.00000000 -0.42580000
vn -0.90480000 -0.00000000 -0.42580000
vn -0.95110000 -0.00000000 -0.30900000
vn -0.95110000 -0.00000000 -0.30900000
vn -0.98230000 -0.00000000 -0.18740000
vn -0.98230000 -0.00000000 -0.18740000
vn -0.99800000 -0.00000000 -0.06280000
vn -0.99800000 -0.00000000 -0.06280000
vn -0.99800000 -0.00000000 0.06280000
vn -0.99800000 -0.00000000 0.06280000
vn -0.98230000 -0.00000000 0.18740000
vn -0.98230000 -0.00000000 0.18740000
vn -0.95110000 -0.00000000 0.30900000
vn -0.95110000 -0.00000000 0.30900000
vn -0.90480000 -0.00000000 0.42580000
vn -0.90480000 -0.00000000 0.42580000
vn -0.84430000 -0.00000000 0.53580000
vn -0.84430000 -0.00000000 0.53580000
vn -0.77050000 -0.00000000 0.63740000
vn -0.77050000 -0.00000000 0.63740000
vn -0.68450000 -0.00000000 0.72900000
vn -0.68450000 -0.00000000 0.72900000
vn -0.58780000 -0.00000000 0.80900000
vn -0.58780000 -0.00000000 0.80900000
vn -0.48170000 -0.00000000 0.87630000
vn -0.48180000 -0.00000000 0.87630000
vn -0.36810000 -0.00000000 0.92980000
vn -0.36810000 -0.00000000 0.92980000
vn -0.24870000 -0.00000000 0.96860000
vn -0.00000000 1.00000000 -0.00000000
vn -0.00000000 1.00000000 -0.00000000
vn -0.00000000 1.00000000 -0.00000000
vn -0.00000000 1.00000000 -0.00000000
vn -0.00000000 1.00000000 -0.00000000
vn -0.00000000 1.00000000 -0.00000000
vn -0.00000000 1.00000000 -0.00000000
vn -0.00000000 1.00000000 -0.00000000
vn -0.00000000 1.00000000 -0.00000000
vn -0.00000000 1.00000000 -0.00000000
vn -0.00000000 1.00000000 -0.00000000
vn -0.00000000 1.00000000 -0.00000000
vn -0.00000000 1.00000000 -0.00000000
vn -0.00000000 1.00000000 -0.00000000
vn -0.00000000 1.00000000 -0.00000000
vn -0.00000000 1.00000000 -0.00000000
vn -0.00000000 1.00000000 -0.00000000
vn -0.00000000 1.00000000 -0.00000000
vn -0.00000000 1.00000000 -0.00000000
vn -0.00000000 1.00000000 -0.00000000
vn -0.00000000 1.00000000 -0.00000000
vn -0.00000000 1.00000000 -0.00000000
vn -0.00000000 1.00000000 -0.00000000
vn -0.00000000 1.00000000 -0.00000000
vn -0.00000000 1.00000000 -0.00000000
vn -0.00000000 1.00000000 -0.00000000
vn -0.00000000 1.00000000 -0.00000000
vn -0.00000000 1.00000000 -0.00000000
vn -0.00000000 1.00000000 -0.00000000
vn -0.00000000 1.00000000 -0.00000000
vn -0.00000000 1.00000000 -0.00000000
vn -0.00000000 1.00000000 -0.00000000
vn -0.00000000 1.00000000 -0.00000000
vn -0.00000000 1.00000000 -0.00000000
vn -0.00000000 1.00000000 -0.00000000
vn -0.00000000 1.00000000 -0.00000000
vn -0.00000000 1.00000000 -0.00000000
vn -0.00000000 1.00000000 -0.00000000
vn -0.00000000 1.00000000 -0.00000000
vn -0.00000000 1.00000000 -0.00000000
vn -0.00000000 1.00000000 -0.00000000
vn -0.00000000 1.00000000 -0.00000000
vn -0.00000000 1.00000000 -0.00000000
vn -0.00000000 1.00000000 -0.00000000
vn -0.00000000 1.00000000 -0.00000000
vn -0.00000000 1.00000000 -0.00000000
vn -0.00000000 1.00000000 -0.00000000
vn -0.00000000 1.00000000 -0.00000000
vn -0.00000000 1.00000000 -0.00000000
vn -0.00000000 1.00000000 -0.00000000
vn -0.00000000 1.00000000 -0.00000000
vn -0.00000000 1.00000000 -0.00000000
vn -0.00000000 1.00000000 -0.00000000
vn -0.00000000 1.00000000 -0.00000000
vn -0.00000000 1.00000000 -0.00000000
vn -0.00000000 1.00000000 -0.00000000
vn -0.00000000 1.00000000 -0.00000000
vn -0.00000000 1.00000000 -0.00000000
vn -0.00000000 1.00000000 -0.00000000
vn -0.00000000 1.00000000 -0.00000000
vn -0.00000000 1.00000000 -0.00000000
vn -0.00000000 1.00000000 -0.00000000
vn -0.00000000 1.00000000 -0.00000000
vn -0.00000000 1.00000000 -0.00000000
vn -0.00000000 1.00000000 -0.00000000
vn -0.00000000 1.00000000 -0.00000000
vn -0.00000000 1.00000000 -0.00000000
vn -0.00000000 1.00000000 -0.00000000
vn -0.00000000 1.00000000 -0.00000000
vn -0.00000000 1.00000000 -0.00000000
vn -0.00000000 1.00000000 -0.00000000
vn -0.00000000 1.00000000 -0.00000000
vn -0.00000000 1.00000000 -0.00000000
vn -0.00000000 1.00000000 -0.00000000
vn -0.00000000 1.00000000 -0.00000000
vn -0.00000000 1.00000000 -0.00000000
vn -0.00000000 1.00000000 -0.00000000
vn -0.00000000 1.00000000 -0.00000000
vn -0.00000000 1.00000000 -0.00000000
vn -0.00000000 1.00000000 -0.00000000
vn -0.00000000 1.00000000 -0.00000000
vn -0.00000000 1.00000000 -0.00000000
vn -0.00000000 1.00000000 -0.00000000
vn -0.00000000 1.00000000 -0.00000000
vn -0.00000000 1.00000000 -0.00000000
vn -0.00000000 1.00000000 -0.00000000
vn -0.00000000 1.00000000 -0.00000000
vn -0.00000000 1.00000000 -0.00000000
vn -0.00000000 1.00000000 -0.00000000
vn -0.00000000 1.00000000 -0.00000000
vn -0.00000000 1.00000000 -0.00000000
vn -0.00000000 1.00000000 -0.00000000
vn -0.00000000 1.00000000 -0.00000000
vn -0.00000000 1.00000000 -0.00000000
vn -0.00000000 1.00000000 -0.00000000
vn -0.00000000 1.00000000 -0.00000000
vn -0.00000000 1.00000000 -0.00000000
f 1//1 3//3 4//4
f 4//4 3//3 5//5
f 4//4 5//5 6//6
f 3//3 1//1 8//8
f 7//7 2//2 10//10
f 8//8 9//9 11//11
f 11//11 9//9 12//12
f 11//11 12//12 13//13
f 13//13 12//12 14//14
f 13//13 14//14 15//15
f 15//15 14//14 16//16
f 15//15 16//16 18//18
f 19//19 17//17 21//21
f 18//18 20//20 25//25
f 24//24 22//22 26//26
f 23//23 28//28 30//30
f 29//29 27//27 31//31
f 29//29 31//31 32//32
f 32//32 31//31 33//33
f 32//32 33//33 34//34
f 34//34 33//33 35//35
f 34//34 35//35 36//36
f 36//36 35//35 37//37
f 36//36 37//37 38//38
f 38//38 37//37 39//39
f 38//38 39//39 40//40
f 40//40 39//39 41//41
f 40//40 41//41 42//42
f 42//42 41//41 43//43
f 43//43 41//41 44//44
f 43//43 44//44 45//45
f 45//45 44//44 46//46
f 45//45 46//46 47//47
f 47//47 46//46 48//48
f 47//47 48//48 50//50
f 50//50 48//48 52//52
f 49//49 51//51 53//53
f 54//54 52//52 57//57
f 55//55 58//58 59//59
f 60//60 56//56 62//62
f 61//61 64//64 66//66
f 65//65 63//63 67//67
f 66//66 68//68 69//69
f 69//69 68//68 70//70
f 69//69 70//70 71//71
f 71//71 70//70 72//72
f 71//71 72//72 73//73
f 73//73 72//72 74//74
f 73//73 74//74 76//76
f 77//77 75//75 78//78
f 76//76 79//79 80//80
f 80//80 79//79 81//81
f 80//80 81//81 82//82
f 82//82 81//81 83//83
f 83//83 81//81 84//84
f 84//84 81//81 85//85
f 84//84 85//85 86//86
f 86//86 85//85 87//87
f 86//86 87//87 88//88
f 88//88 87//87 89//89
f 88//88 89//89 90//90
f 90//90 89//89 91//91
f 90//90 91//91 92//92
f 92//92 91//91 93//93
f 92//92 93//93 94//94
f 94//94 93//93 96//96
f 94//94 96//96 98//98
f 97//97 95//95 99//99
f 98//98 100//100 101//101
f 101//101 100//100 102//102
f 101//101 102//102 103//103
f 103//103 102//102 104//104
f 103//103 104//104 105//105
f 105//105 104//104 106//106
f 105//105 106//106 107//107
f 107//107 106//106 108//108
f 107//107 108//108 109//109
f 109//109 108//108 110//110
f 109//109 110//110 111//111
f 111//111 110//110 112//112
f 111//111 112//112 113//113
f 113//113 112//112 114//114
f 114//114 112//112 115//115
f 114//114 115//115 116//116
f 116//116 115//115 117//117
f 116//116 117//117 118//118
f 118//118 117//117 119//119
f 118//118 119//119 120//120
f 120//120 119//119 123//123
f 121//121 122//122 125//125
f 124//124 123//123 126//126
f 124//124 126//126 128//128
f 129//129 127//127 130//130
f 128//128 131//131 132//132
f 132//132 131//131 133//133
f 132//132 133//133 134//134
f 134//134 133//133 135//135
f 134//134 135//135 136//136
f 136//136 135//135 138//138
f 137//137 139//139 141//141
f 140//140 138//138 142//142
f 140//140 142//142 143//143
f 143//143 142//142 144//144
f 143//143 144//144 145//145
f 145//145 144//144 4//4
f 145//145 4//4 6//6
f 146//146 147//147 148//148
f 148//148 147//147 149//149
f 150//150 151//151 152//152
f 152//152 151//151 153//153
f 152//152 153//153 154//154
f 154//154 153//153 155//155
f 154//154 155//155 156//156
f 156//156 155//155 157//157
f 156//156 157//157 158//158
f 158//158 157//157 159//159
f 158//158 159//159 160//160
f 160//160 159//159 161//161
f 160//160 161//161 162//162
f 162//162 161//161 163//163
f 162//162 163//163 164//164
f 164//164 163//163 165//165
f 164//164 165//165 166//166
f 166//166 165//165 167//167
f 166//166 167//167 168//168
f 168//168 167//167 169//169
f 168//168 169//169 170//170
f 170//170 169//169 171//171
f 170//170 171//171 172//172
f 172//172 171//171 173//173
f 172//172 173//173 174//174
f 174//174 173//173 175//175
f 174//174 175//175 176//176
f 176//176 175//175 177//177
f 176//176 177//177 178//178
f 178//178 177//177 179//179
f 178//178 179//179 180//180
f 180//180 179//179 181//181
f 180//180 181//181 182//182
f 182//182 181//181 183//183
f 182//182 183//183 184//184
f 184//184 183//183 185//185
f 184//184 185//185 186//186
f 186//186 185//185 187//187
f 186//186 187//187 188//188
f 188//188 187//187 189//189
f 188//188 189//189 190//190
f 190//190 189//189 191//191
f 190//190 191//191 192//192
f 192//192 191//191 193//193
f 192//192 193//193 194//194
f 194//194 193//193 195//195
f 194//194 195//195 196//196
f 196//196 195//195 197//197
f 196//196 197//197 198//198
f 198//198 197//197 199//199
f 198//198 199//199 200//200
f 200//200 199//199 201//201
f 200//200 201//201 202//202
f 202//202 201//201 203//203
f 202//202 203//203 204//204
f 204//204 203//203 205//205
f 204//204 205//205 206//206
f 206//206 205//205 207//207
f 206//206 207//207 208//208
f 208//208 207//207 209//209
f 208//208 209//209 210//210
f 210//210 209//209 211//211
f 210//210 211//211 212//212
f 212//212 211//211 213//213
f 212//212 213//213 214//214
f 214//214 213//213 215//215
f 214//214 215//215 216//216
f 216//216 215//215 217//217
f 216//216 217//217 218//218
f 218//218 217//217 219//219
f 218//218 219//219 220//220
f 220//220 219//219 221//221
f 220//220 221//221 222//222
f 222//222 221//221 223//223
f 222//222 223//223 224//224
f 224//224 223//223 225//225
f 224//224 225//225 226//226
f 226//226 225//225 227//227
f 226//226 227//227 228//228
f 228//228 227//227 229//229
f 228//228 229//229 230//230
f 230//230 229//229 231//231
f 230//230 231//231 232//232
f 232//232 231//231 233//233
f 232//232 233//233 234//234
f 234//234 233//233 235//235
f 234//234 235//235 236//236
f 236//236 235//235 237//237
f 236//236 237//237 238//238
f 238//238 237//237 239//239
f 238//238 239//239 240//240
f 240//240 239//239 241//241
f 240//240 241//241 146//146
f 146//146 241//241 147//147
f 242//242 243//243 244//244
f 244//244 243//243 245//245
f 246//246 247//247 248//248
f 248//248 247//247 249//249
f 248//248 249//249 250//250
f 242//242 251//251 243//243
f 243//243 251//251 252//252
f 252//252 251//251 253//253
f 252//252 253//253 254//254
f 254//254 253//253 255//255
f 254//254 255//255 256//256
f 256//256 255//255 257//257
f 256//256 257//257 258//258
f 258//258 257//257 259//259
f 258//258 259//259 260//260
f 260//260 259//259 261//261
f 260//260 261//261 262//262
f 262//262 261//261 263//263
f 262//262 263//263 264//264
f 264//264 263//263 265//265
f 264//264 265//265 266//266
f 266//266 265//265 267//267
f 266//266 267//267 268//268
f 268//268 267//267 269//269
f 268//268 269//269 270//270
f 270//270 269//269 271//271
f 270//270 271//271 272//272
f 272//272 271//271 273//273
f 272//272 273//273 274//274
f 274//274 273//273 275//275
f 274//274 275//275 276//276
f 276//276 275//275 277//277
f 276//276 277//277 278//278
f 278//278 277//277 279//279
f 278//278 279//279 280//280
f 280//280 279//279 281//281
f 280//280 281//281 282//282
f 282//282 281//281 283//283
f 282//282 283//283 284//284
f 284//284 283//283 285//285
f 284//284 285//285 286//286
f 286//286 285//285 287//287
f 286//286 287//287 288//288
f 288//288 287//287 289//289
f 288//288 289//289 290//290
f 290//290 289//289 291//291
f 290//290 291//291 292//292
f 292//292 291//291 293//293
f 292//292 293//293 294//294
f 294//294 293//293 295//295
f 294//294 295//295 296//296
f 296//296 295//295 297//297
f 296//296 297//297 298//298
f 298//298 297//297 299//299
f 298//298 299//299 300//300
f 300//300 299//299 301//301
f 300//300 301//301 302//302
f 302//302 301//301 303//303
f 302//302 303//303 304//304
f 304//304 303//303 305//305
f 304//304 305//305 306//306
f 306//306 305//305 307//307
f 306//306 307//307 308//308
f 308//308 307//307 309//309
f 308//308 309//309 310//310
f 310//310 309//309 311//311
f 310//310 311//311 312//312
f 312//312 311//311 313//313
f 312//312 313//313 314//314
f 314//314 313//313 315//315
f 314//314 315//315 316//316
f 316//316 315//315 317//317
f 316//316 317//317 318//318
f 318//318 317//317 319//319
f 318//318 319//319 320//320
f 320//320 319//319 321//321
f 320//320 321//321 322//322
f 322//322 321//321 323//323
f 322//322 323//323 324//324
f 324//324 323//323 325//325
f 324//324 325//325 326//326
f 326//326 325//325 327//327
f 326//326 327//327 328//328
f 328//328 327//327 329//329
f 328//328 329//329 330//330
f 330//330 329//329 331//331
f 330//330 331//331 332//332
f 332//332 331//331 333//333
f 332//332 333//333 334//334
f 334//334 333//333 335//335
f 334//334 335//335 336//336
f 336//336 335//335 337//337
f 336//336 337//337 338//338
f 338//338 337//337 339//339
f 338//338 339//339 340//340
f 340//340 339//339 341//341
f 340//340 341//341 342//342
f 342//342 341//341 343//343
f 342//342 343//343 250//250
f 250//250 343//343 248//248
f 344//344 345//345 346//346
f 346//346 345//345 347//347
f 346//346 347//347 348//348
f 348//348 347//347 349//349
f 348//348 349//349 350//350
f 350//350 349//349 351//351
f 350//350 351//351 352//352
f 352//352 351//351 353//353
f 352//352 353//353 354//354
f 354//354 353//353 355//355
f 354//354 355//355 356//356
f 356//356 355//355 357//357
f 356//356 357//357 358//358
f 358//358 357//357 359//359
f 358//358 359//359 360//360
f 360//360 359//359 361//361
f 360//360 361//361 362//362
f 362//362 361//361 363//363
f 363//363 361//361 364//364
f 363//363 364//364 365//365
f 365//365 364//364 366//366
f 365//365 366//366 367//367
f 367//367 366//366 368//368
f 367//367 368//368 369//369
f 369//369 368//368 370//370
f 369//369 370//370 371//371
f 371//371 370//370 372//372
f 371//371 372//372 373//373
f 373//373 372//372 374//374
f 373//373 374//374 375//375
f 375//375 374//374 376//376
f 375//375 376//376 377//377
f 377//377 376//376 378//378
f 377//377 378//378 379//379
f 379//379 378//378 380//380
f 379//379 380//380 381//381
f 381//381 380//380 382//382
f 381//381 382//382 383//383
f 383//383 382//382 384//384
f 383//383 384//384 385//385
f 385//385 384//384 386//386
f 385//385 386//386 387//387
f 387//387 386//386 388//388
f 387//387 388//388 389//389
f 389//389 388//388 390//390
f 389//389 390//390 391//391
f 391//391 390//390 392//392
f 391//391 392//392 393//393
f 393//393 392//392 394//394
f 393//393 394//394 395//395
f 395//395 394//394 396//396
f 396//396 394//394 397//397
f 396//396 397//397 398//398
f 398//398 397//397 399//399
f 398//398 399//399 400//400
f 400//400 399//399 401//401
f 400//400 401//401 402//402
f 402//402 401//401 403//403
f 402//402 403//403 404//404
f 404//404 403//403 405//405
f 404//404 405//405 406//406
f 406//406 405//405 407//407
f 406//406 407//407 408//408
f 408//408 407//407 409//409
f 408//408 409//409 410//410
f 410//410 409//409 411//411
f 410//410 411//411 412//412
f 412//412 411//411 413//413
f 412//412 413//413 414//414
f 414//414 413//413 415//415
f 414//414 415//415 416//416
f 416//416 415//415 417//417
f 416//416 417//417 418//418
f 418//418 417//417 419//419
f 418//418 419//419 420//420
f 420//420 419//419 421//421
f 420//420 421//421 422//422
f 422//422 421//421 423//423
f 422//422 423//423 424//424
f 424//424 423//423 425//425
f 424//424 425//425 426//426
f 426//426 425//425 427//427
f 426//426 427//427 428//428
f 428//428 427//427 429//429
f 429//429 427//427 430//430
f 429//429 430//430 431//431
f 431//431 430//430 432//432
f 431//431 432//432 433//433
f 433//433 432//432 434//434
f 433//433 434//434 435//435
f 435//435 434//434 436//436
f 435//435 436//436 437//437
f 437//437 436//436 438//438
f 437//437 438//438 439//439
f 439//439 438//438 440//440
f 439//439 440//440 344//344
f 344//344 440//440 345//345