mtllib material.mtl
usemtl material_0
v 0.03231600 -0.09805600 0.31080000
v 0.03231600 -0.09805600 0.29980000
v 0.03250000 -0.09460200 0.31080000
v 0.03250000 -0.09460200 0.29980000
v 0.03250000 -0.09460200 0.31080000
v 0.03250000 -0.09460200 0.29980000
v 0.03231600 -0.09114700 0.31080000
v 0.03231600 -0.09114700 0.29980000
v 0.03176600 -0.08773200 0.31080000
v 0.03176600 -0.08773200 0.29980000
v 0.03085500 -0.08439400 0.31080000
v 0.03085500 -0.08439400 0.29980000
v 0.02959600 -0.08117200 0.31080000
v 0.02959600 -0.08117200 0.29980000
v 0.02800000 -0.07810300 0.31080000
v 0.02800000 -0.07810300 0.29980000
v 0.02608800 -0.07522000 0.31080000
v 0.02608800 -0.07522000 0.29980000
v 0.02388000 -0.07255700 0.31080000
v 0.02388000 -0.07255700 0.29980000
v 0.02140200 -0.07014300 0.31080000
v 0.02140200 -0.07014300 0.29980000
v 0.01868100 -0.06800700 0.31080000
v 0.01868100 -0.06800700 0.29980000
v 0.01574800 -0.06617200 0.31080000
v 0.01574800 -0.06617200 0.29980000
v 0.01263700 -0.06465900 0.31080000
v 0.01263700 -0.06465900 0.29980000
v 0.00938200 -0.06348600 0.31080000
v 0.00938200 -0.06348600 0.29980000
v 0.00602200 -0.06266500 0.31080000
v 0.00602200 -0.06266500 0.29980000
v 0.00259300 -0.06220500 0.31080000
v 0.00259300 -0.06220500 0.29980000
v -0.00086500 -0.06211300 0.31080000
v -0.00086500 -0.06211300 0.29980000
v -0.00431400 -0.06238900 0.31080000
v -0.00431400 -0.06238900 0.29980000
v -0.00771300 -0.06303000 0.31080000
v -0.00771300 -0.06303000 0.29980000
v -0.01102500 -0.06402900 0.31080000
v -0.01102500 -0.06402900 0.29980000
v -0.01421300 -0.06537400 0.31080000
v -0.01421300 -0.06537400 0.29980000
v -0.01723900 -0.06705000 0.31080000
v -0.01723900 -0.06705000 0.29980000
v -0.02007000 -0.06903900 0.31080000
v -0.02007000 -0.06903900 0.29980000
v -0.02267300 -0.07131700 0.31080000
v -0.02267300 -0.07131700 0.29980000
v -0.02502000 -0.07385900 0.31080000
v -0.02502000 -0.07385900 0.29980000
v -0.02708300 -0.07663600 0.31080000
v -0.02708300 -0.07663600 0.29980000
v -0.02883900 -0.07961600 0.31080000
v -0.02883900 -0.07961600 0.29980000
v -0.03026800 -0.08276700 0.31080000
v -0.03026800 -0.08276700 0.29980000
v -0.03135500 -0.08605100 0.31080000
v -0.03135500 -0.08605100 0.29980000
v -0.03208600 -0.08943200 0.31080000
v -0.03208600 -0.08943200 0.29980000
v -0.03245400 -0.09287200 0.31080000
v -0.03245400 -0.09287200 0.29980000
v -0.03245400 -0.09633200 0.31080000
v -0.03245400 -0.09633200 0.29980000
v -0.03208600 -0.09977100 0.31080000
v -0.03208600 -0.09977100 0.29980000
v -0.03135500 -0.10315300 0.31080000
v -0.03135500 -0.10315300 0.29980000
v -0.03026800 -0.10643700 0.31080000
v -0.03026800 -0.10643700 0.29980000
v -0.02883900 -0.10958700 0.31080000
v -0.02883900 -0.10958700 0.29980000
v -0.02708300 -0.11256800 0.31080000
v -0.02708300 -0.11256800 0.29980000
v -0.02502000 -0.11534500 0.31080000
v -0.02502000 -0.11534500 0.29980000
v -0.02267300 -0.11788700 0.31080000
v -0.02267300 -0.11788700 0.29980000
v -0.02007000 -0.12016500 0.31080000
v -0.02007000 -0.12016500 0.29980000
v -0.01723900 -0.12215300 0.31080000
v -0.01723900 -0.12215300 0.29980000
v -0.01421300 -0.12382900 0.31080000
v -0.01421300 -0.12382900 0.29980000
v -0.01102500 -0.12517500 0.31080000
v -0.01102500 -0.12517500 0.29980000
v -0.00771300 -0.12617300 0.31080000
v -0.00771300 -0.12617300 0.29980000
v -0.00431400 -0.12681400 0.31080000
v -0.00431400 -0.12681400 0.29980000
v -0.00086500 -0.12709000 0.31080000
v -0.00086500 -0.12709000 0.29980000
v 0.00259300 -0.12699800 0.31080000
v 0.00259300 -0.12699800 0.29980000
v 0.00602200 -0.12653900 0.31080000
v 0.00602200 -0.12653900 0.29980000
v 0.00938200 -0.12571800 0.31080000
v 0.00938200 -0.12571800 0.29980000
v 0.01263700 -0.12454400 0.31080000
v 0.01263700 -0.12454400 0.29980000
v 0.01574800 -0.12303200 0.31080000
v 0.01574800 -0.12303200 0.29980000
v 0.01868100 -0.12119700 0.31080000
v 0.01868100 -0.12119700 0.29980000
v 0.02140200 -0.11906000 0.31080000
v 0.02140200 -0.11906000 0.29980000
v 0.02388000 -0.11664700 0.31080000
v 0.02388000 -0.11664700 0.29980000
v 0.02608800 -0.11398400 0.31080000
v 0.02608800 -0.11398400 0.29980000
v 0.02800000 -0.11110100 0.31080000
v 0.02800000 -0.11110100 0.29980000
v 0.02959600 -0.10803100 0.31080000
v 0.02959600 -0.10803100 0.29980000
v 0.03085500 -0.10480900 0.31080000
v 0.03085500 -0.10480900 0.29980000
v 0.03176600 -0.10147200 0.31080000
v 0.03176600 -0.10147200 0.29980000
v 0.03250000 -0.09460200 0.29980000
v 0.03231600 -0.09805600 0.29980000
v 0.03231600 -0.09114700 0.29980000
v 0.03176600 -0.08773200 0.29980000
v 0.03085500 -0.08439400 0.29980000
v 0.02959600 -0.08117200 0.29980000
v 0.02800000 -0.07810300 0.29980000
v 0.02608800 -0.07522000 0.29980000
v 0.02388000 -0.07255700 0.29980000
v 0.02140200 -0.07014300 0.29980000
v 0.01868100 -0.06800700 0.29980000
v 0.01574800 -0.06617200 0.29980000
v 0.01263700 -0.06465900 0.29980000
v 0.00938200 -0.06348600 0.29980000
v 0.00602200 -0.06266500 0.29980000
v 0.00259300 -0.06220500 0.29980000
v -0.00086500 -0.06211300 0.29980000
v -0.00431400 -0.06238900 0.29980000
v -0.00771300 -0.06303000 0.29980000
v -0.01102500 -0.06402900 0.29980000
v -0.01421300 -0.06537400 0.29980000
v -0.01723900 -0.06705000 0.29980000
v -0.02007000 -0.06903900 0.29980000
v -0.02267300 -0.07131700 0.29980000
v -0.02502000 -0.07385900 0.29980000
v -0.02708300 -0.07663600 0.29980000
v -0.02883900 -0.07961600 0.29980000
v -0.03026800 -0.08276700 0.29980000
v -0.03135500 -0.08605100 0.29980000
v -0.03208600 -0.08943200 0.29980000
v -0.03245400 -0.09287200 0.29980000
v -0.03245400 -0.09633200 0.29980000
v -0.03208600 -0.09977100 0.29980000
v 0.03176600 -0.10147200 0.29980000
v -0.03135500 -0.10315300 0.29980000
v 0.03085500 -0.10480900 0.29980000
v -0.03026800 -0.10643700 0.29980000
v 0.02959600 -0.10803100 0.29980000
v -0.02883900 -0.10958700 0.29980000
v 0.02800000 -0.11110100 0.29980000
v -0.02708300 -0.11256800 0.29980000
v 0.02608800 -0.11398400 0.29980000
v -0.02502000 -0.11534500 0.29980000
v 0.02388000 -0.11664700 0.29980000
v -0.02267300 -0.11788700 0.29980000
v 0.02140200 -0.11906000 0.29980000
v -0.02007000 -0.12016500 0.29980000
v 0.01868100 -0.12119700 0.29980000
v -0.01723900 -0.12215300 0.29980000
v 0.01574800 -0.12303200 0.29980000
v -0.01421300 -0.12382900 0.29980000
v 0.01263700 -0.12454400 0.29980000
v -0.01102500 -0.12517500 0.29980000
v 0.00938200 -0.12571800 0.29980000
v -0.00771300 -0.12617300 0.29980000
v 0.00602200 -0.12653900 0.29980000
v -0.00431400 -0.12681400 0.29980000
v 0.00259300 -0.12699800 0.29980000
v -0.00086500 -0.12709000 0.29980000
v 0.03250000 -0.09460200 0.31080000
v 0.03231600 -0.09114700 0.31080000
v 0.03231600 -0.09114700 0.31080000
v 0.03231600 -0.09805600 0.31080000
v 0.03231600 -0.09805600 0.31080000
v 0.03231600 -0.09805600 0.31080000
v 0.03176600 -0.08773200 0.31080000
v 0.03176600 -0.08773200 0.31080000
v 0.03085500 -0.08439400 0.31080000
v 0.03085500 -0.08439400 0.31080000
v 0.02959600 -0.08117200 0.31080000
v 0.02800000 -0.07810300 0.31080000
v 0.02608800 -0.07522000 0.31080000
v 0.02608800 -0.07522000 0.31080000
v 0.02388000 -0.07255700 0.31080000
v 0.02388000 -0.07255700 0.31080000
v 0.02140200 -0.07014300 0.31080000
v 0.01868100 -0.06800700 0.31080000
v 0.01574800 -0.06617200 0.31080000
v 0.01263700 -0.06465900 0.31080000
v 0.00938200 -0.06348600 0.31080000
v 0.00602200 -0.06266500 0.31080000
v 0.00259300 -0.06220500 0.31080000
v -0.00086500 -0.06211300 0.31080000
v -0.00431400 -0.06238900 0.31080000
v -0.00771300 -0.06303000 0.31080000
v -0.01102500 -0.06402900 0.31080000
v -0.01421300 -0.06537400 0.31080000
v -0.01723900 -0.06705000 0.31080000
v -0.02007000 -0.06903900 0.31080000
v -0.02267300 -0.07131700 0.31080000
v -0.02502000 -0.07385900 0.31080000
v -0.02708300 -0.07663600 0.31080000
v -0.02883900 -0.07961600 0.31080000
v -0.03026800 -0.08276700 0.31080000
v -0.03135500 -0.08605100 0.31080000
v -0.03208600 -0.08943200 0.31080000
v -0.03245400 -0.09287200 0.31080000
v -0.03245400 -0.09633200 0.31080000
v -0.03208600 -0.09977100 0.31080000
v 0.03176600 -0.10147200 0.31080000
v -0.03135500 -0.10315300 0.31080000
v 0.03085500 -0.10480900 0.31080000
v -0.03026800 -0.10643700 0.31080000
v 0.02959600 -0.10803100 0.31080000
v -0.02883900 -0.10958700 0.31080000
v 0.02800000 -0.11110100 0.31080000
v -0.02708300 -0.11256800 0.31080000
v 0.02608800 -0.11398400 0.31080000
v -0.02502000 -0.11534500 0.31080000
v 0.02388000 -0.11664700 0.31080000
v -0.02267300 -0.11788700 0.31080000
v 0.02140200 -0.11906000 0.31080000
v -0.02007000 -0.12016500 0.31080000
v 0.01868100 -0.12119700 0.31080000
v -0.01723900 -0.12215300 0.31080000
v 0.01574800 -0.12303200 0.31080000
v -0.01421300 -0.12382900 0.31080000
v 0.01263700 -0.12454400 0.31080000
v -0.01102500 -0.12517500 0.31080000
v 0.00938200 -0.12571800 0.31080000
v -0.00771300 -0.12617300 0.31080000
v 0.00602200 -0.12653900 0.31080000
v -0.00431400 -0.12681400 0.31080000
v 0.00259300 -0.12699800 0.31080000
v -0.00086500 -0.12709000 0.31080000
vn 0.99430000 -0.10630000 -0.00000000
vn 0.99430000 -0.10630000 -0.00000000
vn 1.00000000 -0.00000000 -0.00000000
vn 1.00000000 -0.00000000 -0.00000000
vn 1.00000000 -0.00000000 -0.00000000
vn 1.00000000 -0.00000000 -0.00000000
vn 0.99430000 0.10630000 -0.00000000
vn 0.99430000 0.10630000 -0.00000000
vn 0.97740000 0.21140000 -0.00000000
vn 0.97740000 0.21140000 -0.00000000
vn 0.94940000 0.31410000 -0.00000000
vn 0.94940000 0.31410000 -0.00000000
vn 0.91060000 0.41320000 -0.00000000
vn 0.91060000 0.41320000 -0.00000000
vn 0.86160000 0.50770000 -0.00000000
vn 0.86160000 0.50770000 -0.00000000
vn 0.80270000 0.59640000 -0.00000000
vn 0.80270000 0.59640000 -0.00000000
vn 0.73480000 0.67830000 -0.00000000
vn 0.73480000 0.67830000 -0.00000000
vn 0.65850000 0.75260000 -0.00000000
vn 0.65850000 0.75260000 -0.00000000
vn 0.57480000 0.81830000 -0.00000000
vn 0.57480000 0.81830000 -0.00000000
vn 0.48450000 0.87480000 -0.00000000
vn 0.48460000 0.87480000 -0.00000000
vn 0.38880000 0.92130000 -0.00000000
vn 0.38880000 0.92130000 -0.00000000
vn 0.28870000 0.95740000 -0.00000000
vn 0.28870000 0.95740000 -0.00000000
vn 0.18530000 0.98270000 -0.00000000
vn 0.18530000 0.98270000 -0.00000000
vn 0.07980000 0.99680000 -0.00000000
vn 0.07980000 0.99680000 -0.00000000
vn -0.02660000 0.99960000 -0.00000000
vn -0.02660000 0.99960000 -0.00000000
vn -0.13270000 0.99120000 -0.00000000
vn -0.13270000 0.99120000 -0.00000000
vn -0.23730000 0.97140000 -0.00000000
vn -0.23730000 0.97140000 -0.00000000
vn -0.33920000 0.94070000 -0.00000000
vn -0.33920000 0.94070000 -0.00000000
vn -0.43730000 0.89930000 -0.00000000
vn -0.43730000 0.89930000 -0.00000000
vn -0.53040000 0.84770000 -0.00000000
vn -0.53040000 0.84770000 -0.00000000
vn -0.61750000 0.78650000 -0.00000000
vn -0.61750000 0.78650000 -0.00000000
vn -0.69760000 0.71650000 -0.00000000
vn -0.69760000 0.71650000 -0.00000000
vn -0.76980000 0.63820000 -0.00000000
vn -0.76980000 0.63820000 -0.00000000
vn -0.83330000 0.55280000 -0.00000000
vn -0.83330000 0.55280000 -0.00000000
vn -0.88740000 0.46110000 -0.00000000
vn -0.88730000 0.46110000 -0.00000000
vn -0.93130000 0.36420000 -0.00000000
vn -0.93130000 0.36420000 -0.00000000
vn -0.96480000 0.26310000 -0.00000000
vn -0.96480000 0.26310000 -0.00000000
vn -0.98730000 0.15910000 -0.00000000
vn -0.98730000 0.15910000 -0.00000000
vn -0.99860000 0.05320000 -0.00000000
vn -0.99860000 0.05320000 -0.00000000
vn -0.99860000 -0.05320000 -0.00000000
vn -0.99860000 -0.05320000 -0.00000000
vn -0.98730000 -0.15910000 -0.00000000
vn -0.98730000 -0.15910000 -0.00000000
vn -0.96480000 -0.26310000 -0.00000000
vn -0.96480000 -0.26310000 -0.00000000
vn -0.93130000 -0.36420000 -0.00000000
vn -0.93130000 -0.36420000 -0.00000000
vn -0.88740000 -0.46110000 -0.00000000
vn -0.88740000 -0.46110000 -0.00000000
vn -0.83330000 -0.55280000 -0.00000000
vn -0.83330000 -0.55280000 -0.00000000
vn -0.76980000 -0.63820000 -0.00000000
vn -0.76980000 -0.63820000 -0.00000000
vn -0.69760000 -0.71650000 -0.00000000
vn -0.69760000 -0.71650000 -0.00000000
vn -0.61750000 -0.78660000 -0.00000000
vn -0.61750000 -0.78660000 -0.00000000
vn -0.53040000 -0.84770000 -0.00000000
vn -0.53040000 -0.84770000 -0.00000000
vn -0.43730000 -0.89930000 -0.00000000
vn -0.43730000 -0.89930000 -0.00000000
vn -0.33920000 -0.94070000 -0.00000000
vn -0.33920000 -0.94070000 -0.00000000
vn -0.23730000 -0.97140000 -0.00000000
vn -0.23730000 -0.97140000 -0.00000000
vn -0.13270000 -0.99120000 -0.00000000
vn -0.13270000 -0.99120000 -0.00000000
vn -0.02660000 -0.99960000 -0.00000000
vn -0.02660000 -0.99960000 -0.00000000
vn 0.07980000 -0.99680000 -0.00000000
vn 0.07980000 -0.99680000 -0.00000000
vn 0.18530000 -0.98270000 -0.00000000
vn 0.18530000 -0.98270000 -0.00000000
vn 0.28870000 -0.95740000 -0.00000000
vn 0.28870000 -0.95740000 -0.00000000
vn 0.38880000 -0.92130000 -0.00000000
vn 0.38880000 -0.92130000 -0.00000000
vn 0.48460000 -0.87480000 -0.00000000
vn 0.48460000 -0.87480000 -0.00000000
vn 0.57480000 -0.81830000 -0.00000000
vn 0.57480000 -0.81830000 -0.00000000
vn 0.65850000 -0.75260000 -0.00000000
vn 0.65850000 -0.75260000 -0.00000000
vn 0.73480000 -0.67830000 -0.00000000
vn 0.73480000 -0.67830000 -0.00000000
vn 0.80270000 -0.59640000 -0.00000000
vn 0.80270000 -0.59640000 -0.00000000
vn 0.86160000 -0.50770000 -0.00000000
vn 0.86160000 -0.50770000 -0.00000000
vn 0.91060000 -0.41320000 -0.00000000
vn 0.91060000 -0.41320000 -0.00000000
vn 0.94940000 -0.31410000 -0.00000000
vn 0.94940000 -0.31410000 -0.00000000
vn 0.97740000 -0.21140000 -0.00000000
vn 0.97740000 -0.21140000 -0.00000000
vn -0.00000000 -0.00000000 -1.00000000
vn -0.00000000 -0.00000000 -1.00000000
vn -0.00000000 -0.00000000 -1.00000000
vn -0.00000000 -0.00000000 -1.00000000
vn -0.00000000 -0.00000000 -1.00000000
vn -0.00000000 -0.00000000 -1.00000000
vn -0.00000000 -0.00000000 -1.00000000
vn -0.00000000 -0.00000000 -1.00000000
vn -0.00000000 -0.00000000 -1.00000000
vn -0.00000000 -0.00000000 -1.00000000
vn -0.00000000 -0.00000000 -1.00000000
vn -0.00000000 -0.00000000 -1.00000000
vn -0.00000000 -0.00000000 -1.00000000
vn -0.00000000 -0.00000000 -1.00000000
vn -0.00000000 -0.00000000 -1.00000000
vn -0.00000000 -0.00000000 -1.00000000
vn -0.00000000 -0.00000000 -1.00000000
vn -0.00000000 -0.00000000 -1.00000000
vn -0.00000000 -0.00000000 -1.00000000
vn -0.00000000 -0.00000000 -1.00000000
vn -0.00000000 -0.00000000 -1.00000000
vn -0.00000000 -0.00000000 -1.00000000
vn -0.00000000 -0.00000000 -1.00000000
vn -0.00000000 -0.00000000 -1.00000000
vn -0.00000000 -0.00000000 -1.00000000
vn -0.00000000 -0.00000000 -1.00000000
vn -0.00000000 -0.00000000 -1.00000000
vn -0.00000000 -0.00000000 -1.00000000
vn -0.00000000 -0.00000000 -1.00000000
vn -0.00000000 -0.00000000 -1.00000000
vn -0.00000000 -0.00000000 -1.00000000
vn -0.00000000 -0.00000000 -1.00000000
vn -0.00000000 -0.00000000 -1.00000000
vn -0.00000000 -0.00000000 -1.00000000
vn -0.00000000 -0.00000000 -1.00000000
vn -0.00000000 -0.00000000 -1.00000000
vn -0.00000000 -0.00000000 -1.00000000
vn -0.00000000 -0.00000000 -1.00000000
vn -0.00000000 -0.00000000 -1.00000000
vn -0.00000000 -0.00000000 -1.00000000
vn -0.00000000 -0.00000000 -1.00000000
vn -0.00000000 -0.00000000 -1.00000000
vn -0.00000000 -0.00000000 -1.00000000
vn -0.00000000 -0.00000000 -1.00000000
vn -0.00000000 -0.00000000 -1.00000000
vn -0.00000000 -0.00000000 -1.00000000
vn -0.00000000 -0.00000000 -1.00000000
vn -0.00000000 -0.00000000 -1.00000000
vn -0.00000000 -0.00000000 -1.00000000
vn -0.00000000 -0.00000000 -1.00000000
vn -0.00000000 -0.00000000 -1.00000000
vn -0.00000000 -0.00000000 -1.00000000
vn -0.00000000 -0.00000000 -1.00000000
vn -0.00000000 -0.00000000 -1.00000000
vn -0.00000000 -0.00000000 -1.00000000
vn -0.00000000 -0.00000000 -1.00000000
vn -0.00000000 -0.00000000 -1.00000000
vn -0.00000000 -0.00000000 -1.00000000
vn -0.00000000 -0.00000000 -1.00000000
vn -0.00000000 -0.00000000 1.00000000
vn -0.00000000 -0.00000000 1.00000000
vn -0.00030000 -0.00000000 1.00000000
vn -0.00000000 -0.00000000 1.00000000
vn -0.00010000 -0.00000000 1.00000000
vn -0.00030000 -0.00000000 1.00000000
vn -0.00010000 -0.00000000 1.00000000
vn -0.00030000 -0.00000000 1.00000000
vn -0.00000000 -0.00000000 1.00000000
vn -0.00010000 -0.00000000 1.00000000
vn -0.00000000 -0.00000000 1.00000000
vn -0.00000000 -0.00000000 1.00000000
vn -0.00010000 -0.00000000 1.00000000
vn -0.00000000 -0.00000000 1.00000000
vn -0.00010000 -0.00000000 1.00000000
vn -0.00000000 -0.00000000 1.00000000
vn -0.00000000 -0.00000000 1.00000000
vn -0.00000000 -0.00000000 1.00000000
vn -0.00000000 -0.00000000 1.00000000
vn -0.00000000 -0.00000000 1.00000000
vn -0.00000000 -0.00000000 1.00000000
vn -0.00000000 -0.00000000 1.00000000
vn -0.00000000 -0.00000000 1.00000000
vn -0.00000000 -0.00000000 1.00000000
vn -0.00000000 -0.00000000 1.00000000
vn -0.00000000 -0.00000000 1.00000000
vn -0.00000000 -0.00000000 1.00000000
vn -0.00000000 -0.00000000 1.00000000
vn -0.00000000 -0.00000000 1.00000000
vn -0.00000000 -0.00000000 1.00000000
vn -0.00000000 -0.00000000 1.00000000
vn -0.00000000 -0.00000000 1.00000000
vn -0.00000000 -0.00000000 1.00000000
vn -0.00000000 -0.00000000 1.00000000
vn -0.00000000 -0.00000000 1.00000000
vn -0.00000000 -0.00000000 1.00000000
vn -0.00000000 -0.00000000 1.00000000
vn -0.00000000 -0.00000000 1.00000000
vn -0.00000000 -0.00000000 1.00000000
vn -0.00000000 -0.00000000 1.00000000
vn -0.00000000 -0.00000000 1.00000000
vn -0.00000000 -0.00000000 1.00000000
vn -0.00000000 -0.00000000 1.00000000
vn -0.00000000 -0.00000000 1.00000000
vn -0.00000000 -0.00000000 1.00000000
vn -0.00000000 -0.00000000 1.00000000
vn -0.00000000 -0.00000000 1.00000000
vn -0.00000000 -0.00000000 1.00000000
vn -0.00000000 -0.00000000 1.00000000
vn -0.00000000 -0.00000000 1.00000000
vn -0.00000000 -0.00000000 1.00000000
vn -0.00000000 -0.00000000 1.00000000
vn -0.00000000 -0.00000000 1.00000000
vn -0.00000000 -0.00000000 1.00000000
vn -0.00000000 -0.00000000 1.00000000
vn -0.00000000 -0.00000000 1.00000000
vn -0.00000000 -0.00000000 1.00000000
vn -0.00000000 -0.00000000 1.00000000
vn -0.00000000 -0.00000000 1.00000000
vn -0.00000000 -0.00000000 1.00000000
vn -0.00000000 -0.00000000 1.00000000
vn -0.00000000 -0.00000000 1.00000000
vn -0.00000000 -0.00000000 1.00000000
vn -0.00000000 -0.00000000 1.00000000
vn -0.00000000 -0.00000000 1.00000000
vn -0.00000000 -0.00000000 1.00000000
f 1//1 2//2 3//3
f 3//3 2//2 4//4
f 5//5 6//6 7//7
f 7//7 6//6 8//8
f 7//7 8//8 9//9
f 9//9 8//8 10//10
f 9//9 10//10 11//11
f 11//11 10//10 12//12
f 11//11 12//12 13//13
f 13//13 12//12 14//14
f 13//13 14//14 15//15
f 15//15 14//14 16//16
f 15//15 16//16 17//17
f 17//17 16//16 18//18
f 17//17 18//18 19//19
f 19//19 18//18 20//20
f 19//19 20//20 21//21
f 21//21 20//20 22//22
f 21//21 22//22 23//23
f 23//23 22//22 24//24
f 23//23 24//24 25//25
f 25//25 24//24 26//26
f 25//25 26//26 27//27
f 27//27 26//26 28//28
f 27//27 28//28 29//29
f 29//29 28//28 30//30
f 29//29 30//30 31//31
f 31//31 30//30 32//32
f 31//31 32//32 33//33
f 33//33 32//32 34//34
f 33//33 34//34 35//35
f 35//35 34//34 36//36
f 35//35 36//36 37//37
f 37//37 36//36 38//38
f 37//37 38//38 39//39
f 39//39 38//38 40//40
f 39//39 40//40 41//41
f 41//41 40//40 42//42
f 41//41 42//42 43//43
f 43//43 42//42 44//44
f 43//43 44//44 45//45
f 45//45 44//44 46//46
f 45//45 46//46 47//47
f 47//47 46//46 48//48
f 47//47 48//48 49//49
f 49//49 48//48 50//50
f 49//49 50//50 51//51
f 51//51 50//50 52//52
f 51//51 52//52 53//53
f 53//53 52//52 54//54
f 53//53 54//54 55//55
f 55//55 54//54 56//56
f 55//55 56//56 57//57
f 57//57 56//56 58//58
f 57//57 58//58 59//59
f 59//59 58//58 60//60
f 59//59 60//60 61//61
f 61//61 60//60 62//62
f 61//61 62//62 63//63
f 63//63 62//62 64//64
f 63//63 64//64 65//65
f 65//65 64//64 66//66
f 65//65 66//66 67//67
f 67//67 66//66 68//68
f 67//67 68//68 69//69
f 69//69 68//68 70//70
f 69//69 70//70 71//71
f 71//71 70//70 72//72
f 71//71 72//72 73//73
f 73//73 72//72 74//74
f 73//73 74//74 75//75
f 75//75 74//74 76//76
f 75//75 76//76 77//77
f 77//77 76//76 78//78
f 77//77 78//78 79//79
f 79//79 78//78 80//80
f 79//79 80//80 81//81
f 81//81 80//80 82//82
f 81//81 82//82 83//83
f 83//83 82//82 84//84
f 83//83 84//84 85//85
f 85//85 84//84 86//86
f 85//85 86//86 87//87
f 87//87 86//86 88//88
f 87//87 88//88 89//89
f 89//89 88//88 90//90
f 89//89 90//90 91//91
f 91//91 90//90 92//92
f 91//91 92//92 93//93
f 93//93 92//92 94//94
f 93//93 94//94 95//95
f 95//95 94//94 96//96
f 95//95 96//96 97//97
f 97//97 96//96 98//98
f 97//97 98//98 99//99
f 99//99 98//98 100//100
f 99//99 100//100 101//101
f 101//101 100//100 102//102
f 101//101 102//102 103//103
f 103//103 102//102 104//104
f 103//103 104//104 105//105
f 105//105 104//104 106//106
f 105//105 106//106 107//107
f 107//107 106//106 108//108
f 107//107 108//108 109//109
f 109//109 108//108 110//110
f 109//109 110//110 111//111
f 111//111 110//110 112//112
f 111//111 112//112 113//113
f 113//113 112//112 114//114
f 113//113 114//114 115//115
f 115//115 114//114 116//116
f 115//115 116//116 117//117
f 117//117 116//116 118//118
f 117//117 118//118 119//119
f 119//119 118//118 120//120
f 119//119 120//120 1//1
f 1//1 120//120 2//2
f 121//121 122//122 123//123
f 123//123 122//122 124//124
f 124//124 122//122 125//125
f 125//125 122//122 126//126
f 126//126 122//122 127//127
f 127//127 122//122 128//128
f 128//128 122//122 129//129
f 129//129 122//122 130//130
f 130//130 122//122 131//131
f 131//131 122//122 132//132
f 132//132 122//122 133//133
f 133//133 122//122 134//134
f 134//134 122//122 135//135
f 135//135 122//122 136//136
f 136//136 122//122 137//137
f 137//137 122//122 138//138
f 138//138 122//122 139//139
f 139//139 122//122 140//140
f 140//140 122//122 141//141
f 141//141 122//122 142//142
f 142//142 122//122 143//143
f 143//143 122//122 144//144
f 144//144 122//122 145//145
f 145//145 122//122 146//146
f 146//146 122//122 147//147
f 147//147 122//122 148//148
f 148//148 122//122 149//149
f 149//149 122//122 150//150
f 150//150 122//122 151//151
f 151//151 122//122 152//152
f 152//152 122//122 153//153
f 153//153 122//122 154//154
f 153//153 154//154 155//155
f 155//155 154//154 156//156
f 155//155 156//156 157//157
f 157//157 156//156 158//158
f 157//157 158//158 159//159
f 159//159 158//158 160//160
f 159//159 160//160 161//161
f 161//161 160//160 162//162
f 161//161 162//162 163//163
f 163//163 162//162 164//164
f 163//163 164//164 165//165
f 165//165 164//164 166//166
f 165//165 166//166 167//167
f 167//167 166//166 168//168
f 167//167 168//168 169//169
f 169//169 168//168 170//170
f 169//169 170//170 171//171
f 171//171 170//170 172//172
f 171//171 172//172 173//173
f 173//173 172//172 174//174
f 173//173 174//174 175//175
f 175//175 174//174 176//176
f 175//175 176//176 177//177
f 177//177 176//176 178//178
f 177//177 178//178 179//179
f 180//180 181//181 183//183
f 185//185 182//182 187//187
f 184//184 186//186 189//189
f 188//188 190//190 183//183
f 183//183 190//190 191//191
f 183//183 191//191 193//193
f 192//192 194//194 184//184
f 183//183 195//195 196//196
f 183//183 196//196 197//197
f 197//197 198//198 183//183
f 183//183 198//198 199//199
f 183//183 199//199 200//200
f 200//200 201//201 183//183
f 183//183 201//201 202//202
f 183//183 202//202 203//203
f 203//203 204//204 183//183
f 183//183 204//204 205//205
f 183//183 205//205 206//206
f 206//206 207//207 183//183
f 183//183 207//207 208//208
f 183//183 208//208 209//209
f 209//209 210//210 183//183
f 183//183 210//210 211//211
f 183//183 211//211 212//212
f 212//212 213//213 183//183
f 183//183 213//213 214//214
f 183//183 214//214 215//215
f 215//215 216//216 183//183
f 183//183 216//216 217//217
f 183//183 217//217 218//218
f 218//218 219//219 183//183
f 183//183 219//219 220//220
f 220//220 219//219 221//221
f 220//220 221//221 222//222
f 222//222 221//221 223//223
f 222//222 223//223 224//224
f 224//224 223//223 225//225
f 224//224 225//225 226//226
f 226//226 225//225 227//227
f 226//226 227//227 228//228
f 228//228 227//227 229//229
f 228//228 229//229 230//230
f 230//230 229//229 231//231
f 230//230 231//231 232//232
f 232//232 231//231 233//233
f 232//232 233//233 234//234
f 234//234 233//233 235//235
f 234//234 235//235 236//236
f 236//236 235//235 237//237
f 236//236 237//237 238//238
f 238//238 237//237 239//239
f 238//238 239//239 240//240
f 240//240 239//239 241//241
f 240//240 241//241 242//242
f 242//242 241//241 243//243
f 242//242 243//243 244//244
f 244//244 243//243 245//245