mtllib material.mtl
usemtl material_0
v 0.03150100 -0.03114800 0.07410000
v 0.03150100 -0.03114800 0.07410000
v 0.03132500 -0.03132500 0.07410000
v 0.03454000 -0.02774000 0.07410000
v 0.03454000 -0.02774000 0.07410000
v 0.03096900 -0.03167600 0.07410000
v 0.02774000 -0.03454000 0.07410000
v 0.03707500 -0.02424700 0.07410000
v 0.02424700 -0.03707500 0.07410000
v 0.03925900 -0.02052400 0.07410000
v 0.02052400 -0.03925900 0.07410000
v 0.04107000 -0.01660600 0.07410000
v 0.01660600 -0.04107000 0.07410000
v 0.04249100 -0.01253000 0.07410000
v 0.01253000 -0.04249100 0.07410000
v 0.04350900 -0.00833600 0.07410000
v 0.00833600 -0.04350900 0.07410000
v 0.04411300 -0.00406200 0.07410000
v 0.00406200 -0.04411300 0.07410000
v 0.04429900 0.00025000 0.07410000
v -0.00025000 -0.04429900 0.07410000
v 0.04406500 0.00456000 0.07410000
v -0.00456000 -0.04406500 0.07410000
v 0.04341200 0.00882600 0.07410000
v -0.00882600 -0.04341200 0.07410000
v 0.04234700 0.01300900 0.07410000
v -0.01300900 -0.04234700 0.07410000
v 0.04088000 0.01706800 0.07410000
v -0.01706800 -0.04088000 0.07410000
v 0.03902500 0.02096500 0.07410000
v -0.02096500 -0.03902500 0.07410000
v 0.03679900 0.02466400 0.07410000
v -0.02466400 -0.03679900 0.07410000
v 0.03422500 0.02812800 0.07410000
v -0.02812800 -0.03422500 0.07410000
v 0.03132500 0.03132500 0.07410000
v -0.03132500 -0.03132500 0.07410000
v 0.02812800 0.03422500 0.07410000
v -0.03422500 -0.02812800 0.07410000
v 0.02466400 0.03679900 0.07410000
v -0.03679900 -0.02466400 0.07410000
v 0.02096500 0.03902500 0.07410000
v -0.03902500 -0.02096500 0.07410000
v 0.01706800 0.04088000 0.07410000
v -0.04088000 -0.01706800 0.07410000
v 0.01300900 0.04234700 0.07410000
v -0.04234700 -0.01300900 0.07410000
v 0.00882600 0.04341200 0.07410000
v -0.04341200 -0.00882600 0.07410000
v 0.00456000 0.04406500 0.07410000
v -0.04406500 -0.00456000 0.07410000
v 0.00025000 0.04429900 0.07410000
v -0.04429900 -0.00025000 0.07410000
v -0.00406200 0.04411300 0.07410000
v -0.04411300 0.00406200 0.07410000
v -0.00833600 0.04350900 0.07410000
v -0.04350900 0.00833600 0.07410000
v -0.01253000 0.04249100 0.07410000
v -0.04249100 0.01253000 0.07410000
v -0.01660600 0.04107000 0.07410000
v -0.04107000 0.01660600 0.07410000
v -0.02052400 0.03925900 0.07410000
v -0.03925900 0.02052400 0.07410000
v -0.02424700 0.03707500 0.07410000
v -0.03707500 0.02424700 0.07410000
v -0.02774000 0.03454000 0.07410000
v -0.03454000 0.02774000 0.07410000
v -0.03454000 0.02774000 0.07410000
v -0.03096900 0.03167600 0.07410000
v -0.03132500 0.03132500 0.07410000
v -0.03150100 0.03114800 0.07410000
v -0.03150100 0.03114800 0.07410000
v -0.03167600 0.03096900 0.07410000
v 0.03167600 -0.03096900 0.07410000
v 0.03181800 -0.03111100 0.08510000
v 0.03181800 -0.03111100 0.07430000
v 0.03487500 -0.02764100 0.08510000
v 0.03487500 -0.02764100 0.07430000
v 0.03755500 -0.02387200 0.08510000
v 0.03755500 -0.02387200 0.07430000
v 0.03983000 -0.01984500 0.08510000
v 0.03983000 -0.01984500 0.07430000
v 0.04167400 -0.01560400 0.08510000
v 0.04167400 -0.01560400 0.07430000
v 0.04306900 -0.01119500 0.08510000
v 0.04306900 -0.01119500 0.07430000
v 0.04399800 -0.00666500 0.08510000
v 0.04399800 -0.00666500 0.07430000
v 0.04445200 -0.00206300 0.08510000
v 0.04445200 -0.00206300 0.07430000
v 0.04442600 0.00256200 0.08510000
v 0.04442600 0.00256200 0.07430000
v 0.04392000 0.00715900 0.08510000
v 0.04392000 0.00715900 0.07430000
v 0.04294000 0.01167800 0.08510000
v 0.04294000 0.01167800 0.07430000
v 0.04149600 0.01607200 0.08510000
v 0.04149600 0.01607200 0.07430000
v 0.03960400 0.02029200 0.08510000
v 0.03960400 0.02029200 0.07430000
v 0.03728400 0.02429200 0.08510000
v 0.03728400 0.02429200 0.07430000
v 0.03456200 0.02803100 0.08510000
v 0.03456200 0.02803100 0.07430000
v 0.03146600 0.03146600 0.08510000
v 0.03146600 0.03146600 0.07430000
v 0.02803100 0.03456200 0.08510000
v 0.02803100 0.03456200 0.07430000
v 0.02429200 0.03728400 0.08510000
v 0.02429200 0.03728400 0.07430000
v 0.02029200 0.03960400 0.08510000
v 0.02029200 0.03960400 0.07430000
v 0.01607200 0.04149600 0.08510000
v 0.01607200 0.04149600 0.07430000
v 0.01167800 0.04294000 0.08510000
v 0.01167800 0.04294000 0.07430000
v 0.00715900 0.04392000 0.08510000
v 0.00715900 0.04392000 0.07430000
v 0.00256200 0.04442600 0.08510000
v 0.00256200 0.04442600 0.07430000
v -0.00206300 0.04445200 0.08510000
v -0.00206300 0.04445200 0.07430000
v -0.00666500 0.04399800 0.08510000
v -0.00666500 0.04399800 0.07430000
v -0.01119500 0.04306900 0.08510000
v -0.01119500 0.04306900 0.07430000
v -0.01560400 0.04167400 0.08510000
v -0.01560400 0.04167400 0.07430000
v -0.01984500 0.03983000 0.08510000
v -0.01984500 0.03983000 0.07430000
v -0.02387200 0.03755500 0.08510000
v -0.02387200 0.03755500 0.07430000
v -0.02764100 0.03487500 0.08510000
v -0.02764100 0.03487500 0.07430000
v -0.03111100 0.03181800 0.08510000
v -0.03111100 0.03181800 0.07430000
v -0.03114800 0.03150100 0.08530000
v -0.03114800 0.03150100 0.08530000
v -0.03132500 0.03132500 0.08530000
v -0.03132500 0.03132500 0.08530000
v -0.02774000 0.03454000 0.08530000
v -0.02774000 0.03454000 0.08530000
v -0.02774000 0.03454000 0.08530000
v -0.02774000 0.03454000 0.08530000
v -0.03167600 0.03096900 0.08530000
v -0.03167600 0.03096900 0.08530000
v -0.03454000 0.02774000 0.08530000
v -0.02424700 0.03707500 0.08530000
v -0.03707500 0.02424700 0.08530000
v -0.02052400 0.03925900 0.08530000
v -0.03925900 0.02052400 0.08530000
v -0.01660600 0.04107000 0.08530000
v -0.04107000 0.01660600 0.08530000
v -0.01253000 0.04249100 0.08530000
v -0.04249100 0.01253000 0.08530000
v -0.00833600 0.04350900 0.08530000
v -0.04350900 0.00833600 0.08530000
v -0.00406200 0.04411300 0.08530000
v -0.04411300 0.00406200 0.08530000
v 0.00025000 0.04429900 0.08530000
v -0.04429900 -0.00025000 0.08530000
v 0.00456000 0.04406500 0.08530000
v -0.04406500 -0.00456000 0.08530000
v 0.00882600 0.04341200 0.08530000
v -0.04341200 -0.00882600 0.08530000
v 0.01300900 0.04234700 0.08530000
v -0.04234700 -0.01300900 0.08530000
v 0.01706800 0.04088000 0.08530000
v -0.04088000 -0.01706800 0.08530000
v 0.02096500 0.03902500 0.08530000
v -0.03902500 -0.02096500 0.08530000
v 0.02466400 0.03679900 0.08530000
v -0.03679900 -0.02466400 0.08530000
v 0.02812800 0.03422500 0.08530000
v -0.03422500 -0.02812800 0.08530000
v 0.03132500 0.03132500 0.08530000
v -0.03132500 -0.03132500 0.08530000
v 0.03422500 0.02812800 0.08530000
v -0.02812800 -0.03422500 0.08530000
v 0.03679900 0.02466400 0.08530000
v -0.02466400 -0.03679900 0.08530000
v 0.03902500 0.02096500 0.08530000
v -0.02096500 -0.03902500 0.08530000
v 0.04088000 0.01706800 0.08530000
v -0.01706800 -0.04088000 0.08530000
v 0.04234700 0.01300900 0.08530000
v -0.01300900 -0.04234700 0.08530000
v 0.04341200 0.00882600 0.08530000
v -0.00882600 -0.04341200 0.08530000
v 0.04406500 0.00456000 0.08530000
v -0.00456000 -0.04406500 0.08530000
v 0.04429900 0.00025000 0.08530000
v -0.00025000 -0.04429900 0.08530000
v 0.04411300 -0.00406200 0.08530000
v 0.00406200 -0.04411300 0.08530000
v 0.04350900 -0.00833600 0.08530000
v 0.00833600 -0.04350900 0.08530000
v 0.04249100 -0.01253000 0.08530000
v 0.01253000 -0.04249100 0.08530000
v 0.04107000 -0.01660600 0.08530000
v 0.01660600 -0.04107000 0.08530000
v 0.03925900 -0.02052400 0.08530000
v 0.02052400 -0.03925900 0.08530000
v 0.03707500 -0.02424700 0.08530000
v 0.02424700 -0.03707500 0.08530000
v 0.03454000 -0.02774000 0.08530000
v 0.02774000 -0.03454000 0.08530000
v 0.03167600 -0.03096900 0.08530000
v 0.03132500 -0.03132500 0.08530000
v 0.03114800 -0.03150100 0.08530000
v 0.03096900 -0.03167600 0.08530000
v -0.03096900 0.03167600 0.08530000
v -0.03181800 0.03111100 0.08510000
v -0.03181800 0.03111100 0.07430000
v -0.03487500 0.02764100 0.08510000
v -0.03487500 0.02764100 0.07430000
v -0.03755500 0.02387200 0.08510000
v -0.03755500 0.02387200 0.07430000
v -0.03983000 0.01984500 0.08510000
v -0.03983000 0.01984500 0.07430000
v -0.04167400 0.01560400 0.08510000
v -0.04167400 0.01560400 0.07430000
v -0.04306900 0.01119500 0.08510000
v -0.04306900 0.01119500 0.07430000
v -0.04399800 0.00666500 0.08510000
v -0.04399800 0.00666500 0.07430000
v -0.04445200 0.00206300 0.08510000
v -0.04445200 0.00206300 0.07430000
v -0.04442600 -0.00256200 0.08510000
v -0.04442600 -0.00256200 0.07430000
v -0.04392000 -0.00715900 0.08510000
v -0.04392000 -0.00715900 0.07430000
v -0.04294000 -0.01167800 0.08510000
v -0.04294000 -0.01167800 0.07430000
v -0.04149600 -0.01607200 0.08510000
v -0.04149600 -0.01607200 0.07430000
v -0.03960400 -0.02029200 0.08510000
v -0.03960400 -0.02029200 0.07430000
v -0.03728400 -0.02429200 0.08510000
v -0.03728400 -0.02429200 0.07430000
v -0.03456200 -0.02803100 0.08510000
v -0.03456200 -0.02803100 0.07430000
v -0.03146600 -0.03146600 0.08510000
v -0.03146600 -0.03146600 0.07430000
v -0.02803100 -0.03456200 0.08510000
v -0.02803100 -0.03456200 0.07430000
v -0.02429200 -0.03728400 0.08510000
v -0.02429200 -0.03728400 0.07430000
v -0.02029200 -0.03960400 0.08510000
v -0.02029200 -0.03960400 0.07430000
v -0.01607200 -0.04149600 0.08510000
v -0.01607200 -0.04149600 0.07430000
v -0.01167800 -0.04294000 0.08510000
v -0.01167800 -0.04294000 0.07430000
v -0.00715900 -0.04392000 0.08510000
v -0.00715900 -0.04392000 0.07430000
v -0.00256200 -0.04442600 0.08510000
v -0.00256200 -0.04442600 0.07430000
v 0.00206300 -0.04445200 0.08510000
v 0.00206300 -0.04445200 0.07430000
v 0.00666500 -0.04399800 0.08510000
v 0.00666500 -0.04399800 0.07430000
v 0.01119500 -0.04306900 0.08510000
v 0.01119500 -0.04306900 0.07430000
v 0.01560400 -0.04167400 0.08510000
v 0.01560400 -0.04167400 0.07430000
v 0.01984500 -0.03983000 0.08510000
v 0.01984500 -0.03983000 0.07430000
v 0.02387200 -0.03755500 0.08510000
v 0.02387200 -0.03755500 0.07430000
v 0.02764100 -0.03487500 0.08510000
v 0.02764100 -0.03487500 0.07430000
v 0.03111100 -0.03181800 0.08510000
v 0.03111100 -0.03181800 0.07430000
v -0.03111100 0.03181800 0.08510000
v -0.03111100 0.03181800 0.07430000
v -0.03097100 0.03167800 0.08529700
v -0.03097100 0.03167800 0.07410300
v -0.03167800 0.03097100 0.08529700
v -0.03167800 0.03097100 0.07410300
v -0.03181800 0.03111100 0.08510000
v -0.03181800 0.03111100 0.07430000
v -0.03097100 0.03167800 0.08529700
v -0.03097100 0.03167800 0.07410300
v -0.03097100 0.03167800 0.07410300
v -0.03108900 0.03156000 0.08529900
v -0.03108900 0.03156000 0.08529900
v -0.03108900 0.03156000 0.08529900
v -0.03108900 0.03156000 0.07410100
v -0.03108900 0.03156000 0.07410100
v -0.03120700 0.03144300 0.08530000
v -0.03120700 0.03144300 0.08530000
v -0.03120700 0.03144300 0.07410000
v -0.03120700 0.03144300 0.07410000
v -0.03132500 0.03132500 0.08530000
v -0.03132500 0.03132500 0.07410000
v -0.03144300 0.03120700 0.08530000
v -0.03144300 0.03120700 0.07410000
v -0.03156000 0.03108900 0.08529900
v -0.03156000 0.03108900 0.07410100
v -0.03167800 0.03097100 0.08529700
v -0.03167800 0.03097100 0.07410300
v 0.03167800 -0.03097100 0.08529700
v 0.03167800 -0.03097100 0.07410300
v 0.03181800 -0.03111100 0.08510000
v 0.03181800 -0.03111100 0.07430000
v 0.03097100 -0.03167800 0.08529700
v 0.03097100 -0.03167800 0.07410300
v 0.03108900 -0.03156000 0.08529900
v 0.03108900 -0.03156000 0.07410100
v 0.03120700 -0.03144300 0.08530000
v 0.03120700 -0.03144300 0.07410000
v 0.03132500 -0.03132500 0.08530000
v 0.03132500 -0.03132500 0.07410000
v 0.03144300 -0.03120700 0.08530000
v 0.03144300 -0.03120700 0.07410000
v 0.03156100 -0.03108900 0.08529900
v 0.03156100 -0.03108900 0.07410100
v 0.03167800 -0.03097100 0.08529700
v 0.03167800 -0.03097100 0.07410300
v 0.03111100 -0.03181800 0.08510000
v 0.03111100 -0.03181800 0.07430000
v 0.03111100 -0.03181800 0.07430000
v 0.03097100 -0.03167800 0.08529700
v 0.03097100 -0.03167800 0.08529700
v 0.03097100 -0.03167800 0.07410300
v -0.03111100 0.03181800 0.07430000
v -0.02774000 0.03454000 0.07410000
v -0.03097100 0.03167800 0.07410300
v -0.03096900 0.03167600 0.07410000
v -0.03108900 0.03156000 0.07410100
v -0.03120700 0.03144300 0.07410000
v -0.03132500 0.03132500 0.07410000
v -0.02764100 0.03487500 0.07430000
v -0.02424700 0.03707500 0.07410000
v -0.02387200 0.03755500 0.07430000
v -0.02052400 0.03925900 0.07410000
v -0.01984500 0.03983000 0.07430000
v -0.01660600 0.04107000 0.07410000
v -0.01560400 0.04167400 0.07430000
v -0.01253000 0.04249100 0.07410000
v -0.01119500 0.04306900 0.07430000
v -0.00833600 0.04350900 0.07410000
v -0.00666500 0.04399800 0.07430000
v -0.00406200 0.04411300 0.07410000
v -0.00206300 0.04445200 0.07430000
v 0.00025000 0.04429900 0.07410000
v 0.00256200 0.04442600 0.07430000
v 0.00456000 0.04406500 0.07410000
v 0.00715900 0.04392000 0.07430000
v 0.00882600 0.04341200 0.07410000
v 0.01167800 0.04294000 0.07430000
v 0.01300900 0.04234700 0.07410000
v 0.01607200 0.04149600 0.07430000
v 0.01706800 0.04088000 0.07410000
v 0.02029200 0.03960400 0.07430000
v 0.02096500 0.03902500 0.07410000
v 0.02429200 0.03728400 0.07430000
v 0.02466400 0.03679900 0.07410000
v 0.02803100 0.03456200 0.07430000
v 0.02812800 0.03422500 0.07410000
v 0.03146600 0.03146600 0.07430000
v 0.03132500 0.03132500 0.07410000
v 0.03422500 0.02812800 0.07410000
v 0.03456200 0.02803100 0.07430000
v 0.03679900 0.02466400 0.07410000
v 0.03728400 0.02429200 0.07430000
v 0.03902500 0.02096500 0.07410000
v 0.03960400 0.02029200 0.07430000
v 0.04088000 0.01706800 0.07410000
v 0.04149600 0.01607200 0.07430000
v 0.04234700 0.01300900 0.07410000
v 0.04294000 0.01167800 0.07430000
v 0.04341200 0.00882600 0.07410000
v 0.04392000 0.00715900 0.07430000
v 0.04406500 0.00456000 0.07410000
v 0.04442600 0.00256200 0.07430000
v 0.04429900 0.00025000 0.07410000
v 0.04445200 -0.00206300 0.07430000
v 0.04411300 -0.00406200 0.07410000
v 0.04399800 -0.00666500 0.07430000
v 0.04350900 -0.00833600 0.07410000
v 0.04306900 -0.01119500 0.07430000
v 0.04249100 -0.01253000 0.07410000
v 0.04167400 -0.01560400 0.07430000
v 0.04107000 -0.01660600 0.07410000
v 0.03983000 -0.01984500 0.07430000
v 0.03925900 -0.02052400 0.07410000
v 0.03755500 -0.02387200 0.07430000
v 0.03707500 -0.02424700 0.07410000
v 0.03487500 -0.02764100 0.07430000
v 0.03454000 -0.02774000 0.07410000
v 0.03181800 -0.03111100 0.07430000
v 0.03167800 -0.03097100 0.07410300
v 0.03167600 -0.03096900 0.07410000
v 0.03167600 -0.03096900 0.07410000
v 0.03156100 -0.03108900 0.07410100
v 0.03156100 -0.03108900 0.07410100
v 0.03150100 -0.03114800 0.07410000
v 0.03144300 -0.03120700 0.07410000
v 0.03132500 -0.03132500 0.07410000
v 0.03111100 -0.03181800 0.07430000
v 0.02774000 -0.03454000 0.07410000
v 0.03097100 -0.03167800 0.07410300
v 0.03096900 -0.03167600 0.07410000
v 0.03108900 -0.03156000 0.07410100
v 0.03120700 -0.03144300 0.07410000
v 0.03132500 -0.03132500 0.07410000
v 0.02764100 -0.03487500 0.07430000
v 0.02424700 -0.03707500 0.07410000
v 0.02387200 -0.03755500 0.07430000
v 0.02052400 -0.03925900 0.07410000
v 0.01984500 -0.03983000 0.07430000
v 0.01660600 -0.04107000 0.07410000
v 0.01560400 -0.04167400 0.07430000
v 0.01253000 -0.04249100 0.07410000
v 0.01119500 -0.04306900 0.07430000
v 0.00833600 -0.04350900 0.07410000
v 0.00666500 -0.04399800 0.07430000
v 0.00406200 -0.04411300 0.07410000
v 0.00206300 -0.04445200 0.07430000
v -0.00025000 -0.04429900 0.07410000
v -0.00256200 -0.04442600 0.07430000
v -0.00456000 -0.04406500 0.07410000
v -0.00715900 -0.04392000 0.07430000
v -0.00882600 -0.04341200 0.07410000
v -0.01167800 -0.04294000 0.07430000
v -0.01300900 -0.04234700 0.07410000
v -0.01607200 -0.04149600 0.07430000
v -0.01706800 -0.04088000 0.07410000
v -0.02029200 -0.03960400 0.07430000
v -0.02096500 -0.03902500 0.07410000
v -0.02429200 -0.03728400 0.07430000
v -0.02466400 -0.03679900 0.07410000
v -0.02803100 -0.03456200 0.07430000
v -0.02812800 -0.03422500 0.07410000
v -0.03146600 -0.03146600 0.07430000
v -0.03132500 -0.03132500 0.07410000
v -0.03422500 -0.02812800 0.07410000
v -0.03456200 -0.02803100 0.07430000
v -0.03679900 -0.02466400 0.07410000
v -0.03728400 -0.02429200 0.07430000
v -0.03902500 -0.02096500 0.07410000
v -0.03960400 -0.02029200 0.07430000
v -0.04088000 -0.01706800 0.07410000
v -0.04149600 -0.01607200 0.07430000
v -0.04234700 -0.01300900 0.07410000
v -0.04294000 -0.01167800 0.07430000
v -0.04341200 -0.00882600 0.07410000
v -0.04392000 -0.00715900 0.07430000
v -0.04406500 -0.00456000 0.07410000
v -0.04442600 -0.00256200 0.07430000
v -0.04429900 -0.00025000 0.07410000
v -0.04445200 0.00206300 0.07430000
v -0.04411300 0.00406200 0.07410000
v -0.04399800 0.00666500 0.07430000
v -0.04350900 0.00833600 0.07410000
v -0.04306900 0.01119500 0.07430000
v -0.04249100 0.01253000 0.07410000
v -0.04167400 0.01560400 0.07430000
v -0.04107000 0.01660600 0.07410000
v -0.03983000 0.01984500 0.07430000
v -0.03925900 0.02052400 0.07410000
v -0.03755500 0.02387200 0.07430000
v -0.03707500 0.02424700 0.07410000
v -0.03487500 0.02764100 0.07430000
v -0.03454000 0.02774000 0.07410000
v -0.03181800 0.03111100 0.07430000
v -0.03167800 0.03097100 0.07410300
v -0.03167600 0.03096900 0.07410000
v -0.03167600 0.03096900 0.07410000
v -0.03156000 0.03108900 0.07410100
v -0.03156000 0.03108900 0.07410100
v -0.03150100 0.03114800 0.07410000
v -0.03144300 0.03120700 0.07410000
v -0.03144300 0.03120700 0.07410000
v -0.03132500 0.03132500 0.07410000
v -0.03108900 0.03156000 0.08529900
v -0.03096900 0.03167600 0.08530000
v -0.03096900 0.03167600 0.08530000
v -0.03097100 0.03167800 0.08529700
v -0.02774000 0.03454000 0.08530000
v -0.03111100 0.03181800 0.08510000
v -0.02764100 0.03487500 0.08510000
v -0.02424700 0.03707500 0.08530000
v -0.02387200 0.03755500 0.08510000
v -0.02052400 0.03925900 0.08530000
v -0.01984500 0.03983000 0.08510000
v -0.01660600 0.04107000 0.08530000
v -0.01560400 0.04167400 0.08510000
v -0.01253000 0.04249100 0.08530000
v -0.01119500 0.04306900 0.08510000
v -0.00833600 0.04350900 0.08530000
v -0.00666500 0.04399800 0.08510000
v -0.00406200 0.04411300 0.08530000
v -0.00206300 0.04445200 0.08510000
v 0.00025000 0.04429900 0.08530000
v 0.00256200 0.04442600 0.08510000
v 0.00456000 0.04406500 0.08530000
v 0.00715900 0.04392000 0.08510000
v 0.00882600 0.04341200 0.08530000
v 0.01167800 0.04294000 0.08510000
v 0.01300900 0.04234700 0.08530000
v 0.01607200 0.04149600 0.08510000
v 0.01706800 0.04088000 0.08530000
v 0.02029200 0.03960400 0.08510000
v 0.02096500 0.03902500 0.08530000
v 0.02429200 0.03728400 0.08510000
v 0.02466400 0.03679900 0.08530000
v 0.02803100 0.03456200 0.08510000
v 0.02812800 0.03422500 0.08530000
v 0.03146600 0.03146600 0.08510000
v 0.03132500 0.03132500 0.08530000
v 0.03422500 0.02812800 0.08530000
v -0.03114800 0.03150100 0.08530000
v -0.03120700 0.03144300 0.08530000
v -0.03132500 0.03132500 0.08530000
v 0.03456200 0.02803100 0.08510000
v 0.03679900 0.02466400 0.08530000
v 0.03728400 0.02429200 0.08510000
v 0.03902500 0.02096500 0.08530000
v 0.03960400 0.02029200 0.08510000
v 0.04088000 0.01706800 0.08530000
v 0.04149600 0.01607200 0.08510000
v 0.04234700 0.01300900 0.08530000
v 0.04294000 0.01167800 0.08510000
v 0.04341200 0.00882600 0.08530000
v 0.04392000 0.00715900 0.08510000
v 0.04406500 0.00456000 0.08530000
v 0.04442600 0.00256200 0.08510000
v 0.04429900 0.00025000 0.08530000
v 0.04445200 -0.00206300 0.08510000
v 0.04411300 -0.00406200 0.08530000
v 0.04399800 -0.00666500 0.08510000
v 0.04350900 -0.00833600 0.08530000
v 0.04306900 -0.01119500 0.08510000
v 0.04249100 -0.01253000 0.08530000
v 0.04167400 -0.01560400 0.08510000
v 0.04107000 -0.01660600 0.08530000
v 0.03983000 -0.01984500 0.08510000
v 0.03925900 -0.02052400 0.08530000
v 0.03755500 -0.02387200 0.08510000
v 0.03707500 -0.02424700 0.08530000
v 0.03487500 -0.02764100 0.08510000
v 0.03454000 -0.02774000 0.08530000
v 0.03181800 -0.03111100 0.08510000
v 0.03167800 -0.03097100 0.08529700
v 0.03167600 -0.03096900 0.08530000
v 0.03156100 -0.03108900 0.08529900
v 0.03144300 -0.03120700 0.08530000
v 0.03132500 -0.03132500 0.08530000
v 0.03108900 -0.03156000 0.08529900
v 0.03096900 -0.03167600 0.08530000
v 0.03097100 -0.03167800 0.08529700
v 0.02774000 -0.03454000 0.08530000
v 0.03111100 -0.03181800 0.08510000
v 0.02764100 -0.03487500 0.08510000
v 0.02424700 -0.03707500 0.08530000
v 0.02387200 -0.03755500 0.08510000
v 0.02052400 -0.03925900 0.08530000
v 0.01984500 -0.03983000 0.08510000
v 0.01660600 -0.04107000 0.08530000
v 0.01560400 -0.04167400 0.08510000
v 0.01253000 -0.04249100 0.08530000
v 0.01119500 -0.04306900 0.08510000
v 0.00833600 -0.04350900 0.08530000
v 0.00666500 -0.04399800 0.08510000
v 0.00406200 -0.04411300 0.08530000
v 0.00206300 -0.04445200 0.08510000
v -0.00025000 -0.04429900 0.08530000
v -0.00256200 -0.04442600 0.08510000
v -0.00456000 -0.04406500 0.08530000
v -0.00715900 -0.04392000 0.08510000
v -0.00882600 -0.04341200 0.08530000
v -0.01167800 -0.04294000 0.08510000
v -0.01300900 -0.04234700 0.08530000
v -0.01607200 -0.04149600 0.08510000
v -0.01706800 -0.04088000 0.08530000
v -0.02029200 -0.03960400 0.08510000
v -0.02096500 -0.03902500 0.08530000
v -0.02429200 -0.03728400 0.08510000
v -0.02466400 -0.03679900 0.08530000
v -0.02803100 -0.03456200 0.08510000
v -0.02812800 -0.03422500 0.08530000
v -0.03146600 -0.03146600 0.08510000
v -0.03132500 -0.03132500 0.08530000
v -0.03422500 -0.02812800 0.08530000
v 0.03114800 -0.03150100 0.08530000
v 0.03120700 -0.03144300 0.08530000
v 0.03132500 -0.03132500 0.08530000
v -0.03456200 -0.02803100 0.08510000
v -0.03679900 -0.02466400 0.08530000
v -0.03728400 -0.02429200 0.08510000
v -0.03902500 -0.02096500 0.08530000
v -0.03960400 -0.02029200 0.08510000
v -0.04088000 -0.01706800 0.08530000
v -0.04149600 -0.01607200 0.08510000
v -0.04234700 -0.01300900 0.08530000
v -0.04294000 -0.01167800 0.08510000
v -0.04341200 -0.00882600 0.08530000
v -0.04392000 -0.00715900 0.08510000
v -0.04406500 -0.00456000 0.08530000
v -0.04442600 -0.00256200 0.08510000
v -0.04429900 -0.00025000 0.08530000
v -0.04445200 0.00206300 0.08510000
v -0.04411300 0.00406200 0.08530000
v -0.04399800 0.00666500 0.08510000
v -0.04350900 0.00833600 0.08530000
v -0.04306900 0.01119500 0.08510000
v -0.04249100 0.01253000 0.08530000
v -0.04167400 0.01560400 0.08510000
v -0.04107000 0.01660600 0.08530000
v -0.03983000 0.01984500 0.08510000
v -0.03925900 0.02052400 0.08530000
v -0.03755500 0.02387200 0.08510000
v -0.03707500 0.02424700 0.08530000
v -0.03487500 0.02764100 0.08510000
v -0.03454000 0.02774000 0.08530000
v -0.03181800 0.03111100 0.08510000
v -0.03167800 0.03097100 0.08529700
v -0.03167600 0.03096900 0.08530000
v -0.03156000 0.03108900 0.08529900
v -0.03144300 0.03120700 0.08530000
v -0.03132500 0.03132500 0.08530000
vn -0.00000000 -0.00000000 -1.00000000
vn -0.00000000 -0.00050000 -1.00000000
vn -0.00000000 -0.00000000 -1.00000000
vn -0.00000000 -0.00050000 -1.00000000
vn -0.00000000 -0.00000000 -1.00000000
vn -0.00000000 -0.00000000 -1.00000000
vn -0.00000000 -0.00000000 -1.00000000
vn -0.00000000 -0.00000000 -1.00000000
vn -0.00000000 -0.00000000 -1.00000000
vn -0.00000000 -0.00000000 -1.00000000
vn -0.00000000 -0.00000000 -1.00000000
vn -0.00000000 -0.00000000 -1.00000000
vn -0.00000000 -0.00000000 -1.00000000
vn -0.00000000 -0.00000000 -1.00000000
vn -0.00000000 -0.00000000 -1.00000000
vn -0.00000000 -0.00000000 -1.00000000
vn -0.00000000 -0.00000000 -1.00000000
vn -0.00000000 -0.00000000 -1.00000000
vn -0.00000000 -0.00000000 -1.00000000
vn -0.00000000 -0.00000000 -1.00000000
vn -0.00000000 -0.00000000 -1.00000000
vn -0.00000000 -0.00000000 -1.00000000
vn -0.00000000 -0.00000000 -1.00000000
vn -0.00000000 -0.00000000 -1.00000000
vn -0.00000000 -0.00000000 -1.00000000
vn -0.00000000 -0.00000000 -1.00000000
vn -0.00000000 -0.00000000 -1.00000000
vn -0.00000000 -0.00000000 -1.00000000
vn -0.00000000 -0.00000000 -1.00000000
vn -0.00000000 -0.00000000 -1.00000000
vn -0.00000000 -0.00000000 -1.00000000
vn -0.00000000 -0.00000000 -1.00000000
vn -0.00000000 -0.00000000 -1.00000000
vn -0.00000000 -0.00000000 -1.00000000
vn -0.00000000 -0.00000000 -1.00000000
vn -0.00000000 -0.00000000 -1.00000000
vn -0.00000000 -0.00000000 -1.00000000
vn -0.00000000 -0.00000000 -1.00000000
vn -0.00000000 -0.00000000 -1.00000000
vn -0.00000000 -0.00000000 -1.00000000
vn -0.00000000 -0.00000000 -1.00000000
vn -0.00000000 -0.00000000 -1.00000000
vn -0.00000000 -0.00000000 -1.00000000
vn -0.00000000 -0.00000000 -1.00000000
vn -0.00000000 -0.00000000 -1.00000000
vn -0.00000000 -0.00000000 -1.00000000
vn -0.00000000 -0.00000000 -1.00000000
vn -0.00000000 -0.00000000 -1.00000000
vn -0.00000000 -0.00000000 -1.00000000
vn -0.00000000 -0.00000000 -1.00000000
vn -0.00000000 -0.00000000 -1.00000000
vn -0.00000000 -0.00000000 -1.00000000
vn -0.00000000 -0.00000000 -1.00000000
vn -0.00000000 -0.00000000 -1.00000000
vn -0.00000000 -0.00000000 -1.00000000
vn -0.00000000 -0.00000000 -1.00000000
vn -0.00000000 -0.00000000 -1.00000000
vn -0.00000000 -0.00000000 -1.00000000
vn -0.00000000 -0.00000000 -1.00000000
vn -0.00000000 -0.00000000 -1.00000000
vn -0.00000000 -0.00000000 -1.00000000
vn -0.00000000 -0.00000000 -1.00000000
vn -0.00000000 -0.00000000 -1.00000000
vn -0.00000000 -0.00000000 -1.00000000
vn -0.00000000 -0.00000000 -1.00000000
vn -0.00000000 -0.00000000 -1.00000000
vn -0.00000000 -0.00000000 -1.00000000
vn -0.00000000 0.00050000 -1.00000000
vn -0.00000000 -0.00000000 -1.00000000
vn -0.00000000 -0.00000000 -1.00000000
vn -0.00000000 -0.00000000 -1.00000000
vn -0.00000000 0.00050000 -1.00000000
vn -0.00000000 0.00050000 -1.00000000
vn -0.00000000 -0.00050000 -1.00000000
vn 0.71500000 -0.69910000 -0.00000000
vn 0.71500000 -0.69910000 -0.00000000
vn 0.78370000 -0.62110000 -0.00000000
vn 0.78370000 -0.62110000 -0.00000000
vn 0.84390000 -0.53640000 -0.00000000
vn 0.84390000 -0.53650000 -0.00000000
vn 0.89510000 -0.44600000 -0.00000000
vn 0.89500000 -0.44600000 -0.00000000
vn 0.93650000 -0.35070000 -0.00000000
vn 0.93650000 -0.35070000 -0.00000000
vn 0.96780000 -0.25160000 -0.00000000
vn 0.96780000 -0.25160000 -0.00000000
vn 0.98870000 -0.14980000 -0.00000000
vn 0.98870000 -0.14980000 -0.00000000
vn 0.99890000 -0.04630000 -0.00000000
vn 0.99890000 -0.04630000 -0.00000000
vn 0.99830000 0.05760000 -0.00000000
vn 0.99830000 0.05760000 -0.00000000
vn 0.98700000 0.16090000 -0.00000000
vn 0.98700000 0.16090000 -0.00000000
vn 0.96490000 0.26240000 -0.00000000
vn 0.96490000 0.26240000 -0.00000000
vn 0.93250000 0.36120000 -0.00000000
vn 0.93250000 0.36120000 -0.00000000
vn 0.89000000 0.45600000 -0.00000000
vn 0.89000000 0.45600000 -0.00000000
vn 0.83790000 0.54590000 -0.00000000
vn 0.83790000 0.54590000 -0.00000000
vn 0.77670000 0.62990000 -0.00000000
vn 0.77670000 0.62990000 -0.00000000
vn 0.70710000 0.70710000 -0.00000000
vn 0.70710000 0.70710000 -0.00000000
vn 0.62990000 0.77670000 -0.00000000
vn 0.62990000 0.77670000 -0.00000000
vn 0.54590000 0.83790000 -0.00000000
vn 0.54590000 0.83790000 -0.00000000
vn 0.45600000 0.89000000 -0.00000000
vn 0.45600000 0.89000000 -0.00000000
vn 0.36120000 0.93250000 -0.00000000
vn 0.36120000 0.93250000 -0.00000000
vn 0.26240000 0.96490000 -0.00000000
vn 0.26240000 0.96490000 -0.00000000
vn 0.16090000 0.98700000 -0.00000000
vn 0.16090000 0.98700000 -0.00000000
vn 0.05760000 0.99830000 -0.00000000
vn 0.05760000 0.99830000 -0.00000000
vn -0.04630000 0.99890000 -0.00000000
vn -0.04630000 0.99890000 -0.00000000
vn -0.14980000 0.98870000 -0.00000000
vn -0.14980000 0.98870000 -0.00000000
vn -0.25160000 0.96780000 -0.00000000
vn -0.25160000 0.96780000 -0.00000000
vn -0.35070000 0.93650000 -0.00000000
vn -0.35070000 0.93650000 -0.00000000
vn -0.44600000 0.89500000 -0.00000000
vn -0.44600000 0.89510000 -0.00000000
vn -0.53650000 0.84390000 -0.00000000
vn -0.53640000 0.84390000 -0.00000000
vn -0.62110000 0.78370000 -0.00000000
vn -0.62110000 0.78370000 -0.00000000
vn -0.69910000 0.71500000 -0.00000000
vn -0.69910000 0.71500000 -0.00000000
vn -0.00000000 -0.00090000 1.00000000
vn -0.00000000 0.00010000 1.00000000
vn -0.00000000 -0.00090000 1.00000000
vn -0.00000000 -0.00010000 1.00000000
vn -0.00000000 0.00010000 1.00000000
vn -0.00000000 -0.00090000 1.00000000
vn -0.00000000 -0.00010000 1.00000000
vn -0.00000000 -0.00000000 1.00000000
vn -0.00000000 -0.00010000 1.00000000
vn -0.00000000 -0.00000000 1.00000000
vn -0.00000000 -0.00000000 1.00000000
vn -0.00000000 -0.00000000 1.00000000
vn -0.00000000 -0.00000000 1.00000000
vn -0.00000000 -0.00000000 1.00000000
vn -0.00000000 -0.00000000 1.00000000
vn -0.00000000 -0.00000000 1.00000000
vn -0.00000000 -0.00000000 1.00000000
vn -0.00000000 -0.00000000 1.00000000
vn -0.00000000 -0.00000000 1.00000000
vn -0.00000000 -0.00000000 1.00000000
vn -0.00000000 -0.00000000 1.00000000
vn -0.00000000 -0.00000000 1.00000000
vn -0.00000000 -0.00000000 1.00000000
vn -0.00000000 -0.00000000 1.00000000
vn -0.00000000 -0.00000000 1.00000000
vn -0.00000000 -0.00000000 1.00000000
vn -0.00000000 -0.00000000 1.00000000
vn -0.00000000 -0.00000000 1.00000000
vn -0.00000000 -0.00000000 1.00000000
vn -0.00000000 -0.00000000 1.00000000
vn -0.00000000 -0.00000000 1.00000000
vn -0.00000000 -0.00000000 1.00000000
vn -0.00000000 -0.00000000 1.00000000
vn -0.00000000 -0.00000000 1.00000000
vn -0.00000000 -0.00000000 1.00000000
vn -0.00000000 -0.00000000 1.00000000
vn -0.00000000 -0.00000000 1.00000000
vn -0.00000000 -0.00000000 1.00000000
vn -0.00000000 -0.00000000 1.00000000
vn -0.00000000 -0.00000000 1.00000000
vn -0.00000000 -0.00000000 1.00000000
vn -0.00000000 -0.00000000 1.00000000
vn -0.00000000 -0.00000000 1.00000000
vn -0.00000000 -0.00000000 1.00000000
vn -0.00000000 -0.00000000 1.00000000
vn -0.00000000 -0.00000000 1.00000000
vn -0.00000000 -0.00000000 1.00000000
vn -0.00000000 -0.00000000 1.00000000
vn -0.00000000 -0.00000000 1.00000000
vn -0.00000000 -0.00000000 1.00000000
vn -0.00000000 -0.00000000 1.00000000
vn -0.00000000 -0.00000000 1.00000000
vn -0.00000000 -0.00000000 1.00000000
vn -0.00000000 -0.00000000 1.00000000
vn -0.00000000 -0.00000000 1.00000000
vn -0.00000000 -0.00000000 1.00000000
vn -0.00000000 -0.00000000 1.00000000
vn -0.00000000 -0.00000000 1.00000000
vn -0.00000000 -0.00000000 1.00000000
vn -0.00000000 -0.00000000 1.00000000
vn -0.00000000 -0.00000000 1.00000000
vn -0.00000000 -0.00000000 1.00000000
vn -0.00000000 -0.00000000 1.00000000
vn -0.00000000 -0.00000000 1.00000000
vn -0.00000000 -0.00000000 1.00000000
vn -0.00000000 -0.00000000 1.00000000
vn -0.00000000 -0.00000000 1.00000000
vn -0.00000000 -0.00000000 1.00000000
vn -0.00000000 -0.00000000 1.00000000
vn -0.00000000 -0.00000000 1.00000000
vn -0.00000000 -0.00000000 1.00000000
vn -0.00000000 -0.00000000 1.00000000
vn -0.00000000 -0.00000000 1.00000000
vn -0.00000000 -0.00000000 1.00000000
vn -0.00000000 -0.00000000 1.00000000
vn -0.00000000 0.00010000 1.00000000
vn -0.71500000 0.69910000 -0.00000000
vn -0.71500000 0.69910000 -0.00000000
vn -0.78370000 0.62110000 -0.00000000
vn -0.78370000 0.62110000 -0.00000000
vn -0.84390000 0.53640000 -0.00000000
vn -0.84390000 0.53640000 -0.00000000
vn -0.89510000 0.44600000 -0.00000000
vn -0.89500000 0.44600000 -0.00000000
vn -0.93650000 0.35070000 -0.00000000
vn -0.93650000 0.35070000 -0.00000000
vn -0.96780000 0.25160000 -0.00000000
vn -0.96780000 0.25160000 -0.00000000
vn -0.98870000 0.14980000 -0.00000000
vn -0.98870000 0.14980000 -0.00000000
vn -0.99890000 0.04630000 -0.00000000
vn -0.99890000 0.04630000 -0.00000000
vn -0.99830000 -0.05760000 -0.00000000
vn -0.99830000 -0.05760000 -0.00000000
vn -0.98700000 -0.16090000 -0.00000000
vn -0.98700000 -0.16090000 -0.00000000
vn -0.96490000 -0.26240000 -0.00000000
vn -0.96490000 -0.26240000 -0.00000000
vn -0.93250000 -0.36120000 -0.00000000
vn -0.93250000 -0.36120000 -0.00000000
vn -0.89000000 -0.45600000 -0.00000000
vn -0.89000000 -0.45600000 -0.00000000
vn -0.83790000 -0.54590000 -0.00000000
vn -0.83790000 -0.54590000 -0.00000000
vn -0.77670000 -0.62990000 -0.00000000
vn -0.77670000 -0.62990000 -0.00000000
vn -0.70710000 -0.70710000 -0.00000000
vn -0.70710000 -0.70710000 -0.00000000
vn -0.62990000 -0.77670000 -0.00000000
vn -0.62990000 -0.77670000 -0.00000000
vn -0.54590000 -0.83790000 -0.00000000
vn -0.54590000 -0.83790000 -0.00000000
vn -0.45600000 -0.89000000 -0.00000000
vn -0.45600000 -0.89000000 -0.00000000
vn -0.36120000 -0.93250000 -0.00000000
vn -0.36120000 -0.93250000 -0.00000000
vn -0.26240000 -0.96500000 -0.00000000
vn -0.26240000 -0.96500000 -0.00000000
vn -0.16090000 -0.98700000 -0.00000000
vn -0.16090000 -0.98700000 -0.00000000
vn -0.05760000 -0.99830000 -0.00000000
vn -0.05760000 -0.99830000 -0.00000000
vn 0.04630000 -0.99890000 -0.00000000
vn 0.04630000 -0.99890000 -0.00000000
vn 0.14980000 -0.98870000 -0.00000000
vn 0.14980000 -0.98870000 -0.00000000
vn 0.25160000 -0.96780000 -0.00000000
vn 0.25160000 -0.96780000 -0.00000000
vn 0.35070000 -0.93650000 -0.00000000
vn 0.35070000 -0.93650000 -0.00000000
vn 0.44600000 -0.89510000 -0.00000000
vn 0.44600000 -0.89510000 -0.00000000
vn 0.53640000 -0.84390000 -0.00000000
vn 0.53640000 -0.84390000 -0.00000000
vn 0.62110000 -0.78370000 -0.00000000
vn 0.62110000 -0.78370000 -0.00000000
vn 0.69910000 -0.71500000 -0.00000000
vn 0.69910000 -0.71500000 -0.00000000
vn -0.70690000 -0.70730000 -0.00000000
vn -0.70690000 -0.70730000 -0.00000000
vn -0.70690000 -0.70730000 -0.00000000
vn -0.70690000 -0.70730000 -0.00000000
vn 0.70730000 0.70690000 -0.00000000
vn 0.70730000 0.70690000 -0.00000000
vn 0.70730000 0.70690000 -0.00000000
vn 0.70730000 0.70690000 -0.00000000
vn -0.70730000 0.70700000 -0.00000000
vn -0.70730000 0.70700000 -0.00000000
vn -0.70730000 0.70690000 -0.00000000
vn -0.70730000 0.70700000 -0.00000000
vn -0.70730000 0.70690000 -0.00000000
vn -0.70710000 0.70710000 -0.00000000
vn -0.70710000 0.70710000 -0.00000000
vn -0.70730000 0.70690000 -0.00000000
vn -0.70730000 0.70690000 -0.00000000
vn -0.70710000 0.70710000 -0.00000000
vn -0.70730000 0.70690000 -0.00000000
vn -0.70710000 0.70710000 -0.00000000
vn -0.70710000 0.70710000 -0.00000000
vn -0.70710000 0.70710000 -0.00000000
vn -0.70710000 0.70710000 -0.00000000
vn -0.70710000 0.70710000 -0.00000000
vn -0.70710000 0.70710000 -0.00000000
vn -0.70710000 0.70710000 -0.00000000
vn -0.70710000 0.70710000 -0.00000000
vn -0.70710000 0.70710000 -0.00000000
vn -0.70730000 -0.70690000 -0.00000000
vn -0.70730000 -0.70690000 -0.00000000
vn -0.70730000 -0.70690000 -0.00000000
vn -0.70730000 -0.70690000 -0.00000000
vn 0.70710000 -0.70710000 -0.00000000
vn 0.70710000 -0.70710000 -0.00000000
vn 0.70710000 -0.70710000 -0.00000000
vn 0.70710000 -0.70710000 -0.00000000
vn 0.70710000 -0.70710000 -0.00000000
vn 0.70710000 -0.70710000 -0.00000000
vn 0.70710000 -0.70710000 -0.00000000
vn 0.70710000 -0.70710000 -0.00000000
vn 0.70710000 -0.70710000 -0.00000000
vn 0.70710000 -0.70710000 -0.00000000
vn 0.70710000 -0.70710000 -0.00000000
vn 0.70710000 -0.70710000 -0.00000000
vn 0.70710000 -0.70710000 -0.00000000
vn 0.70710000 -0.70710000 -0.00000000
vn 0.70710000 0.70710000 -0.00000000
vn 0.70690000 0.70730000 -0.00000000
vn 0.70710000 0.70710000 -0.00000000
vn 0.70710000 0.70710000 -0.00000000
vn 0.70690000 0.70730000 -0.00000000
vn 0.70690000 0.70730000 -0.00000000
vn -0.49440000 0.50550000 -0.70710000
vn -0.44280000 0.55130000 -0.70710000
vn -0.49390000 0.50730000 -0.70610000
vn -0.49370000 0.50820000 -0.70560000
vn -0.49560000 0.50030000 -0.71000000
vn -0.49860000 0.50510000 -0.70450000
vn -0.50030000 0.50310000 -0.70470000
vn -0.43920000 0.55420000 -0.70710000
vn -0.38700000 0.59180000 -0.70710000
vn -0.37930000 0.59670000 -0.70710000
vn -0.32760000 0.62670000 -0.70710000
vn -0.31530000 0.63290000 -0.70710000
vn -0.26510000 0.65550000 -0.70710000
vn -0.24790000 0.66220000 -0.70710000
vn -0.20000000 0.67820000 -0.70710000
vn -0.17790000 0.68440000 -0.70710000
vn -0.13310000 0.69450000 -0.70710000
vn -0.10590000 0.69910000 -0.70710000
vn -0.06480000 0.70410000 -0.70710000
vn -0.03280000 0.70630000 -0.70720000
vn 0.00400000 0.70710000 -0.70710000
vn 0.04070000 0.70590000 -0.70710000
vn 0.07280000 0.70340000 -0.70710000
vn 0.11370000 0.69790000 -0.70710000
vn 0.14090000 0.69290000 -0.70710000
vn 0.18560000 0.68230000 -0.70710000
vn 0.20770000 0.67600000 -0.70710000
vn 0.25540000 0.65940000 -0.70710000
vn 0.27240000 0.65250000 -0.70710000
vn 0.32240000 0.62930000 -0.70710000
vn 0.33470000 0.62290000 -0.70710000
vn 0.38600000 0.59250000 -0.70710000
vn 0.39370000 0.58740000 -0.70710000
vn 0.44540000 0.54920000 -0.70710000
vn 0.44900000 0.54630000 -0.70710000
vn 0.50000000 0.50000000 -0.70710000
vn 0.50000000 0.50000000 -0.70710000
vn 0.54630000 0.44900000 -0.70710000
vn 0.54920000 0.44540000 -0.70710000
vn 0.58740000 0.39370000 -0.70710000
vn 0.59240000 0.38600000 -0.70710000
vn 0.62290000 0.33470000 -0.70710000
vn 0.62930000 0.32250000 -0.70710000
vn 0.65250000 0.27250000 -0.70710000
vn 0.65940000 0.25540000 -0.70710000
vn 0.67590000 0.20770000 -0.70710000
vn 0.68230000 0.18560000 -0.70710000
vn 0.69290000 0.14090000 -0.70710000
vn 0.69790000 0.11380000 -0.70710000
vn 0.70340000 0.07280000 -0.70710000
vn 0.70590000 0.04070000 -0.70710000
vn 0.70710000 0.00400000 -0.70710000
vn 0.70630000 -0.03280000 -0.70710000
vn 0.70410000 -0.06480000 -0.70710000
vn 0.69910000 -0.10590000 -0.70710000
vn 0.69450000 -0.13310000 -0.70710000
vn 0.68430000 -0.17790000 -0.70710000
vn 0.67820000 -0.20000000 -0.70710000
vn 0.66220000 -0.24790000 -0.70710000
vn 0.65560000 -0.26510000 -0.70710000
vn 0.63290000 -0.31530000 -0.70710000
vn 0.62670000 -0.32760000 -0.70710000
vn 0.59670000 -0.37930000 -0.70710000
vn 0.59180000 -0.38700000 -0.70710000
vn 0.55420000 -0.43920000 -0.70710000
vn 0.55130000 -0.44280000 -0.70710000
vn 0.50550000 -0.49440000 -0.70710000
vn 0.50570000 -0.49510000 -0.70650000
vn 0.50570000 -0.49550000 -0.70620000
vn 0.50580000 -0.49550000 -0.70620000
vn 0.50480000 -0.49680000 -0.70600000
vn 0.50470000 -0.49680000 -0.70600000
vn 0.50550000 -0.49550000 -0.70640000
vn 0.50190000 -0.50660000 -0.70100000
vn 0.50030000 -0.50880000 -0.70060000
vn 0.49440000 -0.50550000 -0.70710000
vn 0.44280000 -0.55130000 -0.70710000
vn 0.49400000 -0.50680000 -0.70650000
vn 0.49380000 -0.50750000 -0.70610000
vn 0.49600000 -0.50080000 -0.70930000
vn 0.49860000 -0.50510000 -0.70440000
vn 0.50030000 -0.50310000 -0.70470000
vn 0.43920000 -0.55420000 -0.70710000
vn 0.38700000 -0.59180000 -0.70710000
vn 0.37930000 -0.59670000 -0.70710000
vn 0.32760000 -0.62670000 -0.70710000
vn 0.31530000 -0.63290000 -0.70710000
vn 0.26510000 -0.65550000 -0.70710000
vn 0.24790000 -0.66220000 -0.70710000
vn 0.20000000 -0.67820000 -0.70710000
vn 0.17790000 -0.68430000 -0.70710000
vn 0.13310000 -0.69450000 -0.70710000
vn 0.10590000 -0.69920000 -0.70710000
vn 0.06480000 -0.70410000 -0.70710000
vn 0.03280000 -0.70630000 -0.70720000
vn -0.00400000 -0.70710000 -0.70710000
vn -0.04070000 -0.70590000 -0.70710000
vn -0.07280000 -0.70340000 -0.70710000
vn -0.11370000 -0.69790000 -0.70710000
vn -0.14090000 -0.69300000 -0.70710000
vn -0.18560000 -0.68230000 -0.70710000
vn -0.20760000 -0.67590000 -0.70710000
vn -0.25540000 -0.65940000 -0.70710000
vn -0.27250000 -0.65250000 -0.70710000
vn -0.32240000 -0.62930000 -0.70710000
vn -0.33470000 -0.62290000 -0.70710000
vn -0.38600000 -0.59250000 -0.70710000
vn -0.39370000 -0.58740000 -0.70710000
vn -0.44540000 -0.54920000 -0.70710000
vn -0.44900000 -0.54630000 -0.70710000
vn -0.50000000 -0.50000000 -0.70710000
vn -0.50000000 -0.50000000 -0.70710000
vn -0.54630000 -0.44900000 -0.70710000
vn -0.54920000 -0.44540000 -0.70710000
vn -0.58740000 -0.39370000 -0.70710000
vn -0.59250000 -0.38600000 -0.70710000
vn -0.62290000 -0.33470000 -0.70710000
vn -0.62930000 -0.32240000 -0.70710000
vn -0.65250000 -0.27240000 -0.70710000
vn -0.65940000 -0.25540000 -0.70710000
vn -0.67590000 -0.20760000 -0.70710000
vn -0.68230000 -0.18560000 -0.70710000
vn -0.69300000 -0.14090000 -0.70710000
vn -0.69790000 -0.11370000 -0.70710000
vn -0.70340000 -0.07280000 -0.70710000
vn -0.70590000 -0.04070000 -0.70710000
vn -0.70710000 -0.00400000 -0.70710000
vn -0.70630000 0.03280000 -0.70710000
vn -0.70410000 0.06480000 -0.70710000
vn -0.69910000 0.10590000 -0.70710000
vn -0.69450000 0.13310000 -0.70710000
vn -0.68430000 0.17790000 -0.70710000
vn -0.67830000 0.20000000 -0.70710000
vn -0.66220000 0.24790000 -0.70720000
vn -0.65550000 0.26510000 -0.70710000
vn -0.63290000 0.31530000 -0.70710000
vn -0.62670000 0.32760000 -0.70710000
vn -0.59670000 0.37930000 -0.70710000
vn -0.59180000 0.38700000 -0.70710000
vn -0.55420000 0.43920000 -0.70710000
vn -0.55130000 0.44280000 -0.70710000
vn -0.50550000 0.49440000 -0.70710000
vn -0.50560000 0.49500000 -0.70670000
vn -0.50560000 0.49530000 -0.70640000
vn -0.50560000 0.49540000 -0.70640000
vn -0.50330000 0.49730000 -0.70670000
vn -0.50340000 0.49730000 -0.70660000
vn -0.50360000 0.49360000 -0.70910000
vn -0.50340000 0.49550000 -0.70780000
vn -0.50340000 0.49550000 -0.70790000
vn -0.50140000 0.49730000 -0.70800000
vn -0.49760000 0.50550000 0.70490000
vn -0.49450000 0.50600000 0.70670000
vn -0.49450000 0.50610000 0.70660000
vn -0.49450000 0.50590000 0.70670000
vn -0.44280000 0.55130000 0.70710000
vn -0.49430000 0.50560000 0.70710000
vn -0.43920000 0.55420000 0.70710000
vn -0.38700000 0.59180000 0.70710000
vn -0.37930000 0.59670000 0.70710000
vn -0.32760000 0.62670000 0.70710000
vn -0.31530000 0.63290000 0.70710000
vn -0.26510000 0.65560000 0.70710000
vn -0.24800000 0.66220000 0.70710000
vn -0.20000000 0.67820000 0.70710000
vn -0.17790000 0.68430000 0.70710000
vn -0.13310000 0.69450000 0.70710000
vn -0.10590000 0.69910000 0.70710000
vn -0.06490000 0.70410000 0.70710000
vn -0.03280000 0.70630000 0.70710000
vn 0.00400000 0.70720000 0.70710000
vn 0.04070000 0.70590000 0.70710000
vn 0.07280000 0.70330000 0.70710000
vn 0.11370000 0.69790000 0.70710000
vn 0.14090000 0.69290000 0.70710000
vn 0.18560000 0.68230000 0.70710000
vn 0.20760000 0.67590000 0.70710000
vn 0.25540000 0.65940000 0.70710000
vn 0.27250000 0.65250000 0.70710000
vn 0.32240000 0.62930000 0.70710000
vn 0.33470000 0.62290000 0.70710000
vn 0.38600000 0.59250000 0.70710000
vn 0.39370000 0.58740000 0.70710000
vn 0.44540000 0.54920000 0.70710000
vn 0.44900000 0.54630000 0.70710000
vn 0.50000000 0.50000000 0.70710000
vn 0.49990000 0.49990000 0.70720000
vn 0.54630000 0.44890000 0.70710000
vn -0.49900000 0.50280000 0.70580000
vn -0.49870000 0.49620000 0.71070000
vn -0.50080000 0.49450000 0.71040000
vn 0.54920000 0.44540000 0.70710000
vn 0.58740000 0.39370000 0.70710000
vn 0.59240000 0.38600000 0.70710000
vn 0.62290000 0.33470000 0.70710000
vn 0.62930000 0.32240000 0.70710000
vn 0.65250000 0.27240000 0.70710000
vn 0.65940000 0.25540000 0.70710000
vn 0.67600000 0.20770000 0.70710000
vn 0.68230000 0.18560000 0.70710000
vn 0.69290000 0.14090000 0.70710000
vn 0.69790000 0.11380000 0.70710000
vn 0.70340000 0.07280000 0.70710000
vn 0.70590000 0.04070000 0.70710000
vn 0.70720000 0.00400000 0.70700000
vn 0.70630000 -0.03280000 0.70710000
vn 0.70410000 -0.06480000 0.70710000
vn 0.69910000 -0.10590000 0.70710000
vn 0.69450000 -0.13310000 0.70710000
vn 0.68440000 -0.17790000 0.70710000
vn 0.67830000 -0.20000000 0.70710000
vn 0.66220000 -0.24800000 0.70710000
vn 0.65560000 -0.26510000 0.70710000
vn 0.63290000 -0.31530000 0.70710000
vn 0.62670000 -0.32760000 0.70710000
vn 0.59670000 -0.37930000 0.70710000
vn 0.59180000 -0.38700000 0.70710000
vn 0.55420000 -0.43920000 0.70710000
vn 0.55130000 -0.44280000 0.70710000
vn 0.50560000 -0.49440000 0.70710000
vn 0.50610000 -0.49380000 0.70720000
vn 0.50630000 -0.49350000 0.70720000
vn 0.50330000 -0.50220000 0.70320000
vn 0.50130000 -0.49610000 0.70890000
vn 0.49940000 -0.49780000 0.70910000
vn 0.49690000 -0.50490000 0.70580000
vn 0.49430000 -0.50580000 0.70700000
vn 0.49440000 -0.50570000 0.70700000
vn 0.44280000 -0.55130000 0.70710000
vn 0.49440000 -0.50560000 0.70710000
vn 0.43920000 -0.55420000 0.70710000
vn 0.38700000 -0.59180000 0.70710000
vn 0.37930000 -0.59670000 0.70710000
vn 0.32760000 -0.62670000 0.70710000
vn 0.31530000 -0.63290000 0.70710000
vn 0.26510000 -0.65560000 0.70710000
vn 0.24800000 -0.66220000 0.70710000
vn 0.20000000 -0.67830000 0.70710000
vn 0.17790000 -0.68430000 0.70710000
vn 0.13310000 -0.69450000 0.70710000
vn 0.10590000 -0.69920000 0.70710000
vn 0.06480000 -0.70420000 0.70710000
vn 0.03280000 -0.70630000 0.70710000
vn -0.00400000 -0.70710000 0.70710000
vn -0.04070000 -0.70590000 0.70710000
vn -0.07280000 -0.70340000 0.70710000
vn -0.11380000 -0.69790000 0.70710000
vn -0.14090000 -0.69290000 0.70710000
vn -0.18560000 -0.68230000 0.70710000
vn -0.20770000 -0.67600000 0.70710000
vn -0.25540000 -0.65940000 0.70710000
vn -0.27250000 -0.65250000 0.70710000
vn -0.32240000 -0.62930000 0.70710000
vn -0.33470000 -0.62290000 0.70710000
vn -0.38600000 -0.59250000 0.70710000
vn -0.39370000 -0.58740000 0.70710000
vn -0.44540000 -0.54920000 0.70710000
vn -0.44900000 -0.54630000 0.70710000
vn -0.50000000 -0.50000000 0.70710000
vn -0.49990000 -0.49990000 0.70720000
vn -0.54630000 -0.44890000 0.70710000
vn 0.49990000 -0.50380000 0.70450000
vn 0.50050000 -0.49800000 0.70820000
vn 0.50260000 -0.49630000 0.70790000
vn -0.54920000 -0.44540000 0.70710000
vn -0.58740000 -0.39370000 0.70710000
vn -0.59250000 -0.38600000 0.70710000
vn -0.62290000 -0.33470000 0.70710000
vn -0.62930000 -0.32240000 0.70710000
vn -0.65250000 -0.27240000 0.70710000
vn -0.65940000 -0.25540000 0.70710000
vn -0.67590000 -0.20770000 0.70710000
vn -0.68230000 -0.18560000 0.70710000
vn -0.69300000 -0.14090000 0.70710000
vn -0.69790000 -0.11380000 0.70710000
vn -0.70340000 -0.07280000 0.70710000
vn -0.70590000 -0.04070000 0.70710000
vn -0.70720000 -0.00400000 0.70700000
vn -0.70630000 0.03280000 0.70710000
vn -0.70420000 0.06480000 0.70710000
vn -0.69910000 0.10590000 0.70710000
vn -0.69450000 0.13310000 0.70710000
vn -0.68430000 0.17790000 0.70710000
vn -0.67820000 0.20000000 0.70710000
vn -0.66220000 0.24800000 0.70710000
vn -0.65560000 0.26510000 0.70710000
vn -0.63290000 0.31530000 0.70710000
vn -0.62670000 0.32760000 0.70710000
vn -0.59670000 0.37930000 0.70710000
vn -0.59180000 0.38700000 0.70710000
vn -0.55420000 0.43920000 0.70710000
vn -0.55130000 0.44280000 0.70710000
vn -0.50560000 0.49440000 0.70710000
vn -0.50600000 0.49370000 0.70730000
vn -0.50610000 0.49340000 0.70740000
vn -0.50500000 0.49800000 0.70500000
vn -0.50140000 0.50260000 0.70430000
vn -0.49990000 0.50490000 0.70370000
f 1//1 3//3 5//5
f 5//5 3//3 6//6
f 5//5 6//6 7//7
f 5//5 7//7 8//8
f 8//8 7//7 9//9
f 8//8 9//9 10//10
f 10//10 9//9 11//11
f 10//10 11//11 12//12
f 12//12 11//11 13//13
f 12//12 13//13 14//14
f 14//14 13//13 15//15
f 14//14 15//15 16//16
f 16//16 15//15 17//17
f 16//16 17//17 18//18
f 18//18 17//17 19//19
f 18//18 19//19 20//20
f 20//20 19//19 21//21
f 20//20 21//21 22//22
f 22//22 21//21 23//23
f 22//22 23//23 24//24
f 24//24 23//23 25//25
f 24//24 25//25 26//26
f 26//26 25//25 27//27
f 26//26 27//27 28//28
f 28//28 27//27 29//29
f 28//28 29//29 30//30
f 30//30 29//29 31//31
f 30//30 31//31 32//32
f 32//32 31//31 33//33
f 32//32 33//33 34//34
f 34//34 33//33 35//35
f 34//34 35//35 36//36
f 36//36 35//35 37//37
f 36//36 37//37 38//38
f 38//38 37//37 39//39
f 38//38 39//39 40//40
f 40//40 39//39 41//41
f 40//40 41//41 42//42
f 42//42 41//41 43//43
f 42//42 43//43 44//44
f 44//44 43//43 45//45
f 44//44 45//45 46//46
f 46//46 45//45 47//47
f 46//46 47//47 48//48
f 48//48 47//47 49//49
f 48//48 49//49 50//50
f 50//50 49//49 51//51
f 50//50 51//51 52//52
f 52//52 51//51 53//53
f 52//52 53//53 54//54
f 54//54 53//53 55//55
f 54//54 55//55 56//56
f 56//56 55//55 57//57
f 56//56 57//57 58//58
f 58//58 57//57 59//59
f 58//58 59//59 60//60
f 60//60 59//59 61//61
f 60//60 61//61 62//62
f 62//62 61//61 63//63
f 62//62 63//63 64//64
f 64//64 63//63 65//65
f 64//64 65//65 66//66
f 66//66 65//65 67//67
f 66//66 67//67 69//69
f 69//69 67//67 70//70
f 70//70 67//67 71//71
f 72//72 68//68 73//73
f 4//4 74//74 2//2
f 75//75 76//76 77//77
f 77//77 76//76 78//78
f 77//77 78//78 79//79
f 79//79 78//78 80//80
f 79//79 80//80 81//81
f 81//81 80//80 82//82
f 81//81 82//82 83//83
f 83//83 82//82 84//84
f 83//83 84//84 85//85
f 85//85 84//84 86//86
f 85//85 86//86 87//87
f 87//87 86//86 88//88
f 87//87 88//88 89//89
f 89//89 88//88 90//90
f 89//89 90//90 91//91
f 91//91 90//90 92//92
f 91//91 92//92 93//93
f 93//93 92//92 94//94
f 93//93 94//94 95//95
f 95//95 94//94 96//96
f 95//95 96//96 97//97
f 97//97 96//96 98//98
f 97//97 98//98 99//99
f 99//99 98//98 100//100
f 99//99 100//100 101//101
f 101//101 100//100 102//102
f 101//101 102//102 103//103
f 103//103 102//102 104//104
f 103//103 104//104 105//105
f 105//105 104//104 106//106
f 105//105 106//106 107//107
f 107//107 106//106 108//108
f 107//107 108//108 109//109
f 109//109 108//108 110//110
f 109//109 110//110 111//111
f 111//111 110//110 112//112
f 111//111 112//112 113//113
f 113//113 112//112 114//114
f 113//113 114//114 115//115
f 115//115 114//114 116//116
f 115//115 116//116 117//117
f 117//117 116//116 118//118
f 117//117 118//118 119//119
f 119//119 118//118 120//120
f 119//119 120//120 121//121
f 121//121 120//120 122//122
f 121//121 122//122 123//123
f 123//123 122//122 124//124
f 123//123 124//124 125//125
f 125//125 124//124 126//126
f 125//125 126//126 127//127
f 127//127 126//126 128//128
f 127//127 128//128 129//129
f 129//129 128//128 130//130
f 129//129 130//130 131//131
f 131//131 130//130 132//132
f 131//131 132//132 133//133
f 133//133 132//132 134//134
f 133//133 134//134 135//135
f 135//135 134//134 136//136
f 137//137 139//139 142//142
f 143//143 140//140 145//145
f 144//144 146//146 147//147
f 144//144 147//147 148//148
f 148//148 147//147 149//149
f 148//148 149//149 150//150
f 150//150 149//149 151//151
f 150//150 151//151 152//152
f 152//152 151//151 153//153
f 152//152 153//153 154//154
f 154//154 153//153 155//155
f 154//154 155//155 156//156
f 156//156 155//155 157//157
f 156//156 157//157 158//158
f 158//158 157//157 159//159
f 158//158 159//159 160//160
f 160//160 159//159 161//161
f 160//160 161//161 162//162
f 162//162 161//161 163//163
f 162//162 163//163 164//164
f 164//164 163//163 165//165
f 164//164 165//165 166//166
f 166//166 165//165 167//167
f 166//166 167//167 168//168
f 168//168 167//167 169//169
f 168//168 169//169 170//170
f 170//170 169//169 171//171
f 170//170 171//171 172//172
f 172//172 171//171 173//173
f 172//172 173//173 174//174
f 174//174 173//173 175//175
f 174//174 175//175 176//176
f 176//176 175//175 177//177
f 176//176 177//177 178//178
f 178//178 177//177 179//179
f 178//178 179//179 180//180
f 180//180 179//179 181//181
f 180//180 181//181 182//182
f 182//182 181//181 183//183
f 182//182 183//183 184//184
f 184//184 183//183 185//185
f 184//184 185//185 186//186
f 186//186 185//185 187//187
f 186//186 187//187 188//188
f 188//188 187//187 189//189
f 188//188 189//189 190//190
f 190//190 189//189 191//191
f 190//190 191//191 192//192
f 192//192 191//191 193//193
f 192//192 193//193 194//194
f 194//194 193//193 195//195
f 194//194 195//195 196//196
f 196//196 195//195 197//197
f 196//196 197//197 198//198
f 198//198 197//197 199//199
f 198//198 199//199 200//200
f 200//200 199//199 201//201
f 200//200 201//201 202//202
f 202//202 201//201 203//203
f 202//202 203//203 204//204
f 204//204 203//203 205//205
f 204//204 205//205 206//206
f 206//206 205//205 207//207
f 206//206 207//207 208//208
f 208//208 207//207 209//209
f 209//209 207//207 210//210
f 210//210 207//207 211//211
f 141//141 212//212 138//138
f 213//213 214//214 215//215
f 215//215 214//214 216//216
f 215//215 216//216 217//217
f 217//217 216//216 218//218
f 217//217 218//218 219//219
f 219//219 218//218 220//220
f 219//219 220//220 221//221
f 221//221 220//220 222//222
f 221//221 222//222 223//223
f 223//223 222//222 224//224
f 223//223 224//224 225//225
f 225//225 224//224 226//226
f 225//225 226//226 227//227
f 227//227 226//226 228//228
f 227//227 228//228 229//229
f 229//229 228//228 230//230
f 229//229 230//230 231//231
f 231//231 230//230 232//232
f 231//231 232//232 233//233
f 233//233 232//232 234//234
f 233//233 234//234 235//235
f 235//235 234//234 236//236
f 235//235 236//236 237//237
f 237//237 236//236 238//238
f 237//237 238//238 239//239
f 239//239 238//238 240//240
f 239//239 240//240 241//241
f 241//241 240//240 242//242
f 241//241 242//242 243//243
f 243//243 242//242 244//244
f 243//243 244//244 245//245
f 245//245 244//244 246//246
f 245//245 246//246 247//247
f 247//247 246//246 248//248
f 247//247 248//248 249//249
f 249//249 248//248 250//250
f 249//249 250//250 251//251
f 251//251 250//250 252//252
f 251//251 252//252 253//253
f 253//253 252//252 254//254
f 253//253 254//254 255//255
f 255//255 254//254 256//256
f 255//255 256//256 257//257
f 257//257 256//256 258//258
f 257//257 258//258 259//259
f 259//259 258//258 260//260
f 259//259 260//260 261//261
f 261//261 260//260 262//262
f 261//261 262//262 263//263
f 263//263 262//262 264//264
f 263//263 264//264 265//265
f 265//265 264//264 266//266
f 265//265 266//266 267//267
f 267//267 266//266 268//268
f 267//267 268//268 269//269
f 269//269 268//268 270//270
f 269//269 270//270 271//271
f 271//271 270//270 272//272
f 271//271 272//272 273//273
f 273//273 272//272 274//274
f 275//275 276//276 277//277
f 277//277 276//276 278//278
f 279//279 280//280 281//281
f 281//281 280//280 282//282
f 283//283 284//284 286//286
f 287//287 285//285 290//290
f 288//288 289//289 292//292
f 291//291 290//290 293//293
f 292//292 294//294 295//295
f 295//295 294//294 296//296
f 295//295 296//296 297//297
f 297//297 296//296 298//298
f 297//297 298//298 299//299
f 299//299 298//298 300//300
f 299//299 300//300 301//301
f 301//301 300//300 302//302
f 303//303 304//304 305//305
f 305//305 304//304 306//306
f 307//307 308//308 309//309
f 309//309 308//308 310//310
f 309//309 310//310 311//311
f 311//311 310//310 312//312
f 311//311 312//312 313//313
f 313//313 312//312 314//314
f 313//313 314//314 315//315
f 315//315 314//314 316//316
f 315//315 316//316 317//317
f 317//317 316//316 318//318
f 317//317 318//318 319//319
f 319//319 318//318 320//320
f 321//321 323//323 324//324
f 325//325 322//322 326//326
f 327//327 328//328 329//329
f 329//329 328//328 330//330
f 329//329 330//330 331//331
f 331//331 330//330 332//332
f 332//332 330//330 333//333
f 327//327 334//334 328//328
f 328//328 334//334 335//335
f 335//335 334//334 336//336
f 335//335 336//336 337//337
f 337//337 336//336 338//338
f 337//337 338//338 339//339
f 339//339 338//338 340//340
f 339//339 340//340 341//341
f 341//341 340//340 342//342
f 341//341 342//342 343//343
f 343//343 342//342 344//344
f 343//343 344//344 345//345
f 345//345 344//344 346//346
f 345//345 346//346 347//347
f 347//347 346//346 348//348
f 347//347 348//348 349//349
f 349//349 348//348 350//350
f 349//349 350//350 351//351
f 351//351 350//350 352//352
f 351//351 352//352 353//353
f 353//353 352//352 354//354
f 353//353 354//354 355//355
f 355//355 354//354 356//356
f 355//355 356//356 357//357
f 357//357 356//356 358//358
f 357//357 358//358 359//359
f 359//359 358//358 360//360
f 359//359 360//360 361//361
f 361//361 360//360 362//362
f 361//361 362//362 363//363
f 363//363 362//362 364//364
f 364//364 362//362 365//365
f 364//364 365//365 366//366
f 366//366 365//365 367//367
f 366//366 367//367 368//368
f 368//368 367//367 369//369
f 368//368 369//369 370//370
f 370//370 369//369 371//371
f 370//370 371//371 372//372
f 372//372 371//371 373//373
f 372//372 373//373 374//374
f 374//374 373//373 375//375
f 374//374 375//375 376//376
f 376//376 375//375 377//377
f 376//376 377//377 378//378
f 378//378 377//377 379//379
f 378//378 379//379 380//380
f 380//380 379//379 381//381
f 380//380 381//381 382//382
f 382//382 381//381 383//383
f 382//382 383//383 384//384
f 384//384 383//383 385//385
f 384//384 385//385 386//386
f 386//386 385//385 387//387
f 386//386 387//387 388//388
f 388//388 387//387 389//389
f 388//388 389//389 390//390
f 390//390 389//389 391//391
f 390//390 391//391 392//392
f 392//392 391//391 393//393
f 392//392 393//393 394//394
f 392//392 394//394 396//396
f 396//396 394//394 397//397
f 395//395 398//398 399//399
f 399//399 397//397 400//400
f 399//399 400//400 401//401
f 402//402 403//403 404//404
f 404//404 403//403 405//405
f 404//404 405//405 406//406
f 406//406 405//405 407//407
f 407//407 405//405 408//408
f 402//402 409//409 403//403
f 403//403 409//409 410//410
f 410//410 409//409 411//411
f 410//410 411//411 412//412
f 412//412 411//411 413//413
f 412//412 413//413 414//414
f 414//414 413//413 415//415
f 414//414 415//415 416//416
f 416//416 415//415 417//417
f 416//416 417//417 418//418
f 418//418 417//417 419//419
f 418//418 419//419 420//420
f 420//420 419//419 421//421
f 420//420 421//421 422//422
f 422//422 421//421 423//423
f 422//422 423//423 424//424
f 424//424 423//423 425//425
f 424//424 425//425 426//426
f 426//426 425//425 427//427
f 426//426 427//427 428//428
f 428//428 427//427 429//429
f 428//428 429//429 430//430
f 430//430 429//429 431//431
f 430//430 431//431 432//432
f 432//432 431//431 433//433
f 432//432 433//433 434//434
f 434//434 433//433 435//435
f 434//434 435//435 436//436
f 436//436 435//435 437//437
f 436//436 437//437 438//438
f 438//438 437//437 439//439
f 439//439 437//437 440//440
f 439//439 440//440 441//441
f 441//441 440//440 442//442
f 441//441 442//442 443//443
f 443//443 442//442 444//444
f 443//443 444//444 445//445
f 445//445 444//444 446//446
f 445//445 446//446 447//447
f 447//447 446//446 448//448
f 447//447 448//448 449//449
f 449//449 448//448 450//450
f 449//449 450//450 451//451
f 451//451 450//450 452//452
f 451//451 452//452 453//453
f 453//453 452//452 454//454
f 453//453 454//454 455//455
f 455//455 454//454 456//456
f 455//455 456//456 457//457
f 457//457 456//456 458//458
f 457//457 458//458 459//459
f 459//459 458//458 460//460
f 459//459 460//460 461//461
f 461//461 460//460 462//462
f 461//461 462//462 463//463
f 463//463 462//462 464//464
f 463//463 464//464 465//465
f 465//465 464//464 466//466
f 465//465 466//466 467//467
f 467//467 466//466 468//468
f 467//467 468//468 469//469
f 467//467 469//469 470//470
f 471//471 469//469 472//472
f 470//470 472//472 474//474
f 474//474 473//473 475//475
f 474//474 476//476 477//477
f 478//478 480//480 481//481
f 481//481 480//480 482//482
f 481//481 482//482 483//483
f 483//483 482//482 484//484
f 484//484 482//482 485//485
f 484//484 485//485 486//486
f 486//486 485//485 487//487
f 486//486 487//487 488//488
f 488//488 487//487 489//489
f 488//488 489//489 490//490
f 490//490 489//489 491//491
f 490//490 491//491 492//492
f 492//492 491//491 493//493
f 492//492 493//493 494//494
f 494//494 493//493 495//495
f 494//494 495//495 496//496
f 496//496 495//495 497//497
f 496//496 497//497 498//498
f 498//498 497//497 499//499
f 498//498 499//499 500//500
f 500//500 499//499 501//501
f 500//500 501//501 502//502
f 502//502 501//501 503//503
f 502//502 503//503 504//504
f 504//504 503//503 505//505
f 504//504 505//505 506//506
f 506//506 505//505 507//507
f 506//506 507//507 508//508
f 508//508 507//507 509//509
f 508//508 509//509 510//510
f 510//510 509//509 511//511
f 510//510 511//511 512//512
f 512//512 511//511 513//513
f 512//512 513//513 514//514
f 479//479 478//478 515//515
f 515//515 478//478 516//516
f 515//515 516//516 517//517
f 512//512 514//514 518//518
f 518//518 514//514 519//519
f 518//518 519//519 520//520
f 520//520 519//519 521//521
f 520//520 521//521 522//522
f 522//522 521//521 523//523
f 522//522 523//523 524//524
f 524//524 523//523 525//525
f 524//524 525//525 526//526
f 526//526 525//525 527//527
f 526//526 527//527 528//528
f 528//528 527//527 529//529
f 528//528 529//529 530//530
f 530//530 529//529 531//531
f 530//530 531//531 532//532
f 532//532 531//531 533//533
f 532//532 533//533 534//534
f 534//534 533//533 535//535
f 534//534 535//535 536//536
f 536//536 535//535 537//537
f 536//536 537//537 538//538
f 538//538 537//537 539//539
f 538//538 539//539 540//540
f 540//540 539//539 541//541
f 540//540 541//541 542//542
f 542//542 541//541 543//543
f 542//542 543//543 544//544
f 544//544 543//543 545//545
f 544//544 545//545 546//546
f 546//546 545//545 547//547
f 547//547 545//545 548//548
f 547//547 548//548 549//549
f 549//549 548//548 550//550
f 550//550 548//548 551//551
f 552//552 553//553 554//554
f 554//554 553//553 555//555
f 554//554 555//555 556//556
f 556//556 555//555 557//557
f 557//557 555//555 558//558
f 557//557 558//558 559//559
f 559//559 558//558 560//560
f 559//559 560//560 561//561
f 561//561 560//560 562//562
f 561//561 562//562 563//563
f 563//563 562//562 564//564
f 563//563 564//564 565//565
f 565//565 564//564 566//566
f 565//565 566//566 567//567
f 567//567 566//566 568//568
f 567//567 568//568 569//569
f 569//569 568//568 570//570
f 569//569 570//570 571//571
f 571//571 570//570 572//572
f 571//571 572//572 573//573
f 573//573 572//572 574//574
f 573//573 574//574 575//575
f 575//575 574//574 576//576
f 575//575 576//576 577//577
f 577//577 576//576 578//578
f 577//577 578//578 579//579
f 579//579 578//578 580//580
f 579//579 580//580 581//581
f 581//581 580//580 582//582
f 581//581 582//582 583//583
f 583//583 582//582 584//584
f 583//583 584//584 585//585
f 585//585 584//584 586//586
f 585//585 586//586 587//587
f 553//553 552//552 588//588
f 588//588 552//552 589//589
f 588//588 589//589 590//590
f 585//585 587//587 591//591
f 591//591 587//587 592//592
f 591//591 592//592 593//593
f 593//593 592//592 594//594
f 593//593 594//594 595//595
f 595//595 594//594 596//596
f 595//595 596//596 597//597
f 597//597 596//596 598//598
f 597//597 598//598 599//599
f 599//599 598//598 600//600
f 599//599 600//600 601//601
f 601//601 600//600 602//602
f 601//601 602//602 603//603
f 603//603 602//602 604//604
f 603//603 604//604 605//605
f 605//605 604//604 606//606
f 605//605 606//606 607//607
f 607//607 606//606 608//608
f 607//607 608//608 609//609
f 609//609 608//608 610//610
f 609//609 610//610 611//611
f 611//611 610//610 612//612
f 611//611 612//612 613//613
f 613//613 612//612 614//614
f 613//613 614//614 615//615
f 615//615 614//614 616//616
f 615//615 616//616 617//617
f 617//617 616//616 618//618
f 617//617 618//618 619//619
f 619//619 618//618 620//620
f 620//620 618//618 621//621
f 620//620 621//621 622//622
f 622//622 621//621 623//623
f 623//623 621//621 624//624