mtllib material.mtl
usemtl material_0
v 0.04940000 0.01385000 0.01527000
v 0.04940000 0.01200000 0.02635000
v 0.04940000 0.01385000 0.03743000
v 0.04940000 0.01199900 0.02652600
v 0.04940000 0.01199300 0.02676800
v 0.04940000 0.01324300 0.01543600
v 0.04940000 0.01084800 0.02122300
v 0.04940000 0.01098800 0.02152900
v 0.04940000 0.01109000 0.02176700
v 0.04940000 0.01261500 0.01541400
v 0.04940000 0.01034400 0.02027600
v 0.04940000 0.01066300 0.02085200
v 0.04940000 0.01202100 0.01520800
v 0.04940000 0.00972600 0.01932900
v 0.04940000 0.01004600 0.01979500
v 0.04940000 0.01151500 0.01483500
v 0.04940000 0.00881200 0.01820500
v 0.04940000 0.00904400 0.01846600
v 0.04940000 0.00931600 0.01879100
v 0.04940000 0.01114200 0.01432900
v 0.04940000 0.00848500 0.01786500
v 0.04940000 0.00862400 0.01800600
v 0.04940000 0.00757600 0.01704400
v 0.04940000 0.01093600 0.01373500
v 0.04940000 0.00658800 0.01632000
v 0.04940000 0.01091400 0.01310700
v 0.04940000 0.00553100 0.01570100
v 0.04940000 0.01108000 0.01250000
v 0.04940000 0.01108000 0.01250000
v 0.04940000 0.00441700 0.01519300
v 0.04940000 0.00424000 0.01512400
v 0.04940000 0.00399500 0.01503400
v 0.04940000 0.00368100 0.01492700
v 0.04940000 0.00329700 0.01480900
v 0.04940000 0.00270200 0.01465400
v 0.04940000 0.00219400 0.01454700
v 0.04940000 0.00169600 0.01446600
v 0.04940000 0.00109700 0.01439800
v 0.04940000 0.00072600 0.01437100
v 0.04940000 0.00072600 0.01437100
v 0.04940000 0.00041900 0.01435700
v 0.04940000 0.00041900 0.01435700
v 0.04940000 0.00017700 0.01435100
v 0.04940000 0.00000000 0.01435000
v 0.04940000 -0.01108000 0.01250000
v 0.04940000 -0.01108000 0.01250000
v 0.04940000 -0.00109600 0.01440000
v 0.04940000 -0.00218300 0.01455000
v 0.04940000 -0.00330000 0.01481400
v 0.04940000 -0.00330000 0.01481400
v 0.04940000 -0.00349100 0.01487100
v 0.04940000 -0.00349100 0.01487100
v 0.04940000 -0.00386400 0.01499000
v 0.04940000 -0.00421100 0.01511300
v 0.04940000 -0.00441700 0.01519300
v 0.04940000 -0.00458300 0.01526000
v 0.04940000 -0.00482000 0.01536200
v 0.04940000 -0.00512700 0.01550200
v 0.04940000 -0.01091400 0.01310700
v 0.04940000 -0.00549800 0.01568700
v 0.04940000 -0.00607400 0.01600600
v 0.04940000 -0.01093600 0.01373500
v 0.04940000 -0.00655500 0.01630400
v 0.04940000 -0.00702100 0.01662400
v 0.04940000 -0.01114200 0.01432900
v 0.04940000 -0.00755900 0.01703400
v 0.04940000 -0.00788400 0.01730600
v 0.04940000 -0.00814400 0.01753800
v 0.04940000 -0.01151500 0.01483500
v 0.04940000 -0.00834400 0.01772600
v 0.04940000 -0.00848500 0.01786500
v 0.04940000 -0.01202100 0.01520800
v 0.04940000 -0.00930600 0.01877400
v 0.04940000 -0.01261500 0.01541400
v 0.04940000 -0.01003000 0.01976200
v 0.04940000 -0.01324300 0.01543600
v 0.04940000 -0.01064900 0.02081900
v 0.04940000 -0.01385000 0.01527000
v 0.04940000 -0.01115700 0.02193300
v 0.04940000 -0.01122600 0.02211100
v 0.04940000 -0.01131600 0.02235500
v 0.04940000 -0.01142300 0.02266900
v 0.04940000 -0.01154100 0.02305300
v 0.04940000 -0.01169600 0.02364900
v 0.04940000 -0.01180200 0.02415700
v 0.04940000 -0.01188400 0.02465500
v 0.04940000 -0.01195200 0.02525300
v 0.04940000 -0.01198000 0.02562500
v 0.04940000 -0.01199300 0.02593200
v 0.04940000 -0.01199900 0.02617400
v 0.04940000 -0.01200000 0.02635000
v 0.04940000 -0.01385000 0.03743000
v 0.04940000 -0.01195000 0.02744600
v 0.04940000 -0.01180000 0.02853400
v 0.04940000 -0.01153600 0.02965000
v 0.04940000 -0.01148000 0.02984000
v 0.04940000 -0.01136000 0.03021400
v 0.04940000 -0.01123700 0.03056100
v 0.04940000 -0.01115700 0.03076700
v 0.04940000 -0.01109000 0.03093300
v 0.04940000 -0.01098800 0.03117000
v 0.04940000 -0.01084800 0.03147700
v 0.04940000 -0.01324300 0.03726400
v 0.04940000 -0.01066300 0.03184800
v 0.04940000 -0.01034400 0.03242400
v 0.04940000 -0.01261500 0.03728600
v 0.04940000 -0.01004600 0.03290500
v 0.04940000 -0.00972600 0.03337100
v 0.04940000 -0.01202100 0.03749200
v 0.04940000 -0.00931600 0.03390900
v 0.04940000 -0.00904400 0.03423400
v 0.04940000 -0.00881200 0.03449500
v 0.04940000 -0.01151500 0.03786500
v 0.04940000 -0.00862400 0.03469400
v 0.04940000 -0.00848500 0.03483500
v 0.04940000 -0.01114200 0.03837100
v 0.04940000 -0.00757600 0.03565600
v 0.04940000 -0.01093600 0.03896500
v 0.04940000 -0.00658800 0.03638000
v 0.04940000 -0.01091400 0.03959300
v 0.04940000 -0.00553100 0.03699900
v 0.04940000 -0.01108000 0.04020000
v 0.04940000 -0.01108000 0.04020000
v 0.04940000 -0.01108000 0.04020000
v 0.04940000 -0.01108000 0.04020000
v 0.04940000 -0.00441700 0.03750700
v 0.04940000 -0.00441700 0.03750700
v 0.04940000 -0.00424000 0.03757600
v 0.04940000 -0.00424000 0.03757600
v 0.04940000 -0.00399500 0.03766600
v 0.04940000 -0.00368100 0.03777300
v 0.04940000 -0.00329700 0.03789100
v 0.04940000 -0.00270200 0.03804600
v 0.04940000 -0.00219400 0.03815200
v 0.04940000 -0.00169600 0.03823400
v 0.04940000 -0.00109700 0.03830200
v 0.04940000 -0.00072600 0.03832900
v 0.04940000 -0.00072600 0.03832900
v 0.04940000 -0.00041900 0.03834300
v 0.04940000 -0.00041900 0.03834300
v 0.04940000 -0.00017700 0.03834900
v 0.04940000 -0.00017700 0.03834900
v 0.04940000 0.00000000 0.03835000
v 0.04940000 0.00000000 0.03835000
v 0.04940000 0.01108000 0.04020000
v 0.04940000 0.01108000 0.04020000
v 0.04940000 0.00109600 0.03830000
v 0.04940000 0.00218400 0.03815000
v 0.04940000 0.00330000 0.03788600
v 0.04940000 0.00330000 0.03788600
v 0.04940000 0.00349100 0.03782900
v 0.04940000 0.00349100 0.03782900
v 0.04940000 0.00386400 0.03771000
v 0.04940000 0.00421100 0.03758700
v 0.04940000 0.00441700 0.03750700
v 0.04940000 0.00458300 0.03744000
v 0.04940000 0.00482000 0.03733800
v 0.04940000 0.00512700 0.03719800
v 0.04940000 0.01091400 0.03959300
v 0.04940000 0.00549800 0.03701300
v 0.04940000 0.00607400 0.03669400
v 0.04940000 0.01093600 0.03896500
v 0.04940000 0.00655500 0.03639600
v 0.04940000 0.00702100 0.03607600
v 0.04940000 0.01114200 0.03837100
v 0.04940000 0.00755900 0.03566600
v 0.04940000 0.00788400 0.03539400
v 0.04940000 0.00814400 0.03516200
v 0.04940000 0.01151500 0.03786500
v 0.04940000 0.00834400 0.03497400
v 0.04940000 0.00848500 0.03483500
v 0.04940000 0.01202100 0.03749200
v 0.04940000 0.00930600 0.03392600
v 0.04940000 0.01261500 0.03728600
v 0.04940000 0.01003000 0.03293800
v 0.04940000 0.01324300 0.03726400
v 0.04940000 0.01064900 0.03188100
v 0.04940000 0.01115700 0.03076700
v 0.04940000 0.01122600 0.03058900
v 0.04940000 0.01131600 0.03034500
v 0.04940000 0.01142300 0.03003100
v 0.04940000 0.01154100 0.02964700
v 0.04940000 0.01169600 0.02905100
v 0.04940000 0.01180200 0.02854300
v 0.04940000 0.01188400 0.02804500
v 0.04940000 0.01195200 0.02744700
v 0.04940000 0.01198000 0.02707500
v 0.04940000 0.01115700 0.02193300
v 0.04940000 0.01123700 0.02213900
v 0.04940000 0.01136000 0.02248600
v 0.04940000 0.01148000 0.02286000
v 0.04940000 0.01153600 0.02305000
v 0.04940000 0.01180000 0.02416600
v 0.04940000 0.01195000 0.02525400
v 0.04940000 0.01385000 0.03743000
v 0.04900000 0.01385000 0.03743000
v 0.04940000 0.01385000 0.01527000
v 0.04900000 0.01385000 0.01527000
v 0.04900000 0.01385000 0.03743000
v 0.04940000 0.01385000 0.03743000
v 0.04900000 0.01324300 0.03726400
v 0.04940000 0.01324300 0.03726400
v 0.04900000 0.01261500 0.03728600
v 0.04940000 0.01261500 0.03728600
v 0.04900000 0.01202100 0.03749200
v 0.04940000 0.01202100 0.03749200
v 0.04900000 0.01151500 0.03786500
v 0.04940000 0.01151500 0.03786500
v 0.04900000 0.01114200 0.03837100
v 0.04940000 0.01114200 0.03837100
v 0.04900000 0.01093600 0.03896500
v 0.04940000 0.01093600 0.03896500
v 0.04900000 0.01091400 0.03959300
v 0.04940000 0.01091400 0.03959300
v 0.04900000 0.01108000 0.04020000
v 0.04940000 0.01108000 0.04020000
v 0.04940000 -0.01108000 0.04020000
v 0.04900000 -0.01108000 0.04020000
v 0.04940000 0.01108000 0.04020000
v 0.04900000 0.01108000 0.04020000
v 0.04900000 -0.01108000 0.04020000
v 0.04940000 -0.01108000 0.04020000
v 0.04900000 -0.01091400 0.03959300
v 0.04940000 -0.01091400 0.03959300
v 0.04900000 -0.01093600 0.03896500
v 0.04940000 -0.01093600 0.03896500
v 0.04900000 -0.01114200 0.03837100
v 0.04940000 -0.01114200 0.03837100
v 0.04900000 -0.01151500 0.03786500
v 0.04940000 -0.01151500 0.03786500
v 0.04900000 -0.01202100 0.03749200
v 0.04940000 -0.01202100 0.03749200
v 0.04900000 -0.01261500 0.03728600
v 0.04940000 -0.01261500 0.03728600
v 0.04900000 -0.01324300 0.03726400
v 0.04940000 -0.01324300 0.03726400
v 0.04900000 -0.01385000 0.03743000
v 0.04940000 -0.01385000 0.03743000
v 0.04940000 -0.01385000 0.03743000
v 0.04940000 -0.01385000 0.01527000
v 0.04900000 -0.01385000 0.03743000
v 0.04900000 -0.01385000 0.01527000
v 0.04940000 -0.01108000 0.01250000
v 0.04900000 -0.01108000 0.01250000
v 0.04940000 -0.01091400 0.01310700
v 0.04900000 -0.01091400 0.01310700
v 0.04940000 -0.01093600 0.01373500
v 0.04900000 -0.01093600 0.01373500
v 0.04940000 -0.01114200 0.01432900
v 0.04900000 -0.01114200 0.01432900
v 0.04940000 -0.01151500 0.01483500
v 0.04900000 -0.01151500 0.01483500
v 0.04940000 -0.01202100 0.01520800
v 0.04900000 -0.01202100 0.01520800
v 0.04940000 -0.01261500 0.01541400
v 0.04900000 -0.01261500 0.01541400
v 0.04940000 -0.01324300 0.01543600
v 0.04900000 -0.01324300 0.01543600
v 0.04940000 -0.01385000 0.01527000
v 0.04900000 -0.01385000 0.01527000
v 0.04940000 0.01108000 0.01250000
v 0.04900000 0.01108000 0.01250000
v 0.04940000 -0.01108000 0.01250000
v 0.04900000 -0.01108000 0.01250000
v 0.04940000 0.01385000 0.01527000
v 0.04900000 0.01385000 0.01527000
v 0.04940000 0.01324300 0.01543600
v 0.04900000 0.01324300 0.01543600
v 0.04940000 0.01261500 0.01541400
v 0.04900000 0.01261500 0.01541400
v 0.04940000 0.01202100 0.01520800
v 0.04900000 0.01202100 0.01520800
v 0.04940000 0.01151500 0.01483500
v 0.04900000 0.01151500 0.01483500
v 0.04940000 0.01114200 0.01432900
v 0.04900000 0.01114200 0.01432900
v 0.04940000 0.01093600 0.01373500
v 0.04900000 0.01093600 0.01373500
v 0.04940000 0.01091400 0.01310700
v 0.04900000 0.01091400 0.01310700
v 0.04940000 0.01108000 0.01250000
v 0.04900000 0.01108000 0.01250000
v 0.04940000 0.00109600 0.03830000
v 0.04928900 0.00079700 0.03800800
v 0.04940000 0.00000000 0.03835000
v 0.04928900 -0.00079700 0.03800800
v 0.04940000 -0.00017700 0.03834900
v 0.04940000 -0.00041900 0.03834300
v 0.04940000 -0.00072600 0.03832900
v 0.04940000 -0.00109700 0.03830200
v 0.04940000 -0.00169600 0.03823400
v 0.04928900 -0.00237700 0.03779100
v 0.04940000 -0.00219400 0.03815200
v 0.04940000 -0.00270200 0.03804600
v 0.04940000 -0.00329700 0.03789100
v 0.04940000 -0.00368100 0.03777300
v 0.04940000 -0.00399500 0.03766600
v 0.04928900 -0.00391300 0.03736100
v 0.04940000 -0.00424000 0.03757600
v 0.04940000 -0.00441700 0.03750700
v 0.04928900 -0.00538100 0.03672300
v 0.04940000 -0.00553100 0.03699900
v 0.04940000 -0.00658800 0.03638000
v 0.04928900 -0.00673900 0.03589700
v 0.04940000 -0.00757600 0.03565600
v 0.04928900 -0.00797600 0.03489000
v 0.04940000 -0.00848500 0.03483500
v 0.04940000 -0.00862400 0.03469400
v 0.04940000 -0.00881200 0.03449500
v 0.04940000 -0.00904400 0.03423400
v 0.04928900 -0.00907000 0.03371900
v 0.04940000 -0.00931600 0.03390900
v 0.04940000 -0.00972600 0.03337100
v 0.04940000 -0.01004600 0.03290500
v 0.04928900 -0.00998400 0.03242200
v 0.04940000 -0.01034400 0.03242400
v 0.04940000 -0.01066300 0.03184800
v 0.04928900 -0.01071800 0.03100500
v 0.04940000 -0.01084800 0.03147700
v 0.04940000 -0.01098800 0.03117000
v 0.04940000 -0.01109000 0.03093300
v 0.04940000 -0.01115700 0.03076700
v 0.04940000 -0.01123700 0.03056100
v 0.04940000 -0.01136000 0.03021400
v 0.04940000 -0.01148000 0.02984000
v 0.04940000 -0.01153600 0.02965000
v 0.04928900 -0.01125200 0.02950300
v 0.04940000 -0.01180000 0.02853400
v 0.04928900 -0.01157700 0.02794100
v 0.04940000 -0.01195000 0.02744600
v 0.04928900 -0.01168600 0.02635000
v 0.04940000 -0.01200000 0.02635000
v 0.04940000 -0.01199900 0.02617400
v 0.04940000 -0.01199300 0.02593200
v 0.04940000 -0.01198000 0.02562500
v 0.04928900 -0.01157700 0.02475900
v 0.04940000 -0.01195200 0.02525300
v 0.04940000 -0.01188400 0.02465500
v 0.04940000 -0.01180200 0.02415700
v 0.04940000 -0.01169600 0.02364900
v 0.04928900 -0.01125200 0.02319700
v 0.04940000 -0.01154100 0.02305300
v 0.04940000 -0.01142300 0.02266900
v 0.04940000 -0.01131600 0.02235500
v 0.04940000 -0.01122600 0.02211100
v 0.04940000 -0.01115700 0.02193300
v 0.04928900 -0.01071800 0.02169400
v 0.04940000 -0.01064900 0.02081900
v 0.04928900 -0.00998400 0.02027800
v 0.04940000 -0.01003000 0.01976200
v 0.04928900 -0.00906300 0.01897400
v 0.04940000 -0.00930600 0.01877400
v 0.04940000 -0.00848500 0.01786500
v 0.04940000 -0.00834400 0.01772600
v 0.04928900 -0.00797600 0.01781000
v 0.04940000 -0.00814400 0.01753800
v 0.04940000 -0.00788400 0.01730600
v 0.04940000 -0.00755900 0.01703400
v 0.04940000 -0.00702100 0.01662400
v 0.04928900 -0.00673900 0.01680300
v 0.04940000 -0.00655500 0.01630400
v 0.04940000 -0.00607400 0.01600600
v 0.04928900 -0.00537600 0.01597500
v 0.04940000 -0.00549800 0.01568700
v 0.04940000 -0.00512700 0.01550200
v 0.04940000 -0.00482000 0.01536200
v 0.04940000 -0.00458300 0.01526000
v 0.04940000 -0.00441700 0.01519300
v 0.04940000 -0.00421100 0.01511300
v 0.04928900 -0.00391300 0.01533900
v 0.04940000 -0.00386400 0.01499000
v 0.04940000 -0.00349100 0.01487100
v 0.04940000 -0.00330000 0.01481400
v 0.04928900 -0.00237700 0.01490900
v 0.04940000 -0.00218300 0.01455000
v 0.04940000 -0.00109600 0.01440000
v 0.04928900 -0.00079700 0.01469200
v 0.04940000 0.00000000 0.01435000
v 0.04928900 0.00079700 0.01469200
v 0.04940000 0.00017700 0.01435100
v 0.04940000 0.00041900 0.01435700
v 0.04940000 0.00072600 0.01437100
v 0.04940000 0.00109700 0.01439800
v 0.04940000 0.00169600 0.01446600
v 0.04928900 0.00237700 0.01490900
v 0.04940000 0.00219400 0.01454700
v 0.04940000 0.00270200 0.01465400
v 0.04940000 0.00329700 0.01480900
v 0.04940000 0.00368100 0.01492700
v 0.04940000 0.00399500 0.01503400
v 0.04928900 0.00391300 0.01533900
v 0.04940000 0.00424000 0.01512400
v 0.04940000 0.00441700 0.01519300
v 0.04928900 0.00538100 0.01597700
v 0.04940000 0.00553100 0.01570100
v 0.04940000 0.00658800 0.01632000
v 0.04928900 0.00673900 0.01680300
v 0.04940000 0.00757600 0.01704400
v 0.04928900 0.00797600 0.01781000
v 0.04940000 0.00848500 0.01786500
v 0.04940000 0.00862400 0.01800600
v 0.04940000 0.00881200 0.01820500
v 0.04940000 0.00904400 0.01846600
v 0.04928900 0.00907000 0.01898100
v 0.04940000 0.00931600 0.01879100
v 0.04940000 0.00972600 0.01932900
v 0.04940000 0.01004600 0.01979500
v 0.04928900 0.00998400 0.02027800
v 0.04940000 0.01034400 0.02027600
v 0.04940000 0.01066300 0.02085200
v 0.04928900 0.01071800 0.02169400
v 0.04940000 0.01084800 0.02122300
v 0.04940000 0.01098800 0.02152900
v 0.04940000 0.01109000 0.02176700
v 0.04940000 0.01115700 0.02193300
v 0.04940000 0.01123700 0.02213900
v 0.04940000 0.01136000 0.02248600
v 0.04940000 0.01148000 0.02286000
v 0.04940000 0.01153600 0.02305000
v 0.04928900 0.01125200 0.02319700
v 0.04940000 0.01180000 0.02416600
v 0.04928900 0.01157700 0.02475900
v 0.04940000 0.01195000 0.02525400
v 0.04928900 0.01168600 0.02635000
v 0.04940000 0.01200000 0.02635000
v 0.04940000 0.01200000 0.02635000
v 0.04928900 0.01168600 0.02635000
v 0.04940000 0.01199900 0.02652600
v 0.04940000 0.01199300 0.02676800
v 0.04940000 0.01198000 0.02707500
v 0.04928900 0.01157700 0.02794100
v 0.04940000 0.01195200 0.02744700
v 0.04940000 0.01188400 0.02804500
v 0.04940000 0.01180200 0.02854300
v 0.04940000 0.01169600 0.02905100
v 0.04928900 0.01125200 0.02950300
v 0.04940000 0.01154100 0.02964700
v 0.04940000 0.01142300 0.03003100
v 0.04940000 0.01131600 0.03034500
v 0.04940000 0.01122600 0.03058900
v 0.04940000 0.01115700 0.03076700
v 0.04928900 0.01071800 0.03100500
v 0.04940000 0.01064900 0.03188100
v 0.04928900 0.00998400 0.03242200
v 0.04940000 0.01003000 0.03293800
v 0.04928900 0.00906300 0.03372600
v 0.04940000 0.00930600 0.03392600
v 0.04940000 0.00848500 0.03483500
v 0.04940000 0.00834400 0.03497400
v 0.04928900 0.00797600 0.03489000
v 0.04940000 0.00814400 0.03516200
v 0.04940000 0.00788400 0.03539400
v 0.04940000 0.00755900 0.03566600
v 0.04940000 0.00702100 0.03607600
v 0.04928900 0.00673900 0.03589700
v 0.04940000 0.00655500 0.03639600
v 0.04940000 0.00607400 0.03669400
v 0.04928900 0.00537600 0.03672500
v 0.04940000 0.00549800 0.03701300
v 0.04940000 0.00512700 0.03719800
v 0.04940000 0.00482000 0.03733800
v 0.04940000 0.00458300 0.03744000
v 0.04940000 0.00441700 0.03750700
v 0.04940000 0.00421100 0.03758700
v 0.04928900 0.00391300 0.03736100
v 0.04940000 0.00386400 0.03771000
v 0.04940000 0.00349100 0.03782900
v 0.04940000 0.00330000 0.03788600
v 0.04928900 0.00237700 0.03779100
v 0.04940000 0.00218400 0.03815000
v 0.04900000 0.01139800 0.02795200
v 0.04900000 0.01151000 0.02635000
v 0.04928900 0.01157700 0.02475900
v 0.04900000 0.01106400 0.02952300
v 0.04900000 0.01051500 0.03103200
v 0.04900000 0.00976100 0.03244900
v 0.04900000 0.00881700 0.03374900
v 0.04900000 0.00770200 0.03490400
v 0.04900000 0.00643600 0.03589200
v 0.04900000 0.00504600 0.03669500
v 0.04900000 0.00355700 0.03729700
v 0.04900000 0.00199900 0.03768500
v 0.04900000 0.00040200 0.03785300
v 0.04900000 -0.00120300 0.03779700
v 0.04900000 -0.00278400 0.03751800
v 0.04900000 -0.00431200 0.03702200
v 0.04900000 -0.00575500 0.03631800
v 0.04900000 -0.00708600 0.03542000
v 0.04900000 -0.00828000 0.03434600
v 0.04900000 -0.00931200 0.03311500
v 0.04900000 -0.01016300 0.03175400
v 0.04900000 -0.01081600 0.03028700
v 0.04900000 -0.01125900 0.02874300
v 0.04900000 -0.01148200 0.02715300
v 0.04900000 -0.01148200 0.02554700
v 0.04900000 -0.01125900 0.02395700
v 0.04900000 -0.01081600 0.02241300
v 0.04900000 -0.01016300 0.02094600
v 0.04900000 -0.00931200 0.01958500
v 0.04900000 -0.00828000 0.01835400
v 0.04900000 -0.00708600 0.01728000
v 0.04900000 -0.00575500 0.01638200
v 0.04900000 -0.00431200 0.01567800
v 0.04900000 -0.00278400 0.01518200
v 0.04900000 -0.00120300 0.01490300
v 0.04900000 0.00040200 0.01484700
v 0.04900000 0.00199900 0.01501500
v 0.04900000 0.00355700 0.01540300
v 0.04900000 0.00504600 0.01600500
v 0.04900000 0.00643600 0.01680800
v 0.04900000 0.00770200 0.01779600
v 0.04900000 0.00881700 0.01895100
v 0.04900000 0.00976100 0.02025100
v 0.04900000 0.01051500 0.02166800
v 0.04900000 0.01106400 0.02317700
v 0.04900000 0.01139800 0.02474800
v 0.04900000 0.01151000 0.02635000
v 0.04900000 0.01108000 0.01250000
v 0.04900000 0.00040200 0.01484700
v 0.04900000 -0.01108000 0.01250000
v 0.04900000 -0.00120300 0.01490300
v 0.04900000 -0.00278400 0.01518200
v 0.04900000 0.01091400 0.01310700
v 0.04900000 0.00504600 0.01600500
v 0.04900000 0.00355700 0.01540300
v 0.04900000 0.00199900 0.01501500
v 0.04900000 0.00643600 0.01680800
v 0.04900000 0.01093600 0.01373500
v 0.04900000 0.01114200 0.01432900
v 0.04900000 0.00770200 0.01779600
v 0.04900000 0.01151500 0.01483500
v 0.04900000 0.00881700 0.01895100
v 0.04900000 0.01202100 0.01520800
v 0.04900000 0.01261500 0.01541400
v 0.04900000 0.00976100 0.02025100
v 0.04900000 0.01324300 0.01543600
v 0.04900000 0.01051500 0.02166800
v 0.04900000 0.01385000 0.01527000
v 0.04900000 0.01106400 0.02317700
v 0.04900000 0.01139800 0.02474800
v 0.04900000 0.01151000 0.02635000
v 0.04900000 0.01385000 0.03743000
v 0.04900000 0.01139800 0.02795200
v 0.04900000 0.01106400 0.02952300
v 0.04900000 0.01051500 0.03103200
v 0.04900000 0.01324300 0.03726400
v 0.04900000 0.00976100 0.03244900
v 0.04900000 0.01261500 0.03728600
v 0.04900000 0.00881700 0.03374900
v 0.04900000 0.01202100 0.03749200
v 0.04900000 0.01151500 0.03786500
v 0.04900000 0.00770200 0.03490400
v 0.04900000 0.01114200 0.03837100
v 0.04900000 0.00643600 0.03589200
v 0.04900000 0.01093600 0.03896500
v 0.04900000 0.01091400 0.03959300
v 0.04900000 0.00504600 0.03669500
v 0.04900000 0.01108000 0.04020000
v 0.04900000 0.00355700 0.03729700
v 0.04900000 0.00199900 0.03768500
v 0.04900000 0.00040200 0.03785300
v 0.04900000 -0.01108000 0.04020000
v 0.04900000 -0.00120300 0.03779700
v 0.04900000 -0.00278400 0.03751800
v 0.04900000 -0.00431200 0.03702200
v 0.04900000 -0.01091400 0.03959300
v 0.04900000 -0.00575500 0.03631800
v 0.04900000 -0.01093600 0.03896500
v 0.04900000 -0.00708600 0.03542000
v 0.04900000 -0.01114200 0.03837100
v 0.04900000 -0.00828000 0.03434600
v 0.04900000 -0.01151500 0.03786500
v 0.04900000 -0.01202100 0.03749200
v 0.04900000 -0.00931200 0.03311500
v 0.04900000 -0.01261500 0.03728600
v 0.04900000 -0.01016300 0.03175400
v 0.04900000 -0.01324300 0.03726400
v 0.04900000 -0.01081600 0.03028700
v 0.04900000 -0.01385000 0.03743000
v 0.04900000 -0.01125900 0.02874300
v 0.04900000 -0.01148200 0.02715300
v 0.04900000 -0.01148200 0.02554700
v 0.04900000 -0.01385000 0.01527000
v 0.04900000 -0.01125900 0.02395700
v 0.04900000 -0.01081600 0.02241300
v 0.04900000 -0.01324300 0.01543600
v 0.04900000 -0.01016300 0.02094600
v 0.04900000 -0.01261500 0.01541400
v 0.04900000 -0.00931200 0.01958500
v 0.04900000 -0.01202100 0.01520800
v 0.04900000 -0.00828000 0.01835400
v 0.04900000 -0.01151500 0.01483500
v 0.04900000 -0.01114200 0.01432900
v 0.04900000 -0.00708600 0.01728000
v 0.04900000 -0.01093600 0.01373500
v 0.04900000 -0.00575500 0.01638200
v 0.04900000 -0.01091400 0.01310700
v 0.04900000 -0.00431200 0.01567800
vn -1.00000000 -0.00000000 -0.00000000
vn -1.00000000 -0.00000000 -0.00000000
vn -1.00000000 -0.00000000 -0.00000000
vn -1.00000000 -0.00000000 -0.00000000
vn -1.00000000 -0.00000000 -0.00000000
vn -1.00000000 -0.00000000 -0.00000000
vn -1.00000000 -0.00000000 -0.00000000
vn -1.00000000 -0.00000000 -0.00000000
vn -1.00000000 -0.00000000 -0.00000000
vn -1.00000000 -0.00000000 -0.00000000
vn -1.00000000 -0.00000000 -0.00000000
vn -1.00000000 -0.00000000 -0.00000000
vn -1.00000000 -0.00000000 -0.00000000
vn -1.00000000 -0.00000000 -0.00000000
vn -1.00000000 -0.00000000 -0.00000000
vn -1.00000000 -0.00000000 -0.00000000
vn -1.00000000 -0.00000000 -0.00000000
vn -1.00000000 -0.00000000 -0.00000000
vn -1.00000000 -0.00000000 -0.00000000
vn -1.00000000 -0.00000000 -0.00000000
vn -1.00000000 -0.00000000 -0.00000000
vn -1.00000000 -0.00000000 -0.00000000
vn -1.00000000 -0.00000000 -0.00000000
vn -1.00000000 -0.00000000 -0.00000000
vn -1.00000000 -0.00000000 -0.00000000
vn -1.00000000 -0.00000000 -0.00000000
vn -1.00000000 -0.00000000 -0.00000000
vn -1.00000000 -0.00000000 -0.00020000
vn -1.00000000 -0.00000000 -0.00000000
vn -1.00000000 -0.00000000 -0.00000000
vn -1.00000000 -0.00000000 -0.00000000
vn -1.00000000 -0.00000000 -0.00000000
vn -1.00000000 -0.00000000 -0.00000000
vn -1.00000000 -0.00000000 -0.00000000
vn -1.00000000 -0.00000000 -0.00000000
vn -1.00000000 -0.00000000 -0.00000000
vn -1.00000000 -0.00000000 -0.00000000
vn -1.00000000 -0.00000000 -0.00000000
vn -1.00000000 -0.00000000 -0.00020000
vn -1.00000000 -0.00000000 -0.00000000
vn -1.00000000 -0.00000000 -0.00020000
vn -1.00000000 -0.00000000 -0.00000000
vn -1.00000000 -0.00000000 -0.00000000
vn -1.00000000 -0.00000000 -0.00000000
vn -1.00000000 -0.00000000 -0.00000000
vn -1.00000000 -0.00000000 -0.00010000
vn -1.00000000 -0.00000000 -0.00000000
vn -1.00000000 -0.00000000 -0.00000000
vn -1.00000000 -0.00000000 -0.00000000
vn -1.00000000 -0.00000000 -0.00010000
vn -1.00000000 -0.00000000 -0.00010000
vn -1.00000000 -0.00000000 -0.00000000
vn -1.00000000 -0.00000000 -0.00000000
vn -1.00000000 -0.00000000 -0.00000000
vn -1.00000000 -0.00000000 -0.00000000
vn -1.00000000 -0.00000000 -0.00000000
vn -1.00000000 -0.00000000 -0.00000000
vn -1.00000000 -0.00000000 -0.00000000
vn -1.00000000 -0.00000000 -0.00000000
vn -1.00000000 -0.00000000 -0.00000000
vn -1.00000000 -0.00000000 -0.00000000
vn -1.00000000 -0.00000000 -0.00000000
vn -1.00000000 -0.00000000 -0.00000000
vn -1.00000000 -0.00000000 -0.00000000
vn -1.00000000 -0.00000000 -0.00000000
vn -1.00000000 -0.00000000 -0.00000000
vn -1.00000000 -0.00000000 -0.00000000
vn -1.00000000 -0.00000000 -0.00000000
vn -1.00000000 -0.00000000 -0.00000000
vn -1.00000000 -0.00000000 -0.00000000
vn -1.00000000 -0.00000000 -0.00000000
vn -1.00000000 -0.00000000 -0.00000000
vn -1.00000000 -0.00000000 -0.00000000
vn -1.00000000 -0.00000000 -0.00000000
vn -1.00000000 -0.00000000 -0.00000000
vn -1.00000000 -0.00000000 -0.00000000
vn -1.00000000 -0.00000000 -0.00000000
vn -1.00000000 -0.00000000 -0.00000000
vn -1.00000000 -0.00000000 -0.00000000
vn -1.00000000 -0.00000000 -0.00000000
vn -1.00000000 -0.00000000 -0.00000000
vn -1.00000000 -0.00000000 -0.00000000
vn -1.00000000 -0.00000000 -0.00000000
vn -1.00000000 -0.00000000 -0.00000000
vn -1.00000000 -0.00000000 -0.00000000
vn -1.00000000 -0.00000000 -0.00000000
vn -1.00000000 -0.00000000 -0.00000000
vn -1.00000000 -0.00000000 -0.00000000
vn -1.00000000 -0.00000000 -0.00000000
vn -1.00000000 -0.00000000 -0.00000000
vn -1.00000000 -0.00000000 -0.00000000
vn -1.00000000 -0.00000000 -0.00000000
vn -1.00000000 -0.00000000 -0.00000000
vn -1.00000000 -0.00000000 -0.00000000
vn -1.00000000 -0.00000000 -0.00000000
vn -1.00000000 -0.00000000 -0.00000000
vn -1.00000000 -0.00000000 -0.00000000
vn -1.00000000 -0.00000000 -0.00000000
vn -1.00000000 -0.00000000 -0.00000000
vn -1.00000000 -0.00000000 -0.00000000
vn -1.00000000 -0.00000000 -0.00000000
vn -1.00000000 -0.00000000 -0.00000000
vn -1.00000000 -0.00000000 -0.00000000
vn -1.00000000 -0.00000000 -0.00000000
vn -1.00000000 -0.00000000 -0.00000000
vn -1.00000000 -0.00000000 -0.00000000
vn -1.00000000 -0.00000000 -0.00000000
vn -1.00000000 -0.00000000 -0.00000000
vn -1.00000000 -0.00000000 -0.00000000
vn -1.00000000 -0.00000000 -0.00000000
vn -1.00000000 -0.00000000 -0.00000000
vn -1.00000000 -0.00000000 -0.00000000
vn -1.00000000 -0.00000000 -0.00000000
vn -1.00000000 -0.00000000 -0.00000000
vn -1.00000000 -0.00000000 -0.00000000
vn -1.00000000 -0.00000000 -0.00000000
vn -1.00000000 -0.00000000 -0.00000000
vn -1.00000000 -0.00000000 -0.00000000
vn -1.00000000 -0.00000000 -0.00000000
vn -1.00000000 -0.00000000 -0.00000000
vn -1.00000000 -0.00000000 -0.00000000
vn -1.00000000 -0.00000000 -0.00020000
vn -1.00000000 -0.00000000 -0.00000000
vn -1.00000000 -0.00000000 0.00010000
vn -1.00000000 -0.00000000 0.00030000
vn -1.00000000 -0.00000000 -0.00000000
vn -1.00000000 -0.00000000 0.00010000
vn -1.00000000 -0.00000000 -0.00000000
vn -1.00000000 -0.00000000 0.00010000
vn -1.00000000 -0.00000000 -0.00000000
vn -1.00000000 -0.00000000 -0.00000000
vn -1.00000000 -0.00000000 -0.00000000
vn -1.00000000 -0.00000000 -0.00000000
vn -1.00000000 -0.00000000 -0.00000000
vn -1.00000000 -0.00000000 -0.00000000
vn -1.00000000 -0.00000000 -0.00000000
vn -1.00000000 -0.00000000 -0.00020000
vn -1.00000000 -0.00000000 -0.00000000
vn -1.00000000 -0.00000000 -0.00020000
vn -1.00000000 -0.00000000 -0.00000000
vn -1.00000000 -0.00000000 -0.00000000
vn -1.00000000 -0.00000000 0.00030000
vn -1.00000000 -0.00000000 0.00030000
vn -1.00000000 -0.00000000 -0.00000000
vn -1.00000000 -0.00000000 -0.00000000
vn -1.00000000 -0.00000000 0.00010000
vn -1.00000000 -0.00000000 -0.00000000
vn -1.00000000 -0.00000000 -0.00000000
vn -1.00000000 -0.00000000 0.00010000
vn -1.00000000 -0.00000000 -0.00000000
vn -1.00000000 -0.00000000 0.00010000
vn -1.00000000 -0.00000000 -0.00000000
vn -1.00000000 -0.00000000 -0.00000000
vn -1.00000000 -0.00000000 -0.00000000
vn -1.00000000 -0.00000000 -0.00000000
vn -1.00000000 -0.00000000 -0.00000000
vn -1.00000000 -0.00000000 -0.00000000
vn -1.00000000 -0.00000000 -0.00000000
vn -1.00000000 -0.00000000 -0.00000000
vn -1.00000000 -0.00000000 -0.00000000
vn -1.00000000 -0.00000000 -0.00000000
vn -1.00000000 -0.00000000 -0.00000000
vn -1.00000000 -0.00000000 -0.00000000
vn -1.00000000 -0.00000000 -0.00000000
vn -1.00000000 -0.00000000 -0.00000000
vn -1.00000000 -0.00000000 -0.00000000
vn -1.00000000 -0.00000000 -0.00000000
vn -1.00000000 -0.00000000 -0.00000000
vn -1.00000000 -0.00000000 -0.00000000
vn -1.00000000 -0.00000000 -0.00000000
vn -1.00000000 -0.00000000 -0.00000000
vn -1.00000000 -0.00000000 -0.00000000
vn -1.00000000 -0.00000000 -0.00000000
vn -1.00000000 -0.00000000 -0.00000000
vn -1.00000000 -0.00000000 -0.00000000
vn -1.00000000 -0.00000000 -0.00000000
vn -1.00000000 -0.00000000 -0.00000000
vn -1.00000000 -0.00000000 -0.00000000
vn -1.00000000 -0.00000000 -0.00000000
vn -1.00000000 -0.00000000 -0.00000000
vn -1.00000000 -0.00000000 -0.00000000
vn -1.00000000 -0.00000000 -0.00000000
vn -1.00000000 -0.00000000 -0.00000000
vn -1.00000000 -0.00000000 -0.00000000
vn -1.00000000 -0.00000000 -0.00000000
vn -1.00000000 -0.00000000 -0.00000000
vn -1.00000000 -0.00000000 -0.00000000
vn -1.00000000 -0.00000000 -0.00000000
vn -1.00000000 -0.00000000 -0.00000000
vn -1.00000000 -0.00000000 -0.00000000
vn -1.00000000 -0.00000000 -0.00000000
vn -1.00000000 -0.00000000 -0.00000000
vn -1.00000000 -0.00000000 -0.00000000
vn -1.00000000 -0.00000000 -0.00000000
vn -0.00000000 -1.00000000 -0.00000000
vn -0.00000000 -1.00000000 -0.00000000
vn -0.00000000 -1.00000000 -0.00000000
vn -0.00000000 -1.00000000 -0.00000000
vn -0.00000000 0.40470000 -0.91440000
vn -0.00000000 0.40470000 -0.91440000
vn -0.00000000 0.11590000 -0.99330000
vn -0.00000000 0.11590000 -0.99330000
vn -0.00000000 -0.18330000 -0.98310000
vn -0.00000000 -0.18330000 -0.98310000
vn -0.00000000 -0.46610000 -0.88470000
vn -0.00000000 -0.46610000 -0.88470000
vn -0.00000000 -0.70710000 -0.70710000
vn -0.00000000 -0.70710000 -0.70710000
vn -0.00000000 -0.88470000 -0.46610000
vn -0.00000000 -0.88470000 -0.46610000
vn -0.00000000 -0.98310000 -0.18330000
vn -0.00000000 -0.98310000 -0.18330000
vn -0.00000000 -0.99330000 0.11590000
vn -0.00000000 -0.99330000 0.11590000
vn 0.00010000 -0.91440000 0.40480000
vn -0.00000000 -0.91440000 0.40480000
vn -0.00000000 -0.00000000 -1.00000000
vn -0.00000000 -0.00000000 -1.00000000
vn -0.00000000 -0.00000000 -1.00000000
vn -0.00000000 -0.00000000 -1.00000000
vn -0.00000000 0.91440000 0.40480000
vn -0.00010000 0.91440000 0.40480000
vn -0.00000000 0.99330000 0.11590000
vn -0.00000000 0.99330000 0.11590000
vn -0.00000000 0.98310000 -0.18330000
vn -0.00000000 0.98310000 -0.18330000
vn -0.00000000 0.88470000 -0.46610000
vn -0.00000000 0.88470000 -0.46610000
vn -0.00000000 0.70710000 -0.70710000
vn -0.00000000 0.70710000 -0.70710000
vn -0.00000000 0.46610000 -0.88470000
vn -0.00000000 0.46610000 -0.88470000
vn -0.00000000 0.18330000 -0.98310000
vn -0.00000000 0.18330000 -0.98310000
vn -0.00000000 -0.11590000 -0.99330000
vn -0.00000000 -0.11590000 -0.99330000
vn -0.00000000 -0.40470000 -0.91440000
vn -0.00000000 -0.40470000 -0.91440000
vn -0.00000000 1.00000000 -0.00000000
vn -0.00000000 1.00000000 -0.00000000
vn -0.00000000 1.00000000 -0.00000000
vn -0.00000000 1.00000000 -0.00000000
vn -0.00000000 0.91440000 -0.40470000
vn -0.00000000 0.91440000 -0.40470000
vn -0.00000000 0.99330000 -0.11590000
vn -0.00000000 0.99330000 -0.11590000
vn -0.00000000 0.98310000 0.18330000
vn -0.00000000 0.98310000 0.18330000
vn -0.00000000 0.88470000 0.46610000
vn -0.00000000 0.88470000 0.46610000
vn -0.00000000 0.70710000 0.70710000
vn -0.00000000 0.70710000 0.70710000
vn -0.00000000 0.46610000 0.88470000
vn -0.00000000 0.46610000 0.88470000
vn -0.00000000 0.18330000 0.98310000
vn -0.00000000 0.18330000 0.98310000
vn -0.00000000 -0.11590000 0.99330000
vn -0.00000000 -0.11590000 0.99330000
vn -0.00000000 -0.40470000 0.91440000
vn -0.00000000 -0.40470000 0.91440000
vn -0.00000000 -0.00000000 1.00000000
vn -0.00000000 -0.00000000 1.00000000
vn -0.00000000 -0.00000000 1.00000000
vn -0.00000000 -0.00000000 1.00000000
vn -0.00000000 0.40470000 0.91440000
vn 0.00010000 0.40470000 0.91440000
vn -0.00000000 0.11600000 0.99330000
vn -0.00000000 0.11600000 0.99330000
vn -0.00000000 -0.18330000 0.98310000
vn -0.00000000 -0.18330000 0.98310000
vn -0.00000000 -0.46610000 0.88470000
vn -0.00000000 -0.46610000 0.88470000
vn -0.00000000 -0.70710000 0.70710000
vn -0.00000000 -0.70710000 0.70710000
vn -0.00000000 -0.88470000 0.46610000
vn -0.00000000 -0.88470000 0.46610000
vn -0.00000000 -0.98310000 0.18330000
vn -0.00000000 -0.98310000 0.18330000
vn -0.00000000 -0.99330000 -0.11590000
vn -0.00000000 -0.99330000 -0.11590000
vn -0.00000000 -0.91440000 -0.40470000
vn -0.00000000 -0.91440000 -0.40470000
vn -1.00000000 -0.00000000 0.00010000
vn -0.77750000 0.04290000 0.62740000
vn -1.00000000 -0.00000000 0.00010000
vn -0.77750000 -0.04290000 0.62740000
vn -1.00000000 -0.00000000 -0.00040000
vn -1.00000000 -0.00000000 -0.00120000
vn -1.00000000 0.00020000 -0.00290000
vn -1.00000000 0.00050000 -0.00500000
vn -1.00000000 0.00120000 -0.00800000
vn -0.77750000 -0.12790000 0.61570000
vn -1.00000000 0.00170000 -0.00910000
vn -1.00000000 0.00190000 -0.00810000
vn -1.00000000 0.00140000 -0.00510000
vn -1.00000000 0.00090000 -0.00290000
vn -1.00000000 0.00050000 -0.00120000
vn -0.77750000 -0.21060000 0.59260000
vn -1.00000000 0.00010000 -0.00040000
vn -1.00000000 -0.00000000 -0.00000000
vn -0.77750000 -0.28960000 0.55820000
vn -1.00000000 -0.00010000 0.00020000
vn -1.00000000 -0.00010000 0.00020000
vn -0.77750000 -0.36270000 0.51380000
vn -1.00000000 -0.00020000 0.00020000
vn -0.77750000 -0.42920000 0.45960000
vn -1.00000000 -0.00010000 -0.00000000
vn -1.00000000 -0.00020000 0.00010000
vn -1.00000000 -0.00100000 0.00090000
vn -1.00000000 -0.00230000 0.00200000
vn -0.77750000 -0.48810000 0.39650000
vn -1.00000000 -0.00440000 0.00350000
vn -1.00000000 -0.00730000 0.00520000
vn -0.99990000 -0.00840000 0.00550000
vn -0.77750000 -0.53730000 0.32670000
vn -1.00000000 -0.00780000 0.00450000
vn -1.00000000 -0.00510000 0.00260000
vn -0.77750000 -0.57680000 0.25050000
vn -1.00000000 -0.00280000 0.00130000
vn -1.00000000 -0.00130000 0.00060000
vn -1.00000000 -0.00030000 0.00020000
vn -1.00000000 -0.00000000 -0.00000000
vn -1.00000000 -0.00050000 0.00010000
vn -1.00000000 -0.00160000 0.00050000
vn -1.00000000 -0.00290000 0.00090000
vn -1.00000000 -0.00290000 0.00080000
vn -0.77750000 -0.60550000 0.16970000
vn -1.00000000 -0.00010000 -0.00000000
vn -0.77750000 -0.62300000 0.08560000
vn -1.00000000 -0.00010000 -0.00000000
vn -0.77750000 -0.62890000 -0.00000000
vn -1.00000000 -0.00000000 -0.00000000
vn -1.00000000 0.00040000 -0.00000000
vn -1.00000000 0.00120000 0.00010000
vn -1.00000000 0.00290000 0.00020000
vn -0.77750000 -0.62300000 -0.08560000
vn -1.00000000 0.00500000 0.00050000
vn -1.00000000 0.00810000 0.00110000
vn -1.00000000 0.00900000 0.00170000
vn -1.00000000 0.00810000 0.00190000
vn -0.77750000 -0.60550000 -0.16970000
vn -1.00000000 0.00510000 0.00140000
vn -1.00000000 0.00290000 0.00090000
vn -1.00000000 0.00120000 0.00040000
vn -1.00000000 0.00040000 0.00010000
vn -1.00000000 -0.00000000 -0.00000000
vn -0.77750000 -0.57680000 -0.25050000
vn -1.00000000 -0.00020000 -0.00010000
vn -0.77750000 -0.53730000 -0.32670000
vn -1.00000000 -0.00010000 -0.00010000
vn -0.77750000 -0.48770000 -0.39690000
vn -1.00000000 -0.00020000 -0.00010000
vn -1.00000000 -0.00000000 -0.00000000
vn -1.00000000 -0.00020000 -0.00020000
vn -0.77750000 -0.42920000 -0.45960000
vn -1.00000000 -0.00100000 -0.00110000
vn -1.00000000 -0.00200000 -0.00230000
vn -1.00000000 -0.00350000 -0.00430000
vn -1.00000000 -0.00520000 -0.00720000
vn -0.77750000 -0.36260000 -0.51370000
vn -0.99990000 -0.00550000 -0.00840000
vn -1.00000000 -0.00460000 -0.00780000
vn -0.77760000 -0.28930000 -0.55830000
vn -1.00000000 -0.00260000 -0.00500000
vn -1.00000000 -0.00140000 -0.00280000
vn -1.00000000 -0.00060000 -0.00130000
vn -1.00000000 -0.00010000 -0.00030000
vn -1.00000000 -0.00000000 -0.00000000
vn -1.00000000 -0.00020000 -0.00040000
vn -0.77750000 -0.21060000 -0.59260000
vn -1.00000000 -0.00050000 -0.00160000
vn -1.00000000 -0.00090000 -0.00280000
vn -1.00000000 -0.00080000 -0.00290000
vn -0.77750000 -0.12790000 -0.61570000
vn -1.00000000 -0.00000000 -0.00000000
vn -1.00000000 -0.00000000 -0.00010000
vn -0.77750000 -0.04290000 -0.62740000
vn -1.00000000 -0.00000000 -0.00000000
vn -0.77750000 0.04290000 -0.62740000
vn -1.00000000 -0.00000000 0.00040000
vn -1.00000000 -0.00000000 0.00130000
vn -1.00000000 -0.00020000 0.00290000
vn -1.00000000 -0.00050000 0.00500000
vn -1.00000000 -0.00120000 0.00800000
vn -0.77760000 0.12800000 -0.61570000
vn -1.00000000 -0.00170000 0.00910000
vn -1.00000000 -0.00190000 0.00810000
vn -1.00000000 -0.00150000 0.00510000
vn -1.00000000 -0.00090000 0.00290000
vn -1.00000000 -0.00040000 0.00120000
vn -0.77750000 0.21060000 -0.59260000
vn -1.00000000 -0.00010000 0.00040000
vn -1.00000000 -0.00000000 -0.00000000
vn -0.77750000 0.28960000 -0.55820000
vn -1.00000000 0.00010000 -0.00020000
vn -1.00000000 0.00010000 -0.00010000
vn -0.77750000 0.36270000 -0.51380000
vn -1.00000000 0.00020000 -0.00020000
vn -0.77750000 0.42920000 -0.45960000
vn -1.00000000 -0.00000000 -0.00000000
vn -1.00000000 0.00020000 -0.00010000
vn -1.00000000 0.00110000 -0.00100000
vn -1.00000000 0.00230000 -0.00200000
vn -0.77750000 0.48810000 -0.39650000
vn -1.00000000 0.00430000 -0.00350000
vn -1.00000000 0.00730000 -0.00520000
vn -0.99990000 0.00840000 -0.00550000
vn -0.77750000 0.53730000 -0.32670000
vn -1.00000000 0.00780000 -0.00450000
vn -1.00000000 0.00510000 -0.00260000
vn -0.77750000 0.57680000 -0.25050000
vn -1.00000000 0.00280000 -0.00130000
vn -1.00000000 0.00140000 -0.00060000
vn -1.00000000 0.00030000 -0.00010000
vn -1.00000000 -0.00000000 -0.00000000
vn -1.00000000 0.00040000 -0.00010000
vn -1.00000000 0.00160000 -0.00050000
vn -1.00000000 0.00280000 -0.00090000
vn -1.00000000 0.00290000 -0.00080000
vn -0.77750000 0.60550000 -0.16980000
vn -1.00000000 -0.00000000 -0.00000000
vn -0.77750000 0.62300000 -0.08560000
vn -1.00000000 0.00010000 -0.00000000
vn -0.77750000 0.62880000 -0.00000000
vn -1.00000000 0.00010000 -0.00000000
vn -1.00000000 0.00010000 0.00190000
vn -0.77750000 0.62890000 -0.00000000
vn -1.00000000 -0.00040000 -0.00000000
vn -1.00000000 -0.00120000 -0.00010000
vn -1.00000000 -0.00290000 -0.00020000
vn -0.77750000 0.62300000 0.08560000
vn -1.00000000 -0.00500000 -0.00050000
vn -1.00000000 -0.00800000 -0.00110000
vn -1.00000000 -0.00910000 -0.00170000
vn -1.00000000 -0.00810000 -0.00190000
vn -0.77750000 0.60550000 0.16970000
vn -1.00000000 -0.00510000 -0.00140000
vn -1.00000000 -0.00290000 -0.00090000
vn -1.00000000 -0.00120000 -0.00040000
vn -1.00000000 -0.00030000 -0.00020000
vn -1.00000000 -0.00000000 -0.00000000
vn -0.77750000 0.57680000 0.25050000
vn -1.00000000 0.00020000 0.00010000
vn -0.77750000 0.53730000 0.32670000
vn -1.00000000 0.00010000 0.00010000
vn -0.77750000 0.48770000 0.39690000
vn -1.00000000 0.00020000 0.00010000
vn -1.00000000 -0.00000000 -0.00000000
vn -1.00000000 0.00020000 0.00020000
vn -0.77750000 0.42920000 0.45960000
vn -1.00000000 0.00100000 0.00100000
vn -1.00000000 0.00200000 0.00230000
vn -1.00000000 0.00350000 0.00430000
vn -1.00000000 0.00520000 0.00720000
vn -0.77750000 0.36270000 0.51380000
vn -0.99990000 0.00550000 0.00840000
vn -1.00000000 0.00450000 0.00780000
vn -0.77750000 0.28930000 0.55840000
vn -1.00000000 0.00260000 0.00510000
vn -1.00000000 0.00130000 0.00280000
vn -1.00000000 0.00060000 0.00130000
vn -1.00000000 0.00010000 0.00030000
vn -1.00000000 -0.00000000 -0.00000000
vn -1.00000000 0.00020000 0.00040000
vn -0.77750000 0.21060000 0.59250000
vn -1.00000000 0.00050000 0.00160000
vn -1.00000000 0.00090000 0.00270000
vn -1.00000000 0.00090000 0.00290000
vn -0.77750000 0.12800000 0.61570000
vn -1.00000000 -0.00000000 -0.00000000
vn -0.20000000 0.97030000 0.13640000
vn -0.20000000 0.97980000 -0.00000000
vn -0.77750000 0.62300000 -0.08560000
vn -0.20000000 0.94180000 0.27010000
vn -0.20000000 0.89510000 0.39850000
vn -0.20010000 0.83090000 0.51920000
vn -0.20000000 0.75050000 0.62980000
vn -0.20000000 0.65560000 0.72810000
vn -0.20000000 0.54790000 0.81230000
vn -0.20000000 0.42950000 0.88060000
vn -0.20000000 0.30280000 0.93180000
vn -0.20000000 0.17010000 0.96490000
vn -0.20000000 0.03420000 0.97920000
vn -0.20000000 -0.10250000 0.97440000
vn -0.20000000 -0.23700000 0.95070000
vn -0.20010000 -0.36700000 0.90840000
vn -0.20010000 -0.48990000 0.84850000
vn -0.20000000 -0.60320000 0.77210000
vn -0.20000000 -0.70480000 0.68060000
vn -0.20000000 -0.79270000 0.57590000
vn -0.20000000 -0.86510000 0.46000000
vn -0.20010000 -0.92070000 0.33510000
vn -0.20000000 -0.95840000 0.20370000
vn -0.20000000 -0.97740000 0.06840000
vn -0.20000000 -0.97740000 -0.06840000
vn -0.20000000 -0.95840000 -0.20370000
vn -0.20010000 -0.92070000 -0.33510000
vn -0.20000000 -0.86510000 -0.46000000
vn -0.20010000 -0.79270000 -0.57590000
vn -0.20000000 -0.70480000 -0.68060000
vn -0.20000000 -0.60320000 -0.77210000
vn -0.20000000 -0.48990000 -0.84850000
vn -0.20000000 -0.36700000 -0.90840000
vn -0.20010000 -0.23700000 -0.95070000
vn -0.20000000 -0.10240000 -0.97440000
vn -0.20000000 0.03420000 -0.97920000
vn -0.20000000 0.17010000 -0.96490000
vn -0.20000000 0.30280000 -0.93180000
vn -0.20000000 0.42950000 -0.88060000
vn -0.20000000 0.54790000 -0.81230000
vn -0.20000000 0.65560000 -0.72810000
vn -0.20000000 0.75060000 -0.62980000
vn -0.20000000 0.83090000 -0.51920000
vn -0.20010000 0.89510000 -0.39850000
vn -0.20000000 0.94180000 -0.27010000
vn -0.20010000 0.97020000 -0.13630000
vn -0.20000000 0.97980000 -0.00000000
vn 1.00000000 -0.00000000 -0.00000000
vn 1.00000000 -0.00000000 -0.00000000
vn 1.00000000 -0.00000000 -0.00000000
vn 1.00000000 -0.00000000 -0.00000000
vn 1.00000000 -0.00000000 -0.00000000
vn 1.00000000 -0.00000000 -0.00000000
vn 1.00000000 -0.00000000 -0.00000000
vn 1.00000000 -0.00000000 -0.00000000
vn 1.00000000 -0.00000000 -0.00000000
vn 1.00000000 -0.00000000 -0.00000000
vn 1.00000000 -0.00000000 -0.00000000
vn 1.00000000 -0.00000000 -0.00000000
vn 1.00000000 -0.00000000 -0.00000000
vn 1.00000000 -0.00000000 -0.00000000
vn 1.00000000 -0.00000000 -0.00000000
vn 1.00000000 -0.00000000 -0.00000000
vn 1.00000000 -0.00000000 -0.00000000
vn 1.00000000 -0.00000000 -0.00000000
vn 1.00000000 -0.00000000 -0.00000000
vn 1.00000000 -0.00000000 -0.00000000
vn 1.00000000 -0.00000000 -0.00000000
vn 1.00000000 -0.00000000 -0.00000000
vn 1.00000000 -0.00000000 -0.00000000
vn 1.00000000 -0.00000000 -0.00000000
vn 1.00000000 -0.00000000 -0.00000000
vn 1.00000000 -0.00000000 -0.00000000
vn 1.00000000 -0.00000000 -0.00000000
vn 1.00000000 -0.00000000 -0.00000000
vn 1.00000000 -0.00000000 -0.00000000
vn 1.00000000 -0.00000000 -0.00000000
vn 1.00000000 -0.00000000 -0.00000000
vn 1.00000000 -0.00000000 -0.00000000
vn 1.00000000 -0.00000000 -0.00000000
vn 1.00000000 -0.00000000 -0.00000000
vn 1.00000000 -0.00000000 -0.00000000
vn 1.00000000 -0.00000000 -0.00000000
vn 1.00000000 -0.00000000 -0.00000000
vn 1.00000000 -0.00000000 -0.00000000
vn 1.00000000 -0.00000000 -0.00000000
vn 1.00000000 -0.00000000 -0.00000000
vn 1.00000000 -0.00000000 -0.00000000
vn 1.00000000 -0.00000000 -0.00000000
vn 1.00000000 -0.00000000 -0.00000000
vn 1.00000000 -0.00000000 -0.00000000
vn 1.00000000 -0.00000000 -0.00000000
vn 1.00000000 -0.00000000 -0.00000000
vn 1.00000000 -0.00000000 -0.00000000
vn 1.00000000 -0.00000000 -0.00000000
vn 1.00000000 -0.00000000 -0.00000000
vn 1.00000000 -0.00000000 -0.00000000
vn 1.00000000 -0.00000000 -0.00000000
vn 1.00000000 -0.00000000 -0.00000000
vn 1.00000000 -0.00000000 -0.00000000
vn 1.00000000 -0.00000000 -0.00000000
vn 1.00000000 -0.00000000 -0.00000000
vn 1.00000000 -0.00000000 -0.00000000
vn 1.00000000 -0.00000000 -0.00000000
vn 1.00000000 -0.00000000 -0.00000000
vn 1.00000000 -0.00000000 -0.00000000
vn 1.00000000 -0.00000000 -0.00000000
vn 1.00000000 -0.00000000 -0.00000000
vn 1.00000000 -0.00000000 -0.00000000
vn 1.00000000 -0.00000000 -0.00000000
vn 1.00000000 -0.00000000 -0.00000000
vn 1.00000000 -0.00000000 -0.00000000
vn 1.00000000 -0.00000000 -0.00000000
vn 1.00000000 -0.00000000 -0.00000000
vn 1.00000000 -0.00000000 -0.00000000
vn 1.00000000 -0.00000000 -0.00000000
vn 1.00000000 -0.00000000 -0.00000000
vn 1.00000000 -0.00000000 -0.00000000
vn 1.00000000 -0.00000000 -0.00000000
vn 1.00000000 -0.00000000 -0.00000000
vn 1.00000000 -0.00000000 -0.00000000
vn 1.00000000 -0.00000000 -0.00000000
vn 1.00000000 -0.00000000 -0.00000000
vn 1.00000000 -0.00000000 -0.00000000
vn 1.00000000 -0.00000000 -0.00000000
vn 1.00000000 -0.00000000 -0.00000000
vn 1.00000000 -0.00000000 -0.00000000
vn 1.00000000 -0.00000000 -0.00000000
f 1//1 2//2 3//3
f 3//3 2//2 4//4
f 3//3 4//4 5//5
f 6//6 7//7 1//1
f 1//1 7//7 8//8
f 1//1 8//8 9//9
f 10//10 11//11 6//6
f 6//6 11//11 12//12
f 6//6 12//12 7//7
f 13//13 14//14 10//10
f 10//10 14//14 15//15
f 10//10 15//15 11//11
f 16//16 17//17 13//13
f 13//13 17//17 18//18
f 13//13 18//18 19//19
f 20//20 21//21 16//16
f 16//16 21//21 22//22
f 16//16 22//22 17//17
f 21//21 20//20 23//23
f 23//23 20//20 24//24
f 23//23 24//24 25//25
f 25//25 24//24 26//26
f 25//25 26//26 27//27
f 27//27 26//26 29//29
f 27//27 29//29 30//30
f 30//30 29//29 31//31
f 31//31 29//29 32//32
f 32//32 29//29 33//33
f 33//33 29//29 34//34
f 34//34 29//29 35//35
f 35//35 29//29 36//36
f 36//36 29//29 37//37
f 37//37 29//29 38//38
f 38//38 29//29 40//40
f 39//39 28//28 41//41
f 42//42 29//29 43//43
f 43//43 29//29 44//44
f 44//44 29//29 45//45
f 44//44 45//45 47//47
f 47//47 45//45 48//48
f 48//48 45//45 49//49
f 50//50 46//46 51//51
f 52//52 45//45 53//53
f 53//53 45//45 54//54
f 54//54 45//45 55//55
f 55//55 45//45 56//56
f 56//56 45//45 57//57
f 57//57 45//45 58//58
f 58//58 45//45 59//59
f 58//58 59//59 60//60
f 60//60 59//59 61//61
f 61//61 59//59 62//62
f 61//61 62//62 63//63
f 63//63 62//62 64//64
f 64//64 62//62 65//65
f 64//64 65//65 66//66
f 66//66 65//65 67//67
f 67//67 65//65 68//68
f 68//68 65//65 69//69
f 68//68 69//69 70//70
f 70//70 69//69 71//71
f 71//71 69//69 72//72
f 71//71 72//72 73//73
f 73//73 72//72 74//74
f 73//73 74//74 75//75
f 75//75 74//74 76//76
f 75//75 76//76 77//77
f 77//77 76//76 78//78
f 77//77 78//78 79//79
f 79//79 78//78 80//80
f 80//80 78//78 81//81
f 81//81 78//78 82//82
f 82//82 78//78 83//83
f 83//83 78//78 84//84
f 84//84 78//78 85//85
f 85//85 78//78 86//86
f 86//86 78//78 87//87
f 87//87 78//78 88//88
f 88//88 78//78 89//89
f 89//89 78//78 90//90
f 90//90 78//78 91//91
f 91//91 78//78 92//92
f 91//91 92//92 93//93
f 93//93 92//92 94//94
f 94//94 92//92 95//95
f 95//95 92//92 96//96
f 96//96 92//92 97//97
f 97//97 92//92 98//98
f 98//98 92//92 99//99
f 99//99 92//92 100//100
f 100//100 92//92 101//101
f 101//101 92//92 102//102
f 102//102 92//92 103//103
f 102//102 103//103 104//104
f 104//104 103//103 105//105
f 105//105 103//103 106//106
f 105//105 106//106 107//107
f 107//107 106//106 108//108
f 108//108 106//106 109//109
f 108//108 109//109 110//110
f 110//110 109//109 111//111
f 111//111 109//109 112//112
f 112//112 109//109 113//113
f 112//112 113//113 114//114
f 114//114 113//113 115//115
f 115//115 113//113 116//116
f 115//115 116//116 117//117
f 117//117 116//116 118//118
f 117//117 118//118 119//119
f 119//119 118//118 120//120
f 119//119 120//120 121//121
f 121//121 120//120 123//123
f 121//121 123//123 126//126
f 127//127 124//124 129//129
f 128//128 123//123 130//130
f 130//130 123//123 131//131
f 131//131 123//123 132//132
f 132//132 123//123 133//133
f 133//133 123//123 134//134
f 134//134 123//123 135//135
f 135//135 123//123 136//136
f 136//136 123//123 138//138
f 137//137 122//122 139//139
f 140//140 123//123 141//141
f 142//142 125//125 143//143
f 144//144 123//123 145//145
f 144//144 145//145 147//147
f 147//147 145//145 148//148
f 148//148 145//145 150//150
f 149//149 146//146 151//151
f 152//152 145//145 153//153
f 153//153 145//145 154//154
f 154//154 145//145 155//155
f 155//155 145//145 156//156
f 156//156 145//145 157//157
f 157//157 145//145 158//158
f 158//158 145//145 159//159
f 158//158 159//159 160//160
f 160//160 159//159 161//161
f 161//161 159//159 162//162
f 161//161 162//162 163//163
f 163//163 162//162 164//164
f 164//164 162//162 165//165
f 164//164 165//165 166//166
f 166//166 165//165 167//167
f 167//167 165//165 168//168
f 168//168 165//165 169//169
f 168//168 169//169 170//170
f 170//170 169//169 171//171
f 171//171 169//169 172//172
f 171//171 172//172 173//173
f 173//173 172//172 174//174
f 173//173 174//174 175//175
f 175//175 174//174 176//176
f 175//175 176//176 177//177
f 177//177 176//176 3//3
f 177//177 3//3 178//178
f 178//178 3//3 179//179
f 179//179 3//3 180//180
f 180//180 3//3 181//181
f 181//181 3//3 182//182
f 182//182 3//3 183//183
f 183//183 3//3 184//184
f 184//184 3//3 185//185
f 185//185 3//3 186//186
f 186//186 3//3 187//187
f 187//187 3//3 5//5
f 19//19 14//14 13//13
f 9//9 188//188 1//1
f 1//1 188//188 189//189
f 1//1 189//189 190//190
f 190//190 191//191 1//1
f 1//1 191//191 192//192
f 1//1 192//192 193//193
f 193//193 194//194 1//1
f 1//1 194//194 2//2
f 195//195 196//196 197//197
f 197//197 196//196 198//198
f 199//199 200//200 201//201
f 201//201 200//200 202//202
f 201//201 202//202 203//203
f 203//203 202//202 204//204
f 203//203 204//204 205//205
f 205//205 204//204 206//206
f 205//205 206//206 207//207
f 207//207 206//206 208//208
f 207//207 208//208 209//209
f 209//209 208//208 210//210
f 209//209 210//210 211//211
f 211//211 210//210 212//212
f 211//211 212//212 213//213
f 213//213 212//212 214//214
f 213//213 214//214 215//215
f 215//215 214//214 216//216
f 217//217 218//218 219//219
f 219//219 218//218 220//220
f 221//221 222//222 223//223
f 223//223 222//222 224//224
f 223//223 224//224 225//225
f 225//225 224//224 226//226
f 225//225 226//226 227//227
f 227//227 226//226 228//228
f 227//227 228//228 229//229
f 229//229 228//228 230//230
f 229//229 230//230 231//231
f 231//231 230//230 232//232
f 231//231 232//232 233//233
f 233//233 232//232 234//234
f 233//233 234//234 235//235
f 235//235 234//234 236//236
f 235//235 236//236 237//237
f 237//237 236//236 238//238
f 239//239 240//240 241//241
f 241//241 240//240 242//242
f 243//243 244//244 245//245
f 245//245 244//244 246//246
f 245//245 246//246 247//247
f 247//247 246//246 248//248
f 247//247 248//248 249//249
f 249//249 248//248 250//250
f 249//249 250//250 251//251
f 251//251 250//250 252//252
f 251//251 252//252 253//253
f 253//253 252//252 254//254
f 253//253 254//254 255//255
f 255//255 254//254 256//256
f 255//255 256//256 257//257
f 257//257 256//256 258//258
f 257//257 258//258 259//259
f 259//259 258//258 260//260
f 261//261 262//262 263//263
f 263//263 262//262 264//264
f 265//265 266//266 267//267
f 267//267 266//266 268//268
f 267//267 268//268 269//269
f 269//269 268//268 270//270
f 269//269 270//270 271//271
f 271//271 270//270 272//272
f 271//271 272//272 273//273
f 273//273 272//272 274//274
f 273//273 274//274 275//275
f 275//275 274//274 276//276
f 275//275 276//276 277//277
f 277//277 276//276 278//278
f 277//277 278//278 279//279
f 279//279 278//278 280//280
f 279//279 280//280 281//281
f 281//281 280//280 282//282
f 283//283 284//284 285//285
f 285//285 284//284 286//286
f 285//285 286//286 287//287
f 287//287 286//286 288//288
f 288//288 286//286 289//289
f 289//289 286//286 290//290
f 290//290 286//286 291//291
f 291//291 286//286 292//292
f 291//291 292//292 293//293
f 293//293 292//292 294//294
f 294//294 292//292 295//295
f 295//295 292//292 296//296
f 296//296 292//292 297//297
f 297//297 292//292 298//298
f 297//297 298//298 299//299
f 299//299 298//298 300//300
f 300//300 298//298 301//301
f 300//300 301//301 302//302
f 302//302 301//301 303//303
f 303//303 301//301 304//304
f 303//303 304//304 305//305
f 305//305 304//304 306//306
f 305//305 306//306 307//307
f 307//307 306//306 308//308
f 308//308 306//306 309//309
f 309//309 306//306 310//310
f 310//310 306//306 311//311
f 310//310 311//311 312//312
f 312//312 311//311 313//313
f 313//313 311//311 314//314
f 314//314 311//311 315//315
f 314//314 315//315 316//316
f 316//316 315//315 317//317
f 317//317 315//315 318//318
f 317//317 318//318 319//319
f 319//319 318//318 320//320
f 320//320 318//318 321//321
f 321//321 318//318 322//322
f 322//322 318//318 323//323
f 323//323 318//318 324//324
f 324//324 318//318 325//325
f 325//325 318//318 326//326
f 326//326 318//318 327//327
f 326//326 327//327 328//328
f 328//328 327//327 329//329
f 328//328 329//329 330//330
f 330//330 329//329 331//331
f 330//330 331//331 332//332
f 332//332 331//331 333//333
f 333//333 331//331 334//334
f 334//334 331//331 335//335
f 335//335 331//331 336//336
f 335//335 336//336 337//337
f 337//337 336//336 338//338
f 338//338 336//336 339//339
f 339//339 336//336 340//340
f 340//340 336//336 341//341
f 340//340 341//341 342//342
f 342//342 341//341 343//343
f 343//343 341//341 344//344
f 344//344 341//341 345//345
f 345//345 341//341 346//346
f 346//346 341//341 347//347
f 346//346 347//347 348//348
f 348//348 347//347 349//349
f 348//348 349//349 350//350
f 350//350 349//349 351//351
f 350//350 351//351 352//352
f 352//352 351//351 353//353
f 353//353 351//351 354//354
f 354//354 351//351 355//355
f 354//354 355//355 356//356
f 356//356 355//355 357//357
f 357//357 355//355 358//358
f 358//358 355//355 359//359
f 359//359 355//355 360//360
f 359//359 360//360 361//361
f 361//361 360//360 362//362
f 362//362 360//360 363//363
f 362//362 363//363 364//364
f 364//364 363//363 365//365
f 365//365 363//363 366//366
f 366//366 363//363 367//367
f 367//367 363//363 368//368
f 368//368 363//363 369//369
f 369//369 363//363 370//370
f 369//369 370//370 371//371
f 371//371 370//370 372//372
f 372//372 370//370 373//373
f 373//373 370//370 374//374
f 373//373 374//374 375//375
f 375//375 374//374 376//376
f 376//376 374//374 377//377
f 376//376 377//377 378//378
f 378//378 377//377 379//379
f 378//378 379//379 380//380
f 380//380 379//379 381//381
f 381//381 379//379 382//382
f 382//382 379//379 383//383
f 383//383 379//379 384//384
f 384//384 379//379 385//385
f 384//384 385//385 386//386
f 386//386 385//385 387//387
f 387//387 385//385 388//388
f 388//388 385//385 389//389
f 389//389 385//385 390//390
f 390//390 385//385 391//391
f 390//390 391//391 392//392
f 392//392 391//391 393//393
f 393//393 391//391 394//394
f 393//393 394//394 395//395
f 395//395 394//394 396//396
f 396//396 394//394 397//397
f 396//396 397//397 398//398
f 398//398 397//397 399//399
f 398//398 399//399 400//400
f 400//400 399//399 401//401
f 401//401 399//399 402//402
f 402//402 399//399 403//403
f 403//403 399//399 404//404
f 403//403 404//404 405//405
f 405//405 404//404 406//406
f 406//406 404//404 407//407
f 407//407 404//404 408//408
f 407//407 408//408 409//409
f 409//409 408//408 410//410
f 410//410 408//408 411//411
f 410//410 411//411 412//412
f 412//412 411//411 413//413
f 413//413 411//411 414//414
f 414//414 411//411 415//415
f 415//415 411//411 416//416
f 416//416 411//411 417//417
f 417//417 411//411 418//418
f 418//418 411//411 419//419
f 419//419 411//411 420//420
f 419//419 420//420 421//421
f 421//421 420//420 422//422
f 421//421 422//422 423//423
f 423//423 422//422 424//424
f 423//423 424//424 425//425
f 426//426 427//427 428//428
f 428//428 427//427 429//429
f 429//429 427//427 430//430
f 430//430 427//427 431//431
f 430//430 431//431 432//432
f 432//432 431//431 433//433
f 433//433 431//431 434//434
f 434//434 431//431 435//435
f 435//435 431//431 436//436
f 435//435 436//436 437//437
f 437//437 436//436 438//438
f 438//438 436//436 439//439
f 439//439 436//436 440//440
f 440//440 436//436 441//441
f 441//441 436//436 442//442
f 441//441 442//442 443//443
f 443//443 442//442 444//444
f 443//443 444//444 445//445
f 445//445 444//444 446//446
f 445//445 446//446 447//447
f 447//447 446//446 448//448
f 448//448 446//446 449//449
f 449//449 446//446 450//450
f 449//449 450//450 451//451
f 451//451 450//450 452//452
f 452//452 450//450 453//453
f 453//453 450//450 454//454
f 454//454 450//450 455//455
f 454//454 455//455 456//456
f 456//456 455//455 457//457
f 457//457 455//455 458//458
f 457//457 458//458 459//459
f 459//459 458//458 460//460
f 460//460 458//458 461//461
f 461//461 458//458 462//462
f 462//462 458//458 463//463
f 463//463 458//458 464//464
f 464//464 458//458 465//465
f 464//464 465//465 466//466
f 466//466 465//465 467//467
f 467//467 465//465 468//468
f 468//468 465//465 469//469
f 468//468 469//469 470//470
f 470//470 469//469 283//283
f 283//283 469//469 284//284
f 471//471 431//431 472//472
f 472//472 431//431 427//427
f 472//472 427//427 473//473
f 431//431 471//471 436//436
f 436//436 471//471 474//474
f 436//436 474//474 442//442
f 442//442 474//474 475//475
f 442//442 475//475 444//444
f 444//444 475//475 476//476
f 444//444 476//476 477//477
f 478//478 450//450 477//477
f 477//477 450//450 446//446
f 477//477 446//446 444//444
f 450//450 478//478 455//455
f 455//455 478//478 479//479
f 455//455 479//479 458//458
f 458//458 479//479 480//480
f 458//458 480//480 465//465
f 465//465 480//480 481//481
f 465//465 481//481 469//469
f 469//469 481//481 482//482
f 469//469 482//482 284//284
f 284//284 482//482 483//483
f 284//284 483//483 286//286
f 286//286 483//483 484//484
f 286//286 484//484 292//292
f 292//292 484//484 485//485
f 292//292 485//485 298//298
f 298//298 485//485 486//486
f 298//298 486//486 487//487
f 488//488 304//304 487//487
f 487//487 304//304 301//301
f 487//487 301//301 298//298
f 304//304 488//488 306//306
f 306//306 488//488 489//489
f 306//306 489//489 311//311
f 311//311 489//489 490//490
f 311//311 490//490 315//315
f 315//315 490//490 491//491
f 315//315 491//491 318//318
f 318//318 491//491 492//492
f 318//318 492//492 327//327
f 327//327 492//492 493//493
f 327//327 493//493 329//329
f 329//329 493//493 494//494
f 329//329 494//494 331//331
f 331//331 494//494 495//495
f 331//331 495//495 336//336
f 336//336 495//495 496//496
f 336//336 496//496 341//341
f 341//341 496//496 497//497
f 341//341 497//497 347//347
f 347//347 497//497 498//498
f 347//347 498//498 349//349
f 349//349 498//498 499//499
f 349//349 499//499 351//351
f 351//351 499//499 500//500
f 351//351 500//500 355//355
f 355//355 500//500 501//501
f 355//355 501//501 360//360
f 360//360 501//501 502//502
f 360//360 502//502 363//363
f 363//363 502//502 503//503
f 363//363 503//503 370//370
f 370//370 503//503 504//504
f 370//370 504//504 374//374
f 374//374 504//504 505//505
f 374//374 505//505 377//377
f 377//377 505//505 506//506
f 377//377 506//506 379//379
f 379//379 506//506 507//507
f 379//379 507//507 385//385
f 385//385 507//507 508//508
f 385//385 508//508 391//391
f 391//391 508//508 509//509
f 391//391 509//509 394//394
f 394//394 509//509 510//510
f 394//394 510//510 397//397
f 397//397 510//510 511//511
f 397//397 511//511 399//399
f 399//399 511//511 512//512
f 399//399 512//512 404//404
f 404//404 512//512 513//513
f 404//404 513//513 408//408
f 408//408 513//513 514//514
f 408//408 514//514 411//411
f 411//411 514//514 515//515
f 411//411 515//515 420//420
f 420//420 515//515 516//516
f 420//420 516//516 422//422
f 422//422 516//516 517//517
f 518//518 519//519 520//520
f 520//520 519//519 521//521
f 520//520 521//521 522//522
f 523//523 524//524 518//518
f 518//518 524//524 525//525
f 518//518 525//525 526//526
f 524//524 523//523 527//527
f 527//527 523//523 528//528
f 527//527 528//528 529//529
f 527//527 529//529 530//530
f 530//530 529//529 531//531
f 530//530 531//531 532//532
f 532//532 531//531 533//533
f 532//532 533//533 534//534
f 532//532 534//534 535//535
f 535//535 534//534 536//536
f 535//535 536//536 537//537
f 537//537 536//536 538//538
f 537//537 538//538 539//539
f 539//539 538//538 540//540
f 540//540 538//538 541//541
f 541//541 538//538 542//542
f 541//541 542//542 543//543
f 543//543 542//542 544//544
f 544//544 542//542 545//545
f 545//545 542//542 546//546
f 545//545 546//546 547//547
f 547//547 546//546 548//548
f 547//547 548//548 549//549
f 549//549 548//548 550//550
f 549//549 550//550 551//551
f 549//549 551//551 552//552
f 552//552 551//551 553//553
f 552//552 553//553 554//554
f 554//554 553//553 555//555
f 554//554 555//555 556//556
f 554//554 556//556 557//557
f 557//557 556//556 558//558
f 557//557 558//558 559//559
f 559//559 558//558 560//560
f 560//560 558//558 561//561
f 561//561 558//558 562//562
f 561//561 562//562 563//563
f 563//563 562//562 564//564
f 564//564 562//562 565//565
f 565//565 562//562 566//566
f 565//565 566//566 567//567
f 567//567 566//566 568//568
f 567//567 568//568 569//569
f 569//569 568//568 570//570
f 569//569 570//570 571//571
f 571//571 570//570 572//572
f 571//571 572//572 573//573
f 571//571 573//573 574//574
f 574//574 573//573 575//575
f 574//574 575//575 576//576
f 576//576 575//575 577//577
f 576//576 577//577 578//578
f 578//578 577//577 579//579
f 578//578 579//579 580//580
f 580//580 579//579 581//581
f 581//581 579//579 582//582
f 582//582 579//579 583//583
f 582//582 583//583 584//584
f 584//584 583//583 585//585
f 585//585 583//583 586//586
f 585//585 586//586 587//587
f 587//587 586//586 588//588
f 587//587 588//588 589//589
f 589//589 588//588 590//590
f 589//589 590//590 591//591
f 591//591 590//590 592//592
f 591//591 592//592 593//593
f 591//591 593//593 594//594
f 594//594 593//593 595//595
f 594//594 595//595 596//596
f 596//596 595//595 597//597
f 596//596 597//597 598//598
f 598//598 597//597 520//520
f 598//598 520//520 522//522
f 526//526 519//519 518//518