mtllib material.mtl
usemtl material_0
v 0.00412300 0.03263900 0.04880000
v 0.00038200 0.03279800 0.04880000
v -0.00000000 0.03289800 0.04880000
v 0.00014300 0.03264100 0.04880000
v -0.00014300 0.03264100 0.04880000
v 0.00445900 0.03249500 0.04880000
v 0.00818200 0.03186400 0.04880000
v 0.00846700 0.03168800 0.04880000
v 0.01211100 0.03058800 0.04880000
v 0.01234400 0.03038800 0.04880000
v 0.01585000 0.02882800 0.04880000
v 0.01602900 0.02861600 0.04880000
v 0.01933800 0.02661500 0.04880000
v 0.01946500 0.02640000 0.04880000
v 0.02252100 0.02398100 0.04880000
v 0.02259800 0.02377300 0.04880000
v 0.02535000 0.02096900 0.04880000
v 0.02538100 0.02077700 0.04880000
v 0.02777800 0.01762700 0.04880000
v 0.02776900 0.01745800 0.04880000
v 0.02976900 0.01400600 0.04880000
v 0.02976900 0.01400600 0.04880000
v 0.02972500 0.01386800 0.04880000
v 0.02972500 0.01386800 0.04880000
v 0.03129000 0.01016500 0.04880000
v 0.03129000 0.01016500 0.04880000
v 0.03129000 0.01016500 0.04880000
v 0.03122000 0.01006200 0.04880000
v 0.03122000 0.01006200 0.04880000
v 0.03231700 0.00616300 0.04880000
v 0.03231700 0.00616300 0.04880000
v 0.03222900 0.00609900 0.04880000
v 0.03283500 0.00206400 0.04880000
v 0.03283500 0.00206400 0.04880000
v 0.03273800 0.00204200 0.04880000
v 0.03273800 0.00204200 0.04880000
v 0.03283500 -0.00206800 0.04880000
v 0.03283500 -0.00206800 0.04880000
v 0.03283500 -0.00206800 0.04880000
v 0.03273800 -0.00204600 0.04880000
v 0.03273800 -0.00204600 0.04880000
v 0.03222900 -0.00610300 0.04880000
v 0.03222900 -0.00610300 0.04880000
v 0.03231700 -0.00616700 0.04880000
v 0.03122000 -0.01006600 0.04880000
v 0.03129000 -0.01016900 0.04880000
v 0.03129000 -0.01016900 0.04880000
v 0.02972500 -0.01387100 0.04880000
v 0.02972500 -0.01387100 0.04880000
v 0.02976900 -0.01401000 0.04880000
v 0.02976900 -0.01401000 0.04880000
v 0.02776900 -0.01746200 0.04880000
v 0.02776900 -0.01746200 0.04880000
v 0.02777800 -0.01763100 0.04880000
v 0.02777800 -0.01763100 0.04880000
v 0.02538100 -0.02078100 0.04880000
v 0.02538100 -0.02078100 0.04880000
v 0.02535000 -0.02097300 0.04880000
v 0.02535000 -0.02097300 0.04880000
v 0.02259800 -0.02377700 0.04880000
v 0.02259800 -0.02377700 0.04880000
v 0.02252100 -0.02398500 0.04880000
v 0.02252100 -0.02398500 0.04880000
v 0.01946500 -0.02640400 0.04880000
v 0.01933800 -0.02661900 0.04880000
v 0.01602900 -0.02862000 0.04880000
v 0.01585000 -0.02883200 0.04880000
v 0.01234400 -0.03039200 0.04880000
v 0.01211100 -0.03059200 0.04880000
v 0.00846700 -0.03169200 0.04880000
v 0.00818200 -0.03186800 0.04880000
v 0.00445900 -0.03249900 0.04880000
v 0.00412300 -0.03264200 0.04880000
v 0.00038200 -0.03280100 0.04880000
v -0.00000000 -0.03290200 0.04880000
v 0.00014300 -0.03264500 0.04880000
v -0.00014300 -0.03264500 0.04880000
v -0.00038200 -0.03280100 0.04880000
v -0.00412400 -0.03264200 0.04880000
v -0.00445900 -0.03249900 0.04880000
v -0.00818200 -0.03186800 0.04880000
v -0.00846800 -0.03169200 0.04880000
v -0.01211100 -0.03059200 0.04880000
v -0.01234500 -0.03039200 0.04880000
v -0.01585000 -0.02883200 0.04880000
v -0.01602900 -0.02862000 0.04880000
v -0.01933800 -0.02661900 0.04880000
v -0.01946500 -0.02640400 0.04880000
v -0.02252200 -0.02398500 0.04880000
v -0.02252200 -0.02398500 0.04880000
v -0.02259900 -0.02377700 0.04880000
v -0.02259900 -0.02377700 0.04880000
v -0.02535000 -0.02097300 0.04880000
v -0.02535000 -0.02097300 0.04880000
v -0.02538100 -0.02078100 0.04880000
v -0.02538100 -0.02078100 0.04880000
v -0.02777800 -0.01763100 0.04880000
v -0.02777800 -0.01763100 0.04880000
v -0.02776900 -0.01746200 0.04880000
v -0.02776900 -0.01746200 0.04880000
v -0.02976900 -0.01401000 0.04880000
v -0.02976900 -0.01401000 0.04880000
v -0.02972500 -0.01387100 0.04880000
v -0.02972500 -0.01387100 0.04880000
v -0.03129000 -0.01016900 0.04880000
v -0.03129000 -0.01016900 0.04880000
v -0.03122000 -0.01006600 0.04880000
v -0.03231700 -0.00616700 0.04880000
v -0.03222900 -0.00610300 0.04880000
v -0.03222900 -0.00610300 0.04880000
v -0.03283500 -0.00206800 0.04880000
v -0.03283500 -0.00206800 0.04880000
v -0.03283500 -0.00206800 0.04880000
v -0.03273800 -0.00204600 0.04880000
v -0.03273800 -0.00204600 0.04880000
v -0.03273800 -0.00204600 0.04880000
v -0.03283500 0.00206400 0.04880000
v -0.03283500 0.00206400 0.04880000
v -0.03283500 0.00206400 0.04880000
v -0.03273800 0.00204200 0.04880000
v -0.03273800 0.00204200 0.04880000
v -0.03222900 0.00609900 0.04880000
v -0.03222900 0.00609900 0.04880000
v -0.03231700 0.00616300 0.04880000
v -0.03231700 0.00616300 0.04880000
v -0.03122000 0.01006200 0.04880000
v -0.03122000 0.01006200 0.04880000
v -0.03129000 0.01016500 0.04880000
v -0.03129000 0.01016500 0.04880000
v -0.03129000 0.01016500 0.04880000
v -0.02972500 0.01386800 0.04880000
v -0.02972500 0.01386800 0.04880000
v -0.02972500 0.01386800 0.04880000
v -0.02976900 0.01400600 0.04880000
v -0.02976900 0.01400600 0.04880000
v -0.02976900 0.01400600 0.04880000
v -0.02776900 0.01745800 0.04880000
v -0.02776900 0.01745800 0.04880000
v -0.02777800 0.01762700 0.04880000
v -0.02538100 0.02077700 0.04880000
v -0.02535000 0.02096900 0.04880000
v -0.02259900 0.02377300 0.04880000
v -0.02252200 0.02398100 0.04880000
v -0.01946500 0.02640000 0.04880000
v -0.01933800 0.02661500 0.04880000
v -0.01602900 0.02861600 0.04880000
v -0.01585000 0.02882800 0.04880000
v -0.01234500 0.03038800 0.04880000
v -0.01211100 0.03058800 0.04880000
v -0.00846800 0.03168800 0.04880000
v -0.00818200 0.03186400 0.04880000
v -0.00445900 0.03249500 0.04880000
v -0.00412400 0.03263900 0.04880000
v -0.00038200 0.03279800 0.04880000
v 0.00389900 -0.02899100 0.06130000
v 0.00389900 -0.02899100 0.04880000
v -0.00000000 -0.02925200 0.06130000
v -0.00000000 -0.02925200 0.04880000
v -0.00000000 -0.02925200 0.06130000
v -0.00000000 -0.02925200 0.04880000
v -0.00389900 -0.02899100 0.06130000
v -0.00389900 -0.02899100 0.04880000
v -0.00772800 -0.02821300 0.06130000
v -0.00772800 -0.02821300 0.04880000
v -0.01141900 -0.02693100 0.06130000
v -0.01141900 -0.02693100 0.04880000
v -0.01490600 -0.02516900 0.06130000
v -0.01490600 -0.02516900 0.04880000
v -0.01812800 -0.02295700 0.06130000
v -0.01812800 -0.02295700 0.04880000
v -0.02102600 -0.02033600 0.06130000
v -0.02102600 -0.02033600 0.04880000
v -0.02354800 -0.01735200 0.06130000
v -0.02354800 -0.01735200 0.04880000
v -0.02565100 -0.01405900 0.06130000
v -0.02565100 -0.01405900 0.04880000
v -0.02729600 -0.01051500 0.06130000
v -0.02729600 -0.01051500 0.04880000
v -0.02845300 -0.00678300 0.06130000
v -0.02845300 -0.00678300 0.04880000
v -0.02910300 -0.00293000 0.06130000
v -0.02910300 -0.00293000 0.04880000
v -0.02923400 0.00097500 0.06130000
v -0.02923400 0.00097500 0.04880000
v -0.02884300 0.00486300 0.06130000
v -0.02884300 0.00486300 0.04880000
v -0.02793700 0.00866400 0.06130000
v -0.02793700 0.00866400 0.04880000
v -0.02653300 0.01231000 0.06130000
v -0.02653300 0.01231000 0.04880000
v -0.02465500 0.01573700 0.06130000
v -0.02465500 0.01573700 0.04880000
v -0.02233700 0.01888300 0.06130000
v -0.02233700 0.01888300 0.04880000
v -0.01962100 0.02169100 0.06130000
v -0.01962100 0.02169100 0.04880000
v -0.01655400 0.02411300 0.06130000
v -0.01655400 0.02411300 0.04880000
v -0.01319200 0.02610400 0.06130000
v -0.01319200 0.02610400 0.04880000
v -0.00959500 0.02763000 0.06130000
v -0.00959500 0.02763000 0.04880000
v -0.00582600 0.02866200 0.06130000
v -0.00582600 0.02866200 0.04880000
v -0.00195400 0.02918300 0.06130000
v -0.00195400 0.02918300 0.04880000
v 0.00195400 0.02918300 0.06130000
v 0.00195400 0.02918300 0.04880000
v 0.00582600 0.02866200 0.06130000
v 0.00582600 0.02866200 0.04880000
v 0.00959500 0.02763000 0.06130000
v 0.00959500 0.02763000 0.04880000
v 0.01319200 0.02610400 0.06130000
v 0.01319200 0.02610400 0.04880000
v 0.01655400 0.02411300 0.06130000
v 0.01655400 0.02411300 0.04880000
v 0.01962000 0.02169100 0.06130000
v 0.01962000 0.02169100 0.04880000
v 0.02233700 0.01888300 0.06130000
v 0.02233700 0.01888300 0.04880000
v 0.02465400 0.01573700 0.06130000
v 0.02465400 0.01573700 0.04880000
v 0.02653200 0.01231000 0.06130000
v 0.02653200 0.01231000 0.04880000
v 0.02793700 0.00866400 0.06130000
v 0.02793700 0.00866400 0.04880000
v 0.02884200 0.00486300 0.06130000
v 0.02884200 0.00486300 0.04880000
v 0.02923400 0.00097500 0.06130000
v 0.02923400 0.00097500 0.04880000
v 0.02910300 -0.00293000 0.06130000
v 0.02910300 -0.00293000 0.04880000
v 0.02845300 -0.00678300 0.06130000
v 0.02845300 -0.00678300 0.04880000
v 0.02729500 -0.01051500 0.06130000
v 0.02729500 -0.01051500 0.04880000
v 0.02565100 -0.01405900 0.06130000
v 0.02565100 -0.01405900 0.04880000
v 0.02354800 -0.01735200 0.06130000
v 0.02354800 -0.01735200 0.04880000
v 0.02102500 -0.02033600 0.06130000
v 0.02102500 -0.02033600 0.04880000
v 0.01812800 -0.02295700 0.06130000
v 0.01812800 -0.02295700 0.04880000
v 0.01490600 -0.02516900 0.06130000
v 0.01490600 -0.02516900 0.04880000
v 0.01141900 -0.02693100 0.06130000
v 0.01141900 -0.02693100 0.04880000
v 0.00772800 -0.02821300 0.06130000
v 0.00772800 -0.02821300 0.04880000
v -0.00412400 0.03263900 0.04880000
v -0.00412400 0.03263900 0.06130000
v -0.00000000 0.03289800 0.04880000
v -0.00000000 0.03289800 0.06130000
v -0.00000000 0.03289800 0.04880000
v -0.00000000 0.03289800 0.06130000
v 0.00412300 0.03263900 0.04880000
v 0.00412300 0.03263900 0.06130000
v 0.00818200 0.03186400 0.06130000
v -0.00818200 0.03186400 0.04880000
v -0.00818200 0.03186400 0.06130000
v -0.01211100 0.03058800 0.04880000
v -0.01211100 0.03058800 0.06130000
v -0.01585000 0.02882800 0.04880000
v -0.01585000 0.02882800 0.06130000
v -0.01933800 0.02661500 0.04880000
v -0.01933800 0.02661500 0.06130000
v -0.02252200 0.02398100 0.04880000
v -0.02252200 0.02398100 0.06130000
v -0.02535000 0.02096900 0.04880000
v -0.02535000 0.02096900 0.06130000
v -0.02777800 0.01762700 0.04880000
v -0.02777800 0.01762700 0.06130000
v -0.02976900 0.01400600 0.04880000
v -0.02976900 0.01400600 0.06130000
v -0.03129000 0.01016500 0.04880000
v -0.03129000 0.01016500 0.06130000
v -0.03231700 0.00616300 0.04880000
v -0.03231700 0.00616300 0.06130000
v -0.03283500 0.00206400 0.04880000
v -0.03283500 0.00206400 0.06130000
v -0.03283500 -0.00206800 0.04880000
v -0.03283500 -0.00206800 0.06130000
v -0.03231700 -0.00616700 0.04880000
v -0.03231700 -0.00616700 0.06130000
v -0.03129000 -0.01016900 0.04880000
v -0.03129000 -0.01016900 0.06130000
v -0.02976900 -0.01401000 0.04880000
v -0.02976900 -0.01401000 0.06130000
v -0.02777800 -0.01763100 0.04880000
v -0.02777800 -0.01763100 0.06130000
v -0.02535000 -0.02097300 0.04880000
v -0.02535000 -0.02097300 0.06130000
v -0.02252200 -0.02398500 0.04880000
v -0.02252200 -0.02398500 0.06130000
v -0.01933800 -0.02661900 0.04880000
v -0.01933800 -0.02661900 0.06130000
v -0.01585000 -0.02883200 0.04880000
v -0.01585000 -0.02883200 0.06130000
v -0.01211100 -0.03059200 0.04880000
v -0.01211100 -0.03059200 0.06130000
v -0.00818200 -0.03186800 0.04880000
v -0.00818200 -0.03186800 0.06130000
v -0.00412400 -0.03264200 0.04880000
v -0.00412400 -0.03264200 0.06130000
v -0.00000000 -0.03290200 0.04880000
v -0.00000000 -0.03290200 0.06130000
v 0.00412300 -0.03264200 0.04880000
v 0.00412300 -0.03264200 0.06130000
v 0.00818200 -0.03186800 0.04880000
v 0.00818200 -0.03186800 0.06130000
v 0.01211100 -0.03059200 0.04880000
v 0.01211100 -0.03059200 0.06130000
v 0.01585000 -0.02883200 0.04880000
v 0.01585000 -0.02883200 0.06130000
v 0.01933800 -0.02661900 0.04880000
v 0.01933800 -0.02661900 0.06130000
v 0.02252100 -0.02398500 0.04880000
v 0.02252100 -0.02398500 0.06130000
v 0.02535000 -0.02097300 0.04880000
v 0.02535000 -0.02097300 0.06130000
v 0.02777800 -0.01763100 0.04880000
v 0.02777800 -0.01763100 0.06130000
v 0.02976900 -0.01401000 0.04880000
v 0.02976900 -0.01401000 0.06130000
v 0.03129000 -0.01016900 0.04880000
v 0.03129000 -0.01016900 0.06130000
v 0.03231700 -0.00616700 0.04880000
v 0.03231700 -0.00616700 0.06130000
v 0.03283500 -0.00206800 0.04880000
v 0.03283500 -0.00206800 0.06130000
v 0.03283500 0.00206400 0.04880000
v 0.03283500 0.00206400 0.06130000
v 0.03231700 0.00616300 0.04880000
v 0.03231700 0.00616300 0.06130000
v 0.03129000 0.01016500 0.04880000
v 0.03129000 0.01016500 0.06130000
v 0.02976900 0.01400600 0.04880000
v 0.02976900 0.01400600 0.06130000
v 0.02777800 0.01762700 0.04880000
v 0.02777800 0.01762700 0.06130000
v 0.02535000 0.02096900 0.04880000
v 0.02535000 0.02096900 0.06130000
v 0.02252100 0.02398100 0.04880000
v 0.02252100 0.02398100 0.06130000
v 0.01933800 0.02661500 0.04880000
v 0.01933800 0.02661500 0.06130000
v 0.01585000 0.02882800 0.04880000
v 0.01585000 0.02882800 0.06130000
v 0.01211100 0.03058800 0.04880000
v 0.01211100 0.03058800 0.06130000
v 0.00818200 0.03186400 0.04880000
v -0.00412400 0.03263900 0.06130000
v -0.00195400 0.02918300 0.06130000
v -0.00000000 0.03289800 0.06130000
v 0.00195400 0.02918300 0.06130000
v 0.00412300 0.03263900 0.06130000
v 0.00582600 0.02866200 0.06130000
v 0.00818200 0.03186400 0.06130000
v 0.00959500 0.02763000 0.06130000
v 0.01211100 0.03058800 0.06130000
v 0.01319200 0.02610400 0.06130000
v 0.01585000 0.02882800 0.06130000
v 0.01655400 0.02411300 0.06130000
v 0.01933800 0.02661500 0.06130000
v 0.01962000 0.02169100 0.06130000
v 0.02252100 0.02398100 0.06130000
v 0.02233700 0.01888300 0.06130000
v 0.02535000 0.02096900 0.06130000
v 0.02465400 0.01573700 0.06130000
v 0.02777800 0.01762700 0.06130000
v 0.02976900 0.01400600 0.06130000
v 0.02653200 0.01231000 0.06130000
v 0.03129000 0.01016500 0.06130000
v 0.02793700 0.00866400 0.06130000
v 0.03231700 0.00616300 0.06130000
v 0.02884200 0.00486300 0.06130000
v 0.03283500 0.00206400 0.06130000
v 0.02923400 0.00097500 0.06130000
v 0.03283500 -0.00206800 0.06130000
v 0.02910300 -0.00293000 0.06130000
v 0.03231700 -0.00616700 0.06130000
v 0.02845300 -0.00678300 0.06130000
v 0.03129000 -0.01016900 0.06130000
v 0.02729500 -0.01051500 0.06130000
v 0.02976900 -0.01401000 0.06130000
v 0.02565100 -0.01405900 0.06130000
v 0.02777800 -0.01763100 0.06130000
v 0.02354800 -0.01735200 0.06130000
v 0.02535000 -0.02097300 0.06130000
v 0.02102500 -0.02033600 0.06130000
v 0.02252100 -0.02398500 0.06130000
v 0.01812800 -0.02295700 0.06130000
v 0.01933800 -0.02661900 0.06130000
v 0.01490600 -0.02516900 0.06130000
v 0.01585000 -0.02883200 0.06130000
v 0.01141900 -0.02693100 0.06130000
v 0.01211100 -0.03059200 0.06130000
v 0.00772800 -0.02821300 0.06130000
v 0.00818200 -0.03186800 0.06130000
v 0.00389900 -0.02899100 0.06130000
v 0.00412300 -0.03264200 0.06130000
v -0.00000000 -0.02925200 0.06130000
v -0.00000000 -0.03290200 0.06130000
v -0.00412400 -0.03264200 0.06130000
v -0.00389900 -0.02899100 0.06130000
v -0.00818200 -0.03186800 0.06130000
v -0.00772800 -0.02821300 0.06130000
v -0.01211100 -0.03059200 0.06130000
v -0.01141900 -0.02693100 0.06130000
v -0.01585000 -0.02883200 0.06130000
v -0.01490600 -0.02516900 0.06130000
v -0.01933800 -0.02661900 0.06130000
v -0.01812800 -0.02295700 0.06130000
v -0.02252200 -0.02398500 0.06130000
v -0.02102600 -0.02033600 0.06130000
v -0.02535000 -0.02097300 0.06130000
v -0.02354800 -0.01735200 0.06130000
v -0.02777800 -0.01763100 0.06130000
v -0.02565100 -0.01405900 0.06130000
v -0.02976900 -0.01401000 0.06130000
v -0.02729600 -0.01051500 0.06130000
v -0.03129000 -0.01016900 0.06130000
v -0.02845300 -0.00678300 0.06130000
v -0.03231700 -0.00616700 0.06130000
v -0.02910300 -0.00293000 0.06130000
v -0.03283500 -0.00206800 0.06130000
v -0.02923400 0.00097500 0.06130000
v -0.03283500 0.00206400 0.06130000
v -0.02884300 0.00486300 0.06130000
v -0.03231700 0.00616300 0.06130000
v -0.02793700 0.00866400 0.06130000
v -0.03129000 0.01016500 0.06130000
v -0.02653300 0.01231000 0.06130000
v -0.02976900 0.01400600 0.06130000
v -0.02465500 0.01573700 0.06130000
v -0.02777800 0.01762700 0.06130000
v -0.02535000 0.02096900 0.06130000
v -0.02233700 0.01888300 0.06130000
v -0.02252200 0.02398100 0.06130000
v -0.01962100 0.02169100 0.06130000
v -0.01933800 0.02661500 0.06130000
v -0.01655400 0.02411300 0.06130000
v -0.01585000 0.02882800 0.06130000
v -0.01319200 0.02610400 0.06130000
v -0.01211100 0.03058800 0.06130000
v -0.00959500 0.02763000 0.06130000
v -0.00818200 0.03186400 0.06130000
v -0.00582600 0.02866200 0.06130000
v -0.00343500 0.02223400 0.05640000
v -0.00343500 0.02223400 0.06140000
v -0.00000000 0.02249800 0.05640000
v -0.00000000 0.02249800 0.06140000
v -0.00000000 0.02249800 0.05640000
v -0.00000000 0.02249800 0.06140000
v 0.00343400 0.02223400 0.05640000
v 0.00343400 0.02223400 0.06140000
v 0.00678900 0.02144900 0.05640000
v 0.00678900 0.02144900 0.06140000
v 0.00998400 0.02016200 0.05640000
v 0.00998400 0.02016200 0.06140000
v 0.01294500 0.01840100 0.05640000
v 0.01294500 0.01840100 0.06140000
v 0.01560200 0.01621000 0.05640000
v 0.01560200 0.01621000 0.06140000
v 0.01789400 0.01363800 0.05640000
v 0.01789400 0.01363800 0.06140000
v 0.01976600 0.01074700 0.05640000
v 0.01976600 0.01074700 0.06140000
v 0.02117500 0.00760300 0.05640000
v 0.02117500 0.00760300 0.06140000
v 0.02208800 0.00428200 0.05640000
v 0.02208800 0.00428200 0.06140000
v 0.02248300 0.00086000 0.05640000
v 0.02248300 0.00086000 0.06140000
v 0.02235100 -0.00258200 0.05640000
v 0.02235100 -0.00258200 0.06140000
v 0.02169600 -0.00596400 0.05640000
v 0.02169600 -0.00596400 0.06140000
v 0.02053100 -0.00920600 0.05640000
v 0.02053100 -0.00920600 0.06140000
v 0.01888600 -0.01223200 0.05640000
v 0.01888600 -0.01223200 0.06140000
v 0.01679700 -0.01497200 0.05640000
v 0.01679700 -0.01497200 0.06140000
v 0.01431500 -0.01736000 0.05640000
v 0.01431500 -0.01736000 0.06140000
v 0.01149800 -0.01934200 0.05640000
v 0.01149800 -0.01934200 0.06140000
v 0.00841100 -0.02087100 0.05640000
v 0.00841100 -0.02087100 0.06140000
v 0.00512700 -0.02191000 0.05640000
v 0.00512700 -0.02191000 0.06140000
v 0.00172200 -0.02243600 0.05640000
v 0.00172200 -0.02243600 0.06140000
v -0.00172200 -0.02243600 0.05640000
v -0.00172200 -0.02243600 0.06140000
v -0.00512700 -0.02191000 0.05640000
v -0.00512700 -0.02191000 0.06140000
v -0.00841100 -0.02087100 0.05640000
v -0.00841100 -0.02087100 0.06140000
v -0.01149800 -0.01934200 0.05640000
v -0.01149800 -0.01934200 0.06140000
v -0.01431600 -0.01736000 0.05640000
v -0.01431600 -0.01736000 0.06140000
v -0.01679800 -0.01497200 0.05640000
v -0.01679800 -0.01497200 0.06140000
v -0.01888600 -0.01223200 0.05640000
v -0.01888600 -0.01223200 0.06140000
v -0.02053100 -0.00920600 0.05640000
v -0.02053100 -0.00920600 0.06140000
v -0.02169600 -0.00596400 0.05640000
v -0.02169600 -0.00596400 0.06140000
v -0.02235200 -0.00258200 0.05640000
v -0.02235200 -0.00258200 0.06140000
v -0.02248400 0.00086000 0.05640000
v -0.02248400 0.00086000 0.06140000
v -0.02208900 0.00428200 0.05640000
v -0.02208900 0.00428200 0.06140000
v -0.02117600 0.00760300 0.05640000
v -0.02117600 0.00760300 0.06140000
v -0.01976700 0.01074700 0.05640000
v -0.01976700 0.01074700 0.06140000
v -0.01789400 0.01363800 0.05640000
v -0.01789400 0.01363800 0.06140000
v -0.01560200 0.01621000 0.05640000
v -0.01560200 0.01621000 0.06140000
v -0.01294500 0.01840100 0.05640000
v -0.01294500 0.01840100 0.06140000
v -0.00998400 0.02016200 0.05640000
v -0.00998400 0.02016200 0.06140000
v -0.00678900 0.02144900 0.05640000
v -0.00678900 0.02144900 0.06140000
v 0.00343400 0.02223400 0.06140000
v -0.00000000 0.02249800 0.06140000
v -0.01149800 -0.01934200 0.06140000
v -0.00343500 0.02223400 0.06140000
v -0.00678900 0.02144900 0.06140000
v -0.00998400 0.02016200 0.06140000
v -0.01294500 0.01840100 0.06140000
v -0.01431600 -0.01736000 0.06140000
v -0.01560200 0.01621000 0.06140000
v -0.01679800 -0.01497200 0.06140000
v -0.01789400 0.01363800 0.06140000
v -0.01888600 -0.01223200 0.06140000
v -0.01976700 0.01074700 0.06140000
v -0.02053100 -0.00920600 0.06140000
v -0.02117600 0.00760300 0.06140000
v -0.02169600 -0.00596400 0.06140000
v -0.02208900 0.00428200 0.06140000
v -0.02235200 -0.00258200 0.06140000
v -0.02248400 0.00086000 0.06140000
v -0.00841100 -0.02087100 0.06140000
v 0.02235100 -0.00258200 0.06140000
v 0.02248300 0.00086000 0.06140000
v 0.02208800 0.00428200 0.06140000
v -0.00512700 -0.02191000 0.06140000
v 0.00841100 -0.02087100 0.06140000
v 0.01149800 -0.01934200 0.06140000
v 0.01431500 -0.01736000 0.06140000
v 0.00512700 -0.02191000 0.06140000
v -0.00172200 -0.02243600 0.06140000
v 0.00172200 -0.02243600 0.06140000
v 0.01679700 -0.01497200 0.06140000
v 0.01888600 -0.01223200 0.06140000
v 0.02053100 -0.00920600 0.06140000
v 0.02169600 -0.00596400 0.06140000
v 0.02117500 0.00760300 0.06140000
v 0.01976600 0.01074700 0.06140000
v 0.01789400 0.01363800 0.06140000
v 0.01560200 0.01621000 0.06140000
v 0.01294500 0.01840100 0.06140000
v 0.00998400 0.02016200 0.06140000
v 0.00678900 0.02144900 0.06140000
v -0.00384700 0.02798500 0.04880000
v -0.00384700 0.02798500 0.05640000
v -0.00000000 0.02824800 0.04880000
v -0.00000000 0.02824800 0.05640000
v -0.00000000 0.02824800 0.04880000
v -0.00000000 0.02824800 0.05640000
v 0.00384700 0.02798500 0.04880000
v 0.00384700 0.02798500 0.05640000
v 0.00762200 0.02720000 0.04880000
v 0.00762200 0.02720000 0.05640000
v 0.01125500 0.02590900 0.04880000
v 0.01125500 0.02590900 0.05640000
v 0.01467800 0.02413500 0.04880000
v 0.01467800 0.02413500 0.05640000
v 0.01782800 0.02191200 0.04880000
v 0.01782800 0.02191200 0.05640000
v 0.02064600 0.01928000 0.04880000
v 0.02064600 0.01928000 0.05640000
v 0.02307900 0.01628900 0.04880000
v 0.02307900 0.01628900 0.05640000
v 0.02508300 0.01299500 0.04880000
v 0.02508300 0.01299500 0.05640000
v 0.02661900 0.00945800 0.04880000
v 0.02661900 0.00945800 0.05640000
v 0.02765900 0.00574600 0.04880000
v 0.02765900 0.00574600 0.05640000
v 0.02818400 0.00192600 0.04880000
v 0.02818400 0.00192600 0.05640000
v 0.02818400 -0.00193000 0.04880000
v 0.02818400 -0.00193000 0.05640000
v 0.02765900 -0.00575000 0.04880000
v 0.02765900 -0.00575000 0.05640000
v 0.02661900 -0.00946200 0.04880000
v 0.02661900 -0.00946200 0.05640000
v 0.02508300 -0.01299900 0.04880000
v 0.02508300 -0.01299900 0.05640000
v 0.02307900 -0.01629300 0.04880000
v 0.02307900 -0.01629300 0.05640000
v 0.02064600 -0.01928400 0.04880000
v 0.02064600 -0.01928400 0.05640000
v 0.01782800 -0.02191600 0.04880000
v 0.01782800 -0.02191600 0.05640000
v 0.01467800 -0.02413900 0.04880000
v 0.01467800 -0.02413900 0.05640000
v 0.01125500 -0.02591300 0.04880000
v 0.01125500 -0.02591300 0.05640000
v 0.00762200 -0.02720400 0.04880000
v 0.00762200 -0.02720400 0.05640000
v 0.00384700 -0.02798900 0.04880000
v 0.00384700 -0.02798900 0.05640000
v -0.00000000 -0.02825200 0.04880000
v -0.00000000 -0.02825200 0.05640000
v -0.00384700 -0.02798900 0.04880000
v -0.00384700 -0.02798900 0.05640000
v -0.00762200 -0.02720400 0.04880000
v -0.00762200 -0.02720400 0.05640000
v -0.01125500 -0.02591300 0.04880000
v -0.01125500 -0.02591300 0.05640000
v -0.01467800 -0.02413900 0.04880000
v -0.01467800 -0.02413900 0.05640000
v -0.01782800 -0.02191600 0.04880000
v -0.01782800 -0.02191600 0.05640000
v -0.02064600 -0.01928400 0.04880000
v -0.02064600 -0.01928400 0.05640000
v -0.02308000 -0.01629300 0.04880000
v -0.02308000 -0.01629300 0.05640000
v -0.02508300 -0.01299900 0.04880000
v -0.02508300 -0.01299900 0.05640000
v -0.02661900 -0.00946200 0.04880000
v -0.02661900 -0.00946200 0.05640000
v -0.02765900 -0.00575000 0.04880000
v -0.02765900 -0.00575000 0.05640000
v -0.02818400 -0.00193000 0.04880000
v -0.02818400 -0.00193000 0.05640000
v -0.02818400 0.00192600 0.04880000
v -0.02818400 0.00192600 0.05640000
v -0.02765900 0.00574600 0.04880000
v -0.02765900 0.00574600 0.05640000
v -0.02661900 0.00945800 0.04880000
v -0.02661900 0.00945800 0.05640000
v -0.02508300 0.01299500 0.04880000
v -0.02508300 0.01299500 0.05640000
v -0.02308000 0.01628900 0.04880000
v -0.02308000 0.01628900 0.05640000
v -0.02064600 0.01928000 0.04880000
v -0.02064600 0.01928000 0.05640000
v -0.01782800 0.02191200 0.04880000
v -0.01782800 0.02191200 0.05640000
v -0.01467800 0.02413500 0.04880000
v -0.01467800 0.02413500 0.05640000
v -0.01125500 0.02590900 0.04880000
v -0.01125500 0.02590900 0.05640000
v -0.00762200 0.02720000 0.04880000
v -0.00762200 0.02720000 0.05640000
v 0.00384700 0.02798500 0.05640000
v -0.00000000 0.02824800 0.05640000
v -0.00000000 0.02249800 0.05640000
v -0.00384700 0.02798500 0.05640000
v -0.00343500 0.02223400 0.05640000
v -0.00762200 0.02720000 0.05640000
v -0.00678900 0.02144900 0.05640000
v -0.01125500 0.02590900 0.05640000
v -0.00998400 0.02016200 0.05640000
v -0.01467800 0.02413500 0.05640000
v -0.01294500 0.01840100 0.05640000
v -0.01782800 0.02191200 0.05640000
v -0.01560200 0.01621000 0.05640000
v -0.02064600 0.01928000 0.05640000
v -0.01789400 0.01363800 0.05640000
v -0.02308000 0.01628900 0.05640000
v -0.01976700 0.01074700 0.05640000
v -0.02508300 0.01299500 0.05640000
v -0.02117600 0.00760300 0.05640000
v -0.02661900 0.00945800 0.05640000
v -0.02765900 0.00574600 0.05640000
v -0.02208900 0.00428200 0.05640000
v -0.02818400 0.00192600 0.05640000
v -0.02248400 0.00086000 0.05640000
v -0.02818400 -0.00193000 0.05640000
v -0.02235200 -0.00258200 0.05640000
v -0.02765900 -0.00575000 0.05640000
v -0.02169600 -0.00596400 0.05640000
v -0.02661900 -0.00946200 0.05640000
v -0.02053100 -0.00920600 0.05640000
v -0.02508300 -0.01299900 0.05640000
v -0.01888600 -0.01223200 0.05640000
v -0.02308000 -0.01629300 0.05640000
v -0.01679800 -0.01497200 0.05640000
v -0.02064600 -0.01928400 0.05640000
v -0.01431600 -0.01736000 0.05640000
v -0.01782800 -0.02191600 0.05640000
v -0.01467800 -0.02413900 0.05640000
v -0.01149800 -0.01934200 0.05640000
v -0.01125500 -0.02591300 0.05640000
v -0.00841100 -0.02087100 0.05640000
v -0.00762200 -0.02720400 0.05640000
v -0.00512700 -0.02191000 0.05640000
v -0.00384700 -0.02798900 0.05640000
v -0.00172200 -0.02243600 0.05640000
v -0.00000000 -0.02825200 0.05640000
v 0.00172200 -0.02243600 0.05640000
v 0.00384700 -0.02798900 0.05640000
v 0.00512700 -0.02191000 0.05640000
v 0.00762200 -0.02720400 0.05640000
v 0.00841100 -0.02087100 0.05640000
v 0.01125500 -0.02591300 0.05640000
v 0.01149800 -0.01934200 0.05640000
v 0.01467800 -0.02413900 0.05640000
v 0.01431500 -0.01736000 0.05640000
v 0.01782800 -0.02191600 0.05640000
v 0.02064600 -0.01928400 0.05640000
v 0.01679700 -0.01497200 0.05640000
v 0.02307900 -0.01629300 0.05640000
v 0.01888600 -0.01223200 0.05640000
v 0.02508300 -0.01299900 0.05640000
v 0.02053100 -0.00920600 0.05640000
v 0.02661900 -0.00946200 0.05640000
v 0.02169600 -0.00596400 0.05640000
v 0.02765900 -0.00575000 0.05640000
v 0.02235100 -0.00258200 0.05640000
v 0.02818400 -0.00193000 0.05640000
v 0.02248300 0.00086000 0.05640000
v 0.02818400 0.00192600 0.05640000
v 0.02208800 0.00428200 0.05640000
v 0.02765900 0.00574600 0.05640000
v 0.02117500 0.00760300 0.05640000
v 0.02661900 0.00945800 0.05640000
v 0.02508300 0.01299500 0.05640000
v 0.01976600 0.01074700 0.05640000
v 0.02307900 0.01628900 0.05640000
v 0.01789400 0.01363800 0.05640000
v 0.02064600 0.01928000 0.05640000
v 0.01560200 0.01621000 0.05640000
v 0.01782800 0.02191200 0.05640000
v 0.01294500 0.01840100 0.05640000
v 0.01467800 0.02413500 0.05640000
v 0.00998400 0.02016200 0.05640000
v 0.01125500 0.02590900 0.05640000
v 0.00678900 0.02144900 0.05640000
v 0.00762200 0.02720000 0.05640000
v 0.00343400 0.02223400 0.05640000
v 0.00038200 -0.03280100 0.04880000
v 0.00048500 -0.03300200 0.04860000
v 0.00445900 -0.03249900 0.04880000
v 0.00458300 -0.03268600 0.04860000
v 0.00846700 -0.03169200 0.04880000
v 0.00861000 -0.03186300 0.04860000
v 0.01234400 -0.03039200 0.04880000
v 0.01250300 -0.03054500 0.04860000
v 0.01602900 -0.02862000 0.04880000
v 0.01620300 -0.02875400 0.04860000
v 0.01946500 -0.02640400 0.04880000
v 0.01965100 -0.02651700 0.04860000
v 0.02259800 -0.02377700 0.04880000
v 0.02279500 -0.02386900 0.04860000
v 0.02538100 -0.02078100 0.04880000
v 0.02558400 -0.02085000 0.04860000
v 0.02776900 -0.01746200 0.04880000
v 0.02797800 -0.01750800 0.04860000
v 0.02972500 -0.01387100 0.04880000
v 0.02993700 -0.01389500 0.04860000
v 0.03122000 -0.01006600 0.04880000
v 0.03143100 -0.01006600 0.04860000
v 0.03222900 -0.00610300 0.04880000
v 0.03243900 -0.00608100 0.04860000
v 0.03273800 -0.00204600 0.04880000
v 0.03294300 -0.00200200 0.04860000
v 0.03294200 -0.00131000 0.04863500
v 0.03294200 -0.00061900 0.04865500
v 0.03273800 0.00204200 0.04880000
v 0.03294200 0.00076300 0.04865200
v 0.03294300 0.00188900 0.04860600
v 0.03294300 0.00188900 0.04860600
v 0.03293500 0.00199800 0.04860700
v 0.03243100 0.00607600 0.04860700
v 0.03222900 0.00609900 0.04880000
v 0.03142400 0.01006100 0.04860700
v 0.03122000 0.01006200 0.04880000
v 0.02992900 0.01388900 0.04860700
v 0.02972500 0.01386800 0.04880000
v 0.02797100 0.01750100 0.04860700
v 0.02776900 0.01745800 0.04880000
v 0.02557800 0.02084300 0.04860700
v 0.02538100 0.02077700 0.04880000
v 0.02278900 0.02386000 0.04860700
v 0.02259800 0.02377300 0.04880000
v 0.01964600 0.02650800 0.04860700
v 0.01946500 0.02640000 0.04880000
v 0.01619800 0.02874400 0.04860700
v 0.01602900 0.02861600 0.04880000
v 0.01249900 0.03053500 0.04860700
v 0.01234400 0.03038800 0.04880000
v 0.00860600 0.03185200 0.04860700
v 0.00846700 0.03168800 0.04880000
v 0.00458000 0.03267500 0.04860700
v 0.00445900 0.03249500 0.04880000
v 0.00048300 0.03299100 0.04860700
v 0.00038200 0.03279800 0.04880000
v -0.00038200 -0.03280100 0.04880000
v -0.00445900 -0.03249900 0.04880000
v -0.00048500 -0.03300200 0.04860000
v -0.00458300 -0.03268600 0.04860000
v -0.00846800 -0.03169200 0.04880000
v -0.00861000 -0.03186300 0.04860000
v -0.01234500 -0.03039200 0.04880000
v -0.01250400 -0.03054500 0.04860000
v -0.01602900 -0.02862000 0.04880000
v -0.01620300 -0.02875400 0.04860000
v -0.01946500 -0.02640400 0.04880000
v -0.01965100 -0.02651700 0.04860000
v -0.02259900 -0.02377700 0.04880000
v -0.02279500 -0.02386900 0.04860000
v -0.02538100 -0.02078100 0.04880000
v -0.02558500 -0.02085000 0.04860000
v -0.02776900 -0.01746200 0.04880000
v -0.02797800 -0.01750800 0.04860000
v -0.02972500 -0.01387100 0.04880000
v -0.02993700 -0.01389500 0.04860000
v -0.03122000 -0.01006600 0.04880000
v -0.03143200 -0.01006600 0.04860000
v -0.03222900 -0.00610300 0.04880000
v -0.03243900 -0.00608100 0.04860000
v -0.03273800 -0.00204600 0.04880000
v -0.03294300 -0.00200200 0.04860000
v -0.03294300 0.00188900 0.04860600
v -0.03273800 0.00204200 0.04880000
v -0.03293500 0.00199800 0.04860700
v -0.03293500 0.00199800 0.04860700
v -0.03243100 0.00607600 0.04860700
v -0.03222900 0.00609900 0.04880000
v -0.03142400 0.01006100 0.04860700
v -0.03122000 0.01006200 0.04880000
v -0.02993000 0.01388900 0.04860700
v -0.02972500 0.01386800 0.04880000
v -0.02797100 0.01750100 0.04860700
v -0.02776900 0.01745800 0.04880000
v -0.02557800 0.02084200 0.04860700
v -0.02538100 0.02077700 0.04880000
v -0.02278900 0.02386000 0.04860700
v -0.02259900 0.02377300 0.04880000
v -0.01964600 0.02650800 0.04860700
v -0.01946500 0.02640000 0.04880000
v -0.01619800 0.02874400 0.04860700
v -0.01602900 0.02861600 0.04880000
v -0.01249900 0.03053500 0.04860700
v -0.01234500 0.03038800 0.04880000
v -0.00860700 0.03185200 0.04860700
v -0.00846800 0.03168800 0.04880000
v -0.00458000 0.03267500 0.04860700
v -0.00445900 0.03249500 0.04880000
v -0.00048300 0.03299100 0.04860700
v -0.00038200 0.03279800 0.04880000
vn -0.00000000 -0.00000000 -1.00000000
vn -0.00000000 -0.00000000 -1.00000000
vn -0.00000000 -0.00000000 -1.00000000
vn -0.00000000 -0.00000000 -1.00000000
vn -0.00000000 -0.00000000 -1.00000000
vn -0.00000000 -0.00000000 -1.00000000
vn -0.00000000 -0.00000000 -1.00000000
vn -0.00000000 -0.00000000 -1.00000000
vn -0.00000000 -0.00000000 -1.00000000
vn -0.00000000 -0.00000000 -1.00000000
vn -0.00000000 -0.00000000 -1.00000000
vn -0.00000000 -0.00000000 -1.00000000
vn -0.00000000 -0.00000000 -1.00000000
vn -0.00000000 -0.00000000 -1.00000000
vn -0.00000000 -0.00000000 -1.00000000
vn -0.00000000 -0.00000000 -1.00000000
vn -0.00000000 -0.00000000 -1.00000000
vn -0.00000000 -0.00000000 -1.00000000
vn -0.00000000 -0.00000000 -1.00000000
vn -0.00000000 -0.00000000 -1.00000000
vn 0.00010000 -0.00000000 -1.00000000
vn -0.00000000 -0.00000000 -1.00000000
vn 0.00010000 -0.00000000 -1.00000000
vn -0.00000000 -0.00000000 -1.00000000
vn -0.00000000 -0.00000000 -1.00000000
vn -0.00010000 -0.00000000 -1.00000000
vn 0.00010000 -0.00000000 -1.00000000
vn -0.00010000 -0.00000000 -1.00000000
vn -0.00000000 -0.00000000 -1.00000000
vn -0.00000000 -0.00000000 -1.00000000
vn -0.00010000 -0.00000000 -1.00000000
vn -0.00000000 -0.00000000 -1.00000000
vn -0.00000000 -0.00000000 -1.00000000
vn -0.00010000 -0.00000000 -1.00000000
vn -0.00010000 -0.00000000 -1.00000000
vn -0.00000000 -0.00000000 -1.00000000
vn -0.00000000 -0.00000000 -1.00000000
vn -0.00010000 -0.00000000 -1.00000000
vn 0.00020000 -0.00000000 -1.00000000
vn -0.00010000 -0.00000000 -1.00000000
vn 0.00020000 -0.00000000 -1.00000000
vn 0.00020000 -0.00000000 -1.00000000
vn -0.00000000 -0.00000000 -1.00000000
vn -0.00000000 -0.00000000 -1.00000000
vn -0.00000000 -0.00000000 -1.00000000
vn 0.00010000 -0.00000000 -1.00000000
vn -0.00000000 -0.00000000 -1.00000000
vn -0.00000000 -0.00000000 -1.00000000
vn 0.00010000 -0.00000000 -1.00000000
vn -0.00000000 -0.00000000 -1.00000000
vn 0.00010000 -0.00000000 -1.00000000
vn -0.00000000 -0.00000000 -1.00000000
vn 0.00010000 -0.00000000 -1.00000000
vn -0.00000000 -0.00000000 -1.00000000
vn 0.00010000 -0.00000000 -1.00000000
vn 0.00010000 -0.00000000 -1.00000000
vn -0.00000000 -0.00000000 -1.00000000
vn -0.00000000 -0.00000000 -1.00000000
vn -0.00010000 -0.00000000 -1.00000000
vn -0.00000000 -0.00000000 -1.00000000
vn -0.00010000 -0.00000000 -1.00000000
vn -0.00010000 -0.00000000 -1.00000000
vn -0.00000000 -0.00000000 -1.00000000
vn -0.00000000 -0.00000000 -1.00000000
vn -0.00000000 -0.00000000 -1.00000000
vn -0.00000000 -0.00000000 -1.00000000
vn -0.00000000 -0.00000000 -1.00000000
vn -0.00000000 -0.00000000 -1.00000000
vn -0.00000000 -0.00000000 -1.00000000
vn -0.00000000 -0.00000000 -1.00000000
vn -0.00000000 -0.00000000 -1.00000000
vn -0.00000000 -0.00000000 -1.00000000
vn -0.00000000 -0.00000000 -1.00000000
vn -0.00000000 -0.00000000 -1.00000000
vn -0.00000000 -0.00000000 -1.00000000
vn -0.00000000 -0.00000000 -1.00000000
vn -0.00000000 -0.00000000 -1.00000000
vn -0.00000000 -0.00000000 -1.00000000
vn -0.00000000 -0.00000000 -1.00000000
vn -0.00000000 -0.00000000 -1.00000000
vn -0.00000000 -0.00000000 -1.00000000
vn -0.00000000 -0.00000000 -1.00000000
vn -0.00000000 -0.00000000 -1.00000000
vn -0.00000000 -0.00000000 -1.00000000
vn -0.00000000 -0.00000000 -1.00000000
vn -0.00000000 -0.00000000 -1.00000000
vn -0.00000000 -0.00000000 -1.00000000
vn -0.00000000 -0.00000000 -1.00000000
vn 0.00010000 -0.00000000 -1.00000000
vn -0.00000000 -0.00000000 -1.00000000
vn 0.00010000 -0.00000000 -1.00000000
vn -0.00000000 -0.00000000 -1.00000000
vn -0.00000000 -0.00000000 -1.00000000
vn 0.00010000 -0.00000000 -1.00000000
vn -0.00000000 -0.00000000 -1.00000000
vn -0.00010000 -0.00000000 -1.00000000
vn -0.00010000 -0.00000000 -1.00000000
vn -0.00000000 -0.00000000 -1.00000000
vn -0.00000000 -0.00000000 -1.00000000
vn -0.00010000 -0.00000000 -1.00000000
vn -0.00000000 -0.00000000 -1.00000000
vn -0.00010000 -0.00000000 -1.00000000
vn -0.00000000 -0.00000000 -1.00000000
vn -0.00010000 -0.00000000 -1.00000000
vn -0.00010000 -0.00000000 -1.00000000
vn -0.00000000 -0.00000000 -1.00000000
vn -0.00000000 -0.00000000 -1.00000000
vn -0.00000000 -0.00000000 -1.00000000
vn -0.00000000 -0.00000000 -1.00000000
vn -0.00020000 -0.00000000 -1.00000000
vn 0.00010000 -0.00000000 -1.00000000
vn -0.00000000 -0.00000000 -1.00000000
vn -0.00020000 -0.00000000 -1.00000000
vn 0.00010000 -0.00000000 -1.00000000
vn -0.00020000 -0.00000000 -1.00000000
vn -0.00000000 -0.00000000 -1.00000000
vn -0.00000000 -0.00000000 -1.00000000
vn 0.00010000 -0.00000000 -1.00000000
vn -0.00010000 -0.00000000 -1.00000000
vn -0.00010000 -0.00000000 -1.00000000
vn -0.00000000 -0.00000000 -1.00000000
vn -0.00000000 -0.00000000 -1.00000000
vn -0.00010000 -0.00000000 -1.00000000
vn -0.00000000 -0.00000000 -1.00000000
vn 0.00010000 -0.00000000 -1.00000000
vn 0.00010000 -0.00000000 -1.00000000
vn -0.00000000 -0.00000000 -1.00000000
vn 0.00010000 -0.00000000 -1.00000000
vn -0.00000000 -0.00000000 -1.00000000
vn -0.00010000 -0.00000000 -1.00000000
vn -0.00000000 -0.00000000 -1.00000000
vn -0.00010000 -0.00000000 -1.00000000
vn 0.00010000 -0.00000000 -1.00000000
vn -0.00010000 -0.00000000 -1.00000000
vn 0.00010000 -0.00000000 -1.00000000
vn -0.00000000 -0.00000000 -1.00000000
vn -0.00000000 -0.00000000 -1.00000000
vn 0.00010000 -0.00000000 -1.00000000
vn -0.00000000 -0.00000000 -1.00000000
vn -0.00000000 -0.00000000 -1.00000000
vn -0.00000000 -0.00000000 -1.00000000
vn -0.00000000 -0.00000000 -1.00000000
vn -0.00000000 -0.00000000 -1.00000000
vn -0.00000000 -0.00000000 -1.00000000
vn -0.00000000 -0.00000000 -1.00000000
vn -0.00000000 -0.00000000 -1.00000000
vn -0.00000000 -0.00000000 -1.00000000
vn -0.00000000 -0.00000000 -1.00000000
vn -0.00000000 -0.00000000 -1.00000000
vn -0.00000000 -0.00000000 -1.00000000
vn -0.00000000 -0.00000000 -1.00000000
vn -0.00000000 -0.00000000 -1.00000000
vn -0.00000000 -0.00000000 -1.00000000
vn -0.00000000 -0.00000000 -1.00000000
vn -0.13330000 0.99110000 -0.00000000
vn -0.13330000 0.99110000 -0.00000000
vn -0.00000000 1.00000000 -0.00000000
vn -0.00000000 1.00000000 -0.00000000
vn -0.00000000 1.00000000 -0.00000000
vn -0.00000000 1.00000000 -0.00000000
vn 0.13330000 0.99110000 -0.00000000
vn 0.13330000 0.99110000 -0.00000000
vn 0.26420000 0.96450000 -0.00000000
vn 0.26420000 0.96450000 -0.00000000
vn 0.39040000 0.92060000 -0.00000000
vn 0.39040000 0.92060000 -0.00000000
vn 0.50960000 0.86040000 -0.00000000
vn 0.50960000 0.86040000 -0.00000000
vn 0.61970000 0.78480000 -0.00000000
vn 0.61970000 0.78480000 -0.00000000
vn 0.71880000 0.69520000 -0.00000000
vn 0.71880000 0.69520000 -0.00000000
vn 0.80510000 0.59320000 -0.00000000
vn 0.80510000 0.59320000 -0.00000000
vn 0.87700000 0.48060000 -0.00000000
vn 0.87690000 0.48060000 -0.00000000
vn 0.93320000 0.35940000 -0.00000000
vn 0.93320000 0.35940000 -0.00000000
vn 0.97280000 0.23180000 -0.00000000
vn 0.97280000 0.23180000 -0.00000000
vn 0.99500000 0.10010000 -0.00000000
vn 0.99500000 0.10010000 -0.00000000
vn 0.99940000 -0.03340000 -0.00000000
vn 0.99940000 -0.03340000 -0.00000000
vn 0.98610000 -0.16630000 -0.00000000
vn 0.98610000 -0.16630000 -0.00000000
vn 0.95510000 -0.29630000 -0.00000000
vn 0.95510000 -0.29630000 -0.00000000
vn 0.90710000 -0.42090000 -0.00000000
vn 0.90710000 -0.42090000 -0.00000000
vn 0.84290000 -0.53810000 -0.00000000
vn 0.84290000 -0.53810000 -0.00000000
vn 0.76370000 -0.64560000 -0.00000000
vn 0.76370000 -0.64560000 -0.00000000
vn 0.67080000 -0.74170000 -0.00000000
vn 0.67080000 -0.74170000 -0.00000000
vn 0.56590000 -0.82440000 -0.00000000
vn 0.56590000 -0.82440000 -0.00000000
vn 0.45100000 -0.89250000 -0.00000000
vn 0.45100000 -0.89250000 -0.00000000
vn 0.32800000 -0.94470000 -0.00000000
vn 0.32800000 -0.94470000 -0.00000000
vn 0.19920000 -0.98000000 -0.00000000
vn 0.19920000 -0.98000000 -0.00000000
vn 0.06680000 -0.99780000 -0.00000000
vn 0.06680000 -0.99780000 -0.00000000
vn -0.06680000 -0.99780000 -0.00000000
vn -0.06680000 -0.99780000 -0.00000000
vn -0.19920000 -0.98000000 -0.00000000
vn -0.19920000 -0.98000000 -0.00000000
vn -0.32800000 -0.94470000 -0.00000000
vn -0.32800000 -0.94470000 -0.00000000
vn -0.45100000 -0.89250000 -0.00000000
vn -0.45100000 -0.89250000 -0.00000000
vn -0.56590000 -0.82440000 -0.00000000
vn -0.56590000 -0.82440000 -0.00000000
vn -0.67080000 -0.74170000 -0.00000000
vn -0.67080000 -0.74170000 -0.00000000
vn -0.76370000 -0.64560000 -0.00000000
vn -0.76370000 -0.64560000 -0.00000000
vn -0.84290000 -0.53810000 -0.00000000
vn -0.84290000 -0.53810000 -0.00000000
vn -0.90710000 -0.42090000 -0.00000000
vn -0.90710000 -0.42090000 -0.00000000
vn -0.95510000 -0.29630000 -0.00000000
vn -0.95510000 -0.29630000 -0.00000000
vn -0.98610000 -0.16630000 -0.00000000
vn -0.98610000 -0.16630000 -0.00000000
vn -0.99940000 -0.03340000 -0.00000000
vn -0.99940000 -0.03340000 -0.00000000
vn -0.99500000 0.10010000 -0.00000000
vn -0.99500000 0.10010000 -0.00000000
vn -0.97280000 0.23180000 -0.00000000
vn -0.97280000 0.23180000 -0.00000000
vn -0.93320000 0.35940000 -0.00000000
vn -0.93320000 0.35940000 -0.00000000
vn -0.87690000 0.48060000 -0.00000000
vn -0.87690000 0.48060000 -0.00000000
vn -0.80510000 0.59320000 -0.00000000
vn -0.80510000 0.59320000 -0.00000000
vn -0.71880000 0.69520000 -0.00000000
vn -0.71880000 0.69520000 -0.00000000
vn -0.61970000 0.78480000 -0.00000000
vn -0.61970000 0.78480000 -0.00000000
vn -0.50960000 0.86040000 -0.00000000
vn -0.50960000 0.86040000 -0.00000000
vn -0.39040000 0.92060000 -0.00000000
vn -0.39040000 0.92060000 -0.00000000
vn -0.26420000 0.96450000 -0.00000000
vn -0.26420000 0.96450000 -0.00000000
vn -0.12530000 0.99210000 -0.00000000
vn -0.12530000 0.99210000 -0.00000000
vn -0.00000000 1.00000000 -0.00000000
vn -0.00000000 1.00000000 -0.00000000
vn -0.00000000 1.00000000 -0.00000000
vn -0.00000000 1.00000000 -0.00000000
vn 0.12530000 0.99210000 -0.00000000
vn 0.12530000 0.99210000 -0.00000000
vn 0.24870000 0.96860000 -0.00000000
vn -0.24870000 0.96860000 -0.00000000
vn -0.24870000 0.96860000 -0.00000000
vn -0.36810000 0.92980000 -0.00000000
vn -0.36810000 0.92980000 -0.00000000
vn -0.48180000 0.87630000 -0.00000000
vn -0.48180000 0.87630000 -0.00000000
vn -0.58780000 0.80900000 -0.00000000
vn -0.58780000 0.80900000 -0.00000000
vn -0.68450000 0.72900000 -0.00000000
vn -0.68450000 0.72900000 -0.00000000
vn -0.77050000 0.63740000 -0.00000000
vn -0.77050000 0.63740000 -0.00000000
vn -0.84430000 0.53580000 -0.00000000
vn -0.84430000 0.53580000 -0.00000000
vn -0.90480000 0.42580000 -0.00000000
vn -0.90480000 0.42580000 -0.00000000
vn -0.95110000 0.30900000 -0.00000000
vn -0.95110000 0.30900000 -0.00000000
vn -0.98230000 0.18740000 -0.00000000
vn -0.98230000 0.18740000 -0.00000000
vn -0.99800000 0.06280000 -0.00000000
vn -0.99800000 0.06280000 -0.00000000
vn -0.99800000 -0.06280000 -0.00000000
vn -0.99800000 -0.06280000 -0.00000000
vn -0.98230000 -0.18740000 -0.00000000
vn -0.98230000 -0.18740000 -0.00000000
vn -0.95110000 -0.30900000 -0.00000000
vn -0.95110000 -0.30900000 -0.00000000
vn -0.90480000 -0.42580000 -0.00000000
vn -0.90480000 -0.42580000 -0.00000000
vn -0.84430000 -0.53580000 -0.00000000
vn -0.84430000 -0.53580000 -0.00000000
vn -0.77050000 -0.63740000 -0.00000000
vn -0.77050000 -0.63740000 -0.00000000
vn -0.68450000 -0.72900000 -0.00000000
vn -0.68460000 -0.72900000 -0.00000000
vn -0.58780000 -0.80900000 -0.00000000
vn -0.58780000 -0.80900000 -0.00000000
vn -0.48170000 -0.87630000 -0.00000000
vn -0.48180000 -0.87630000 -0.00000000
vn -0.36810000 -0.92980000 -0.00000000
vn -0.36810000 -0.92980000 -0.00000000
vn -0.24870000 -0.96860000 -0.00000000
vn -0.24870000 -0.96860000 -0.00000000
vn -0.12530000 -0.99210000 -0.00000000
vn -0.12530000 -0.99210000 -0.00000000
vn -0.00000000 -1.00000000 -0.00000000
vn -0.00000000 -1.00000000 -0.00000000
vn 0.12530000 -0.99210000 -0.00000000
vn 0.12530000 -0.99210000 -0.00000000
vn 0.24870000 -0.96860000 -0.00000000
vn 0.24870000 -0.96860000 -0.00000000
vn 0.36810000 -0.92980000 -0.00000000
vn 0.36810000 -0.92980000 -0.00000000
vn 0.48180000 -0.87630000 -0.00000000
vn 0.48170000 -0.87630000 -0.00000000
vn 0.58780000 -0.80900000 -0.00000000
vn 0.58780000 -0.80900000 -0.00000000
vn 0.68450000 -0.72900000 -0.00000000
vn 0.68450000 -0.72900000 -0.00000000
vn 0.77050000 -0.63740000 -0.00000000
vn 0.77050000 -0.63740000 -0.00000000
vn 0.84430000 -0.53580000 -0.00000000
vn 0.84430000 -0.53580000 -0.00000000
vn 0.90480000 -0.42580000 -0.00000000
vn 0.90480000 -0.42580000 -0.00000000
vn 0.95110000 -0.30900000 -0.00000000
vn 0.95110000 -0.30900000 -0.00000000
vn 0.98230000 -0.18740000 -0.00000000
vn 0.98230000 -0.18740000 -0.00000000
vn 0.99800000 -0.06280000 -0.00000000
vn 0.99800000 -0.06280000 -0.00000000
vn 0.99800000 0.06280000 -0.00000000
vn 0.99800000 0.06280000 -0.00000000
vn 0.98230000 0.18740000 -0.00000000
vn 0.98230000 0.18740000 -0.00000000
vn 0.95110000 0.30900000 -0.00000000
vn 0.95110000 0.30900000 -0.00000000
vn 0.90480000 0.42580000 -0.00000000
vn 0.90480000 0.42580000 -0.00000000
vn 0.84430000 0.53580000 -0.00000000
vn 0.84430000 0.53580000 -0.00000000
vn 0.77050000 0.63740000 -0.00000000
vn 0.77050000 0.63740000 -0.00000000
vn 0.68450000 0.72900000 -0.00000000
vn 0.68450000 0.72900000 -0.00000000
vn 0.58780000 0.80900000 -0.00000000
vn 0.58780000 0.80900000 -0.00000000
vn 0.48180000 0.87630000 -0.00000000
vn 0.48180000 0.87630000 -0.00000000
vn 0.36810000 0.92980000 -0.00000000
vn 0.36810000 0.92980000 -0.00000000
vn 0.24870000 0.96860000 -0.00000000
vn -0.00000000 -0.00000000 1.00000000
vn -0.00000000 -0.00000000 1.00000000
vn -0.00000000 -0.00000000 1.00000000
vn -0.00000000 -0.00000000 1.00000000
vn -0.00000000 -0.00000000 1.00000000
vn -0.00000000 -0.00000000 1.00000000
vn -0.00000000 -0.00000000 1.00000000
vn -0.00000000 -0.00000000 1.00000000
vn -0.00000000 -0.00000000 1.00000000
vn -0.00000000 -0.00000000 1.00000000
vn -0.00000000 -0.00000000 1.00000000
vn -0.00000000 -0.00000000 1.00000000
vn -0.00000000 -0.00000000 1.00000000
vn -0.00000000 -0.00000000 1.00000000
vn -0.00000000 -0.00000000 1.00000000
vn -0.00000000 -0.00000000 1.00000000
vn -0.00000000 -0.00000000 1.00000000
vn -0.00000000 -0.00000000 1.00000000
vn -0.00000000 -0.00000000 1.00000000
vn -0.00000000 -0.00000000 1.00000000
vn -0.00000000 -0.00000000 1.00000000
vn -0.00000000 -0.00000000 1.00000000
vn -0.00000000 -0.00000000 1.00000000
vn -0.00000000 -0.00000000 1.00000000
vn -0.00000000 -0.00000000 1.00000000
vn -0.00000000 -0.00000000 1.00000000
vn -0.00000000 -0.00000000 1.00000000
vn -0.00000000 -0.00000000 1.00000000
vn -0.00000000 -0.00000000 1.00000000
vn -0.00000000 -0.00000000 1.00000000
vn -0.00000000 -0.00000000 1.00000000
vn -0.00000000 -0.00000000 1.00000000
vn -0.00000000 -0.00000000 1.00000000
vn -0.00000000 -0.00000000 1.00000000
vn -0.00000000 -0.00000000 1.00000000
vn -0.00000000 -0.00000000 1.00000000
vn -0.00000000 -0.00000000 1.00000000
vn -0.00000000 -0.00000000 1.00000000
vn -0.00000000 -0.00000000 1.00000000
vn -0.00000000 -0.00000000 1.00000000
vn -0.00000000 -0.00000000 1.00000000
vn -0.00000000 -0.00000000 1.00000000
vn -0.00000000 -0.00000000 1.00000000
vn -0.00000000 -0.00000000 1.00000000
vn -0.00000000 -0.00000000 1.00000000
vn -0.00000000 -0.00000000 1.00000000
vn -0.00000000 -0.00000000 1.00000000
vn -0.00000000 -0.00000000 1.00000000
vn -0.00000000 -0.00000000 1.00000000
vn -0.00000000 -0.00000000 1.00000000
vn -0.00000000 -0.00000000 1.00000000
vn -0.00000000 -0.00000000 1.00000000
vn -0.00000000 -0.00000000 1.00000000
vn -0.00000000 -0.00000000 1.00000000
vn -0.00000000 -0.00000000 1.00000000
vn -0.00000000 -0.00000000 1.00000000
vn -0.00000000 -0.00000000 1.00000000
vn -0.00000000 -0.00000000 1.00000000
vn -0.00000000 -0.00000000 1.00000000
vn -0.00000000 -0.00000000 1.00000000
vn -0.00000000 -0.00000000 1.00000000
vn -0.00000000 -0.00000000 1.00000000
vn -0.00000000 -0.00000000 1.00000000
vn -0.00000000 -0.00000000 1.00000000
vn -0.00000000 -0.00000000 1.00000000
vn -0.00000000 -0.00000000 1.00000000
vn -0.00000000 -0.00000000 1.00000000
vn -0.00000000 -0.00000000 1.00000000
vn -0.00000000 -0.00000000 1.00000000
vn -0.00000000 -0.00000000 1.00000000
vn -0.00000000 -0.00000000 1.00000000
vn -0.00000000 -0.00000000 1.00000000
vn -0.00000000 -0.00000000 1.00000000
vn -0.00000000 -0.00000000 1.00000000
vn -0.00000000 -0.00000000 1.00000000
vn -0.00000000 -0.00000000 1.00000000
vn -0.00000000 -0.00000000 1.00000000
vn -0.00000000 -0.00000000 1.00000000
vn -0.00000000 -0.00000000 1.00000000
vn -0.00000000 -0.00000000 1.00000000
vn -0.00000000 -0.00000000 1.00000000
vn -0.00000000 -0.00000000 1.00000000
vn -0.00000000 -0.00000000 1.00000000
vn -0.00000000 -0.00000000 1.00000000
vn -0.00000000 -0.00000000 1.00000000
vn -0.00000000 -0.00000000 1.00000000
vn -0.00000000 -0.00000000 1.00000000
vn -0.00000000 -0.00000000 1.00000000
vn -0.00000000 -0.00000000 1.00000000
vn -0.00000000 -0.00000000 1.00000000
vn -0.00000000 -0.00000000 1.00000000
vn -0.00000000 -0.00000000 1.00000000
vn -0.00000000 -0.00000000 1.00000000
vn -0.00000000 -0.00000000 1.00000000
vn -0.00000000 -0.00000000 1.00000000
vn -0.00000000 -0.00000000 1.00000000
vn -0.00000000 -0.00000000 1.00000000
vn -0.15270000 0.98830000 -0.00000000
vn -0.15260000 0.98830000 -0.00000000
vn -0.00000000 1.00000000 -0.00000000
vn -0.00000000 1.00000000 -0.00000000
vn -0.00000000 1.00000000 -0.00000000
vn -0.00000000 1.00000000 -0.00000000
vn 0.15260000 0.98830000 -0.00000000
vn 0.15260000 0.98830000 -0.00000000
vn 0.30170000 0.95340000 -0.00000000
vn 0.30170000 0.95340000 -0.00000000
vn 0.44370000 0.89620000 -0.00000000
vn 0.44370000 0.89620000 -0.00000000
vn 0.57530000 0.81790000 -0.00000000
vn 0.57530000 0.81790000 -0.00000000
vn 0.69340000 0.72050000 -0.00000000
vn 0.69340000 0.72050000 -0.00000000
vn 0.79530000 0.60620000 -0.00000000
vn 0.79530000 0.60620000 -0.00000000
vn 0.87850000 0.47770000 -0.00000000
vn 0.87850000 0.47770000 -0.00000000
vn 0.94110000 0.33800000 -0.00000000
vn 0.94110000 0.33800000 -0.00000000
vn 0.98170000 0.19040000 -0.00000000
vn 0.98170000 0.19040000 -0.00000000
vn 0.99930000 0.03830000 -0.00000000
vn 0.99930000 0.03830000 -0.00000000
vn 0.99340000 -0.11470000 -0.00000000
vn 0.99340000 -0.11470000 -0.00000000
vn 0.96430000 -0.26500000 -0.00000000
vn 0.96430000 -0.26500000 -0.00000000
vn 0.91250000 -0.40910000 -0.00000000
vn 0.91250000 -0.40910000 -0.00000000
vn 0.83940000 -0.54360000 -0.00000000
vn 0.83940000 -0.54360000 -0.00000000
vn 0.74660000 -0.66530000 -0.00000000
vn 0.74660000 -0.66530000 -0.00000000
vn 0.63620000 -0.77150000 -0.00000000
vn 0.63620000 -0.77150000 -0.00000000
vn 0.51100000 -0.85960000 -0.00000000
vn 0.51100000 -0.85960000 -0.00000000
vn 0.37380000 -0.92750000 -0.00000000
vn 0.37380000 -0.92750000 -0.00000000
vn 0.22790000 -0.97370000 -0.00000000
vn 0.22790000 -0.97370000 -0.00000000
vn 0.07660000 -0.99710000 -0.00000000
vn 0.07660000 -0.99710000 -0.00000000
vn -0.07660000 -0.99710000 -0.00000000
vn -0.07660000 -0.99710000 -0.00000000
vn -0.22790000 -0.97370000 -0.00000000
vn -0.22790000 -0.97370000 -0.00000000
vn -0.37380000 -0.92750000 -0.00000000
vn -0.37380000 -0.92750000 -0.00000000
vn -0.51100000 -0.85960000 -0.00000000
vn -0.51100000 -0.85960000 -0.00000000
vn -0.63620000 -0.77150000 -0.00000000
vn -0.63620000 -0.77150000 -0.00000000
vn -0.74660000 -0.66530000 -0.00000000
vn -0.74660000 -0.66530000 -0.00000000
vn -0.83940000 -0.54360000 -0.00000000
vn -0.83940000 -0.54360000 -0.00000000
vn -0.91250000 -0.40910000 -0.00000000
vn -0.91250000 -0.40910000 -0.00000000
vn -0.96430000 -0.26500000 -0.00000000
vn -0.96430000 -0.26500000 -0.00000000
vn -0.99340000 -0.11470000 -0.00000000
vn -0.99340000 -0.11470000 -0.00000000
vn -0.99930000 0.03830000 -0.00000000
vn -0.99930000 0.03830000 -0.00000000
vn -0.98170000 0.19040000 -0.00000000
vn -0.98170000 0.19040000 -0.00000000
vn -0.94110000 0.33800000 -0.00000000
vn -0.94110000 0.33800000 -0.00000000
vn -0.87850000 0.47770000 -0.00000000
vn -0.87850000 0.47770000 -0.00000000
vn -0.79530000 0.60620000 -0.00000000
vn -0.79530000 0.60620000 -0.00000000
vn -0.69340000 0.72050000 -0.00000000
vn -0.69340000 0.72050000 -0.00000000
vn -0.57530000 0.81790000 -0.00000000
vn -0.57530000 0.81790000 -0.00000000
vn -0.44370000 0.89620000 -0.00000000
vn -0.44370000 0.89620000 -0.00000000
vn -0.30170000 0.95340000 -0.00000000
vn -0.30170000 0.95340000 -0.00000000
vn -0.00000000 -0.00000000 1.00000000
vn -0.00000000 -0.00000000 1.00000000
vn -0.00000000 -0.00000000 1.00000000
vn -0.00000000 -0.00000000 1.00000000
vn -0.00000000 -0.00000000 1.00000000
vn -0.00000000 -0.00000000 1.00000000
vn -0.00000000 -0.00000000 1.00000000
vn -0.00000000 -0.00000000 1.00000000
vn -0.00000000 -0.00000000 1.00000000
vn -0.00000000 -0.00000000 1.00000000
vn -0.00000000 -0.00000000 1.00000000
vn -0.00000000 -0.00000000 1.00000000
vn -0.00000000 -0.00000000 1.00000000
vn -0.00000000 -0.00000000 1.00000000
vn -0.00000000 -0.00000000 1.00000000
vn -0.00000000 -0.00000000 1.00000000
vn -0.00000000 -0.00000000 1.00000000
vn -0.00000000 -0.00000000 1.00000000
vn -0.00000000 -0.00000000 1.00000000
vn -0.00000000 -0.00000000 1.00000000
vn -0.00000000 -0.00000000 1.00000000
vn -0.00000000 -0.00000000 1.00000000
vn -0.00000000 -0.00000000 1.00000000
vn -0.00000000 -0.00000000 1.00000000
vn -0.00000000 -0.00000000 1.00000000
vn -0.00000000 -0.00000000 1.00000000
vn -0.00000000 -0.00000000 1.00000000
vn -0.00000000 -0.00000000 1.00000000
vn -0.00000000 -0.00000000 1.00000000
vn -0.00000000 -0.00000000 1.00000000
vn -0.00000000 -0.00000000 1.00000000
vn -0.00000000 -0.00000000 1.00000000
vn -0.00000000 -0.00000000 1.00000000
vn -0.00000000 -0.00000000 1.00000000
vn -0.00000000 -0.00000000 1.00000000
vn -0.00000000 -0.00000000 1.00000000
vn -0.00000000 -0.00000000 1.00000000
vn -0.00000000 -0.00000000 1.00000000
vn -0.00000000 -0.00000000 1.00000000
vn -0.00000000 -0.00000000 1.00000000
vn -0.00000000 -0.00000000 1.00000000
vn -0.13620000 0.99070000 -0.00000000
vn -0.13620000 0.99070000 -0.00000000
vn -0.00000000 1.00000000 -0.00000000
vn -0.00000000 1.00000000 -0.00000000
vn -0.00000000 1.00000000 -0.00000000
vn -0.00000000 1.00000000 -0.00000000
vn 0.13620000 0.99070000 -0.00000000
vn 0.13620000 0.99070000 -0.00000000
vn 0.26980000 0.96290000 -0.00000000
vn 0.26980000 0.96290000 -0.00000000
vn 0.39840000 0.91720000 -0.00000000
vn 0.39840000 0.91720000 -0.00000000
vn 0.51960000 0.85440000 -0.00000000
vn 0.51960000 0.85440000 -0.00000000
vn 0.63110000 0.77570000 -0.00000000
vn 0.63110000 0.77570000 -0.00000000
vn 0.73080000 0.68260000 -0.00000000
vn 0.73080000 0.68260000 -0.00000000
vn 0.81700000 0.57670000 -0.00000000
vn 0.81700000 0.57670000 -0.00000000
vn 0.88790000 0.46010000 -0.00000000
vn 0.88790000 0.46010000 -0.00000000
vn 0.94230000 0.33490000 -0.00000000
vn 0.94230000 0.33490000 -0.00000000
vn 0.97910000 0.20350000 -0.00000000
vn 0.97910000 0.20350000 -0.00000000
vn 0.99770000 0.06820000 -0.00000000
vn 0.99770000 0.06820000 -0.00000000
vn 0.99770000 -0.06820000 -0.00000000
vn 0.99770000 -0.06820000 -0.00000000
vn 0.97910000 -0.20350000 -0.00000000
vn 0.97910000 -0.20350000 -0.00000000
vn 0.94230000 -0.33490000 -0.00000000
vn 0.94230000 -0.33490000 -0.00000000
vn 0.88790000 -0.46010000 -0.00000000
vn 0.88790000 -0.46010000 -0.00000000
vn 0.81700000 -0.57670000 -0.00000000
vn 0.81700000 -0.57670000 -0.00000000
vn 0.73080000 -0.68260000 -0.00000000
vn 0.73080000 -0.68250000 -0.00000000
vn 0.63110000 -0.77570000 -0.00000000
vn 0.63110000 -0.77570000 -0.00000000
vn 0.51960000 -0.85440000 -0.00000000
vn 0.51960000 -0.85440000 -0.00000000
vn 0.39840000 -0.91720000 -0.00000000
vn 0.39840000 -0.91720000 -0.00000000
vn 0.26980000 -0.96290000 -0.00000000
vn 0.26980000 -0.96290000 -0.00000000
vn 0.13620000 -0.99070000 -0.00000000
vn 0.13620000 -0.99070000 -0.00000000
vn -0.00000000 -1.00000000 -0.00000000
vn -0.00000000 -1.00000000 -0.00000000
vn -0.13620000 -0.99070000 -0.00000000
vn -0.13620000 -0.99070000 -0.00000000
vn -0.26980000 -0.96290000 -0.00000000
vn -0.26980000 -0.96290000 -0.00000000
vn -0.39840000 -0.91720000 -0.00000000
vn -0.39840000 -0.91720000 -0.00000000
vn -0.51960000 -0.85440000 -0.00000000
vn -0.51960000 -0.85440000 -0.00000000
vn -0.63110000 -0.77570000 -0.00000000
vn -0.63110000 -0.77570000 -0.00000000
vn -0.73080000 -0.68260000 -0.00000000
vn -0.73080000 -0.68260000 -0.00000000
vn -0.81700000 -0.57670000 -0.00000000
vn -0.81700000 -0.57670000 -0.00000000
vn -0.88790000 -0.46010000 -0.00000000
vn -0.88790000 -0.46010000 -0.00000000
vn -0.94230000 -0.33490000 -0.00000000
vn -0.94230000 -0.33490000 -0.00000000
vn -0.97910000 -0.20350000 -0.00000000
vn -0.97910000 -0.20350000 -0.00000000
vn -0.99770000 -0.06820000 -0.00000000
vn -0.99770000 -0.06820000 -0.00000000
vn -0.99770000 0.06820000 -0.00000000
vn -0.99770000 0.06820000 -0.00000000
vn -0.97910000 0.20350000 -0.00000000
vn -0.97910000 0.20350000 -0.00000000
vn -0.94230000 0.33490000 -0.00000000
vn -0.94230000 0.33490000 -0.00000000
vn -0.88790000 0.46010000 -0.00000000
vn -0.88790000 0.46010000 -0.00000000
vn -0.81700000 0.57670000 -0.00000000
vn -0.81700000 0.57670000 -0.00000000
vn -0.73080000 0.68260000 -0.00000000
vn -0.73080000 0.68260000 -0.00000000
vn -0.63110000 0.77570000 -0.00000000
vn -0.63110000 0.77570000 -0.00000000
vn -0.51960000 0.85440000 -0.00000000
vn -0.51960000 0.85440000 -0.00000000
vn -0.39840000 0.91720000 -0.00000000
vn -0.39840000 0.91720000 -0.00000000
vn -0.26980000 0.96290000 -0.00000000
vn -0.26980000 0.96290000 -0.00000000
vn -0.00000000 -0.00000000 1.00000000
vn -0.00000000 -0.00000000 1.00000000
vn -0.00000000 -0.00000000 1.00000000
vn -0.00000000 -0.00000000 1.00000000
vn -0.00000000 -0.00000000 1.00000000
vn -0.00000000 -0.00000000 1.00000000
vn -0.00000000 -0.00000000 1.00000000
vn -0.00000000 -0.00000000 1.00000000
vn -0.00000000 -0.00000000 1.00000000
vn -0.00000000 -0.00000000 1.00000000
vn -0.00000000 -0.00000000 1.00000000
vn -0.00000000 -0.00000000 1.00000000
vn -0.00000000 -0.00000000 1.00000000
vn -0.00000000 -0.00000000 1.00000000
vn -0.00000000 -0.00000000 1.00000000
vn -0.00000000 -0.00000000 1.00000000
vn -0.00000000 -0.00000000 1.00000000
vn -0.00000000 -0.00000000 1.00000000
vn -0.00000000 -0.00000000 1.00000000
vn -0.00000000 -0.00000000 1.00000000
vn -0.00000000 -0.00000000 1.00000000
vn -0.00000000 -0.00000000 1.00000000
vn -0.00000000 -0.00000000 1.00000000
vn -0.00000000 -0.00000000 1.00000000
vn -0.00000000 -0.00000000 1.00000000
vn -0.00000000 -0.00000000 1.00000000
vn -0.00000000 -0.00000000 1.00000000
vn -0.00000000 -0.00000000 1.00000000
vn -0.00000000 -0.00000000 1.00000000
vn -0.00000000 -0.00000000 1.00000000
vn -0.00000000 -0.00000000 1.00000000
vn -0.00000000 -0.00000000 1.00000000
vn -0.00000000 -0.00000000 1.00000000
vn -0.00000000 -0.00000000 1.00000000
vn -0.00000000 -0.00000000 1.00000000
vn -0.00000000 -0.00000000 1.00000000
vn -0.00000000 -0.00000000 1.00000000
vn -0.00000000 -0.00000000 1.00000000
vn -0.00000000 -0.00000000 1.00000000
vn -0.00000000 -0.00000000 1.00000000
vn -0.00000000 -0.00000000 1.00000000
vn -0.00000000 -0.00000000 1.00000000
vn -0.00000000 -0.00000000 1.00000000
vn -0.00000000 -0.00000000 1.00000000
vn -0.00000000 -0.00000000 1.00000000
vn -0.00000000 -0.00000000 1.00000000
vn -0.00000000 -0.00000000 1.00000000
vn -0.00000000 -0.00000000 1.00000000
vn -0.00000000 -0.00000000 1.00000000
vn -0.00000000 -0.00000000 1.00000000
vn -0.00000000 -0.00000000 1.00000000
vn -0.00000000 -0.00000000 1.00000000
vn -0.00000000 -0.00000000 1.00000000
vn -0.00000000 -0.00000000 1.00000000
vn -0.00000000 -0.00000000 1.00000000
vn -0.00000000 -0.00000000 1.00000000
vn -0.00000000 -0.00000000 1.00000000
vn -0.00000000 -0.00000000 1.00000000
vn -0.00000000 -0.00000000 1.00000000
vn -0.00000000 -0.00000000 1.00000000
vn -0.00000000 -0.00000000 1.00000000
vn -0.00000000 -0.00000000 1.00000000
vn -0.00000000 -0.00000000 1.00000000
vn -0.00000000 -0.00000000 1.00000000
vn -0.00000000 -0.00000000 1.00000000
vn -0.00000000 -0.00000000 1.00000000
vn -0.00000000 -0.00000000 1.00000000
vn -0.00000000 -0.00000000 1.00000000
vn -0.00000000 -0.00000000 1.00000000
vn -0.00000000 -0.00000000 1.00000000
vn -0.00000000 -0.00000000 1.00000000
vn -0.00000000 -0.00000000 1.00000000
vn -0.00000000 -0.00000000 1.00000000
vn -0.00000000 -0.00000000 1.00000000
vn -0.00000000 -0.00000000 1.00000000
vn -0.00000000 -0.00000000 1.00000000
vn -0.00000000 -0.00000000 1.00000000
vn -0.00000000 -0.00000000 1.00000000
vn -0.00000000 -0.00000000 1.00000000
vn -0.00000000 -0.00000000 1.00000000
vn -0.00000000 -0.00000000 1.00000000
vn -0.00000000 -0.00000000 1.00000000
vn -0.00000000 -0.00000000 1.00000000
vn -0.00000000 -0.00000000 1.00000000
vn -0.00000000 -0.00000000 1.00000000
vn -0.00000000 -0.00000000 1.00000000
vn -0.00000000 -0.00000000 1.00000000
vn 0.00820000 -0.70430000 0.70990000
vn 0.01040000 -0.70420000 0.70990000
vn 0.09570000 -0.69760000 0.71010000
vn 0.09780000 -0.69730000 0.71000000
vn 0.18170000 -0.68020000 0.71020000
vn 0.18360000 -0.67960000 0.71030000
vn 0.26500000 -0.65240000 0.71000000
vn 0.26680000 -0.65170000 0.71000000
vn 0.34400000 -0.61420000 0.71020000
vn 0.34560000 -0.61330000 0.71020000
vn 0.41770000 -0.56650000 0.71030000
vn 0.41910000 -0.56550000 0.71030000
vn 0.48500000 -0.51020000 0.71030000
vn 0.48620000 -0.50910000 0.71030000
vn 0.54480000 -0.44610000 0.71010000
vn 0.54580000 -0.44470000 0.71010000
vn 0.59590000 -0.37470000 0.71030000
vn 0.59670000 -0.37340000 0.71030000
vn 0.63790000 -0.29770000 0.71020000
vn 0.63860000 -0.29630000 0.71020000
vn 0.67010000 -0.21600000 0.71020000
vn 0.67050000 -0.21470000 0.71020000
vn 0.69170000 -0.13100000 0.71020000
vn 0.69190000 -0.12960000 0.71020000
vn 0.70260000 -0.04390000 0.71020000
vn 0.70270000 -0.04270000 0.71020000
vn 0.70340000 -0.02790000 0.71020000
vn 0.70390000 -0.01320000 0.71020000
vn 0.70270000 0.04390000 0.71010000
vn 0.70360000 0.01630000 0.71040000
vn 0.70300000 0.04040000 0.71010000
vn 0.70290000 0.04050000 0.71010000
vn 0.70290000 0.04280000 0.71000000
vn 0.69200000 0.12970000 0.71010000
vn 0.69180000 0.13100000 0.71010000
vn 0.67060000 0.21470000 0.71010000
vn 0.67020000 0.21600000 0.71010000
vn 0.63860000 0.29640000 0.71020000
vn 0.63800000 0.29770000 0.71020000
vn 0.59700000 0.37360000 0.71000000
vn 0.59620000 0.37480000 0.71000000
vn 0.54560000 0.44460000 0.71040000
vn 0.54460000 0.44590000 0.71030000
vn 0.48620000 0.50910000 0.71020000
vn 0.48500000 0.51020000 0.71020000
vn 0.41920000 0.56570000 0.71010000
vn 0.41780000 0.56680000 0.71010000
vn 0.34560000 0.61330000 0.71020000
vn 0.34400000 0.61420000 0.71020000
vn 0.26680000 0.65190000 0.70980000
vn 0.26510000 0.65270000 0.70980000
vn 0.18350000 0.67940000 0.71050000
vn 0.18160000 0.67990000 0.71040000
vn 0.09770000 0.69710000 0.71030000
vn 0.09570000 0.69750000 0.71020000
vn 0.01030000 0.70370000 0.71040000
vn 0.00820000 0.70370000 0.71040000
vn -0.00820000 -0.70420000 0.70990000
vn -0.09570000 -0.69760000 0.71010000
vn -0.01040000 -0.70420000 0.70990000
vn -0.09780000 -0.69730000 0.71000000
vn -0.18170000 -0.68010000 0.71020000
vn -0.18370000 -0.67950000 0.71030000
vn -0.26500000 -0.65240000 0.71000000
vn -0.26680000 -0.65170000 0.71000000
vn -0.34400000 -0.61420000 0.71030000
vn -0.34570000 -0.61330000 0.71020000
vn -0.41770000 -0.56650000 0.71040000
vn -0.41910000 -0.56550000 0.71030000
vn -0.48500000 -0.51030000 0.71020000
vn -0.48620000 -0.50910000 0.71020000
vn -0.54480000 -0.44600000 0.71010000
vn -0.54580000 -0.44480000 0.71020000
vn -0.59590000 -0.37470000 0.71030000
vn -0.59670000 -0.37340000 0.71030000
vn -0.63800000 -0.29760000 0.71020000
vn -0.63860000 -0.29630000 0.71020000
vn -0.67010000 -0.21600000 0.71020000
vn -0.67050000 -0.21460000 0.71020000
vn -0.69170000 -0.13100000 0.71020000
vn -0.69190000 -0.12970000 0.71020000
vn -0.70260000 -0.04390000 0.71020000
vn -0.70270000 -0.04260000 0.71020000
vn -0.70290000 0.04040000 0.71010000
vn -0.70270000 0.04390000 0.71010000
vn -0.70290000 0.04280000 0.71000000
vn -0.70290000 0.04270000 0.71000000
vn -0.69200000 0.12970000 0.71010000
vn -0.69180000 0.13090000 0.71010000
vn -0.67060000 0.21470000 0.71010000
vn -0.67020000 0.21600000 0.71010000
vn -0.63850000 0.29630000 0.71030000
vn -0.63790000 0.29770000 0.71020000
vn -0.59690000 0.37360000 0.71000000
vn -0.59610000 0.37480000 0.71000000
vn -0.54560000 0.44470000 0.71030000
vn -0.54460000 0.44590000 0.71030000
vn -0.48610000 0.50900000 0.71030000
vn -0.48490000 0.51020000 0.71030000
vn -0.41920000 0.56560000 0.71020000
vn -0.41780000 0.56670000 0.71020000
vn -0.34560000 0.61320000 0.71030000
vn -0.34400000 0.61420000 0.71020000
vn -0.26680000 0.65180000 0.70990000
vn -0.26510000 0.65260000 0.70980000
vn -0.18360000 0.67940000 0.71040000
vn -0.18170000 0.68000000 0.71040000
vn -0.09770000 0.69710000 0.71020000
vn -0.09570000 0.69750000 0.71020000
vn -0.01030000 0.70370000 0.71040000
vn -0.00820000 0.70370000 0.71040000
f 1//1 2//2 3//3
f 3//3 2//2 4//4
f 3//3 4//4 5//5
f 2//2 1//1 6//6
f 6//6 1//1 7//7
f 6//6 7//7 8//8
f 8//8 7//7 9//9
f 8//8 9//9 10//10
f 10//10 9//9 11//11
f 10//10 11//11 12//12
f 12//12 11//11 13//13
f 12//12 13//13 14//14
f 14//14 13//13 15//15
f 14//14 15//15 16//16
f 16//16 15//15 17//17
f 16//16 17//17 18//18
f 18//18 17//17 19//19
f 18//18 19//19 20//20
f 20//20 19//19 22//22
f 20//20 22//22 24//24
f 23//23 21//21 27//27
f 24//24 25//25 29//29
f 28//28 26//26 31//31
f 29//29 30//30 32//32
f 32//32 30//30 33//33
f 32//32 33//33 36//36
f 35//35 34//34 38//38
f 35//35 38//38 40//40
f 41//41 39//39 42//42
f 43//43 37//37 44//44
f 43//43 44//44 45//45
f 45//45 44//44 47//47
f 45//45 47//47 48//48
f 49//49 46//46 51//51
f 48//48 50//50 52//52
f 52//52 50//50 54//54
f 53//53 55//55 56//56
f 57//57 54//54 58//58
f 57//57 58//58 60//60
f 61//61 59//59 62//62
f 60//60 63//63 64//64
f 64//64 63//63 65//65
f 64//64 65//65 66//66
f 66//66 65//65 67//67
f 66//66 67//67 68//68
f 68//68 67//67 69//69
f 68//68 69//69 70//70
f 70//70 69//69 71//71
f 70//70 71//71 72//72
f 72//72 71//71 73//73
f 72//72 73//73 74//74
f 74//74 73//73 75//75
f 74//74 75//75 76//76
f 76//76 75//75 77//77
f 77//77 75//75 78//78
f 78//78 75//75 79//79
f 78//78 79//79 80//80
f 80//80 79//79 81//81
f 80//80 81//81 82//82
f 82//82 81//81 83//83
f 82//82 83//83 84//84
f 84//84 83//83 85//85
f 84//84 85//85 86//86
f 86//86 85//85 87//87
f 86//86 87//87 88//88
f 88//88 87//87 90//90
f 88//88 90//90 92//92
f 91//91 89//89 94//94
f 92//92 93//93 95//95
f 95//95 93//93 98//98
f 96//96 97//97 100//100
f 99//99 98//98 101//101
f 99//99 101//101 103//103
f 104//104 102//102 105//105
f 103//103 106//106 107//107
f 107//107 106//106 108//108
f 107//107 108//108 109//109
f 109//109 108//108 112//112
f 110//110 113//113 115//115
f 114//114 111//111 118//118
f 116//116 117//117 121//121
f 120//120 119//119 123//123
f 122//122 117//117 124//124
f 122//122 124//124 127//127
f 126//126 125//125 128//128
f 127//127 129//129 131//131
f 132//132 130//130 134//134
f 133//133 135//135 138//138
f 137//137 136//136 139//139
f 137//137 139//139 140//140
f 140//140 139//139 141//141
f 140//140 141//141 142//142
f 142//142 141//141 143//143
f 142//142 143//143 144//144
f 144//144 143//143 145//145
f 144//144 145//145 146//146
f 146//146 145//145 147//147
f 146//146 147//147 148//148
f 148//148 147//147 149//149
f 148//148 149//149 150//150
f 150//150 149//149 151//151
f 150//150 151//151 152//152
f 152//152 151//151 153//153
f 152//152 153//153 154//154
f 154//154 153//153 3//3
f 154//154 3//3 5//5
f 155//155 156//156 157//157
f 157//157 156//156 158//158
f 159//159 160//160 161//161
f 161//161 160//160 162//162
f 161//161 162//162 163//163
f 163//163 162//162 164//164
f 163//163 164//164 165//165
f 165//165 164//164 166//166
f 165//165 166//166 167//167
f 167//167 166//166 168//168
f 167//167 168//168 169//169
f 169//169 168//168 170//170
f 169//169 170//170 171//171
f 171//171 170//170 172//172
f 171//171 172//172 173//173
f 173//173 172//172 174//174
f 173//173 174//174 175//175
f 175//175 174//174 176//176
f 175//175 176//176 177//177
f 177//177 176//176 178//178
f 177//177 178//178 179//179
f 179//179 178//178 180//180
f 179//179 180//180 181//181
f 181//181 180//180 182//182
f 181//181 182//182 183//183
f 183//183 182//182 184//184
f 183//183 184//184 185//185
f 185//185 184//184 186//186
f 185//185 186//186 187//187
f 187//187 186//186 188//188
f 187//187 188//188 189//189
f 189//189 188//188 190//190
f 189//189 190//190 191//191
f 191//191 190//190 192//192
f 191//191 192//192 193//193
f 193//193 192//192 194//194
f 193//193 194//194 195//195
f 195//195 194//194 196//196
f 195//195 196//196 197//197
f 197//197 196//196 198//198
f 197//197 198//198 199//199
f 199//199 198//198 200//200
f 199//199 200//200 201//201
f 201//201 200//200 202//202
f 201//201 202//202 203//203
f 203//203 202//202 204//204
f 203//203 204//204 205//205
f 205//205 204//204 206//206
f 205//205 206//206 207//207
f 207//207 206//206 208//208
f 207//207 208//208 209//209
f 209//209 208//208 210//210
f 209//209 210//210 211//211
f 211//211 210//210 212//212
f 211//211 212//212 213//213
f 213//213 212//212 214//214
f 213//213 214//214 215//215
f 215//215 214//214 216//216
f 215//215 216//216 217//217
f 217//217 216//216 218//218
f 217//217 218//218 219//219
f 219//219 218//218 220//220
f 219//219 220//220 221//221
f 221//221 220//220 222//222
f 221//221 222//222 223//223
f 223//223 222//222 224//224
f 223//223 224//224 225//225
f 225//225 224//224 226//226
f 225//225 226//226 227//227
f 227//227 226//226 228//228
f 227//227 228//228 229//229
f 229//229 228//228 230//230
f 229//229 230//230 231//231
f 231//231 230//230 232//232
f 231//231 232//232 233//233
f 233//233 232//232 234//234
f 233//233 234//234 235//235
f 235//235 234//234 236//236
f 235//235 236//236 237//237
f 237//237 236//236 238//238
f 237//237 238//238 239//239
f 239//239 238//238 240//240
f 239//239 240//240 241//241
f 241//241 240//240 242//242
f 241//241 242//242 243//243
f 243//243 242//242 244//244
f 243//243 244//244 245//245
f 245//245 244//244 246//246
f 245//245 246//246 247//247
f 247//247 246//246 248//248
f 247//247 248//248 249//249
f 249//249 248//248 250//250
f 249//249 250//250 155//155
f 155//155 250//250 156//156
f 251//251 252//252 253//253
f 253//253 252//252 254//254
f 255//255 256//256 257//257
f 257//257 256//256 258//258
f 257//257 258//258 259//259
f 251//251 260//260 252//252
f 252//252 260//260 261//261
f 261//261 260//260 262//262
f 261//261 262//262 263//263
f 263//263 262//262 264//264
f 263//263 264//264 265//265
f 265//265 264//264 266//266
f 265//265 266//266 267//267
f 267//267 266//266 268//268
f 267//267 268//268 269//269
f 269//269 268//268 270//270
f 269//269 270//270 271//271
f 271//271 270//270 272//272
f 271//271 272//272 273//273
f 273//273 272//272 274//274
f 273//273 274//274 275//275
f 275//275 274//274 276//276
f 275//275 276//276 277//277
f 277//277 276//276 278//278
f 277//277 278//278 279//279
f 279//279 278//278 280//280
f 279//279 280//280 281//281
f 281//281 280//280 282//282
f 281//281 282//282 283//283
f 283//283 282//282 284//284
f 283//283 284//284 285//285
f 285//285 284//284 286//286
f 285//285 286//286 287//287
f 287//287 286//286 288//288
f 287//287 288//288 289//289
f 289//289 288//288 290//290
f 289//289 290//290 291//291
f 291//291 290//290 292//292
f 291//291 292//292 293//293
f 293//293 292//292 294//294
f 293//293 294//294 295//295
f 295//295 294//294 296//296
f 295//295 296//296 297//297
f 297//297 296//296 298//298
f 297//297 298//298 299//299
f 299//299 298//298 300//300
f 299//299 300//300 301//301
f 301//301 300//300 302//302
f 301//301 302//302 303//303
f 303//303 302//302 304//304
f 303//303 304//304 305//305
f 305//305 304//304 306//306
f 305//305 306//306 307//307
f 307//307 306//306 308//308
f 307//307 308//308 309//309
f 309//309 308//308 310//310
f 309//309 310//310 311//311
f 311//311 310//310 312//312
f 311//311 312//312 313//313
f 313//313 312//312 314//314
f 313//313 314//314 315//315
f 315//315 314//314 316//316
f 315//315 316//316 317//317
f 317//317 316//316 318//318
f 317//317 318//318 319//319
f 319//319 318//318 320//320
f 319//319 320//320 321//321
f 321//321 320//320 322//322
f 321//321 322//322 323//323
f 323//323 322//322 324//324
f 323//323 324//324 325//325
f 325//325 324//324 326//326
f 325//325 326//326 327//327
f 327//327 326//326 328//328
f 327//327 328//328 329//329
f 329//329 328//328 330//330
f 329//329 330//330 331//331
f 331//331 330//330 332//332
f 331//331 332//332 333//333
f 333//333 332//332 334//334
f 333//333 334//334 335//335
f 335//335 334//334 336//336
f 335//335 336//336 337//337
f 337//337 336//336 338//338
f 337//337 338//338 339//339
f 339//339 338//338 340//340
f 339//339 340//340 341//341
f 341//341 340//340 342//342
f 341//341 342//342 343//343
f 343//343 342//342 344//344
f 343//343 344//344 345//345
f 345//345 344//344 346//346
f 345//345 346//346 347//347
f 347//347 346//346 348//348
f 347//347 348//348 349//349
f 349//349 348//348 350//350
f 349//349 350//350 351//351
f 351//351 350//350 352//352
f 351//351 352//352 259//259
f 259//259 352//352 257//257
f 353//353 354//354 355//355
f 355//355 354//354 356//356
f 355//355 356//356 357//357
f 357//357 356//356 358//358
f 357//357 358//358 359//359
f 359//359 358//358 360//360
f 359//359 360//360 361//361
f 361//361 360//360 362//362
f 361//361 362//362 363//363
f 363//363 362//362 364//364
f 363//363 364//364 365//365
f 365//365 364//364 366//366
f 365//365 366//366 367//367
f 367//367 366//366 368//368
f 367//367 368//368 369//369
f 369//369 368//368 370//370
f 369//369 370//370 371//371
f 371//371 370//370 372//372
f 372//372 370//370 373//373
f 372//372 373//373 374//374
f 374//374 373//373 375//375
f 374//374 375//375 376//376
f 376//376 375//375 377//377
f 376//376 377//377 378//378
f 378//378 377//377 379//379
f 378//378 379//379 380//380
f 380//380 379//379 381//381
f 380//380 381//381 382//382
f 382//382 381//381 383//383
f 382//382 383//383 384//384
f 384//384 383//383 385//385
f 384//384 385//385 386//386
f 386//386 385//385 387//387
f 386//386 387//387 388//388
f 388//388 387//387 389//389
f 388//388 389//389 390//390
f 390//390 389//389 391//391
f 390//390 391//391 392//392
f 392//392 391//391 393//393
f 392//392 393//393 394//394
f 394//394 393//393 395//395
f 394//394 395//395 396//396
f 396//396 395//395 397//397
f 396//396 397//397 398//398
f 398//398 397//397 399//399
f 398//398 399//399 400//400
f 400//400 399//399 401//401
f 400//400 401//401 402//402
f 402//402 401//401 403//403
f 402//402 403//403 404//404
f 404//404 403//403 405//405
f 405//405 403//403 406//406
f 405//405 406//406 407//407
f 407//407 406//406 408//408
f 407//407 408//408 409//409
f 409//409 408//408 410//410
f 409//409 410//410 411//411
f 411//411 410//410 412//412
f 411//411 412//412 413//413
f 413//413 412//412 414//414
f 413//413 414//414 415//415
f 415//415 414//414 416//416
f 415//415 416//416 417//417
f 417//417 416//416 418//418
f 417//417 418//418 419//419
f 419//419 418//418 420//420
f 419//419 420//420 421//421
f 421//421 420//420 422//422
f 421//421 422//422 423//423
f 423//423 422//422 424//424
f 423//423 424//424 425//425
f 425//425 424//424 426//426
f 425//425 426//426 427//427
f 427//427 426//426 428//428
f 427//427 428//428 429//429
f 429//429 428//428 430//430
f 429//429 430//430 431//431
f 431//431 430//430 432//432
f 431//431 432//432 433//433
f 433//433 432//432 434//434
f 433//433 434//434 435//435
f 435//435 434//434 436//436
f 435//435 436//436 437//437
f 437//437 436//436 438//438
f 438//438 436//436 439//439
f 438//438 439//439 440//440
f 440//440 439//439 441//441
f 440//440 441//441 442//442
f 442//442 441//441 443//443
f 442//442 443//443 444//444
f 444//444 443//443 445//445
f 444//444 445//445 446//446
f 446//446 445//445 447//447
f 446//446 447//447 448//448
f 448//448 447//447 449//449
f 448//448 449//449 353//353
f 353//353 449//449 354//354
f 450//450 451//451 452//452
f 452//452 451//451 453//453
f 454//454 455//455 456//456
f 456//456 455//455 457//457
f 456//456 457//457 458//458
f 458//458 457//457 459//459
f 458//458 459//459 460//460
f 460//460 459//459 461//461
f 460//460 461//461 462//462
f 462//462 461//461 463//463
f 462//462 463//463 464//464
f 464//464 463//463 465//465
f 464//464 465//465 466//466
f 466//466 465//465 467//467
f 466//466 467//467 468//468
f 468//468 467//467 469//469
f 468//468 469//469 470//470
f 470//470 469//469 471//471
f 470//470 471//471 472//472
f 472//472 471//471 473//473
f 472//472 473//473 474//474
f 474//474 473//473 475//475
f 474//474 475//475 476//476
f 476//476 475//475 477//477
f 476//476 477//477 478//478
f 478//478 477//477 479//479
f 478//478 479//479 480//480
f 480//480 479//479 481//481
f 480//480 481//481 482//482
f 482//482 481//481 483//483
f 482//482 483//483 484//484
f 484//484 483//483 485//485
f 484//484 485//485 486//486
f 486//486 485//485 487//487
f 486//486 487//487 488//488
f 488//488 487//487 489//489
f 488//488 489//489 490//490
f 490//490 489//489 491//491
f 490//490 491//491 492//492
f 492//492 491//491 493//493
f 492//492 493//493 494//494
f 494//494 493//493 495//495
f 494//494 495//495 496//496
f 496//496 495//495 497//497
f 496//496 497//497 498//498
f 498//498 497//497 499//499
f 498//498 499//499 500//500
f 500//500 499//499 501//501
f 500//500 501//501 502//502
f 502//502 501//501 503//503
f 502//502 503//503 504//504
f 504//504 503//503 505//505
f 504//504 505//505 506//506
f 506//506 505//505 507//507
f 506//506 507//507 508//508
f 508//508 507//507 509//509
f 508//508 509//509 510//510
f 510//510 509//509 511//511
f 510//510 511//511 512//512
f 512//512 511//511 513//513
f 512//512 513//513 514//514
f 514//514 513//513 515//515
f 514//514 515//515 516//516
f 516//516 515//515 517//517
f 516//516 517//517 518//518
f 518//518 517//517 519//519
f 518//518 519//519 520//520
f 520//520 519//519 521//521
f 520//520 521//521 522//522
f 522//522 521//521 523//523
f 522//522 523//523 524//524
f 524//524 523//523 525//525
f 524//524 525//525 526//526
f 526//526 525//525 527//527
f 526//526 527//527 528//528
f 528//528 527//527 529//529
f 528//528 529//529 530//530
f 530//530 529//529 531//531
f 530//530 531//531 532//532
f 532//532 531//531 533//533
f 532//532 533//533 450//450
f 450//450 533//533 451//451
f 534//534 535//535 536//536
f 536//536 535//535 537//537
f 536//536 537//537 538//538
f 538//538 539//539 536//536
f 536//536 539//539 540//540
f 536//536 540//540 541//541
f 541//541 540//540 542//542
f 541//541 542//542 543//543
f 543//543 542//542 544//544
f 543//543 544//544 545//545
f 545//545 544//544 546//546
f 545//545 546//546 547//547
f 547//547 546//546 548//548
f 547//547 548//548 549//549
f 549//549 548//548 550//550
f 549//549 550//550 551//551
f 551//551 550//550 552//552
f 553//553 554//554 536//536
f 536//536 554//554 555//555
f 536//536 555//555 556//556
f 557//557 558//558 553//553
f 553//553 558//558 559//559
f 553//553 559//559 560//560
f 558//558 557//557 561//561
f 561//561 557//557 562//562
f 561//561 562//562 563//563
f 560//560 564//564 553//553
f 553//553 564//564 565//565
f 553//553 565//565 566//566
f 566//566 567//567 553//553
f 553//553 567//567 554//554
f 556//556 568//568 536//536
f 536//536 568//568 569//569
f 536//536 569//569 570//570
f 570//570 571//571 536//536
f 536//536 571//571 572//572
f 536//536 572//572 573//573
f 573//573 574//574 536//536
f 536//536 574//574 534//534
f 575//575 576//576 577//577
f 577//577 576//576 578//578
f 579//579 580//580 581//581
f 581//581 580//580 582//582
f 581//581 582//582 583//583
f 583//583 582//582 584//584
f 583//583 584//584 585//585
f 585//585 584//584 586//586
f 585//585 586//586 587//587
f 587//587 586//586 588//588
f 587//587 588//588 589//589
f 589//589 588//588 590//590
f 589//589 590//590 591//591
f 591//591 590//590 592//592
f 591//591 592//592 593//593
f 593//593 592//592 594//594
f 593//593 594//594 595//595
f 595//595 594//594 596//596
f 595//595 596//596 597//597
f 597//597 596//596 598//598
f 597//597 598//598 599//599
f 599//599 598//598 600//600
f 599//599 600//600 601//601
f 601//601 600//600 602//602
f 601//601 602//602 603//603
f 603//603 602//602 604//604
f 603//603 604//604 605//605
f 605//605 604//604 606//606
f 605//605 606//606 607//607
f 607//607 606//606 608//608
f 607//607 608//608 609//609
f 609//609 608//608 610//610
f 609//609 610//610 611//611
f 611//611 610//610 612//612
f 611//611 612//612 613//613
f 613//613 612//612 614//614
f 613//613 614//614 615//615
f 615//615 614//614 616//616
f 615//615 616//616 617//617
f 617//617 616//616 618//618
f 617//617 618//618 619//619
f 619//619 618//618 620//620
f 619//619 620//620 621//621
f 621//621 620//620 622//622
f 621//621 622//622 623//623
f 623//623 622//622 624//624
f 623//623 624//624 625//625
f 625//625 624//624 626//626
f 625//625 626//626 627//627
f 627//627 626//626 628//628
f 627//627 628//628 629//629
f 629//629 628//628 630//630
f 629//629 630//630 631//631
f 631//631 630//630 632//632
f 631//631 632//632 633//633
f 633//633 632//632 634//634
f 633//633 634//634 635//635
f 635//635 634//634 636//636
f 635//635 636//636 637//637
f 637//637 636//636 638//638
f 637//637 638//638 639//639
f 639//639 638//638 640//640
f 639//639 640//640 641//641
f 641//641 640//640 642//642
f 641//641 642//642 643//643
f 643//643 642//642 644//644
f 643//643 644//644 645//645
f 645//645 644//644 646//646
f 645//645 646//646 647//647
f 647//647 646//646 648//648
f 647//647 648//648 649//649
f 649//649 648//648 650//650
f 649//649 650//650 651//651
f 651//651 650//650 652//652
f 651//651 652//652 653//653
f 653//653 652//652 654//654
f 653//653 654//654 655//655
f 655//655 654//654 656//656
f 655//655 656//656 657//657
f 657//657 656//656 658//658
f 657//657 658//658 659//659
f 659//659 658//658 660//660
f 659//659 660//660 661//661
f 661//661 660//660 662//662
f 661//661 662//662 663//663
f 663//663 662//662 664//664
f 663//663 664//664 665//665
f 665//665 664//664 666//666
f 665//665 666//666 667//667
f 667//667 666//666 668//668
f 667//667 668//668 575//575
f 575//575 668//668 576//576
f 669//669 670//670 671//671
f 671//671 670//670 672//672
f 671//671 672//672 673//673
f 673//673 672//672 674//674
f 673//673 674//674 675//675
f 675//675 674//674 676//676
f 675//675 676//676 677//677
f 677//677 676//676 678//678
f 677//677 678//678 679//679
f 679//679 678//678 680//680
f 679//679 680//680 681//681
f 681//681 680//680 682//682
f 681//681 682//682 683//683
f 683//683 682//682 684//684
f 683//683 684//684 685//685
f 685//685 684//684 686//686
f 685//685 686//686 687//687
f 687//687 686//686 688//688
f 687//687 688//688 689//689
f 687//687 689//689 690//690
f 690//690 689//689 691//691
f 690//690 691//691 692//692
f 692//692 691//691 693//693
f 692//692 693//693 694//694
f 694//694 693//693 695//695
f 694//694 695//695 696//696
f 696//696 695//695 697//697
f 696//696 697//697 698//698
f 698//698 697//697 699//699
f 698//698 699//699 700//700
f 700//700 699//699 701//701
f 700//700 701//701 702//702
f 702//702 701//701 703//703
f 702//702 703//703 704//704
f 704//704 703//703 705//705
f 704//704 705//705 706//706
f 704//704 706//706 707//707
f 707//707 706//706 708//708
f 707//707 708//708 709//709
f 709//709 708//708 710//710
f 709//709 710//710 711//711
f 711//711 710//710 712//712
f 711//711 712//712 713//713
f 713//713 712//712 714//714
f 713//713 714//714 715//715
f 715//715 714//714 716//716
f 715//715 716//716 717//717
f 717//717 716//716 718//718
f 717//717 718//718 719//719
f 719//719 718//718 720//720
f 719//719 720//720 721//721
f 721//721 720//720 722//722
f 721//721 722//722 723//723
f 723//723 722//722 724//724
f 723//723 724//724 725//725
f 723//723 725//725 726//726
f 726//726 725//725 727//727
f 726//726 727//727 728//728
f 728//728 727//727 729//729
f 728//728 729//729 730//730
f 730//730 729//729 731//731
f 730//730 731//731 732//732
f 732//732 731//731 733//733
f 732//732 733//733 734//734
f 734//734 733//733 735//735
f 734//734 735//735 736//736
f 736//736 735//735 737//737
f 736//736 737//737 738//738
f 738//738 737//737 739//739
f 738//738 739//739 740//740
f 740//740 739//739 741//741
f 740//740 741//741 742//742
f 740//740 742//742 743//743
f 743//743 742//742 744//744
f 743//743 744//744 745//745
f 745//745 744//744 746//746
f 745//745 746//746 747//747
f 747//747 746//746 748//748
f 747//747 748//748 749//749
f 749//749 748//748 750//750
f 749//749 750//750 751//751
f 751//751 750//750 752//752
f 751//751 752//752 753//753
f 753//753 752//752 754//754
f 753//753 754//754 755//755
f 755//755 754//754 669//669
f 755//755 669//669 671//671
f 756//756 757//757 758//758
f 758//758 757//757 759//759
f 758//758 759//759 760//760
f 760//760 759//759 761//761
f 760//760 761//761 762//762
f 762//762 761//761 763//763
f 762//762 763//763 764//764
f 764//764 763//763 765//765
f 764//764 765//765 766//766
f 766//766 765//765 767//767
f 766//766 767//767 768//768
f 768//768 767//767 769//769
f 768//768 769//769 770//770
f 770//770 769//769 771//771
f 770//770 771//771 772//772
f 772//772 771//771 773//773
f 772//772 773//773 774//774
f 774//774 773//773 775//775
f 774//774 775//775 776//776
f 776//776 775//775 777//777
f 776//776 777//777 778//778
f 778//778 777//777 779//779
f 778//778 779//779 780//780
f 780//780 779//779 781//781
f 780//780 781//781 782//782
f 782//782 783//783 780//780
f 780//780 783//783 784//784
f 784//784 783//783 785//785
f 784//784 785//785 786//786
f 787//787 788//788 784//784
f 784//784 788//788 789//789
f 784//784 789//789 790//790
f 790//790 789//789 791//791
f 790//790 791//791 792//792
f 792//792 791//791 793//793
f 792//792 793//793 794//794
f 794//794 793//793 795//795
f 794//794 795//795 796//796
f 796//796 795//795 797//797
f 796//796 797//797 798//798
f 798//798 797//797 799//799
f 798//798 799//799 800//800
f 800//800 799//799 801//801
f 800//800 801//801 802//802
f 802//802 801//801 803//803
f 802//802 803//803 804//804
f 804//804 803//803 805//805
f 804//804 805//805 806//806
f 806//806 805//805 807//807
f 806//806 807//807 808//808
f 808//808 807//807 809//809
f 808//808 809//809 810//810
f 810//810 809//809 811//811
f 810//810 811//811 812//812
f 813//813 814//814 815//815
f 815//815 814//814 816//816
f 816//816 814//814 817//817
f 816//816 817//817 818//818
f 818//818 817//817 819//819
f 818//818 819//819 820//820
f 820//820 819//819 821//821
f 820//820 821//821 822//822
f 822//822 821//821 823//823
f 822//822 823//823 824//824
f 824//824 823//823 825//825
f 824//824 825//825 826//826
f 826//826 825//825 827//827
f 826//826 827//827 828//828
f 828//828 827//827 829//829
f 828//828 829//829 830//830
f 830//830 829//829 831//831
f 830//830 831//831 832//832
f 832//832 831//831 833//833
f 832//832 833//833 834//834
f 834//834 833//833 835//835
f 834//834 835//835 836//836
f 836//836 835//835 837//837
f 836//836 837//837 838//838
f 838//838 837//837 839//839
f 839//839 837//837 840//840
f 839//839 840//840 842//842
f 841//841 840//840 843//843
f 843//843 840//840 844//844
f 843//843 844//844 845//845
f 845//845 844//844 846//846
f 845//845 846//846 847//847
f 847//847 846//846 848//848
f 847//847 848//848 849//849
f 849//849 848//848 850//850
f 849//849 850//850 851//851
f 851//851 850//850 852//852
f 851//851 852//852 853//853
f 853//853 852//852 854//854
f 853//853 854//854 855//855
f 855//855 854//854 856//856
f 855//855 856//856 857//857
f 857//857 856//856 858//858
f 857//857 858//858 859//859
f 859//859 858//858 860//860
f 859//859 860//860 861//861
f 861//861 860//860 862//862
f 861//861 862//862 863//863
f 863//863 862//862 864//864
f 863//863 864//864 865//865
f 865//865 864//864 866//866