mtllib material.mtl
usemtl material_0
v 0.00361100 0.01492500 -0.04619200
v 0.00349900 0.01519300 -0.04608200
v 0.00327400 0.01545900 -0.04598600
v 0.00013700 0.01183600 -0.04749000
v 0.00037000 0.01209100 -0.04740300
v 0.00056400 0.01261400 -0.04721400
v 0.00012500 0.01432900 -0.04656200
v 0.00060000 0.01358800 -0.04686400
v 0.00058400 0.01432900 -0.04655900
v 0.00059100 0.01491100 -0.04632200
v 0.00059100 0.01497300 -0.04629600
v -0.00035000 0.01457400 -0.04646000
v -0.00035000 0.01497300 -0.04629600
v 0.00010400 0.01180900 -0.04749900
v -0.00048400 0.01248400 -0.04725800
v -0.00038800 0.01263900 -0.04720400
v -0.00035800 0.01277200 -0.04715600
v 0.00007100 0.01178500 -0.04750800
v -0.00043800 0.01156000 -0.04758100
v -0.00066900 0.01240600 -0.04728400
v -0.00100500 0.01152200 -0.04758400
v -0.00092100 0.01238000 -0.04728800
v -0.00140900 0.01238900 -0.04727300
v -0.00136900 0.01152100 -0.04757400
v -0.00162600 0.01151700 -0.04756700
v -0.00205700 0.01238300 -0.04725000
v -0.00213800 0.01150900 -0.04755100
v -0.00226700 0.01240500 -0.04723300
v -0.00249100 0.01154500 -0.04752100
v -0.00278600 0.01165200 -0.04746800
v -0.00331800 0.01215900 -0.04725800
v -0.00244500 0.01251700 -0.04718400
v -0.00344800 0.01256500 -0.04710400
v -0.00253100 0.01277800 -0.04708500
v -0.00345700 0.01270200 -0.04705400
v -0.00345900 0.01308600 -0.04691200
v -0.00346000 0.01376800 -0.04665200
v -0.00253200 0.01377200 -0.04671000
v -0.00252900 0.01310200 -0.04696500
v -0.00255900 0.01432900 -0.04648800
v -0.00346000 0.01459800 -0.04632100
v -0.00253400 0.01461800 -0.04637200
v -0.00249400 0.01473300 -0.04632700
v -0.00334800 0.01505900 -0.04613800
v -0.00240300 0.01486000 -0.04627800
v -0.00307400 0.01543100 -0.04599600
v -0.00301900 0.01548000 -0.04597600
v -0.00296200 0.01552700 -0.04596000
v -0.00290100 0.01557000 -0.04594500
v -0.00279500 0.01563200 -0.04592700
v -0.00225900 0.01493700 -0.04625200
v -0.00275200 0.01565400 -0.04592300
v -0.00223100 0.01579500 -0.04589000
v -0.00156900 0.01581000 -0.04591100
v -0.00190600 0.01495700 -0.04626100
v -0.00209600 0.01495600 -0.04625200
v -0.00112900 0.01496800 -0.04628400
v -0.00131500 0.01580800 -0.04592000
v -0.00102100 0.01581000 -0.04592700
v -0.00063500 0.01581300 -0.04593300
v -0.00040400 0.01581400 -0.04593600
v -0.00036100 0.01581400 -0.04593600
v -0.00036100 0.01624700 -0.04574500
v 0.00058900 0.01584500 -0.04592300
v -0.00035700 0.01667700 -0.04554900
v 0.00027400 0.01710800 -0.04535100
v 0.00058600 0.01710600 -0.04535000
v -0.00034900 0.01710600 -0.04535000
v -0.00003800 0.01710800 -0.04535100
v 0.00059000 0.01581500 -0.04593800
v 0.00062500 0.01581400 -0.04593800
v 0.00063700 0.01581400 -0.04593700
v 0.00096300 0.01497100 -0.04629100
v 0.00139700 0.01581000 -0.04592400
v 0.00133500 0.01496800 -0.04628400
v 0.00155500 0.01580700 -0.04592000
v 0.00170400 0.01496400 -0.04627500
v 0.00168900 0.01580600 -0.04591700
v 0.00183100 0.01580700 -0.04591100
v 0.00188800 0.01496000 -0.04627000
v 0.00210700 0.01580800 -0.04589900
v 0.00207200 0.01495600 -0.04626400
v 0.00228300 0.01580400 -0.04589200
v 0.00240900 0.01494800 -0.04625100
v 0.00245900 0.01579400 -0.04588800
v 0.00264900 0.01576500 -0.04589000
v 0.00283400 0.01571200 -0.04590300
v 0.00303300 0.01562400 -0.04592900
v 0.00266000 0.01483600 -0.04628700
v 0.00321400 0.01550700 -0.04596700
v 0.00324400 0.01548300 -0.04597600
v 0.00327400 0.01545900 -0.04598600
v 0.00361100 0.01492500 -0.04619200
v 0.00275600 0.01464700 -0.04636100
v 0.00369300 0.01429600 -0.04644300
v 0.00276200 0.01441700 -0.04645400
v 0.00276100 0.01395300 -0.04663900
v 0.00369200 0.01302200 -0.04693600
v 0.00276100 0.01308300 -0.04697200
v 0.00369200 0.01275800 -0.04703300
v 0.00276100 0.01255900 -0.04716400
v 0.00369200 0.01249300 -0.04712900
v 0.00369200 0.01222800 -0.04722400
v 0.00276100 0.01203300 -0.04735100
v 0.00369200 0.01198100 -0.04731200
v 0.00307200 0.01149700 -0.04751900
v 0.00338200 0.01149000 -0.04750200
v 0.00369200 0.01173400 -0.04739800
v 0.00369200 0.01148500 -0.04748400
v 0.00276100 0.01150400 -0.04753400
v -0.00034500 0.01300100 -0.04707200
v -0.00034800 0.01316800 -0.04700900
v -0.00035000 0.01417500 -0.04662100
vn 0.38860000 0.45070000 -0.80360000
vn 0.14150000 0.42920000 -0.89200000
vn 0.05880000 0.38570000 -0.92070000
vn 0.00030000 0.32580000 -0.94550000
vn 0.00470000 0.32970000 -0.94410000
vn 0.00860000 0.33980000 -0.94050000
vn 0.00010000 0.37260000 -0.92800000
vn 0.00920000 0.35830000 -0.93360000
vn 0.01180000 0.37250000 -0.92800000
vn 0.00960000 0.38370000 -0.92340000
vn 0.00910000 0.38480000 -0.92300000
vn -0.00900000 0.37720000 -0.92610000
vn -0.00890000 0.38470000 -0.92300000
vn -0.00040000 0.32540000 -0.94560000
vn -0.01150000 0.33710000 -0.94140000
vn -0.00930000 0.34060000 -0.94020000
vn -0.00940000 0.34270000 -0.93940000
vn -0.00090000 0.32420000 -0.94600000
vn -0.01060000 0.31980000 -0.94740000
vn -0.01490000 0.33580000 -0.94180000
vn -0.02140000 0.31910000 -0.94750000
vn -0.01980000 0.33530000 -0.94190000
vn -0.02910000 0.33550000 -0.94160000
vn -0.02830000 0.31900000 -0.94730000
vn -0.03330000 0.31900000 -0.94720000
vn -0.04150000 0.33540000 -0.94110000
vn -0.04310000 0.31880000 -0.94690000
vn -0.04540000 0.33590000 -0.94080000
vn -0.04960000 0.31940000 -0.94630000
vn -0.05530000 0.32150000 -0.94530000
vn -0.06560000 0.33130000 -0.94120000
vn -0.04890000 0.33790000 -0.93990000
vn -0.06790000 0.33870000 -0.93840000
vn -0.05040000 0.34280000 -0.93800000
vn -0.06810000 0.34130000 -0.93750000
vn -0.06820000 0.34890000 -0.93470000
vn -0.06820000 0.36190000 -0.92970000
vn -0.05050000 0.36190000 -0.93090000
vn -0.05040000 0.34920000 -0.93570000
vn -0.05000000 0.37270000 -0.92660000
vn -0.06830000 0.37770000 -0.92340000
vn -0.05050000 0.37770000 -0.92450000
vn -0.04980000 0.37990000 -0.92370000
vn -0.06620000 0.38650000 -0.91990000
vn -0.04800000 0.38270000 -0.92260000
vn -0.06110000 0.39380000 -0.91720000
vn -0.05980000 0.39510000 -0.91670000
vn -0.05870000 0.39520000 -0.91670000
vn -0.05770000 0.39580000 -0.91650000
vn -0.05530000 0.39780000 -0.91580000
vn -0.04520000 0.38410000 -0.92220000
vn -0.05450000 0.39820000 -0.91570000
vn -0.04480000 0.40050000 -0.91520000
vn -0.03210000 0.40080000 -0.91560000
vn -0.03860000 0.38450000 -0.92230000
vn -0.04220000 0.38450000 -0.92220000
vn -0.02380000 0.38460000 -0.92280000
vn -0.02730000 0.40070000 -0.91580000
vn -0.02170000 0.40070000 -0.91590000
vn -0.01430000 0.40080000 -0.91610000
vn -0.00990000 0.40080000 -0.91610000
vn -0.00920000 0.40080000 -0.91610000
vn -0.00920000 0.40910000 -0.91240000
vn 0.00940000 0.40150000 -0.91580000
vn -0.00910000 0.41730000 -0.90870000
vn 0.00300000 0.42550000 -0.90490000
vn 0.00910000 0.42550000 -0.90490000
vn -0.00880000 0.42530000 -0.90500000
vn -0.00300000 0.42530000 -0.90500000
vn 0.01690000 0.40040000 -0.91620000
vn 0.01060000 0.40080000 -0.91610000
vn 0.01140000 0.40070000 -0.91610000
vn 0.01610000 0.38470000 -0.92290000
vn 0.02440000 0.40070000 -0.91590000
vn 0.02310000 0.38480000 -0.92270000
vn 0.02740000 0.40070000 -0.91580000
vn 0.03020000 0.38470000 -0.92260000
vn 0.02990000 0.40080000 -0.91570000
vn 0.03270000 0.40080000 -0.91560000
vn 0.03370000 0.38460000 -0.92250000
vn 0.03790000 0.40080000 -0.91540000
vn 0.03730000 0.38450000 -0.92240000
vn 0.04120000 0.40070000 -0.91530000
vn 0.04370000 0.38440000 -0.92210000
vn 0.04480000 0.40050000 -0.91520000
vn 0.04830000 0.40010000 -0.91520000
vn 0.05170000 0.39890000 -0.91550000
vn 0.05560000 0.39720000 -0.91600000
vn 0.04840000 0.38210000 -0.92290000
vn 0.05820000 0.39530000 -0.91670000
vn 0.05890000 0.39520000 -0.91670000
vn 0.06040000 0.39460000 -0.91690000
vn 0.06660000 0.38380000 -0.92100000
vn 0.05030000 0.37850000 -0.92420000
vn 0.06810000 0.37190000 -0.92580000
vn 0.05040000 0.37440000 -0.92590000
vn 0.05040000 0.36540000 -0.92950000
vn 0.06810000 0.34780000 -0.93510000
vn 0.05040000 0.34880000 -0.93580000
vn 0.06810000 0.34270000 -0.93700000
vn 0.05040000 0.33870000 -0.93950000
vn 0.06820000 0.33750000 -0.93880000
vn 0.06820000 0.33260000 -0.94060000
vn 0.05040000 0.32870000 -0.94310000
vn 0.06810000 0.32790000 -0.94230000
vn 0.05630000 0.31840000 -0.94630000
vn 0.06220000 0.31830000 -0.94590000
vn 0.06810000 0.32330000 -0.94390000
vn 0.06810000 0.31860000 -0.94540000
vn 0.05050000 0.31860000 -0.94650000
vn -0.00870000 0.34720000 -0.93770000
vn -0.00890000 0.35040000 -0.93650000
vn -0.00900000 0.36960000 -0.92910000
f 2//2 1//1 3//3
f 5//5 4//4 6//6
f 6//6 4//4 7//7
f 6//6 7//7 8//8
f 8//8 7//7 9//9
f 10//10 9//9 7//7
f 10//10 7//7 11//11
f 11//11 7//7 12//12
f 11//11 12//12 13//13
f 14//14 15//15 4//4
f 4//4 15//15 16//16
f 4//4 16//16 17//17
f 14//14 18//18 15//15
f 15//15 18//18 19//19
f 15//15 19//19 20//20
f 20//20 19//19 21//21
f 20//20 21//21 22//22
f 22//22 21//21 23//23
f 23//23 21//21 24//24
f 23//23 24//24 25//25
f 23//23 25//25 26//26
f 26//26 25//25 27//27
f 26//26 27//27 28//28
f 28//28 27//27 29//29
f 28//28 29//29 30//30
f 30//30 31//31 32//32
f 30//30 32//32 28//28
f 31//31 33//33 32//32
f 32//32 33//33 34//34
f 34//34 33//33 35//35
f 34//34 35//35 36//36
f 37//37 38//38 36//36
f 36//36 38//38 39//39
f 36//36 39//39 34//34
f 38//38 37//37 40//40
f 40//40 37//37 41//41
f 40//40 41//41 42//42
f 42//42 41//41 43//43
f 43//43 41//41 44//44
f 43//43 44//44 45//45
f 45//45 44//44 46//46
f 45//45 46//46 47//47
f 47//47 48//48 45//45
f 45//45 48//48 49//49
f 45//45 49//49 50//50
f 45//45 50//50 51//51
f 51//51 50//50 52//52
f 51//51 52//52 53//53
f 54//54 55//55 53//53
f 53//53 55//55 56//56
f 53//53 56//56 51//51
f 55//55 54//54 57//57
f 57//57 54//54 58//58
f 57//57 58//58 59//59
f 59//59 60//60 57//57
f 57//57 60//60 13//13
f 13//13 60//60 61//61
f 13//13 61//61 62//62
f 63//63 64//64 62//62
f 62//62 64//64 11//11
f 62//62 11//11 13//13
f 63//63 65//65 64//64
f 64//64 65//65 66//66
f 64//64 66//66 67//67
f 68//68 69//69 65//65
f 65//65 69//69 66//66
f 64//64 70//70 11//11
f 11//11 70//70 71//71
f 11//11 72//72 73//73
f 73//73 72//72 74//74
f 73//73 74//74 75//75
f 75//75 74//74 76//76
f 75//75 76//76 77//77
f 77//77 76//76 78//78
f 77//77 78//78 79//79
f 77//77 79//79 80//80
f 80//80 79//79 81//81
f 80//80 81//81 82//82
f 82//82 81//81 83//83
f 82//82 83//83 84//84
f 84//84 83//83 85//85
f 84//84 85//85 86//86
f 86//86 87//87 84//84
f 84//84 87//87 88//88
f 84//84 88//88 89//89
f 89//89 88//88 90//90
f 89//89 90//90 91//91
f 91//91 92//92 89//89
f 89//89 92//92 93//93
f 89//89 93//93 94//94
f 94//94 93//93 95//95
f 94//94 95//95 96//96
f 96//96 95//95 97//97
f 97//97 95//95 98//98
f 97//97 98//98 99//99
f 99//99 98//98 100//100
f 99//99 100//100 101//101
f 101//101 100//100 102//102
f 101//101 102//102 103//103
f 101//101 103//103 104//104
f 104//104 103//103 105//105
f 104//104 105//105 106//106
f 106//106 105//105 107//107
f 107//107 105//105 108//108
f 107//107 108//108 109//109
f 106//106 110//110 104//104
f 17//17 111//111 4//4
f 4//4 111//111 112//112
f 4//4 112//112 7//7
f 7//7 112//112 113//113
f 7//7 113//113 12//12