mtllib material.mtl
usemtl material_0
v -0.00055200 -0.16077100 0.30844100
v 0.00064200 -0.15996700 0.31006000
v -0.00054900 -0.15955000 0.31086700
v 0.00064200 -0.15955100 0.31086200
v 0.00055500 -0.15903100 0.31183700
v 0.00124000 -0.15902300 0.31183400
v 0.00192300 -0.15901000 0.31182900
v 0.00269200 -0.15951200 0.31084300
v 0.00260600 -0.15899100 0.31182200
v 0.00309500 -0.15901700 0.31173500
v 0.00289700 -0.15953400 0.31078500
v 0.00331600 -0.15905700 0.31163900
v 0.00304700 -0.15960000 0.31064600
v 0.00372300 -0.15919400 0.31134300
v 0.00310500 -0.15969400 0.31046100
v 0.00400700 -0.15938600 0.31095300
v 0.00413100 -0.15964600 0.31044600
v 0.00413100 -0.15999600 0.30976800
v 0.00310600 -0.16008900 0.30968800
v 0.00310700 -0.16026000 0.30934900
v -0.00034500 -0.16110000 0.30775400
v 0.00064200 -0.16077100 0.30844100
v 0.00064200 -0.16037400 0.30925300
v 0.00067700 -0.16084500 0.30828600
v 0.00021500 -0.16133500 0.30725100
v 0.00078200 -0.16090800 0.30815100
v 0.00097800 -0.16141500 0.30706300
v 0.00092300 -0.16094400 0.30807300
v 0.00106800 -0.16095300 0.30804900
v 0.00152000 -0.16140700 0.30705900
v 0.00161000 -0.16094400 0.30804600
v 0.00206200 -0.16139500 0.30705500
v 0.00215200 -0.16093200 0.30804100
v 0.00260300 -0.16138000 0.30705000
v 0.00269500 -0.16091700 0.30803400
v 0.00318700 -0.16131000 0.30715000
v 0.00295900 -0.16086800 0.30811600
v 0.00305700 -0.16081500 0.30821600
v 0.00368200 -0.16115200 0.30744000
v 0.00310300 -0.16076700 0.30831200
v 0.00401600 -0.16092700 0.30787900
v 0.00311800 -0.16071600 0.30841700
v 0.00413300 -0.16067100 0.30840200
v 0.00311000 -0.16052600 0.30880900
v 0.00413100 -0.16033700 0.30908700
v -0.00054700 -0.15903000 0.31183700
v 0.00055400 -0.15876700 0.31231700
v -0.00054700 -0.15876700 0.31231700
v -0.00018000 -0.15823300 0.31327100
v -0.00054700 -0.15850100 0.31279400
v -0.00054700 -0.15823200 0.31327000
v 0.00055400 -0.15850100 0.31279400
v 0.00018700 -0.15823300 0.31327100
v 0.00055400 -0.15823200 0.31327000
v -0.00123200 -0.15902300 0.31183500
v -0.00123200 -0.15954100 0.31086600
v -0.00191600 -0.15901000 0.31182900
v -0.00191400 -0.15952800 0.31086100
v -0.00259900 -0.15899100 0.31182100
v -0.00259700 -0.15951000 0.31085100
v -0.00280700 -0.15953300 0.31079400
v -0.00309000 -0.15901700 0.31173400
v -0.00295500 -0.15959500 0.31066300
v -0.00354300 -0.15912400 0.31149300
v -0.00302300 -0.15969000 0.31047500
v -0.00389500 -0.15929700 0.31113200
v -0.00412400 -0.15964700 0.31044600
v -0.00412400 -0.16022400 0.30931500
v -0.00302300 -0.16027200 0.30933000
v -0.00302300 -0.16082900 0.30819000
v -0.00412400 -0.16078100 0.30817400
v -0.00302400 -0.16136700 0.30704100
v -0.00412400 -0.16132000 0.30702400
vn -0.00710000 -0.90070000 0.43430000
vn 0.00820000 -0.89050000 0.45500000
vn -0.00700000 -0.88510000 0.46530000
vn 0.00820000 -0.88510000 0.46530000
vn 0.00710000 -0.87850000 0.47770000
vn 0.01580000 -0.87840000 0.47770000
vn 0.02460000 -0.87820000 0.47760000
vn 0.03440000 -0.88460000 0.46500000
vn 0.03330000 -0.87800000 0.47760000
vn 0.03970000 -0.87830000 0.47640000
vn 0.03700000 -0.88490000 0.46430000
vn 0.04250000 -0.87890000 0.47520000
vn 0.03900000 -0.88570000 0.46250000
vn 0.04760000 -0.88060000 0.47140000
vn 0.03970000 -0.88700000 0.46010000
vn 0.05120000 -0.88310000 0.46640000
vn 0.05280000 -0.88640000 0.46000000
vn 0.05280000 -0.89080000 0.45130000
vn 0.03970000 -0.89200000 0.45030000
vn 0.03970000 -0.89420000 0.44590000
vn -0.00440000 -0.90490000 0.42550000
vn 0.00820000 -0.90070000 0.43430000
vn 0.00820000 -0.89560000 0.44470000
vn 0.00860000 -0.90170000 0.43240000
vn 0.00280000 -0.90800000 0.41910000
vn 0.00990000 -0.90250000 0.43060000
vn 0.01250000 -0.90900000 0.41670000
vn 0.01180000 -0.90290000 0.42960000
vn 0.01370000 -0.90310000 0.42930000
vn 0.01940000 -0.90890000 0.41670000
vn 0.02060000 -0.90290000 0.42930000
vn 0.02640000 -0.90870000 0.41650000
vn 0.02750000 -0.90280000 0.42920000
vn 0.03330000 -0.90850000 0.41650000
vn 0.03440000 -0.90260000 0.42910000
vn 0.04080000 -0.90760000 0.41780000
vn 0.03780000 -0.90200000 0.43010000
vn 0.03900000 -0.90130000 0.43140000
vn 0.04710000 -0.90560000 0.42150000
vn 0.03960000 -0.90070000 0.43260000
vn 0.05130000 -0.90270000 0.42710000
vn 0.03990000 -0.90000000 0.43400000
vn 0.05280000 -0.89940000 0.43380000
vn 0.03980000 -0.89760000 0.43900000
vn 0.05280000 -0.89520000 0.44260000
vn -0.00700000 -0.87850000 0.47780000
vn 0.00710000 -0.87510000 0.48390000
vn -0.00700000 -0.87510000 0.48390000
vn -0.00230000 -0.86830000 0.49600000
vn -0.00720000 -0.87170000 0.49000000
vn -0.00700000 -0.86830000 0.49600000
vn 0.00710000 -0.87170000 0.49000000
vn 0.00240000 -0.86830000 0.49600000
vn 0.00720000 -0.86820000 0.49610000
vn -0.01580000 -0.87840000 0.47770000
vn -0.01570000 -0.88500000 0.46540000
vn -0.02450000 -0.87820000 0.47760000
vn -0.02450000 -0.88480000 0.46520000
vn -0.03330000 -0.87800000 0.47750000
vn -0.03320000 -0.88460000 0.46520000
vn -0.03580000 -0.88490000 0.46440000
vn -0.03950000 -0.87830000 0.47640000
vn -0.03780000 -0.88570000 0.46270000
vn -0.04530000 -0.87970000 0.47330000
vn -0.03890000 -0.88690000 0.46030000
vn -0.04970000 -0.88190000 0.46870000
vn -0.05270000 -0.88640000 0.45990000
vn -0.05270000 -0.89370000 0.44550000
vn -0.03870000 -0.89440000 0.44570000
vn -0.03870000 -0.90150000 0.43110000
vn -0.05270000 -0.90090000 0.43090000
vn -0.03870000 -0.90840000 0.41640000
vn -0.05270000 -0.90780000 0.41620000
f 1//1 2//2 3//3
f 3//3 2//2 4//4
f 3//3 4//4 5//5
f 5//5 4//4 6//6
f 6//6 4//4 7//7
f 7//7 4//4 8//8
f 7//7 8//8 9//9
f 9//9 8//8 10//10
f 10//10 8//8 11//11
f 10//10 11//11 12//12
f 12//12 11//11 13//13
f 12//12 13//13 14//14
f 14//14 13//13 15//15
f 14//14 15//15 16//16
f 16//16 15//15 17//17
f 17//17 15//15 18//18
f 18//18 15//15 19//19
f 18//18 19//19 20//20
f 21//21 22//22 1//1
f 1//1 22//22 23//23
f 1//1 23//23 2//2
f 22//22 21//21 24//24
f 24//24 21//21 25//25
f 24//24 25//25 26//26
f 26//26 25//25 27//27
f 26//26 27//27 28//28
f 28//28 27//27 29//29
f 29//29 27//27 30//30
f 29//29 30//30 31//31
f 31//31 30//30 32//32
f 31//31 32//32 33//33
f 33//33 32//32 34//34
f 33//33 34//34 35//35
f 35//35 34//34 36//36
f 35//35 36//36 37//37
f 37//37 36//36 38//38
f 38//38 36//36 39//39
f 38//38 39//39 40//40
f 40//40 39//39 41//41
f 40//40 41//41 42//42
f 42//42 41//41 43//43
f 42//42 43//43 44//44
f 44//44 43//43 45//45
f 44//44 45//45 20//20
f 20//20 45//45 18//18
f 3//3 5//5 46//46
f 46//46 5//5 47//47
f 46//46 47//47 48//48
f 48//48 47//47 49//49
f 48//48 49//49 50//50
f 50//50 49//49 51//51
f 47//47 52//52 49//49
f 49//49 52//52 53//53
f 53//53 52//52 54//54
f 46//46 55//55 3//3
f 3//3 55//55 56//56
f 56//56 55//55 57//57
f 56//56 57//57 58//58
f 58//58 57//57 59//59
f 58//58 59//59 60//60
f 60//60 59//59 61//61
f 61//61 59//59 62//62
f 61//61 62//62 63//63
f 63//63 62//62 64//64
f 63//63 64//64 65//65
f 65//65 64//64 66//66
f 65//65 66//66 67//67
f 67//67 68//68 65//65
f 65//65 68//68 69//69
f 69//69 68//68 70//70
f 70//70 68//68 71//71
f 70//70 71//71 72//72
f 72//72 71//71 73//73