mtllib material.mtl
usemtl material_0
v -0.00474600 -0.05835000 0.04515100
v -0.00474600 -0.05915000 0.04515100
v 0.00000000 -0.05835000 0.04540000
v 0.00000000 -0.05915000 0.04540000
v 0.00000000 -0.05835000 0.04540000
v 0.00000000 -0.05915000 0.04540000
v 0.00474600 -0.05835000 0.04515100
v 0.00474600 -0.05915000 0.04515100
v 0.00943900 -0.05915000 0.04440800
v -0.00943900 -0.05835000 0.04440800
v -0.00943900 -0.05915000 0.04440800
v -0.01402900 -0.05835000 0.04317800
v -0.01402900 -0.05915000 0.04317800
v -0.01846600 -0.05835000 0.04147500
v -0.01846600 -0.05915000 0.04147500
v -0.02270000 -0.05835000 0.03931700
v -0.02270000 -0.05915000 0.03931700
v -0.02668500 -0.05835000 0.03672900
v -0.02668500 -0.05915000 0.03672900
v -0.03037900 -0.05835000 0.03373900
v -0.03037900 -0.05915000 0.03373900
v -0.03373900 -0.05835000 0.03037900
v -0.03373900 -0.05915000 0.03037900
v -0.03672900 -0.05835000 0.02668500
v -0.03672900 -0.05915000 0.02668500
v -0.03931800 -0.05835000 0.02270000
v -0.03931800 -0.05915000 0.02270000
v -0.04147500 -0.05835000 0.01846600
v -0.04147500 -0.05915000 0.01846600
v -0.04317800 -0.05835000 0.01402900
v -0.04317800 -0.05915000 0.01402900
v -0.04440800 -0.05835000 0.00943900
v -0.04440800 -0.05915000 0.00943900
v -0.04515100 -0.05835000 0.00474600
v -0.04515100 -0.05915000 0.00474600
v -0.04540000 -0.05835000 0.00000000
v -0.04540000 -0.05915000 0.00000000
v -0.04515100 -0.05835000 -0.00474600
v -0.04515100 -0.05915000 -0.00474600
v -0.04440800 -0.05835000 -0.00943900
v -0.04440800 -0.05915000 -0.00943900
v -0.04317800 -0.05835000 -0.01402900
v -0.04317800 -0.05915000 -0.01402900
v -0.04147500 -0.05835000 -0.01846600
v -0.04147500 -0.05915000 -0.01846600
v -0.03931800 -0.05835000 -0.02270000
v -0.03931800 -0.05915000 -0.02270000
v -0.03672900 -0.05835000 -0.02668500
v -0.03672900 -0.05915000 -0.02668500
v -0.03373900 -0.05835000 -0.03037900
v -0.03373900 -0.05915000 -0.03037900
v -0.03037900 -0.05835000 -0.03373900
v -0.03037900 -0.05915000 -0.03373900
v -0.02668500 -0.05835000 -0.03672900
v -0.02668500 -0.05915000 -0.03672900
v -0.02270000 -0.05835000 -0.03931800
v -0.02270000 -0.05915000 -0.03931800
v -0.01846600 -0.05835000 -0.04147500
v -0.01846600 -0.05915000 -0.04147500
v -0.01402900 -0.05835000 -0.04317800
v -0.01402900 -0.05915000 -0.04317800
v -0.00943900 -0.05835000 -0.04440800
v -0.00943900 -0.05915000 -0.04440800
v -0.00474600 -0.05835000 -0.04515100
v -0.00474600 -0.05915000 -0.04515100
v 0.00000000 -0.05835000 -0.04540000
v 0.00000000 -0.05915000 -0.04540000
v 0.00474600 -0.05835000 -0.04515100
v 0.00474600 -0.05915000 -0.04515100
v 0.00943900 -0.05835000 -0.04440800
v 0.00943900 -0.05915000 -0.04440800
v 0.01402900 -0.05835000 -0.04317800
v 0.01402900 -0.05915000 -0.04317800
v 0.01846600 -0.05835000 -0.04147500
v 0.01846600 -0.05915000 -0.04147500
v 0.02270000 -0.05835000 -0.03931800
v 0.02270000 -0.05915000 -0.03931800
v 0.02668500 -0.05835000 -0.03672900
v 0.02668500 -0.05915000 -0.03672900
v 0.03037900 -0.05835000 -0.03373900
v 0.03037900 -0.05915000 -0.03373900
v 0.03373900 -0.05835000 -0.03037900
v 0.03373900 -0.05915000 -0.03037900
v 0.03672900 -0.05835000 -0.02668500
v 0.03672900 -0.05915000 -0.02668500
v 0.03931800 -0.05835000 -0.02270000
v 0.03931800 -0.05915000 -0.02270000
v 0.04147500 -0.05835000 -0.01846600
v 0.04147500 -0.05915000 -0.01846600
v 0.04317800 -0.05835000 -0.01402900
v 0.04317800 -0.05915000 -0.01402900
v 0.04440800 -0.05835000 -0.00943900
v 0.04440800 -0.05915000 -0.00943900
v 0.04515100 -0.05835000 -0.00474600
v 0.04515100 -0.05915000 -0.00474600
v 0.04540000 -0.05835000 0.00000000
v 0.04540000 -0.05915000 0.00000000
v 0.04515100 -0.05835000 0.00474600
v 0.04515100 -0.05915000 0.00474600
v 0.04440800 -0.05835000 0.00943900
v 0.04440800 -0.05915000 0.00943900
v 0.04317800 -0.05835000 0.01402900
v 0.04317800 -0.05915000 0.01402900
v 0.04147500 -0.05835000 0.01846600
v 0.04147500 -0.05915000 0.01846600
v 0.03931800 -0.05835000 0.02270000
v 0.03931800 -0.05915000 0.02270000
v 0.03672900 -0.05835000 0.02668500
v 0.03672900 -0.05915000 0.02668500
v 0.03373900 -0.05835000 0.03037900
v 0.03373900 -0.05915000 0.03037900
v 0.03037900 -0.05835000 0.03373900
v 0.03037900 -0.05915000 0.03373900
v 0.02668500 -0.05835000 0.03672900
v 0.02668500 -0.05915000 0.03672900
v 0.02270000 -0.05835000 0.03931700
v 0.02270000 -0.05915000 0.03931700
v 0.01846600 -0.05835000 0.04147500
v 0.01846600 -0.05915000 0.04147500
v 0.01402900 -0.05835000 0.04317800
v 0.01402900 -0.05915000 0.04317800
v 0.00943900 -0.05835000 0.04440800
v 0.00000000 -0.05815000 0.04520000
v 0.00480400 -0.05815000 0.04494400
v -0.00480400 -0.05815000 0.04494400
v 0.00955400 -0.05815000 0.04417900
v 0.01419600 -0.05815000 0.04291300
v 0.01867700 -0.05815000 0.04116100
v 0.02294600 -0.05815000 0.03894200
v 0.02695600 -0.05815000 0.03628300
v 0.03066000 -0.05815000 0.03321200
v 0.03401600 -0.05815000 0.02976500
v 0.03698700 -0.05815000 0.02598000
v 0.03953900 -0.05815000 0.02190200
v 0.04164300 -0.05815000 0.01757500
v 0.04327500 -0.05815000 0.01304900
v 0.04441700 -0.05815000 0.00837500
v 0.04505600 -0.05815000 0.00360600
v 0.04518400 -0.05815000 -0.00120300
v 0.04480000 -0.05815000 -0.00599900
v 0.04390900 -0.05815000 -0.01072700
v 0.04252000 -0.05815000 -0.01533400
v 0.04064900 -0.05815000 -0.01976600
v 0.03831800 -0.05815000 -0.02397500
v 0.03555200 -0.05815000 -0.02791200
v 0.03238400 -0.05815000 -0.03153300
v 0.02884900 -0.05815000 -0.03479600
v 0.02498700 -0.05815000 -0.03766600
v 0.02084100 -0.05815000 -0.04010800
v 0.01646000 -0.05815000 -0.04209600
v 0.01189200 -0.05815000 -0.04360700
v 0.00719000 -0.05815000 -0.04462400
v 0.00240600 -0.05815000 -0.04513600
v -0.00240600 -0.05815000 -0.04513600
v -0.00719000 -0.05815000 -0.04462400
v -0.00955400 -0.05815000 0.04417900
v -0.01189200 -0.05815000 -0.04360700
v -0.01419600 -0.05815000 0.04291300
v -0.01646000 -0.05815000 -0.04209600
v -0.01867700 -0.05815000 0.04116100
v -0.02084100 -0.05815000 -0.04010800
v -0.02294600 -0.05815000 0.03894200
v -0.02498600 -0.05815000 -0.03766600
v -0.02695600 -0.05815000 0.03628300
v -0.02884900 -0.05815000 -0.03479600
v -0.03066000 -0.05815000 0.03321200
v -0.03238400 -0.05815000 -0.03153300
v -0.03401600 -0.05815000 0.02976500
v -0.03555200 -0.05815000 -0.02791200
v -0.03698700 -0.05815000 0.02598000
v -0.03831800 -0.05815000 -0.02397500
v -0.03953900 -0.05815000 0.02190200
v -0.04064900 -0.05815000 -0.01976600
v -0.04164300 -0.05815000 0.01757500
v -0.04252000 -0.05815000 -0.01533400
v -0.04327500 -0.05815000 0.01304900
v -0.04390900 -0.05815000 -0.01072700
v -0.04441700 -0.05815000 0.00837500
v -0.04480000 -0.05815000 -0.00599900
v -0.04505600 -0.05815000 0.00360600
v -0.04518400 -0.05815000 -0.00120300
v 0.00474600 -0.05915000 0.04515100
v 0.00000000 -0.05915000 0.04540000
v 0.00000000 -0.05915000 0.04275000
v -0.00474600 -0.05915000 0.04515100
v -0.00462200 -0.05915000 0.04249900
v -0.00943900 -0.05915000 0.04440800
v -0.00919000 -0.05915000 0.04175000
v -0.01402900 -0.05915000 0.04317800
v -0.01365000 -0.05915000 0.04051200
v -0.01846600 -0.05915000 0.04147500
v -0.01795000 -0.05915000 0.03879900
v -0.02270000 -0.05915000 0.03931700
v -0.02204000 -0.05915000 0.03663100
v -0.02668500 -0.05915000 0.03672900
v -0.02587100 -0.05915000 0.03403300
v -0.03037900 -0.05915000 0.03373900
v -0.02939900 -0.05915000 0.03103600
v -0.03373900 -0.05915000 0.03037900
v -0.03258200 -0.05915000 0.02767600
v -0.03672900 -0.05915000 0.02668500
v -0.03538400 -0.05915000 0.02399100
v -0.03931800 -0.05915000 0.02270000
v -0.03777000 -0.05915000 0.02002400
v -0.04147500 -0.05915000 0.01846600
v -0.03971400 -0.05915000 0.01582300
v -0.04317800 -0.05915000 0.01402900
v -0.04119200 -0.05915000 0.01143700
v -0.04440800 -0.05915000 0.00943900
v -0.04218700 -0.05915000 0.00691600
v -0.04515100 -0.05915000 0.00474600
v -0.04268700 -0.05915000 0.00231400
v -0.04540000 -0.05915000 0.00000000
v -0.04268700 -0.05915000 -0.00231400
v -0.04515100 -0.05915000 -0.00474600
v -0.04218700 -0.05915000 -0.00691600
v -0.04440800 -0.05915000 -0.00943900
v -0.04119200 -0.05915000 -0.01143700
v -0.04317800 -0.05915000 -0.01402900
v -0.03971400 -0.05915000 -0.01582300
v -0.04147500 -0.05915000 -0.01846600
v -0.03777000 -0.05915000 -0.02002400
v -0.03931800 -0.05915000 -0.02270000
v -0.03538400 -0.05915000 -0.02399100
v -0.03672900 -0.05915000 -0.02668500
v -0.03258200 -0.05915000 -0.02767600
v -0.03373900 -0.05915000 -0.03037900
v -0.02939900 -0.05915000 -0.03103600
v -0.03037900 -0.05915000 -0.03373900
v -0.02587100 -0.05915000 -0.03403300
v -0.02668500 -0.05915000 -0.03672900
v -0.02204000 -0.05915000 -0.03663100
v -0.02270000 -0.05915000 -0.03931800
v -0.01795000 -0.05915000 -0.03879900
v -0.01846600 -0.05915000 -0.04147500
v -0.01365000 -0.05915000 -0.04051200
v -0.01402900 -0.05915000 -0.04317800
v -0.00919000 -0.05915000 -0.04175000
v -0.00943900 -0.05915000 -0.04440800
v -0.00462200 -0.05915000 -0.04249900
v -0.00474600 -0.05915000 -0.04515100
v 0.00000000 -0.05915000 -0.04275000
v 0.00000000 -0.05915000 -0.04540000
v 0.00474600 -0.05915000 -0.04515100
v 0.00462200 -0.05915000 -0.04249900
v 0.00943900 -0.05915000 -0.04440800
v 0.00919000 -0.05915000 -0.04175000
v 0.01402900 -0.05915000 -0.04317800
v 0.01365000 -0.05915000 -0.04051200
v 0.01846600 -0.05915000 -0.04147500
v 0.01795000 -0.05915000 -0.03879900
v 0.02270000 -0.05915000 -0.03931800
v 0.02204000 -0.05915000 -0.03663100
v 0.02668500 -0.05915000 -0.03672900
v 0.02587100 -0.05915000 -0.03403300
v 0.03037900 -0.05915000 -0.03373900
v 0.02939900 -0.05915000 -0.03103600
v 0.03373900 -0.05915000 -0.03037900
v 0.03258200 -0.05915000 -0.02767600
v 0.03672900 -0.05915000 -0.02668500
v 0.03538400 -0.05915000 -0.02399100
v 0.03931800 -0.05915000 -0.02270000
v 0.03777000 -0.05915000 -0.02002400
v 0.04147500 -0.05915000 -0.01846600
v 0.03971400 -0.05915000 -0.01582300
v 0.04317800 -0.05915000 -0.01402900
v 0.04119200 -0.05915000 -0.01143700
v 0.04440800 -0.05915000 -0.00943900
v 0.04218700 -0.05915000 -0.00691600
v 0.04515100 -0.05915000 -0.00474600
v 0.04268700 -0.05915000 -0.00231400
v 0.04540000 -0.05915000 0.00000000
v 0.04268700 -0.05915000 0.00231400
v 0.04515100 -0.05915000 0.00474600
v 0.04218700 -0.05915000 0.00691600
v 0.04440800 -0.05915000 0.00943900
v 0.04119200 -0.05915000 0.01143700
v 0.04317800 -0.05915000 0.01402900
v 0.03971400 -0.05915000 0.01582300
v 0.04147500 -0.05915000 0.01846600
v 0.03777000 -0.05915000 0.02002400
v 0.03931800 -0.05915000 0.02270000
v 0.03538400 -0.05915000 0.02399100
v 0.03672900 -0.05915000 0.02668500
v 0.03258200 -0.05915000 0.02767600
v 0.03373900 -0.05915000 0.03037900
v 0.02939900 -0.05915000 0.03103600
v 0.03037900 -0.05915000 0.03373900
v 0.02587100 -0.05915000 0.03403300
v 0.02668500 -0.05915000 0.03672900
v 0.02204000 -0.05915000 0.03663100
v 0.02270000 -0.05915000 0.03931700
v 0.01795000 -0.05915000 0.03879900
v 0.01846600 -0.05915000 0.04147500
v 0.01365000 -0.05915000 0.04051200
v 0.01402900 -0.05915000 0.04317800
v 0.00919000 -0.05915000 0.04175000
v 0.00943900 -0.05915000 0.04440800
v 0.00462200 -0.05915000 0.04249900
v -0.00462200 -0.06215000 -0.04249900
v -0.00462200 -0.05915000 -0.04249900
v 0.00000000 -0.06215000 -0.04275000
v 0.00000000 -0.05915000 -0.04275000
v 0.00000000 -0.06215000 -0.04275000
v 0.00000000 -0.05915000 -0.04275000
v 0.00462200 -0.06215000 -0.04249900
v 0.00462200 -0.05915000 -0.04249900
v 0.00919000 -0.06215000 -0.04175000
v 0.00919000 -0.05915000 -0.04175000
v 0.01365000 -0.06215000 -0.04051200
v 0.01365000 -0.05915000 -0.04051200
v 0.01795000 -0.06215000 -0.03879900
v 0.01795000 -0.05915000 -0.03879900
v 0.02204000 -0.06215000 -0.03663100
v 0.02204000 -0.05915000 -0.03663100
v 0.02587100 -0.06215000 -0.03403300
v 0.02587100 -0.05915000 -0.03403300
v 0.02939900 -0.06215000 -0.03103600
v 0.02939900 -0.05915000 -0.03103600
v 0.03258200 -0.06215000 -0.02767600
v 0.03258200 -0.05915000 -0.02767600
v 0.03538400 -0.06215000 -0.02399100
v 0.03538400 -0.05915000 -0.02399100
v 0.03777000 -0.06215000 -0.02002400
v 0.03777000 -0.05915000 -0.02002400
v 0.03971400 -0.06215000 -0.01582300
v 0.03971400 -0.05915000 -0.01582300
v 0.04119200 -0.06215000 -0.01143700
v 0.04119200 -0.05915000 -0.01143700
v 0.04218700 -0.06215000 -0.00691600
v 0.04218700 -0.05915000 -0.00691600
v 0.04268700 -0.06215000 -0.00231400
v 0.04268700 -0.05915000 -0.00231400
v 0.04268700 -0.06215000 0.00231400
v 0.04268700 -0.05915000 0.00231400
v 0.04218700 -0.06215000 0.00691600
v 0.04218700 -0.05915000 0.00691600
v 0.04119200 -0.06215000 0.01143700
v 0.04119200 -0.05915000 0.01143700
v 0.03971400 -0.06215000 0.01582300
v 0.03971400 -0.05915000 0.01582300
v 0.03777000 -0.06215000 0.02002400
v 0.03777000 -0.05915000 0.02002400
v 0.03538400 -0.06215000 0.02399100
v 0.03538400 -0.05915000 0.02399100
v 0.03258200 -0.06215000 0.02767600
v 0.03258200 -0.05915000 0.02767600
v 0.02939900 -0.06215000 0.03103600
v 0.02939900 -0.05915000 0.03103600
v 0.02587100 -0.06215000 0.03403300
v 0.02587100 -0.05915000 0.03403300
v 0.02204000 -0.06215000 0.03663100
v 0.02204000 -0.05915000 0.03663100
v 0.01795000 -0.06215000 0.03879900
v 0.01795000 -0.05915000 0.03879900
v 0.01365000 -0.06215000 0.04051200
v 0.01365000 -0.05915000 0.04051200
v 0.00919000 -0.06215000 0.04175000
v 0.00919000 -0.05915000 0.04175000
v 0.00462200 -0.06215000 0.04249900
v 0.00462200 -0.05915000 0.04249900
v 0.00000000 -0.06215000 0.04275000
v 0.00000000 -0.05915000 0.04275000
v -0.00462200 -0.06215000 0.04249900
v -0.00462200 -0.05915000 0.04249900
v -0.00919000 -0.06215000 0.04175000
v -0.00919000 -0.05915000 0.04175000
v -0.01365000 -0.06215000 0.04051200
v -0.01365000 -0.05915000 0.04051200
v -0.01795000 -0.06215000 0.03879900
v -0.01795000 -0.05915000 0.03879900
v -0.02204000 -0.06215000 0.03663100
v -0.02204000 -0.05915000 0.03663100
v -0.02587100 -0.06215000 0.03403300
v -0.02587100 -0.05915000 0.03403300
v -0.02939900 -0.06215000 0.03103600
v -0.02939900 -0.05915000 0.03103600
v -0.03258200 -0.06215000 0.02767600
v -0.03258200 -0.05915000 0.02767600
v -0.03538400 -0.06215000 0.02399100
v -0.03538400 -0.05915000 0.02399100
v -0.03777000 -0.06215000 0.02002400
v -0.03777000 -0.05915000 0.02002400
v -0.03971400 -0.06215000 0.01582300
v -0.03971400 -0.05915000 0.01582300
v -0.04119200 -0.06215000 0.01143700
v -0.04119200 -0.05915000 0.01143700
v -0.04218700 -0.06215000 0.00691600
v -0.04218700 -0.05915000 0.00691600
v -0.04268700 -0.06215000 0.00231400
v -0.04268700 -0.05915000 0.00231400
v -0.04268700 -0.06215000 -0.00231400
v -0.04268700 -0.05915000 -0.00231400
v -0.04218700 -0.06215000 -0.00691600
v -0.04218700 -0.05915000 -0.00691600
v -0.04119200 -0.06215000 -0.01143700
v -0.04119200 -0.05915000 -0.01143700
v -0.03971400 -0.06215000 -0.01582300
v -0.03971400 -0.05915000 -0.01582300
v -0.03777000 -0.06215000 -0.02002400
v -0.03777000 -0.05915000 -0.02002400
v -0.03538400 -0.06215000 -0.02399100
v -0.03538400 -0.05915000 -0.02399100
v -0.03258200 -0.06215000 -0.02767600
v -0.03258200 -0.05915000 -0.02767600
v -0.02939900 -0.06215000 -0.03103600
v -0.02939900 -0.05915000 -0.03103600
v -0.02587100 -0.06215000 -0.03403300
v -0.02587100 -0.05915000 -0.03403300
v -0.02204000 -0.06215000 -0.03663100
v -0.02204000 -0.05915000 -0.03663100
v -0.01795000 -0.06215000 -0.03879900
v -0.01795000 -0.05915000 -0.03879900
v -0.01365000 -0.06215000 -0.04051200
v -0.01365000 -0.05915000 -0.04051200
v -0.00919000 -0.06215000 -0.04175000
v -0.00919000 -0.05915000 -0.04175000
v 0.00462200 -0.06215000 -0.04249900
v 0.00462200 -0.06215000 0.04249900
v 0.00000000 -0.06215000 -0.04275000
v 0.00000000 -0.06215000 0.04275000
v -0.00462200 -0.06215000 -0.04249900
v -0.00462200 -0.06215000 0.04249900
v -0.00919000 -0.06215000 -0.04175000
v -0.00919000 -0.06215000 0.04175000
v -0.01365000 -0.06215000 -0.04051200
v -0.01365000 -0.06215000 0.04051200
v -0.01795000 -0.06215000 -0.03879900
v -0.01795000 -0.06215000 0.03879900
v -0.02204000 -0.06215000 -0.03663100
v -0.02204000 -0.06215000 0.03663100
v -0.02587100 -0.06215000 -0.03403300
v -0.02587100 -0.06215000 0.03403300
v -0.02939900 -0.06215000 -0.03103600
v -0.02939900 -0.06215000 0.03103600
v -0.03258200 -0.06215000 -0.02767600
v -0.03258200 -0.06215000 0.02767600
v -0.03538400 -0.06215000 -0.02399100
v -0.03538400 -0.06215000 0.02399100
v -0.03777000 -0.06215000 -0.02002400
v -0.03777000 -0.06215000 0.02002400
v -0.03971400 -0.06215000 -0.01582300
v -0.03971400 -0.06215000 0.01582300
v -0.04119200 -0.06215000 -0.01143700
v -0.04119200 -0.06215000 0.01143700
v -0.04218700 -0.06215000 -0.00691600
v -0.04218700 -0.06215000 0.00691600
v -0.04268700 -0.06215000 -0.00231400
v -0.04268700 -0.06215000 0.00231400
v 0.00919000 -0.06215000 0.04175000
v 0.00919000 -0.06215000 -0.04175000
v 0.01365000 -0.06215000 0.04051200
v 0.01365000 -0.06215000 -0.04051200
v 0.01795000 -0.06215000 0.03879900
v 0.01795000 -0.06215000 -0.03879900
v 0.02204000 -0.06215000 0.03663100
v 0.02204000 -0.06215000 -0.03663100
v 0.02587100 -0.06215000 0.03403300
v 0.02587100 -0.06215000 -0.03403300
v 0.02939900 -0.06215000 0.03103600
v 0.02939900 -0.06215000 -0.03103600
v 0.03258200 -0.06215000 0.02767600
v 0.03258200 -0.06215000 -0.02767600
v 0.03538400 -0.06215000 0.02399100
v 0.03538400 -0.06215000 -0.02399100
v 0.03777000 -0.06215000 0.02002400
v 0.03777000 -0.06215000 -0.02002400
v 0.03971400 -0.06215000 0.01582300
v 0.03971400 -0.06215000 -0.01582300
v 0.04119200 -0.06215000 0.01143700
v 0.04119200 -0.06215000 -0.01143700
v 0.04218700 -0.06215000 0.00691600
v 0.04218700 -0.06215000 -0.00691600
v 0.04268700 -0.06215000 0.00231400
v 0.04268700 -0.06215000 -0.00231400
v -0.00480400 -0.05815000 0.04494400
v -0.00474600 -0.05835000 0.04515100
v 0.00000000 -0.05815000 0.04520000
v 0.00000000 -0.05835000 0.04540000
v 0.00000000 -0.05815000 0.04520000
v 0.00000000 -0.05835000 0.04540000
v 0.00474600 -0.05835000 0.04515100
v -0.00943900 -0.05835000 0.04440800
v -0.00955400 -0.05815000 0.04417900
v -0.01402900 -0.05835000 0.04317800
v -0.01419600 -0.05815000 0.04291300
v -0.01846600 -0.05835000 0.04147500
v -0.01867700 -0.05815000 0.04116100
v -0.02270000 -0.05835000 0.03931700
v -0.02294600 -0.05815000 0.03894200
v -0.02668500 -0.05835000 0.03672900
v -0.02695600 -0.05815000 0.03628300
v -0.03037900 -0.05835000 0.03373900
v -0.03066000 -0.05815000 0.03321200
v -0.03373900 -0.05835000 0.03037900
v -0.03401600 -0.05815000 0.02976500
v -0.03672900 -0.05835000 0.02668500
v -0.03698700 -0.05815000 0.02598000
v -0.03931800 -0.05835000 0.02270000
v -0.03953900 -0.05815000 0.02190200
v -0.04147500 -0.05835000 0.01846600
v -0.04164300 -0.05815000 0.01757500
v -0.04317800 -0.05835000 0.01402900
v -0.04327500 -0.05815000 0.01304900
v -0.04440800 -0.05835000 0.00943900
v -0.04441700 -0.05815000 0.00837500
v -0.04515100 -0.05835000 0.00474600
v -0.04505600 -0.05815000 0.00360600
v -0.04540000 -0.05835000 0.00000000
v -0.04518400 -0.05815000 -0.00120300
v -0.04515100 -0.05835000 -0.00474600
v -0.04480000 -0.05815000 -0.00599900
v -0.04440800 -0.05835000 -0.00943900
v -0.04390900 -0.05815000 -0.01072700
v -0.04317800 -0.05835000 -0.01402900
v -0.04252000 -0.05815000 -0.01533400
v -0.04147500 -0.05835000 -0.01846600
v -0.04064900 -0.05815000 -0.01976600
v -0.03931800 -0.05835000 -0.02270000
v -0.03831800 -0.05815000 -0.02397500
v -0.03672900 -0.05835000 -0.02668500
v -0.03555200 -0.05815000 -0.02791200
v -0.03373900 -0.05835000 -0.03037900
v -0.03238400 -0.05815000 -0.03153300
v -0.03037900 -0.05835000 -0.03373900
v -0.02884900 -0.05815000 -0.03479600
v -0.02668500 -0.05835000 -0.03672900
v -0.02498600 -0.05815000 -0.03766600
v -0.02270000 -0.05835000 -0.03931800
v -0.02084100 -0.05815000 -0.04010800
v -0.01846600 -0.05835000 -0.04147500
v -0.01646000 -0.05815000 -0.04209600
v -0.01402900 -0.05835000 -0.04317800
v -0.01189200 -0.05815000 -0.04360700
v -0.00943900 -0.05835000 -0.04440800
v -0.00719000 -0.05815000 -0.04462400
v -0.00474600 -0.05835000 -0.04515100
v -0.00240600 -0.05815000 -0.04513600
v 0.00000000 -0.05835000 -0.04540000
v 0.00240600 -0.05815000 -0.04513600
v 0.00474600 -0.05835000 -0.04515100
v 0.00719000 -0.05815000 -0.04462400
v 0.00943900 -0.05835000 -0.04440800
v 0.01189200 -0.05815000 -0.04360700
v 0.01402900 -0.05835000 -0.04317800
v 0.01646000 -0.05815000 -0.04209600
v 0.01846600 -0.05835000 -0.04147500
v 0.02084100 -0.05815000 -0.04010800
v 0.02270000 -0.05835000 -0.03931800
v 0.02498700 -0.05815000 -0.03766600
v 0.02668500 -0.05835000 -0.03672900
v 0.02884900 -0.05815000 -0.03479600
v 0.03037900 -0.05835000 -0.03373900
v 0.03238400 -0.05815000 -0.03153300
v 0.03373900 -0.05835000 -0.03037900
v 0.03555200 -0.05815000 -0.02791200
v 0.03672900 -0.05835000 -0.02668500
v 0.03831800 -0.05815000 -0.02397500
v 0.03931800 -0.05835000 -0.02270000
v 0.04064900 -0.05815000 -0.01976600
v 0.04147500 -0.05835000 -0.01846600
v 0.04252000 -0.05815000 -0.01533400
v 0.04317800 -0.05835000 -0.01402900
v 0.04390900 -0.05815000 -0.01072700
v 0.04440800 -0.05835000 -0.00943900
v 0.04480000 -0.05815000 -0.00599900
v 0.04515100 -0.05835000 -0.00474600
v 0.04518400 -0.05815000 -0.00120300
v 0.04540000 -0.05835000 0.00000000
v 0.04505600 -0.05815000 0.00360600
v 0.04515100 -0.05835000 0.00474600
v 0.04441700 -0.05815000 0.00837500
v 0.04440800 -0.05835000 0.00943900
v 0.04327500 -0.05815000 0.01304900
v 0.04317800 -0.05835000 0.01402900
v 0.04164300 -0.05815000 0.01757500
v 0.04147500 -0.05835000 0.01846600
v 0.03953900 -0.05815000 0.02190200
v 0.03931800 -0.05835000 0.02270000
v 0.03698700 -0.05815000 0.02598000
v 0.03672900 -0.05835000 0.02668500
v 0.03401600 -0.05815000 0.02976500
v 0.03373900 -0.05835000 0.03037900
v 0.03066000 -0.05815000 0.03321200
v 0.03037900 -0.05835000 0.03373900
v 0.02695600 -0.05815000 0.03628300
v 0.02668500 -0.05835000 0.03672900
v 0.02294600 -0.05815000 0.03894200
v 0.02270000 -0.05835000 0.03931700
v 0.01867700 -0.05815000 0.04116100
v 0.01846600 -0.05835000 0.04147500
v 0.01419600 -0.05815000 0.04291300
v 0.01402900 -0.05835000 0.04317800
v 0.00955400 -0.05815000 0.04417900
v 0.00943900 -0.05835000 0.04440800
v 0.00480400 -0.05815000 0.04494400
v 0.03923400 -0.06335000 0.28187600
v 0.03947600 -0.06235000 0.28600000
v 0.03945000 -0.06335000 0.28600000
v 0.03945000 -0.06335000 0.28600000
v 0.03947600 -0.06235000 0.28600000
v 0.03926000 -0.06235000 0.29012600
v 0.03923400 -0.06335000 0.29012400
v 0.03861400 -0.06235000 0.29420800
v 0.03858800 -0.06335000 0.29420200
v 0.03754400 -0.06235000 0.29819900
v 0.03751900 -0.06335000 0.29819100
v 0.03606300 -0.06235000 0.30205600
v 0.03603900 -0.06335000 0.30204600
v 0.03418700 -0.06235000 0.30573800
v 0.03416500 -0.06335000 0.30572500
v 0.03193700 -0.06235000 0.30920400
v 0.03191600 -0.06335000 0.30918800
v 0.02933700 -0.06235000 0.31241500
v 0.02931700 -0.06335000 0.31239700
v 0.02641500 -0.06235000 0.31533700
v 0.02639700 -0.06335000 0.31531700
v 0.02320400 -0.06235000 0.31793700
v 0.02318800 -0.06335000 0.31791600
v 0.01973800 -0.06235000 0.32018800
v 0.01972500 -0.06335000 0.32016500
v 0.01605600 -0.06235000 0.32206300
v 0.01604600 -0.06335000 0.32203900
v 0.01219900 -0.06235000 0.32354400
v 0.01219100 -0.06335000 0.32351900
v 0.00820700 -0.06235000 0.32461400
v 0.00820200 -0.06335000 0.32458800
v 0.00412600 -0.06235000 0.32526000
v 0.00412400 -0.06335000 0.32523400
v 0.00000000 -0.06235000 0.32547600
v 0.00000000 -0.06335000 0.32545000
v -0.00412600 -0.06235000 0.32526000
v -0.00412400 -0.06335000 0.32523400
v -0.00820800 -0.06235000 0.32461400
v -0.00820200 -0.06335000 0.32458800
v -0.01219900 -0.06235000 0.32354400
v -0.01219100 -0.06335000 0.32351900
v -0.01605600 -0.06235000 0.32206300
v -0.01604600 -0.06335000 0.32203900
v -0.01973800 -0.06235000 0.32018800
v -0.01972500 -0.06335000 0.32016500
v -0.02320400 -0.06235000 0.31793700
v -0.02318800 -0.06335000 0.31791600
v -0.02641500 -0.06235000 0.31533700
v -0.02639700 -0.06335000 0.31531700
v -0.02933700 -0.06235000 0.31241500
v -0.02931700 -0.06335000 0.31239700
v -0.03193700 -0.06235000 0.30920400
v -0.03191600 -0.06335000 0.30918800
v -0.03418700 -0.06235000 0.30573800
v -0.03416500 -0.06335000 0.30572500
v -0.03606300 -0.06235000 0.30205600
v -0.03604000 -0.06335000 0.30204600
v -0.03754400 -0.06235000 0.29819900
v -0.03751900 -0.06335000 0.29819100
v -0.03861400 -0.06235000 0.29420800
v -0.03858800 -0.06335000 0.29420200
v -0.03926000 -0.06235000 0.29012600
v -0.03923400 -0.06335000 0.29012400
v -0.03947600 -0.06235000 0.28600000
v -0.03945000 -0.06335000 0.28600000
v -0.03926000 -0.06235000 0.28187300
v -0.03923400 -0.06335000 0.28187600
v -0.03861400 -0.06235000 0.27779200
v -0.03858800 -0.06335000 0.27779800
v -0.03754400 -0.06235000 0.27380100
v -0.03751900 -0.06335000 0.27380900
v -0.03606300 -0.06235000 0.26994400
v -0.03604000 -0.06335000 0.26995400
v -0.03418700 -0.06235000 0.26626200
v -0.03416500 -0.06335000 0.26627500
v -0.03193700 -0.06235000 0.26279600
v -0.03191600 -0.06335000 0.26281200
v -0.02933700 -0.06235000 0.25958500
v -0.02931700 -0.06335000 0.25960300
v -0.02641500 -0.06235000 0.25666300
v -0.02639700 -0.06335000 0.25668300
v -0.02320400 -0.06235000 0.25406300
v -0.02318800 -0.06335000 0.25408400
v -0.01973800 -0.06235000 0.25181300
v -0.01972500 -0.06335000 0.25183500
v -0.01605600 -0.06235000 0.24993700
v -0.01604600 -0.06335000 0.24996000
v -0.01219900 -0.06235000 0.24845600
v -0.01219100 -0.06335000 0.24848100
v -0.00820800 -0.06235000 0.24738600
v -0.00820200 -0.06335000 0.24741200
v -0.00412600 -0.06235000 0.24674000
v -0.00412400 -0.06335000 0.24676600
v 0.00000000 -0.06235000 0.24652400
v 0.00000000 -0.06335000 0.24655000
v 0.00412600 -0.06235000 0.24674000
v 0.00412400 -0.06335000 0.24676600
v 0.00820800 -0.06235000 0.24738600
v 0.00820200 -0.06335000 0.24741200
v 0.01219900 -0.06235000 0.24845600
v 0.01219100 -0.06335000 0.24848100
v 0.01605600 -0.06235000 0.24993700
v 0.01604600 -0.06335000 0.24996000
v 0.01973800 -0.06235000 0.25181300
v 0.01972500 -0.06335000 0.25183500
v 0.02320400 -0.06235000 0.25406300
v 0.02318800 -0.06335000 0.25408400
v 0.02641500 -0.06235000 0.25666300
v 0.02639700 -0.06335000 0.25668300
v 0.02933700 -0.06235000 0.25958500
v 0.02931700 -0.06335000 0.25960300
v 0.03193700 -0.06235000 0.26279600
v 0.03191600 -0.06335000 0.26281200
v 0.03418700 -0.06235000 0.26626200
v 0.03416500 -0.06335000 0.26627500
v 0.03606300 -0.06235000 0.26994400
v 0.03603900 -0.06335000 0.26995400
v 0.03754400 -0.06235000 0.27380100
v 0.03751900 -0.06335000 0.27380900
v 0.03861400 -0.06235000 0.27779200
v 0.03858800 -0.06335000 0.27779800
v 0.03926000 -0.06235000 0.28187300
v 0.03926000 -0.06235000 0.28187300
v -0.03926000 -0.06235000 0.28187300
v 0.03947600 -0.06235000 0.28600000
v -0.03947600 -0.06235000 0.28600000
v 0.03926000 -0.06235000 0.29012600
v -0.03926000 -0.06235000 0.29012600
v 0.03861400 -0.06235000 0.29420800
v -0.03861400 -0.06235000 0.29420800
v 0.03754400 -0.06235000 0.29819900
v -0.03754400 -0.06235000 0.29819900
v 0.03606300 -0.06235000 0.30205600
v -0.03606300 -0.06235000 0.30205600
v 0.03418700 -0.06235000 0.30573800
v -0.03418700 -0.06235000 0.30573800
v 0.03193700 -0.06235000 0.30920400
v -0.03193700 -0.06235000 0.30920400
v 0.02933700 -0.06235000 0.31241500
v -0.02933700 -0.06235000 0.31241500
v 0.02641500 -0.06235000 0.31533700
v -0.02641500 -0.06235000 0.31533700
v 0.02320400 -0.06235000 0.31793700
v -0.02320400 -0.06235000 0.31793700
v 0.01973800 -0.06235000 0.32018800
v -0.01973800 -0.06235000 0.32018800
v 0.01605600 -0.06235000 0.32206300
v -0.01605600 -0.06235000 0.32206300
v 0.01219900 -0.06235000 0.32354400
v -0.01219900 -0.06235000 0.32354400
v 0.00820700 -0.06235000 0.32461400
v -0.00820800 -0.06235000 0.32461400
v 0.00412600 -0.06235000 0.32526000
v -0.00412600 -0.06235000 0.32526000
v 0.00000000 -0.06235000 0.32547600
v -0.03861400 -0.06235000 0.27779200
v 0.03861400 -0.06235000 0.27779200
v -0.03754400 -0.06235000 0.27380100
v 0.03754400 -0.06235000 0.27380100
v -0.03606300 -0.06235000 0.26994400
v 0.03606300 -0.06235000 0.26994400
v -0.03418700 -0.06235000 0.26626200
v 0.03418700 -0.06235000 0.26626200
v -0.03193700 -0.06235000 0.26279600
v 0.03193700 -0.06235000 0.26279600
v -0.02933700 -0.06235000 0.25958500
v 0.02933700 -0.06235000 0.25958500
v -0.02641500 -0.06235000 0.25666300
v 0.02641500 -0.06235000 0.25666300
v -0.02320400 -0.06235000 0.25406300
v 0.02320400 -0.06235000 0.25406300
v -0.01973800 -0.06235000 0.25181300
v 0.01973800 -0.06235000 0.25181300
v -0.01605600 -0.06235000 0.24993700
v 0.01605600 -0.06235000 0.24993700
v -0.01219900 -0.06235000 0.24845600
v 0.01219900 -0.06235000 0.24845600
v -0.00820800 -0.06235000 0.24738600
v 0.00820800 -0.06235000 0.24738600
v -0.00412600 -0.06235000 0.24674000
v 0.00412600 -0.06235000 0.24674000
v 0.00000000 -0.06235000 0.24652400
v 0.03923400 -0.06335000 0.29012400
v -0.03923400 -0.06335000 0.29012400
v 0.03945000 -0.06335000 0.28600000
v -0.03945000 -0.06335000 0.28600000
v 0.03923400 -0.06335000 0.28187600
v -0.03923400 -0.06335000 0.28187600
v 0.03858800 -0.06335000 0.27779800
v -0.03858800 -0.06335000 0.27779800
v 0.03751900 -0.06335000 0.27380900
v -0.03751900 -0.06335000 0.27380900
v 0.03603900 -0.06335000 0.26995400
v -0.03604000 -0.06335000 0.26995400
v 0.03416500 -0.06335000 0.26627500
v -0.03416500 -0.06335000 0.26627500
v 0.03191600 -0.06335000 0.26281200
v -0.03191600 -0.06335000 0.26281200
v 0.02931700 -0.06335000 0.25960300
v -0.02931700 -0.06335000 0.25960300
v 0.02639700 -0.06335000 0.25668300
v -0.02639700 -0.06335000 0.25668300
v 0.02318800 -0.06335000 0.25408400
v -0.02318800 -0.06335000 0.25408400
v 0.01972500 -0.06335000 0.25183500
v -0.01972500 -0.06335000 0.25183500
v 0.01604600 -0.06335000 0.24996000
v -0.01604600 -0.06335000 0.24996000
v 0.01219100 -0.06335000 0.24848100
v -0.01219100 -0.06335000 0.24848100
v 0.00820200 -0.06335000 0.24741200
v -0.00820200 -0.06335000 0.24741200
v 0.00412400 -0.06335000 0.24676600
v -0.00412400 -0.06335000 0.24676600
v 0.00000000 -0.06335000 0.24655000
v -0.03858800 -0.06335000 0.29420200
v 0.03858800 -0.06335000 0.29420200
v -0.03751900 -0.06335000 0.29819100
v 0.03751900 -0.06335000 0.29819100
v -0.03604000 -0.06335000 0.30204600
v 0.03603900 -0.06335000 0.30204600
v -0.03416500 -0.06335000 0.30572500
v 0.03416500 -0.06335000 0.30572500
v -0.03191600 -0.06335000 0.30918800
v 0.03191600 -0.06335000 0.30918800
v -0.02931700 -0.06335000 0.31239700
v 0.02931700 -0.06335000 0.31239700
v -0.02639700 -0.06335000 0.31531700
v 0.02639700 -0.06335000 0.31531700
v -0.02318800 -0.06335000 0.31791600
v 0.02318800 -0.06335000 0.31791600
v -0.01972500 -0.06335000 0.32016500
v 0.01972500 -0.06335000 0.32016500
v -0.01604600 -0.06335000 0.32203900
v 0.01604600 -0.06335000 0.32203900
v -0.01219100 -0.06335000 0.32351900
v 0.01219100 -0.06335000 0.32351900
v -0.00820200 -0.06335000 0.32458800
v 0.00820200 -0.06335000 0.32458800
v -0.00412400 -0.06335000 0.32523400
v -0.00412400 -0.06335000 0.32523400
v 0.00412400 -0.06335000 0.32523400
v 0.00412400 -0.06335000 0.32523400
v 0.00000000 -0.06335000 0.32545000
vn -0.10450000 -0.00000000 0.99450000
vn -0.10450000 -0.00000000 0.99450000
vn -0.00000000 -0.00000000 1.00000000
vn -0.00000000 -0.00000000 1.00000000
vn -0.00000000 -0.00000000 1.00000000
vn -0.00000000 -0.00000000 1.00000000
vn 0.10450000 -0.00000000 0.99450000
vn 0.10450000 -0.00000000 0.99450000
vn 0.20790000 -0.00000000 0.97810000
vn -0.20790000 -0.00000000 0.97810000
vn -0.20790000 -0.00000000 0.97810000
vn -0.30900000 -0.00000000 0.95110000
vn -0.30900000 -0.00000000 0.95110000
vn -0.40670000 -0.00000000 0.91350000
vn -0.40670000 -0.00000000 0.91350000
vn -0.50000000 -0.00000000 0.86600000
vn -0.50000000 -0.00000000 0.86600000
vn -0.58780000 -0.00000000 0.80900000
vn -0.58780000 -0.00000000 0.80900000
vn -0.66910000 -0.00000000 0.74310000
vn -0.66910000 -0.00000000 0.74310000
vn -0.74310000 -0.00000000 0.66910000
vn -0.74310000 -0.00000000 0.66910000
vn -0.80900000 -0.00000000 0.58780000
vn -0.80900000 -0.00000000 0.58780000
vn -0.86600000 -0.00000000 0.50000000
vn -0.86600000 -0.00000000 0.50000000
vn -0.91350000 -0.00000000 0.40670000
vn -0.91350000 -0.00000000 0.40670000
vn -0.95110000 -0.00000000 0.30900000
vn -0.95110000 -0.00000000 0.30900000
vn -0.97810000 -0.00000000 0.20790000
vn -0.97810000 -0.00000000 0.20790000
vn -0.99450000 -0.00000000 0.10450000
vn -0.99450000 -0.00000000 0.10450000
vn -1.00000000 -0.00000000 -0.00000000
vn -1.00000000 -0.00000000 -0.00000000
vn -0.99450000 -0.00000000 -0.10450000
vn -0.99450000 -0.00000000 -0.10450000
vn -0.97810000 -0.00000000 -0.20790000
vn -0.97810000 -0.00000000 -0.20790000
vn -0.95110000 -0.00000000 -0.30900000
vn -0.95110000 -0.00000000 -0.30900000
vn -0.91350000 -0.00000000 -0.40670000
vn -0.91350000 -0.00000000 -0.40670000
vn -0.86600000 -0.00000000 -0.50000000
vn -0.86600000 -0.00000000 -0.50000000
vn -0.80900000 -0.00000000 -0.58780000
vn -0.80900000 -0.00000000 -0.58780000
vn -0.74310000 -0.00000000 -0.66910000
vn -0.74310000 -0.00000000 -0.66910000
vn -0.66910000 -0.00000000 -0.74310000
vn -0.66910000 -0.00000000 -0.74310000
vn -0.58780000 -0.00000000 -0.80900000
vn -0.58780000 -0.00000000 -0.80900000
vn -0.50000000 -0.00000000 -0.86600000
vn -0.50000000 -0.00000000 -0.86600000
vn -0.40670000 -0.00000000 -0.91350000
vn -0.40670000 -0.00000000 -0.91350000
vn -0.30900000 -0.00000000 -0.95110000
vn -0.30900000 -0.00000000 -0.95110000
vn -0.20790000 -0.00000000 -0.97810000
vn -0.20790000 -0.00000000 -0.97810000
vn -0.10450000 -0.00000000 -0.99450000
vn -0.10450000 -0.00000000 -0.99450000
vn -0.00000000 -0.00000000 -1.00000000
vn -0.00000000 -0.00000000 -1.00000000
vn 0.10450000 -0.00000000 -0.99450000
vn 0.10450000 -0.00000000 -0.99450000
vn 0.20790000 -0.00000000 -0.97810000
vn 0.20790000 -0.00000000 -0.97810000
vn 0.30900000 -0.00000000 -0.95110000
vn 0.30900000 -0.00000000 -0.95110000
vn 0.40670000 -0.00000000 -0.91350000
vn 0.40670000 -0.00000000 -0.91350000
vn 0.50000000 -0.00000000 -0.86600000
vn 0.50000000 -0.00000000 -0.86600000
vn 0.58780000 -0.00000000 -0.80900000
vn 0.58780000 -0.00000000 -0.80900000
vn 0.66910000 -0.00000000 -0.74310000
vn 0.66910000 -0.00000000 -0.74310000
vn 0.74310000 -0.00000000 -0.66910000
vn 0.74310000 -0.00000000 -0.66910000
vn 0.80900000 -0.00000000 -0.58780000
vn 0.80900000 -0.00000000 -0.58780000
vn 0.86600000 -0.00000000 -0.50000000
vn 0.86600000 -0.00000000 -0.50000000
vn 0.91350000 -0.00000000 -0.40670000
vn 0.91350000 -0.00000000 -0.40670000
vn 0.95110000 -0.00000000 -0.30900000
vn 0.95110000 -0.00000000 -0.30900000
vn 0.97810000 -0.00000000 -0.20790000
vn 0.97810000 -0.00000000 -0.20790000
vn 0.99450000 -0.00000000 -0.10450000
vn 0.99450000 -0.00000000 -0.10450000
vn 1.00000000 -0.00000000 -0.00000000
vn 1.00000000 -0.00000000 -0.00000000
vn 0.99450000 -0.00000000 0.10450000
vn 0.99450000 -0.00000000 0.10450000
vn 0.97810000 -0.00000000 0.20790000
vn 0.97810000 -0.00000000 0.20790000
vn 0.95110000 -0.00000000 0.30900000
vn 0.95110000 -0.00000000 0.30900000
vn 0.91350000 -0.00000000 0.40670000
vn 0.91350000 -0.00000000 0.40670000
vn 0.86600000 -0.00000000 0.50000000
vn 0.86600000 -0.00000000 0.50000000
vn 0.80900000 -0.00000000 0.58780000
vn 0.80900000 -0.00000000 0.58780000
vn 0.74310000 -0.00000000 0.66910000
vn 0.74310000 -0.00000000 0.66910000
vn 0.66910000 -0.00000000 0.74310000
vn 0.66910000 -0.00000000 0.74310000
vn 0.58780000 -0.00000000 0.80900000
vn 0.58780000 -0.00000000 0.80900000
vn 0.50000000 -0.00000000 0.86600000
vn 0.50000000 -0.00000000 0.86600000
vn 0.40670000 -0.00000000 0.91350000
vn 0.40670000 -0.00000000 0.91350000
vn 0.30900000 -0.00000000 0.95110000
vn 0.30900000 -0.00000000 0.95110000
vn 0.20790000 -0.00000000 0.97810000
vn -0.00000000 1.00000000 -0.00000000
vn -0.00000000 1.00000000 -0.00000000
vn -0.00000000 1.00000000 -0.00000000
vn -0.00000000 1.00000000 -0.00000000
vn -0.00000000 1.00000000 -0.00000000
vn -0.00000000 1.00000000 -0.00000000
vn -0.00000000 1.00000000 -0.00000000
vn -0.00000000 1.00000000 -0.00000000
vn -0.00000000 1.00000000 -0.00000000
vn -0.00000000 1.00000000 -0.00000000
vn -0.00000000 1.00000000 -0.00000000
vn -0.00000000 1.00000000 -0.00000000
vn -0.00000000 1.00000000 -0.00000000
vn -0.00000000 1.00000000 -0.00000000
vn -0.00000000 1.00000000 -0.00000000
vn -0.00000000 1.00000000 -0.00000000
vn -0.00000000 1.00000000 -0.00000000
vn -0.00000000 1.00000000 -0.00000000
vn -0.00000000 1.00000000 -0.00000000
vn -0.00000000 1.00000000 -0.00000000
vn -0.00000000 1.00000000 -0.00000000
vn -0.00000000 1.00000000 -0.00000000
vn -0.00000000 1.00000000 -0.00000000
vn -0.00000000 1.00000000 -0.00000000
vn -0.00000000 1.00000000 -0.00000000
vn -0.00000000 1.00000000 -0.00000000
vn -0.00000000 1.00000000 -0.00000000
vn -0.00000000 1.00000000 -0.00000000
vn -0.00000000 1.00000000 -0.00000000
vn -0.00000000 1.00000000 -0.00000000
vn -0.00000000 1.00000000 -0.00000000
vn -0.00000000 1.00000000 -0.00000000
vn -0.00000000 1.00000000 -0.00000000
vn -0.00000000 1.00000000 -0.00000000
vn -0.00000000 1.00000000 -0.00000000
vn -0.00000000 1.00000000 -0.00000000
vn -0.00000000 1.00000000 -0.00000000
vn -0.00000000 1.00000000 -0.00000000
vn -0.00000000 1.00000000 -0.00000000
vn -0.00000000 1.00000000 -0.00000000
vn -0.00000000 1.00000000 -0.00000000
vn -0.00000000 1.00000000 -0.00000000
vn -0.00000000 1.00000000 -0.00000000
vn -0.00000000 1.00000000 -0.00000000
vn -0.00000000 1.00000000 -0.00000000
vn -0.00000000 1.00000000 -0.00000000
vn -0.00000000 1.00000000 -0.00000000
vn -0.00000000 1.00000000 -0.00000000
vn -0.00000000 1.00000000 -0.00000000
vn -0.00000000 1.00000000 -0.00000000
vn -0.00000000 1.00000000 -0.00000000
vn -0.00000000 1.00000000 -0.00000000
vn -0.00000000 1.00000000 -0.00000000
vn -0.00000000 1.00000000 -0.00000000
vn -0.00000000 1.00000000 -0.00000000
vn -0.00000000 1.00000000 -0.00000000
vn -0.00000000 1.00000000 -0.00000000
vn -0.00000000 1.00000000 -0.00000000
vn -0.00000000 1.00000000 -0.00000000
vn -0.00000000 -1.00000000 -0.00000000
vn -0.00000000 -1.00000000 -0.00000000
vn -0.00000000 -1.00000000 -0.00000000
vn -0.00000000 -1.00000000 -0.00000000
vn -0.00000000 -1.00000000 -0.00000000
vn -0.00000000 -1.00000000 -0.00000000
vn -0.00000000 -1.00000000 -0.00000000
vn -0.00000000 -1.00000000 -0.00000000
vn -0.00000000 -1.00000000 -0.00000000
vn -0.00000000 -1.00000000 -0.00000000
vn -0.00000000 -1.00000000 -0.00000000
vn -0.00000000 -1.00000000 -0.00000000
vn -0.00000000 -1.00000000 -0.00000000
vn -0.00000000 -1.00000000 -0.00000000
vn -0.00000000 -1.00000000 -0.00000000
vn -0.00000000 -1.00000000 -0.00000000
vn -0.00000000 -1.00000000 -0.00000000
vn -0.00000000 -1.00000000 -0.00000000
vn -0.00000000 -1.00000000 -0.00000000
vn -0.00000000 -1.00000000 -0.00000000
vn -0.00000000 -1.00000000 -0.00000000
vn -0.00000000 -1.00000000 -0.00000000
vn -0.00000000 -1.00000000 -0.00000000
vn -0.00000000 -1.00000000 -0.00000000
vn -0.00000000 -1.00000000 -0.00000000
vn -0.00000000 -1.00000000 -0.00000000
vn -0.00000000 -1.00000000 -0.00000000
vn -0.00000000 -1.00000000 -0.00000000
vn -0.00000000 -1.00000000 -0.00000000
vn -0.00000000 -1.00000000 -0.00000000
vn -0.00000000 -1.00000000 -0.00000000
vn -0.00000000 -1.00000000 -0.00000000
vn -0.00000000 -1.00000000 -0.00000000
vn -0.00000000 -1.00000000 -0.00000000
vn -0.00000000 -1.00000000 -0.00000000
vn -0.00000000 -1.00000000 -0.00000000
vn -0.00000000 -1.00000000 -0.00000000
vn -0.00000000 -1.00000000 -0.00000000
vn -0.00000000 -1.00000000 -0.00000000
vn -0.00000000 -1.00000000 -0.00000000
vn -0.00000000 -1.00000000 -0.00000000
vn -0.00000000 -1.00000000 -0.00000000
vn -0.00000000 -1.00000000 -0.00000000
vn -0.00000000 -1.00000000 -0.00000000
vn -0.00000000 -1.00000000 -0.00000000
vn -0.00000000 -1.00000000 -0.00000000
vn -0.00000000 -1.00000000 -0.00000000
vn -0.00000000 -1.00000000 -0.00000000
vn -0.00000000 -1.00000000 -0.00000000
vn -0.00000000 -1.00000000 -0.00000000
vn -0.00000000 -1.00000000 -0.00000000
vn -0.00000000 -1.00000000 -0.00000000
vn -0.00000000 -1.00000000 -0.00000000
vn -0.00000000 -1.00000000 -0.00000000
vn -0.00000000 -1.00000000 -0.00000000
vn -0.00000000 -1.00000000 -0.00000000
vn -0.00000000 -1.00000000 -0.00000000
vn -0.00000000 -1.00000000 -0.00000000
vn -0.00000000 -1.00000000 -0.00000000
vn -0.00000000 -1.00000000 -0.00000000
vn -0.00000000 -1.00000000 -0.00000000
vn -0.00000000 -1.00000000 -0.00000000
vn -0.00000000 -1.00000000 -0.00000000
vn -0.00000000 -1.00000000 -0.00000000
vn -0.00000000 -1.00000000 -0.00000000
vn -0.00000000 -1.00000000 -0.00000000
vn -0.00000000 -1.00000000 -0.00000000
vn -0.00000000 -1.00000000 -0.00000000
vn -0.00000000 -1.00000000 -0.00000000
vn -0.00000000 -1.00000000 -0.00000000
vn -0.00000000 -1.00000000 -0.00000000
vn -0.00000000 -1.00000000 -0.00000000
vn -0.00000000 -1.00000000 -0.00000000
vn -0.00000000 -1.00000000 -0.00000000
vn -0.00000000 -1.00000000 -0.00000000
vn -0.00000000 -1.00000000 -0.00000000
vn -0.00000000 -1.00000000 -0.00000000
vn -0.00000000 -1.00000000 -0.00000000
vn -0.00000000 -1.00000000 -0.00000000
vn -0.00000000 -1.00000000 -0.00000000
vn -0.00000000 -1.00000000 -0.00000000
vn -0.00000000 -1.00000000 -0.00000000
vn -0.00000000 -1.00000000 -0.00000000
vn -0.00000000 -1.00000000 -0.00000000
vn -0.00000000 -1.00000000 -0.00000000
vn -0.00000000 -1.00000000 -0.00000000
vn -0.00000000 -1.00000000 -0.00000000
vn -0.00000000 -1.00000000 -0.00000000
vn -0.00000000 -1.00000000 -0.00000000
vn -0.00000000 -1.00000000 -0.00000000
vn -0.00000000 -1.00000000 -0.00000000
vn -0.00000000 -1.00000000 -0.00000000
vn -0.00000000 -1.00000000 -0.00000000
vn -0.00000000 -1.00000000 -0.00000000
vn -0.00000000 -1.00000000 -0.00000000
vn -0.00000000 -1.00000000 -0.00000000
vn -0.00000000 -1.00000000 -0.00000000
vn -0.00000000 -1.00000000 -0.00000000
vn -0.00000000 -1.00000000 -0.00000000
vn -0.00000000 -1.00000000 -0.00000000
vn -0.00000000 -1.00000000 -0.00000000
vn -0.00000000 -1.00000000 -0.00000000
vn -0.00000000 -1.00000000 -0.00000000
vn -0.00000000 -1.00000000 -0.00000000
vn -0.00000000 -1.00000000 -0.00000000
vn -0.00000000 -1.00000000 -0.00000000
vn -0.00000000 -1.00000000 -0.00000000
vn -0.00000000 -1.00000000 -0.00000000
vn -0.00000000 -1.00000000 -0.00000000
vn -0.00000000 -1.00000000 -0.00000000
vn -0.00000000 -1.00000000 -0.00000000
vn -0.00000000 -1.00000000 -0.00000000
vn -0.00000000 -1.00000000 -0.00000000
vn -0.00000000 -1.00000000 -0.00000000
vn -0.00000000 -1.00000000 -0.00000000
vn -0.00000000 -1.00000000 -0.00000000
vn -0.00000000 -1.00000000 -0.00000000
vn -0.00000000 -1.00000000 -0.00000000
vn -0.10810000 -0.00000000 -0.99410000
vn -0.10810000 -0.00000000 -0.99410000
vn -0.00000000 -0.00000000 -1.00000000
vn -0.00000000 -0.00000000 -1.00000000
vn -0.00000000 -0.00000000 -1.00000000
vn -0.00000000 -0.00000000 -1.00000000
vn 0.10810000 -0.00000000 -0.99410000
vn 0.10810000 -0.00000000 -0.99410000
vn 0.21500000 -0.00000000 -0.97660000
vn 0.21500000 -0.00000000 -0.97660000
vn 0.31930000 -0.00000000 -0.94770000
vn 0.31930000 -0.00000000 -0.94770000
vn 0.41990000 -0.00000000 -0.90760000
vn 0.41990000 -0.00000000 -0.90760000
vn 0.51560000 -0.00000000 -0.85690000
vn 0.51560000 -0.00000000 -0.85690000
vn 0.60520000 -0.00000000 -0.79610000
vn 0.60520000 -0.00000000 -0.79610000
vn 0.68770000 -0.00000000 -0.72600000
vn 0.68770000 -0.00000000 -0.72600000
vn 0.76220000 -0.00000000 -0.64740000
vn 0.76220000 -0.00000000 -0.64740000
vn 0.82770000 -0.00000000 -0.56120000
vn 0.82770000 -0.00000000 -0.56120000
vn 0.88350000 -0.00000000 -0.46840000
vn 0.88350000 -0.00000000 -0.46840000
vn 0.92900000 -0.00000000 -0.37010000
vn 0.92900000 -0.00000000 -0.37010000
vn 0.96360000 -0.00000000 -0.26750000
vn 0.96360000 -0.00000000 -0.26750000
vn 0.98680000 -0.00000000 -0.16180000
vn 0.98680000 -0.00000000 -0.16180000
vn 0.99850000 -0.00000000 -0.05410000
vn 0.99850000 -0.00000000 -0.05410000
vn 0.99850000 -0.00000000 0.05410000
vn 0.99850000 -0.00000000 0.05410000
vn 0.98680000 -0.00000000 0.16180000
vn 0.98680000 -0.00000000 0.16180000
vn 0.96360000 -0.00000000 0.26750000
vn 0.96360000 -0.00000000 0.26750000
vn 0.92900000 -0.00000000 0.37010000
vn 0.92900000 -0.00000000 0.37010000
vn 0.88350000 -0.00000000 0.46840000
vn 0.88350000 -0.00000000 0.46840000
vn 0.82770000 -0.00000000 0.56120000
vn 0.82770000 -0.00000000 0.56120000
vn 0.76220000 -0.00000000 0.64740000
vn 0.76220000 -0.00000000 0.64740000
vn 0.68770000 -0.00000000 0.72600000
vn 0.68770000 -0.00000000 0.72600000
vn 0.60520000 -0.00000000 0.79610000
vn 0.60520000 -0.00000000 0.79610000
vn 0.51560000 -0.00000000 0.85690000
vn 0.51560000 -0.00000000 0.85690000
vn 0.41990000 -0.00000000 0.90760000
vn 0.41990000 -0.00000000 0.90760000
vn 0.31930000 -0.00000000 0.94770000
vn 0.31930000 -0.00000000 0.94770000
vn 0.21500000 -0.00000000 0.97660000
vn 0.21500000 -0.00000000 0.97660000
vn 0.10810000 -0.00000000 0.99410000
vn 0.10810000 -0.00000000 0.99410000
vn -0.00000000 -0.00000000 1.00000000
vn -0.00000000 -0.00000000 1.00000000
vn -0.10810000 -0.00000000 0.99410000
vn -0.10810000 -0.00000000 0.99410000
vn -0.21500000 -0.00000000 0.97660000
vn -0.21500000 -0.00000000 0.97660000
vn -0.31930000 -0.00000000 0.94770000
vn -0.31930000 -0.00000000 0.94770000
vn -0.41990000 -0.00000000 0.90760000
vn -0.41990000 -0.00000000 0.90760000
vn -0.51560000 -0.00000000 0.85690000
vn -0.51560000 -0.00000000 0.85690000
vn -0.60520000 -0.00000000 0.79610000
vn -0.60520000 -0.00000000 0.79610000
vn -0.68770000 -0.00000000 0.72600000
vn -0.68770000 -0.00000000 0.72600000
vn -0.76220000 -0.00000000 0.64740000
vn -0.76220000 -0.00000000 0.64740000
vn -0.82770000 -0.00000000 0.56120000
vn -0.82770000 -0.00000000 0.56120000
vn -0.88350000 -0.00000000 0.46840000
vn -0.88350000 -0.00000000 0.46840000
vn -0.92900000 -0.00000000 0.37010000
vn -0.92900000 -0.00000000 0.37010000
vn -0.96360000 -0.00000000 0.26750000
vn -0.96360000 -0.00000000 0.26750000
vn -0.98680000 -0.00000000 0.16180000
vn -0.98680000 -0.00000000 0.16180000
vn -0.99850000 -0.00000000 0.05410000
vn -0.99850000 -0.00000000 0.05410000
vn -0.99850000 -0.00000000 -0.05410000
vn -0.99850000 -0.00000000 -0.05410000
vn -0.98680000 -0.00000000 -0.16180000
vn -0.98680000 -0.00000000 -0.16180000
vn -0.96360000 -0.00000000 -0.26750000
vn -0.96360000 -0.00000000 -0.26750000
vn -0.92900000 -0.00000000 -0.37010000
vn -0.92900000 -0.00000000 -0.37010000
vn -0.88350000 -0.00000000 -0.46840000
vn -0.88350000 -0.00000000 -0.46840000
vn -0.82770000 -0.00000000 -0.56120000
vn -0.82770000 -0.00000000 -0.56120000
vn -0.76220000 -0.00000000 -0.64740000
vn -0.76220000 -0.00000000 -0.64740000
vn -0.68770000 -0.00000000 -0.72600000
vn -0.68770000 -0.00000000 -0.72600000
vn -0.60520000 -0.00000000 -0.79610000
vn -0.60520000 -0.00000000 -0.79610000
vn -0.51560000 -0.00000000 -0.85690000
vn -0.51560000 -0.00000000 -0.85690000
vn -0.41990000 -0.00000000 -0.90760000
vn -0.41990000 -0.00000000 -0.90760000
vn -0.31930000 -0.00000000 -0.94770000
vn -0.31930000 -0.00000000 -0.94770000
vn -0.21500000 -0.00000000 -0.97660000
vn -0.21500000 -0.00000000 -0.97660000
vn -0.00000000 -1.00000000 -0.00000000
vn -0.00000000 -1.00000000 -0.00000000
vn -0.00000000 -1.00000000 -0.00000000
vn -0.00000000 -1.00000000 -0.00000000
vn -0.00000000 -1.00000000 -0.00000000
vn -0.00000000 -1.00000000 -0.00000000
vn -0.00000000 -1.00000000 -0.00000000
vn -0.00000000 -1.00000000 -0.00000000
vn -0.00000000 -1.00000000 -0.00000000
vn -0.00000000 -1.00000000 -0.00000000
vn -0.00000000 -1.00000000 -0.00000000
vn -0.00000000 -1.00000000 -0.00000000
vn -0.00000000 -1.00000000 -0.00000000
vn -0.00000000 -1.00000000 -0.00000000
vn -0.00000000 -1.00000000 -0.00000000
vn -0.00000000 -1.00000000 -0.00000000
vn -0.00000000 -1.00000000 -0.00000000
vn -0.00000000 -1.00000000 -0.00000000
vn -0.00000000 -1.00000000 -0.00000000
vn -0.00000000 -1.00000000 -0.00000000
vn -0.00000000 -1.00000000 -0.00000000
vn -0.00000000 -1.00000000 -0.00000000
vn -0.00000000 -1.00000000 -0.00000000
vn -0.00000000 -1.00000000 -0.00000000
vn -0.00000000 -1.00000000 -0.00000000
vn -0.00000000 -1.00000000 -0.00000000
vn -0.00000000 -1.00000000 -0.00000000
vn -0.00000000 -1.00000000 -0.00000000
vn -0.00000000 -1.00000000 -0.00000000
vn -0.00000000 -1.00000000 -0.00000000
vn -0.00000000 -1.00000000 -0.00000000
vn -0.00000000 -1.00000000 -0.00000000
vn -0.00000000 -1.00000000 -0.00000000
vn -0.00000000 -1.00000000 -0.00000000
vn -0.00000000 -1.00000000 -0.00000000
vn -0.00000000 -1.00000000 -0.00000000
vn -0.00000000 -1.00000000 -0.00000000
vn -0.00000000 -1.00000000 -0.00000000
vn -0.00000000 -1.00000000 -0.00000000
vn -0.00000000 -1.00000000 -0.00000000
vn -0.00000000 -1.00000000 -0.00000000
vn -0.00000000 -1.00000000 -0.00000000
vn -0.00000000 -1.00000000 -0.00000000
vn -0.00000000 -1.00000000 -0.00000000
vn -0.00000000 -1.00000000 -0.00000000
vn -0.00000000 -1.00000000 -0.00000000
vn -0.00000000 -1.00000000 -0.00000000
vn -0.00000000 -1.00000000 -0.00000000
vn -0.00000000 -1.00000000 -0.00000000
vn -0.00000000 -1.00000000 -0.00000000
vn -0.00000000 -1.00000000 -0.00000000
vn -0.00000000 -1.00000000 -0.00000000
vn -0.00000000 -1.00000000 -0.00000000
vn -0.00000000 -1.00000000 -0.00000000
vn -0.00000000 -1.00000000 -0.00000000
vn -0.00000000 -1.00000000 -0.00000000
vn -0.00000000 -1.00000000 -0.00000000
vn -0.00000000 -1.00000000 -0.00000000
vn -0.07520000 0.70710000 0.70310000
vn -0.07390000 0.70710000 0.70320000
vn -0.00000000 0.70710000 0.70710000
vn -0.00000000 0.70710000 0.70710000
vn -0.00000000 0.70710000 0.70710000
vn -0.00000000 0.70710000 0.70710000
vn 0.07390000 0.70710000 0.70320000
vn -0.14700000 0.70710000 0.69170000
vn -0.14940000 0.70710000 0.69110000
vn -0.21850000 0.70710000 0.67250000
vn -0.22210000 0.70710000 0.67130000
vn -0.28760000 0.70710000 0.64600000
vn -0.29220000 0.70710000 0.64390000
vn -0.35350000 0.70710000 0.61240000
vn -0.35900000 0.70710000 0.60920000
vn -0.41560000 0.70710000 0.57210000
vn -0.42170000 0.70710000 0.56760000
vn -0.47310000 0.70710000 0.52550000
vn -0.47960000 0.70710000 0.51950000
vn -0.52550000 0.70710000 0.47320000
vn -0.53220000 0.70710000 0.46560000
vn -0.57200000 0.70710000 0.41560000
vn -0.57870000 0.70700000 0.40640000
vn -0.61230000 0.70710000 0.35360000
vn -0.61860000 0.70710000 0.34260000
vn -0.64590000 0.70720000 0.28760000
vn -0.65150000 0.70710000 0.27490000
vn -0.67250000 0.70720000 0.21850000
vn -0.67700000 0.70710000 0.20410000
vn -0.69160000 0.70710000 0.14700000
vn -0.69490000 0.70710000 0.13100000
vn -0.70320000 0.70710000 0.07390000
vn -0.70490000 0.70700000 0.05640000
vn -0.70710000 0.70710000 -0.00000000
vn -0.70690000 0.70700000 -0.01880000
vn -0.70320000 0.70710000 -0.07390000
vn -0.70090000 0.70710000 -0.09390000
vn -0.69160000 0.70710000 -0.14700000
vn -0.68690000 0.70710000 -0.16780000
vn -0.67250000 0.70710000 -0.21850000
vn -0.66520000 0.70710000 -0.23990000
vn -0.64600000 0.70710000 -0.28760000
vn -0.63590000 0.70710000 -0.30920000
vn -0.61240000 0.70710000 -0.35360000
vn -0.59950000 0.70710000 -0.37510000
vn -0.57210000 0.70710000 -0.41560000
vn -0.55620000 0.70710000 -0.43670000
vn -0.52550000 0.70710000 -0.47310000
vn -0.50660000 0.70710000 -0.49330000
vn -0.47310000 0.70710000 -0.52550000
vn -0.45130000 0.70710000 -0.54440000
vn -0.41560000 0.70710000 -0.57210000
vn -0.39090000 0.70710000 -0.58930000
vn -0.35360000 0.70710000 -0.61230000
vn -0.32610000 0.70710000 -0.62750000
vn -0.28760000 0.70710000 -0.64590000
vn -0.25750000 0.70710000 -0.65860000
vn -0.21850000 0.70710000 -0.67250000
vn -0.18600000 0.70710000 -0.68220000
vn -0.14700000 0.70720000 -0.69160000
vn -0.11250000 0.70710000 -0.69810000
vn -0.07390000 0.70710000 -0.70330000
vn -0.03760000 0.70710000 -0.70610000
vn -0.00000000 0.70710000 -0.70710000
vn 0.03760000 0.70710000 -0.70610000
vn 0.07390000 0.70710000 -0.70320000
vn 0.11250000 0.70710000 -0.69810000
vn 0.14700000 0.70720000 -0.69160000
vn 0.18600000 0.70710000 -0.68220000
vn 0.21850000 0.70710000 -0.67250000
vn 0.25750000 0.70710000 -0.65860000
vn 0.28760000 0.70710000 -0.64600000
vn 0.32610000 0.70710000 -0.62750000
vn 0.35350000 0.70710000 -0.61240000
vn 0.39090000 0.70710000 -0.58930000
vn 0.41560000 0.70710000 -0.57210000
vn 0.45130000 0.70710000 -0.54440000
vn 0.47310000 0.70720000 -0.52550000
vn 0.50660000 0.70710000 -0.49330000
vn 0.52550000 0.70710000 -0.47310000
vn 0.55620000 0.70710000 -0.43670000
vn 0.57210000 0.70710000 -0.41560000
vn 0.59950000 0.70710000 -0.37510000
vn 0.61240000 0.70710000 -0.35360000
vn 0.63590000 0.70710000 -0.30920000
vn 0.64600000 0.70710000 -0.28760000
vn 0.66520000 0.70710000 -0.23990000
vn 0.67250000 0.70710000 -0.21850000
vn 0.68690000 0.70710000 -0.16780000
vn 0.69160000 0.70710000 -0.14700000
vn 0.70090000 0.70710000 -0.09390000
vn 0.70320000 0.70710000 -0.07390000
vn 0.70690000 0.70700000 -0.01880000
vn 0.70710000 0.70710000 -0.00000000
vn 0.70490000 0.70700000 0.05640000
vn 0.70320000 0.70710000 0.07390000
vn 0.69490000 0.70710000 0.13100000
vn 0.69160000 0.70710000 0.14700000
vn 0.67700000 0.70710000 0.20410000
vn 0.67250000 0.70710000 0.21850000
vn 0.65150000 0.70710000 0.27490000
vn 0.64600000 0.70710000 0.28760000
vn 0.61860000 0.70710000 0.34260000
vn 0.61240000 0.70710000 0.35360000
vn 0.57860000 0.70710000 0.40640000
vn 0.57200000 0.70710000 0.41560000
vn 0.53220000 0.70710000 0.46560000
vn 0.52550000 0.70710000 0.47320000
vn 0.47960000 0.70710000 0.51950000
vn 0.47310000 0.70710000 0.52550000
vn 0.42170000 0.70710000 0.56760000
vn 0.41560000 0.70710000 0.57210000
vn 0.35900000 0.70710000 0.60920000
vn 0.35360000 0.70710000 0.61240000
vn 0.29220000 0.70710000 0.64390000
vn 0.28760000 0.70710000 0.64600000
vn 0.22210000 0.70710000 0.67130000
vn 0.21850000 0.70710000 0.67250000
vn 0.14940000 0.70710000 0.69110000
vn 0.14700000 0.70710000 0.69160000
vn 0.07510000 0.70710000 0.70310000
vn 0.99420000 -0.02620000 -0.10450000
vn 0.99970000 -0.02620000 -0.00000000
vn 0.99970000 -0.02620000 -0.00000000
vn 0.99970000 -0.02620000 -0.00000000
vn 0.99970000 -0.02620000 -0.00000000
vn 0.99420000 -0.02620000 0.10450000
vn 0.99420000 -0.02620000 0.10450000
vn 0.97780000 -0.02620000 0.20780000
vn 0.97780000 -0.02620000 0.20780000
vn 0.95070000 -0.02620000 0.30890000
vn 0.95070000 -0.02620000 0.30890000
vn 0.91320000 -0.02610000 0.40660000
vn 0.91320000 -0.02610000 0.40660000
vn 0.86570000 -0.02620000 0.49980000
vn 0.86570000 -0.02620000 0.49980000
vn 0.80870000 -0.02620000 0.58760000
vn 0.80870000 -0.02610000 0.58760000
vn 0.74290000 -0.02610000 0.66890000
vn 0.74290000 -0.02610000 0.66890000
vn 0.66890000 -0.02620000 0.74290000
vn 0.66890000 -0.02620000 0.74290000
vn 0.58760000 -0.02620000 0.80870000
vn 0.58760000 -0.02620000 0.80870000
vn 0.49980000 -0.02620000 0.86570000
vn 0.49980000 -0.02620000 0.86570000
vn 0.40660000 -0.02630000 0.91320000
vn 0.40660000 -0.02630000 0.91320000
vn 0.30890000 -0.02620000 0.95070000
vn 0.30890000 -0.02620000 0.95070000
vn 0.20790000 -0.02610000 0.97780000
vn 0.20790000 -0.02610000 0.97780000
vn 0.10450000 -0.02610000 0.99420000
vn 0.10450000 -0.02610000 0.99420000
vn -0.00000000 -0.02620000 0.99970000
vn -0.00000000 -0.02620000 0.99970000
vn -0.10450000 -0.02610000 0.99420000
vn -0.10450000 -0.02610000 0.99420000
vn -0.20780000 -0.02610000 0.97780000
vn -0.20780000 -0.02610000 0.97780000
vn -0.30890000 -0.02620000 0.95070000
vn -0.30890000 -0.02620000 0.95070000
vn -0.40660000 -0.02630000 0.91320000
vn -0.40660000 -0.02630000 0.91320000
vn -0.49980000 -0.02620000 0.86570000
vn -0.49980000 -0.02620000 0.86570000
vn -0.58760000 -0.02620000 0.80870000
vn -0.58760000 -0.02620000 0.80870000
vn -0.66890000 -0.02620000 0.74290000
vn -0.66890000 -0.02620000 0.74290000
vn -0.74290000 -0.02610000 0.66890000
vn -0.74290000 -0.02610000 0.66890000
vn -0.80870000 -0.02620000 0.58760000
vn -0.80870000 -0.02620000 0.58760000
vn -0.86570000 -0.02620000 0.49980000
vn -0.86570000 -0.02620000 0.49980000
vn -0.91320000 -0.02610000 0.40660000
vn -0.91320000 -0.02610000 0.40660000
vn -0.95070000 -0.02620000 0.30890000
vn -0.95070000 -0.02620000 0.30890000
vn -0.97780000 -0.02610000 0.20780000
vn -0.97780000 -0.02610000 0.20780000
vn -0.99420000 -0.02620000 0.10450000
vn -0.99420000 -0.02620000 0.10450000
vn -0.99970000 -0.02620000 -0.00000000
vn -0.99970000 -0.02620000 -0.00000000
vn -0.99420000 -0.02620000 -0.10450000
vn -0.99420000 -0.02620000 -0.10450000
vn -0.97780000 -0.02620000 -0.20780000
vn -0.97780000 -0.02620000 -0.20780000
vn -0.95070000 -0.02620000 -0.30890000
vn -0.95070000 -0.02620000 -0.30890000
vn -0.91320000 -0.02620000 -0.40660000
vn -0.91320000 -0.02620000 -0.40660000
vn -0.86570000 -0.02620000 -0.49980000
vn -0.86570000 -0.02610000 -0.49980000
vn -0.80870000 -0.02610000 -0.58760000
vn -0.80870000 -0.02610000 -0.58760000
vn -0.74290000 -0.02610000 -0.66890000
vn -0.74290000 -0.02610000 -0.66890000
vn -0.66890000 -0.02620000 -0.74290000
vn -0.66890000 -0.02620000 -0.74290000
vn -0.58760000 -0.02610000 -0.80870000
vn -0.58760000 -0.02610000 -0.80870000
vn -0.49980000 -0.02620000 -0.86570000
vn -0.49980000 -0.02620000 -0.86570000
vn -0.40660000 -0.02620000 -0.91320000
vn -0.40660000 -0.02620000 -0.91320000
vn -0.30890000 -0.02620000 -0.95070000
vn -0.30890000 -0.02620000 -0.95070000
vn -0.20780000 -0.02620000 -0.97780000
vn -0.20780000 -0.02620000 -0.97780000
vn -0.10450000 -0.02610000 -0.99420000
vn -0.10450000 -0.02610000 -0.99420000
vn -0.00000000 -0.02620000 -0.99970000
vn -0.00000000 -0.02620000 -0.99970000
vn 0.10450000 -0.02610000 -0.99420000
vn 0.10450000 -0.02610000 -0.99420000
vn 0.20780000 -0.02620000 -0.97780000
vn 0.20780000 -0.02620000 -0.97780000
vn 0.30890000 -0.02620000 -0.95070000
vn 0.30890000 -0.02620000 -0.95070000
vn 0.40660000 -0.02620000 -0.91320000
vn 0.40660000 -0.02620000 -0.91320000
vn 0.49980000 -0.02620000 -0.86570000
vn 0.49980000 -0.02620000 -0.86570000
vn 0.58760000 -0.02610000 -0.80870000
vn 0.58760000 -0.02610000 -0.80880000
vn 0.66890000 -0.02620000 -0.74290000
vn 0.66890000 -0.02620000 -0.74290000
vn 0.74290000 -0.02610000 -0.66890000
vn 0.74290000 -0.02610000 -0.66890000
vn 0.80870000 -0.02610000 -0.58760000
vn 0.80870000 -0.02610000 -0.58760000
vn 0.86570000 -0.02610000 -0.49980000
vn 0.86570000 -0.02610000 -0.49980000
vn 0.91320000 -0.02620000 -0.40660000
vn 0.91320000 -0.02620000 -0.40660000
vn 0.95070000 -0.02620000 -0.30890000
vn 0.95070000 -0.02620000 -0.30890000
vn 0.97780000 -0.02620000 -0.20780000
vn 0.97780000 -0.02620000 -0.20780000
vn 0.99420000 -0.02620000 -0.10450000
vn -0.00000000 1.00000000 -0.00000000
vn -0.00000000 1.00000000 -0.00000000
vn -0.00000000 1.00000000 -0.00000000
vn -0.00000000 1.00000000 -0.00000000
vn -0.00000000 1.00000000 -0.00000000
vn -0.00000000 1.00000000 -0.00000000
vn -0.00000000 1.00000000 -0.00000000
vn -0.00000000 1.00000000 -0.00000000
vn -0.00000000 1.00000000 -0.00000000
vn -0.00000000 1.00000000 -0.00000000
vn -0.00000000 1.00000000 -0.00000000
vn -0.00000000 1.00000000 -0.00000000
vn -0.00000000 1.00000000 -0.00000000
vn -0.00000000 1.00000000 -0.00000000
vn -0.00000000 1.00000000 -0.00000000
vn -0.00000000 1.00000000 -0.00000000
vn -0.00000000 1.00000000 -0.00000000
vn -0.00000000 1.00000000 -0.00000000
vn -0.00000000 1.00000000 -0.00000000
vn -0.00000000 1.00000000 -0.00000000
vn -0.00000000 1.00000000 -0.00000000
vn -0.00000000 1.00000000 -0.00000000
vn -0.00000000 1.00000000 -0.00000000
vn -0.00000000 1.00000000 -0.00000000
vn -0.00000000 1.00000000 -0.00000000
vn -0.00000000 1.00000000 -0.00000000
vn -0.00000000 1.00000000 -0.00000000
vn -0.00000000 1.00000000 -0.00000000
vn -0.00000000 1.00000000 -0.00000000
vn -0.00000000 1.00000000 -0.00000000
vn -0.00000000 1.00000000 -0.00000000
vn -0.00000000 1.00000000 -0.00000000
vn -0.00000000 1.00000000 -0.00000000
vn -0.00000000 1.00000000 -0.00000000
vn -0.00000000 1.00000000 -0.00000000
vn -0.00000000 1.00000000 -0.00000000
vn -0.00000000 1.00000000 -0.00000000
vn -0.00000000 1.00000000 -0.00000000
vn -0.00000000 1.00000000 -0.00000000
vn -0.00000000 1.00000000 -0.00000000
vn -0.00000000 1.00000000 -0.00000000
vn -0.00000000 1.00000000 -0.00000000
vn -0.00000000 1.00000000 -0.00000000
vn -0.00000000 1.00000000 -0.00000000
vn -0.00000000 1.00000000 -0.00000000
vn -0.00000000 1.00000000 -0.00000000
vn -0.00000000 1.00000000 -0.00000000
vn -0.00000000 1.00000000 -0.00000000
vn -0.00000000 1.00000000 -0.00000000
vn -0.00000000 1.00000000 -0.00000000
vn -0.00000000 1.00000000 -0.00000000
vn -0.00000000 1.00000000 -0.00000000
vn -0.00000000 1.00000000 -0.00000000
vn -0.00000000 1.00000000 -0.00000000
vn -0.00000000 1.00000000 -0.00000000
vn -0.00000000 1.00000000 -0.00000000
vn -0.00000000 1.00000000 -0.00000000
vn -0.00000000 1.00000000 -0.00000000
vn -0.00000000 1.00000000 -0.00000000
vn -0.00000000 1.00000000 -0.00000000
vn -0.00000000 -1.00000000 -0.00000000
vn -0.00000000 -1.00000000 -0.00000000
vn -0.00000000 -1.00000000 -0.00000000
vn -0.00000000 -1.00000000 -0.00000000
vn -0.00000000 -1.00000000 -0.00000000
vn -0.00000000 -1.00000000 -0.00000000
vn -0.00000000 -1.00000000 -0.00000000
vn -0.00000000 -1.00000000 -0.00000000
vn -0.00000000 -1.00000000 -0.00000000
vn -0.00000000 -1.00000000 -0.00000000
vn -0.00000000 -1.00000000 -0.00000000
vn -0.00000000 -1.00000000 -0.00000000
vn -0.00000000 -1.00000000 -0.00000000
vn -0.00000000 -1.00000000 -0.00000000
vn -0.00000000 -1.00000000 -0.00000000
vn -0.00000000 -1.00000000 -0.00000000
vn -0.00000000 -1.00000000 -0.00000000
vn -0.00000000 -1.00000000 -0.00000000
vn -0.00000000 -1.00000000 -0.00000000
vn -0.00000000 -1.00000000 -0.00000000
vn -0.00000000 -1.00000000 -0.00000000
vn -0.00000000 -1.00000000 -0.00000000
vn -0.00000000 -1.00000000 -0.00000000
vn -0.00000000 -1.00000000 -0.00000000
vn -0.00000000 -1.00000000 -0.00000000
vn -0.00000000 -1.00000000 -0.00000000
vn -0.00000000 -1.00000000 -0.00000000
vn -0.00000000 -1.00000000 -0.00000000
vn -0.00000000 -1.00000000 -0.00000000
vn -0.00000000 -1.00000000 -0.00000000
vn -0.00000000 -1.00000000 -0.00000000
vn -0.00000000 -1.00000000 -0.00000000
vn -0.00000000 -1.00000000 -0.00000000
vn -0.00000000 -1.00000000 -0.00000000
vn -0.00000000 -1.00000000 -0.00000000
vn -0.00000000 -1.00000000 -0.00000000
vn -0.00000000 -1.00000000 -0.00000000
vn -0.00000000 -1.00000000 -0.00000000
vn -0.00000000 -1.00000000 -0.00000000
vn -0.00000000 -1.00000000 -0.00000000
vn -0.00000000 -1.00000000 -0.00000000
vn -0.00000000 -1.00000000 -0.00000000
vn -0.00000000 -1.00000000 -0.00000000
vn -0.00000000 -1.00000000 -0.00000000
vn -0.00000000 -1.00000000 -0.00000000
vn -0.00000000 -1.00000000 -0.00000000
vn -0.00000000 -1.00000000 -0.00000000
vn -0.00000000 -1.00000000 -0.00000000
vn -0.00000000 -1.00000000 -0.00000000
vn -0.00000000 -1.00000000 -0.00000000
vn -0.00000000 -1.00000000 -0.00000000
vn -0.00000000 -1.00000000 -0.00000000
vn -0.00000000 -1.00000000 -0.00000000
vn -0.00000000 -1.00000000 -0.00000000
vn -0.00000000 -1.00000000 -0.00000000
vn -0.00000000 -1.00000000 -0.00000000
vn -0.00000000 -1.00000000 -0.00000000
vn -0.00000000 -1.00000000 -0.00000000
vn -0.00000000 -1.00000000 -0.00010000
vn -0.00000000 -1.00000000 -0.00010000
vn -0.00000000 -1.00000000 -0.00000000
vn -0.00000000 -1.00000000 -0.00010000
f 1//1 2//2 3//3
f 3//3 2//2 4//4
f 5//5 6//6 7//7
f 7//7 6//6 8//8
f 7//7 8//8 9//9
f 1//1 10//10 2//2
f 2//2 10//10 11//11
f 11//11 10//10 12//12
f 11//11 12//12 13//13
f 13//13 12//12 14//14
f 13//13 14//14 15//15
f 15//15 14//14 16//16
f 15//15 16//16 17//17
f 17//17 16//16 18//18
f 17//17 18//18 19//19
f 19//19 18//18 20//20
f 19//19 20//20 21//21
f 21//21 20//20 22//22
f 21//21 22//22 23//23
f 23//23 22//22 24//24
f 23//23 24//24 25//25
f 25//25 24//24 26//26
f 25//25 26//26 27//27
f 27//27 26//26 28//28
f 27//27 28//28 29//29
f 29//29 28//28 30//30
f 29//29 30//30 31//31
f 31//31 30//30 32//32
f 31//31 32//32 33//33
f 33//33 32//32 34//34
f 33//33 34//34 35//35
f 35//35 34//34 36//36
f 35//35 36//36 37//37
f 37//37 36//36 38//38
f 37//37 38//38 39//39
f 39//39 38//38 40//40
f 39//39 40//40 41//41
f 41//41 40//40 42//42
f 41//41 42//42 43//43
f 43//43 42//42 44//44
f 43//43 44//44 45//45
f 45//45 44//44 46//46
f 45//45 46//46 47//47
f 47//47 46//46 48//48
f 47//47 48//48 49//49
f 49//49 48//48 50//50
f 49//49 50//50 51//51
f 51//51 50//50 52//52
f 51//51 52//52 53//53
f 53//53 52//52 54//54
f 53//53 54//54 55//55
f 55//55 54//54 56//56
f 55//55 56//56 57//57
f 57//57 56//56 58//58
f 57//57 58//58 59//59
f 59//59 58//58 60//60
f 59//59 60//60 61//61
f 61//61 60//60 62//62
f 61//61 62//62 63//63
f 63//63 62//62 64//64
f 63//63 64//64 65//65
f 65//65 64//64 66//66
f 65//65 66//66 67//67
f 67//67 66//66 68//68
f 67//67 68//68 69//69
f 69//69 68//68 70//70
f 69//69 70//70 71//71
f 71//71 70//70 72//72
f 71//71 72//72 73//73
f 73//73 72//72 74//74
f 73//73 74//74 75//75
f 75//75 74//74 76//76
f 75//75 76//76 77//77
f 77//77 76//76 78//78
f 77//77 78//78 79//79
f 79//79 78//78 80//80
f 79//79 80//80 81//81
f 81//81 80//80 82//82
f 81//81 82//82 83//83
f 83//83 82//82 84//84
f 83//83 84//84 85//85
f 85//85 84//84 86//86
f 85//85 86//86 87//87
f 87//87 86//86 88//88
f 87//87 88//88 89//89
f 89//89 88//88 90//90
f 89//89 90//90 91//91
f 91//91 90//90 92//92
f 91//91 92//92 93//93
f 93//93 92//92 94//94
f 93//93 94//94 95//95
f 95//95 94//94 96//96
f 95//95 96//96 97//97
f 97//97 96//96 98//98
f 97//97 98//98 99//99
f 99//99 98//98 100//100
f 99//99 100//100 101//101
f 101//101 100//100 102//102
f 101//101 102//102 103//103
f 103//103 102//102 104//104
f 103//103 104//104 105//105
f 105//105 104//104 106//106
f 105//105 106//106 107//107
f 107//107 106//106 108//108
f 107//107 108//108 109//109
f 109//109 108//108 110//110
f 109//109 110//110 111//111
f 111//111 110//110 112//112
f 111//111 112//112 113//113
f 113//113 112//112 114//114
f 113//113 114//114 115//115
f 115//115 114//114 116//116
f 115//115 116//116 117//117
f 117//117 116//116 118//118
f 117//117 118//118 119//119
f 119//119 118//118 120//120
f 119//119 120//120 121//121
f 121//121 120//120 122//122
f 121//121 122//122 9//9
f 9//9 122//122 7//7
f 123//123 124//124 125//125
f 125//125 124//124 126//126
f 125//125 126//126 127//127
f 127//127 128//128 125//125
f 125//125 128//128 129//129
f 125//125 129//129 130//130
f 130//130 131//131 125//125
f 125//125 131//131 132//132
f 125//125 132//132 133//133
f 133//133 134//134 125//125
f 125//125 134//134 135//135
f 125//125 135//135 136//136
f 136//136 137//137 125//125
f 125//125 137//137 138//138
f 125//125 138//138 139//139
f 139//139 140//140 125//125
f 125//125 140//140 141//141
f 125//125 141//141 142//142
f 142//142 143//143 125//125
f 125//125 143//143 144//144
f 125//125 144//144 145//145
f 145//145 146//146 125//125
f 125//125 146//146 147//147
f 125//125 147//147 148//148
f 148//148 149//149 125//125
f 125//125 149//149 150//150
f 125//125 150//150 151//151
f 151//151 152//152 125//125
f 125//125 152//152 153//153
f 125//125 153//153 154//154
f 154//154 155//155 125//125
f 125//125 155//155 156//156
f 156//156 155//155 157//157
f 156//156 157//157 158//158
f 158//158 157//157 159//159
f 158//158 159//159 160//160
f 160//160 159//159 161//161
f 160//160 161//161 162//162
f 162//162 161//161 163//163
f 162//162 163//163 164//164
f 164//164 163//163 165//165
f 164//164 165//165 166//166
f 166//166 165//165 167//167
f 166//166 167//167 168//168
f 168//168 167//167 169//169
f 168//168 169//169 170//170
f 170//170 169//169 171//171
f 170//170 171//171 172//172
f 172//172 171//171 173//173
f 172//172 173//173 174//174
f 174//174 173//173 175//175
f 174//174 175//175 176//176
f 176//176 175//175 177//177
f 176//176 177//177 178//178
f 178//178 177//177 179//179
f 178//178 179//179 180//180
f 180//180 179//179 181//181
f 182//182 183//183 184//184
f 184//184 183//183 185//185
f 184//184 185//185 186//186
f 186//186 185//185 187//187
f 186//186 187//187 188//188
f 188//188 187//187 189//189
f 188//188 189//189 190//190
f 190//190 189//189 191//191
f 190//190 191//191 192//192
f 192//192 191//191 193//193
f 192//192 193//193 194//194
f 194//194 193//193 195//195
f 194//194 195//195 196//196
f 196//196 195//195 197//197
f 196//196 197//197 198//198
f 198//198 197//197 199//199
f 198//198 199//199 200//200
f 200//200 199//199 201//201
f 200//200 201//201 202//202
f 202//202 201//201 203//203
f 202//202 203//203 204//204
f 204//204 203//203 205//205
f 204//204 205//205 206//206
f 206//206 205//205 207//207
f 206//206 207//207 208//208
f 208//208 207//207 209//209
f 208//208 209//209 210//210
f 210//210 209//209 211//211
f 210//210 211//211 212//212
f 212//212 211//211 213//213
f 212//212 213//213 214//214
f 214//214 213//213 215//215
f 214//214 215//215 216//216
f 216//216 215//215 217//217
f 216//216 217//217 218//218
f 218//218 217//217 219//219
f 218//218 219//219 220//220
f 220//220 219//219 221//221
f 220//220 221//221 222//222
f 222//222 221//221 223//223
f 222//222 223//223 224//224
f 224//224 223//223 225//225
f 224//224 225//225 226//226
f 226//226 225//225 227//227
f 226//226 227//227 228//228
f 228//228 227//227 229//229
f 228//228 229//229 230//230
f 230//230 229//229 231//231
f 230//230 231//231 232//232
f 232//232 231//231 233//233
f 232//232 233//233 234//234
f 234//234 233//233 235//235
f 234//234 235//235 236//236
f 236//236 235//235 237//237
f 236//236 237//237 238//238
f 238//238 237//237 239//239
f 238//238 239//239 240//240
f 240//240 239//239 241//241
f 240//240 241//241 242//242
f 242//242 241//241 243//243
f 242//242 243//243 244//244
f 242//242 244//244 245//245
f 245//245 244//244 246//246
f 245//245 246//246 247//247
f 247//247 246//246 248//248
f 247//247 248//248 249//249
f 249//249 248//248 250//250
f 249//249 250//250 251//251
f 251//251 250//250 252//252
f 251//251 252//252 253//253
f 253//253 252//252 254//254
f 253//253 254//254 255//255
f 255//255 254//254 256//256
f 255//255 256//256 257//257
f 257//257 256//256 258//258
f 257//257 258//258 259//259
f 259//259 258//258 260//260
f 259//259 260//260 261//261
f 261//261 260//260 262//262
f 261//261 262//262 263//263
f 263//263 262//262 264//264
f 263//263 264//264 265//265
f 265//265 264//264 266//266
f 265//265 266//266 267//267
f 267//267 266//266 268//268
f 267//267 268//268 269//269
f 269//269 268//268 270//270
f 269//269 270//270 271//271
f 271//271 270//270 272//272
f 271//271 272//272 273//273
f 273//273 272//272 274//274
f 273//273 274//274 275//275
f 275//275 274//274 276//276
f 275//275 276//276 277//277
f 277//277 276//276 278//278
f 277//277 278//278 279//279
f 279//279 278//278 280//280
f 279//279 280//280 281//281
f 281//281 280//280 282//282
f 281//281 282//282 283//283
f 283//283 282//282 284//284
f 283//283 284//284 285//285
f 285//285 284//284 286//286
f 285//285 286//286 287//287
f 287//287 286//286 288//288
f 287//287 288//288 289//289
f 289//289 288//288 290//290
f 289//289 290//290 291//291
f 291//291 290//290 292//292
f 291//291 292//292 293//293
f 293//293 292//292 294//294
f 293//293 294//294 295//295
f 295//295 294//294 296//296
f 295//295 296//296 297//297
f 297//297 296//296 298//298
f 297//297 298//298 299//299
f 299//299 298//298 182//182
f 299//299 182//182 184//184
f 300//300 301//301 302//302
f 302//302 301//301 303//303
f 304//304 305//305 306//306
f 306//306 305//305 307//307
f 306//306 307//307 308//308
f 308//308 307//307 309//309
f 308//308 309//309 310//310
f 310//310 309//309 311//311
f 310//310 311//311 312//312
f 312//312 311//311 313//313
f 312//312 313//313 314//314
f 314//314 313//313 315//315
f 314//314 315//315 316//316
f 316//316 315//315 317//317
f 316//316 317//317 318//318
f 318//318 317//317 319//319
f 318//318 319//319 320//320
f 320//320 319//319 321//321
f 320//320 321//321 322//322
f 322//322 321//321 323//323
f 322//322 323//323 324//324
f 324//324 323//323 325//325
f 324//324 325//325 326//326
f 326//326 325//325 327//327
f 326//326 327//327 328//328
f 328//328 327//327 329//329
f 328//328 329//329 330//330
f 330//330 329//329 331//331
f 330//330 331//331 332//332
f 332//332 331//331 333//333
f 332//332 333//333 334//334
f 334//334 333//333 335//335
f 334//334 335//335 336//336
f 336//336 335//335 337//337
f 336//336 337//337 338//338
f 338//338 337//337 339//339
f 338//338 339//339 340//340
f 340//340 339//339 341//341
f 340//340 341//341 342//342
f 342//342 341//341 343//343
f 342//342 343//343 344//344
f 344//344 343//343 345//345
f 344//344 345//345 346//346
f 346//346 345//345 347//347
f 346//346 347//347 348//348
f 348//348 347//347 349//349
f 348//348 349//349 350//350
f 350//350 349//349 351//351
f 350//350 351//351 352//352
f 352//352 351//351 353//353
f 352//352 353//353 354//354
f 354//354 353//353 355//355
f 354//354 355//355 356//356
f 356//356 355//355 357//357
f 356//356 357//357 358//358
f 358//358 357//357 359//359
f 358//358 359//359 360//360
f 360//360 359//359 361//361
f 360//360 361//361 362//362
f 362//362 361//361 363//363
f 362//362 363//363 364//364
f 364//364 363//363 365//365
f 364//364 365//365 366//366
f 366//366 365//365 367//367
f 366//366 367//367 368//368
f 368//368 367//367 369//369
f 368//368 369//369 370//370
f 370//370 369//369 371//371
f 370//370 371//371 372//372
f 372//372 371//371 373//373
f 372//372 373//373 374//374
f 374//374 373//373 375//375
f 374//374 375//375 376//376
f 376//376 375//375 377//377
f 376//376 377//377 378//378
f 378//378 377//377 379//379
f 378//378 379//379 380//380
f 380//380 379//379 381//381
f 380//380 381//381 382//382
f 382//382 381//381 383//383
f 382//382 383//383 384//384
f 384//384 383//383 385//385
f 384//384 385//385 386//386
f 386//386 385//385 387//387
f 386//386 387//387 388//388
f 388//388 387//387 389//389
f 388//388 389//389 390//390
f 390//390 389//389 391//391
f 390//390 391//391 392//392
f 392//392 391//391 393//393
f 392//392 393//393 394//394
f 394//394 393//393 395//395
f 394//394 395//395 396//396
f 396//396 395//395 397//397
f 396//396 397//397 398//398
f 398//398 397//397 399//399
f 398//398 399//399 400//400
f 400//400 399//399 401//401
f 400//400 401//401 402//402
f 402//402 401//401 403//403
f 402//402 403//403 404//404
f 404//404 403//403 405//405
f 404//404 405//405 406//406
f 406//406 405//405 407//407
f 406//406 407//407 408//408
f 408//408 407//407 409//409
f 408//408 409//409 410//410
f 410//410 409//409 411//411
f 410//410 411//411 412//412
f 412//412 411//411 413//413
f 412//412 413//413 414//414
f 414//414 413//413 415//415
f 414//414 415//415 416//416
f 416//416 415//415 417//417
f 416//416 417//417 300//300
f 300//300 417//417 301//301
f 418//418 419//419 420//420
f 420//420 419//419 421//421
f 420//420 421//421 422//422
f 422//422 421//421 423//423
f 422//422 423//423 424//424
f 424//424 423//423 425//425
f 424//424 425//425 426//426
f 426//426 425//425 427//427
f 426//426 427//427 428//428
f 428//428 427//427 429//429
f 428//428 429//429 430//430
f 430//430 429//429 431//431
f 430//430 431//431 432//432
f 432//432 431//431 433//433
f 432//432 433//433 434//434
f 434//434 433//433 435//435
f 434//434 435//435 436//436
f 436//436 435//435 437//437
f 436//436 437//437 438//438
f 438//438 437//437 439//439
f 438//438 439//439 440//440
f 440//440 439//439 441//441
f 440//440 441//441 442//442
f 442//442 441//441 443//443
f 442//442 443//443 444//444
f 444//444 443//443 445//445
f 444//444 445//445 446//446
f 446//446 445//445 447//447
f 446//446 447//447 448//448
f 448//448 447//447 449//449
f 419//419 418//418 450//450
f 450//450 418//418 451//451
f 450//450 451//451 452//452
f 452//452 451//451 453//453
f 452//452 453//453 454//454
f 454//454 453//453 455//455
f 454//454 455//455 456//456
f 456//456 455//455 457//457
f 456//456 457//457 458//458
f 458//458 457//457 459//459
f 458//458 459//459 460//460
f 460//460 459//459 461//461
f 460//460 461//461 462//462
f 462//462 461//461 463//463
f 462//462 463//463 464//464
f 464//464 463//463 465//465
f 464//464 465//465 466//466
f 466//466 465//465 467//467
f 466//466 467//467 468//468
f 468//468 467//467 469//469
f 468//468 469//469 470//470
f 470//470 469//469 471//471
f 470//470 471//471 472//472
f 472//472 471//471 473//473
f 472//472 473//473 474//474
f 474//474 473//473 475//475
f 476//476 477//477 478//478
f 478//478 477//477 479//479
f 480//480 481//481 482//482
f 477//477 476//476 483//483
f 483//483 476//476 484//484
f 483//483 484//484 485//485
f 485//485 484//484 486//486
f 485//485 486//486 487//487
f 487//487 486//486 488//488
f 487//487 488//488 489//489
f 489//489 488//488 490//490
f 489//489 490//490 491//491
f 491//491 490//490 492//492
f 491//491 492//492 493//493
f 493//493 492//492 494//494
f 493//493 494//494 495//495
f 495//495 494//494 496//496
f 495//495 496//496 497//497
f 497//497 496//496 498//498
f 497//497 498//498 499//499
f 499//499 498//498 500//500
f 499//499 500//500 501//501
f 501//501 500//500 502//502
f 501//501 502//502 503//503
f 503//503 502//502 504//504
f 503//503 504//504 505//505
f 505//505 504//504 506//506
f 505//505 506//506 507//507
f 507//507 506//506 508//508
f 507//507 508//508 509//509
f 509//509 508//508 510//510
f 509//509 510//510 511//511
f 511//511 510//510 512//512
f 511//511 512//512 513//513
f 513//513 512//512 514//514
f 513//513 514//514 515//515
f 515//515 514//514 516//516
f 515//515 516//516 517//517
f 517//517 516//516 518//518
f 517//517 518//518 519//519
f 519//519 518//518 520//520
f 519//519 520//520 521//521
f 521//521 520//520 522//522
f 521//521 522//522 523//523
f 523//523 522//522 524//524
f 523//523 524//524 525//525
f 525//525 524//524 526//526
f 525//525 526//526 527//527
f 527//527 526//526 528//528
f 527//527 528//528 529//529
f 529//529 528//528 530//530
f 529//529 530//530 531//531
f 531//531 530//530 532//532
f 531//531 532//532 533//533
f 533//533 532//532 534//534
f 533//533 534//534 535//535
f 535//535 534//534 536//536
f 535//535 536//536 537//537
f 537//537 536//536 538//538
f 537//537 538//538 539//539
f 539//539 538//538 540//540
f 539//539 540//540 541//541
f 541//541 540//540 542//542
f 541//541 542//542 543//543
f 543//543 542//542 544//544
f 543//543 544//544 545//545
f 545//545 544//544 546//546
f 545//545 546//546 547//547
f 547//547 546//546 548//548
f 547//547 548//548 549//549
f 549//549 548//548 550//550
f 549//549 550//550 551//551
f 551//551 550//550 552//552
f 551//551 552//552 553//553
f 553//553 552//552 554//554
f 553//553 554//554 555//555
f 555//555 554//554 556//556
f 555//555 556//556 557//557
f 557//557 556//556 558//558
f 557//557 558//558 559//559
f 559//559 558//558 560//560
f 559//559 560//560 561//561
f 561//561 560//560 562//562
f 561//561 562//562 563//563
f 563//563 562//562 564//564
f 563//563 564//564 565//565
f 565//565 564//564 566//566
f 565//565 566//566 567//567
f 567//567 566//566 568//568
f 567//567 568//568 569//569
f 569//569 568//568 570//570
f 569//569 570//570 571//571
f 571//571 570//570 572//572
f 571//571 572//572 573//573
f 573//573 572//572 574//574
f 573//573 574//574 575//575
f 575//575 574//574 576//576
f 575//575 576//576 577//577
f 577//577 576//576 578//578
f 577//577 578//578 579//579
f 579//579 578//578 580//580
f 579//579 580//580 581//581
f 581//581 580//580 582//582
f 581//581 582//582 583//583
f 583//583 582//582 584//584
f 583//583 584//584 585//585
f 585//585 584//584 586//586
f 585//585 586//586 587//587
f 587//587 586//586 588//588
f 587//587 588//588 589//589
f 589//589 588//588 590//590
f 589//589 590//590 591//591
f 591//591 590//590 592//592
f 591//591 592//592 593//593
f 593//593 592//592 594//594
f 593//593 594//594 595//595
f 595//595 594//594 596//596
f 595//595 596//596 482//482
f 482//482 596//596 480//480
f 597//597 598//598 599//599
f 600//600 601//601 602//602
f 600//600 602//602 603//603
f 603//603 602//602 604//604
f 603//603 604//604 605//605
f 605//605 604//604 606//606
f 605//605 606//606 607//607
f 607//607 606//606 608//608
f 607//607 608//608 609//609
f 609//609 608//608 610//610
f 609//609 610//610 611//611
f 611//611 610//610 612//612
f 611//611 612//612 613//613
f 613//613 612//612 614//614
f 613//613 614//614 615//615
f 615//615 614//614 616//616
f 615//615 616//616 617//617
f 617//617 616//616 618//618
f 617//617 618//618 619//619
f 619//619 618//618 620//620
f 619//619 620//620 621//621
f 621//621 620//620 622//622
f 621//621 622//622 623//623
f 623//623 622//622 624//624
f 623//623 624//624 625//625
f 625//625 624//624 626//626
f 625//625 626//626 627//627
f 627//627 626//626 628//628
f 627//627 628//628 629//629
f 629//629 628//628 630//630
f 629//629 630//630 631//631
f 631//631 630//630 632//632
f 631//631 632//632 633//633
f 633//633 632//632 634//634
f 633//633 634//634 635//635
f 635//635 634//634 636//636
f 635//635 636//636 637//637
f 637//637 636//636 638//638
f 637//637 638//638 639//639
f 639//639 638//638 640//640
f 639//639 640//640 641//641
f 641//641 640//640 642//642
f 641//641 642//642 643//643
f 643//643 642//642 644//644
f 643//643 644//644 645//645
f 645//645 644//644 646//646
f 645//645 646//646 647//647
f 647//647 646//646 648//648
f 647//647 648//648 649//649
f 649//649 648//648 650//650
f 649//649 650//650 651//651
f 651//651 650//650 652//652
f 651//651 652//652 653//653
f 653//653 652//652 654//654
f 653//653 654//654 655//655
f 655//655 654//654 656//656
f 655//655 656//656 657//657
f 657//657 656//656 658//658
f 657//657 658//658 659//659
f 659//659 658//658 660//660
f 659//659 660//660 661//661
f 661//661 660//660 662//662
f 661//661 662//662 663//663
f 663//663 662//662 664//664
f 663//663 664//664 665//665
f 665//665 664//664 666//666
f 665//665 666//666 667//667
f 667//667 666//666 668//668
f 667//667 668//668 669//669
f 669//669 668//668 670//670
f 669//669 670//670 671//671
f 671//671 670//670 672//672
f 671//671 672//672 673//673
f 673//673 672//672 674//674
f 673//673 674//674 675//675
f 675//675 674//674 676//676
f 675//675 676//676 677//677
f 677//677 676//676 678//678
f 677//677 678//678 679//679
f 679//679 678//678 680//680
f 679//679 680//680 681//681
f 681//681 680//680 682//682
f 681//681 682//682 683//683
f 683//683 682//682 684//684
f 683//683 684//684 685//685
f 685//685 684//684 686//686
f 685//685 686//686 687//687
f 687//687 686//686 688//688
f 687//687 688//688 689//689
f 689//689 688//688 690//690
f 689//689 690//690 691//691
f 691//691 690//690 692//692
f 691//691 692//692 693//693
f 693//693 692//692 694//694
f 693//693 694//694 695//695
f 695//695 694//694 696//696
f 695//695 696//696 697//697
f 697//697 696//696 698//698
f 697//697 698//698 699//699
f 699//699 698//698 700//700
f 699//699 700//700 701//701
f 701//701 700//700 702//702
f 701//701 702//702 703//703
f 703//703 702//702 704//704
f 703//703 704//704 705//705
f 705//705 704//704 706//706
f 705//705 706//706 707//707
f 707//707 706//706 708//708
f 707//707 708//708 709//709
f 709//709 708//708 710//710
f 709//709 710//710 711//711
f 711//711 710//710 712//712
f 711//711 712//712 713//713
f 713//713 712//712 714//714
f 713//713 714//714 715//715
f 715//715 714//714 716//716
f 715//715 716//716 717//717
f 717//717 716//716 718//718
f 717//717 718//718 597//597
f 597//597 718//718 598//598
f 719//719 720//720 721//721
f 721//721 720//720 722//722
f 721//721 722//722 723//723
f 723//723 722//722 724//724
f 723//723 724//724 725//725
f 725//725 724//724 726//726
f 725//725 726//726 727//727
f 727//727 726//726 728//728
f 727//727 728//728 729//729
f 729//729 728//728 730//730
f 729//729 730//730 731//731
f 731//731 730//730 732//732
f 731//731 732//732 733//733
f 733//733 732//732 734//734
f 733//733 734//734 735//735
f 735//735 734//734 736//736
f 735//735 736//736 737//737
f 737//737 736//736 738//738
f 737//737 738//738 739//739
f 739//739 738//738 740//740
f 739//739 740//740 741//741
f 741//741 740//740 742//742
f 741//741 742//742 743//743
f 743//743 742//742 744//744
f 743//743 744//744 745//745
f 745//745 744//744 746//746
f 745//745 746//746 747//747
f 747//747 746//746 748//748
f 747//747 748//748 749//749
f 749//749 748//748 750//750
f 749//749 750//750 751//751
f 720//720 719//719 752//752
f 752//752 719//719 753//753
f 752//752 753//753 754//754
f 754//754 753//753 755//755
f 754//754 755//755 756//756
f 756//756 755//755 757//757
f 756//756 757//757 758//758
f 758//758 757//757 759//759
f 758//758 759//759 760//760
f 760//760 759//759 761//761
f 760//760 761//761 762//762
f 762//762 761//761 763//763
f 762//762 763//763 764//764
f 764//764 763//763 765//765
f 764//764 765//765 766//766
f 766//766 765//765 767//767
f 766//766 767//767 768//768
f 768//768 767//767 769//769
f 768//768 769//769 770//770
f 770//770 769//769 771//771
f 770//770 771//771 772//772
f 772//772 771//771 773//773
f 772//772 773//773 774//774
f 774//774 773//773 775//775
f 774//774 775//775 776//776
f 776//776 775//775 777//777
f 776//776 777//777 778//778
f 779//779 780//780 781//781
f 781//781 780//780 782//782
f 781//781 782//782 783//783
f 783//783 782//782 784//784
f 783//783 784//784 785//785
f 785//785 784//784 786//786
f 785//785 786//786 787//787
f 787//787 786//786 788//788
f 787//787 788//788 789//789
f 789//789 788//788 790//790
f 789//789 790//790 791//791
f 791//791 790//790 792//792
f 791//791 792//792 793//793
f 793//793 792//792 794//794
f 793//793 794//794 795//795
f 795//795 794//794 796//796
f 795//795 796//796 797//797
f 797//797 796//796 798//798
f 797//797 798//798 799//799
f 799//799 798//798 800//800
f 799//799 800//800 801//801
f 801//801 800//800 802//802
f 801//801 802//802 803//803
f 803//803 802//802 804//804
f 803//803 804//804 805//805
f 805//805 804//804 806//806
f 805//805 806//806 807//807
f 807//807 806//806 808//808
f 807//807 808//808 809//809
f 809//809 808//808 810//810
f 809//809 810//810 811//811
f 780//780 779//779 812//812
f 812//812 779//779 813//813
f 812//812 813//813 814//814
f 814//814 813//813 815//815
f 814//814 815//815 816//816
f 816//816 815//815 817//817
f 816//816 817//817 818//818
f 818//818 817//817 819//819
f 818//818 819//819 820//820
f 820//820 819//819 821//821
f 820//820 821//821 822//822
f 822//822 821//821 823//823
f 822//822 823//823 824//824
f 824//824 823//823 825//825
f 824//824 825//825 826//826
f 826//826 825//825 827//827
f 826//826 827//827 828//828
f 828//828 827//827 829//829
f 828//828 829//829 830//830
f 830//830 829//829 831//831
f 830//830 831//831 832//832
f 832//832 831//831 833//833
f 832//832 833//833 834//834
f 834//834 833//833 835//835
f 834//834 835//835 836//836
f 836//836 835//835 839//839
f 837//837 838//838 840//840