mtllib material.mtl
usemtl material_0
v 0.00368700 -0.16923500 -0.02528400
v 0.00321100 -0.16924900 -0.02529800
v 0.00463800 -0.16824100 -0.02726200
v 0.00321100 -0.16735200 -0.02914800
v 0.00463800 -0.16774100 -0.02825900
v 0.00459200 -0.16712200 -0.02945900
v 0.00315000 -0.16726100 -0.02932800
v 0.00382100 -0.16663400 -0.03044600
v 0.00436200 -0.16687300 -0.02995100
v 0.00304600 -0.16721500 -0.02942100
v 0.00284600 -0.16719300 -0.02947700
v 0.00283300 -0.16652200 -0.03072700
v 0.00071400 -0.16722400 -0.02950800
v 0.00071400 -0.16655400 -0.03075500
v -0.00071300 -0.16722500 -0.02950800
v -0.00071300 -0.16655400 -0.03075500
v -0.00142700 -0.16654700 -0.03074900
v -0.00248700 -0.16720100 -0.02948400
v -0.00214000 -0.16653700 -0.03073800
v -0.00285400 -0.16652300 -0.03072400
v -0.00293500 -0.16719600 -0.02946500
v -0.00348200 -0.16656100 -0.03060900
v -0.00313000 -0.16724800 -0.02935300
v -0.00409800 -0.16672800 -0.03024700
v -0.00321000 -0.16735000 -0.02915300
v -0.00463600 -0.16730800 -0.02909900
v -0.00463700 -0.16792400 -0.02789800
v -0.00321000 -0.16847600 -0.02692300
v -0.00464300 -0.16842900 -0.02687900
v -0.00411600 -0.16899700 -0.02575000
v -0.00450200 -0.16873300 -0.02626400
v -0.00071300 -0.16851300 -0.02697000
v 0.00071600 -0.16851500 -0.02696700
v 0.00051000 -0.16888000 -0.02621300
v -0.00001100 -0.16914300 -0.02566000
v -0.00074100 -0.16857500 -0.02684300
v -0.00050200 -0.16925100 -0.02542400
v -0.00081700 -0.16862500 -0.02673700
v -0.00093100 -0.16865900 -0.02666600
v -0.00107700 -0.16867100 -0.02663800
v -0.00107100 -0.16928900 -0.02533400
v -0.00131200 -0.16866800 -0.02663500
v -0.00176000 -0.16928100 -0.02532500
v -0.00181100 -0.16866200 -0.02662900
v -0.00285100 -0.16925800 -0.02530800
v -0.00285300 -0.16864200 -0.02660900
v -0.00297500 -0.16862900 -0.02662600
v -0.00354100 -0.16918100 -0.02541400
v -0.00310600 -0.16858900 -0.02669800
v -0.00318300 -0.16853700 -0.02680000
v -0.00450600 -0.16699800 -0.02970100
v 0.00071400 -0.16627000 -0.03126900
v -0.00071300 -0.16627000 -0.03126900
v 0.00023800 -0.16569400 -0.03229300
v -0.00023800 -0.16569400 -0.03229300
v -0.00071300 -0.16598300 -0.03178100
v -0.00071300 -0.16569200 -0.03229100
v 0.00071400 -0.16569200 -0.03229100
v 0.00071400 -0.16598300 -0.03178100
v 0.00463800 -0.16920200 -0.02525100
v 0.00416200 -0.16922000 -0.02526800
vn 0.04070000 -0.90660000 -0.42010000
vn 0.03540000 -0.90670000 -0.42020000
vn 0.05120000 -0.89560000 -0.44190000
vn 0.03550000 -0.88580000 -0.46270000
vn 0.05120000 -0.89010000 -0.45290000
vn 0.05070000 -0.88330000 -0.46610000
vn 0.03480000 -0.88480000 -0.46470000
vn 0.04220000 -0.87790000 -0.47700000
vn 0.04810000 -0.88050000 -0.47160000
vn 0.03360000 -0.88430000 -0.46580000
vn 0.03150000 -0.88400000 -0.46630000
vn 0.03130000 -0.87660000 -0.48020000
vn 0.00800000 -0.88440000 -0.46670000
vn 0.00790000 -0.87700000 -0.48040000
vn -0.00790000 -0.88440000 -0.46670000
vn -0.00790000 -0.87700000 -0.48050000
vn -0.01570000 -0.87690000 -0.48040000
vn -0.02750000 -0.88410000 -0.46640000
vn -0.02360000 -0.87680000 -0.48030000
vn -0.03150000 -0.87670000 -0.48010000
vn -0.03240000 -0.88410000 -0.46620000
vn -0.03840000 -0.87710000 -0.47880000
vn -0.03450000 -0.88460000 -0.46510000
vn -0.04520000 -0.87890000 -0.47490000
vn -0.03540000 -0.88570000 -0.46280000
vn -0.05120000 -0.88530000 -0.46220000
vn -0.05120000 -0.89210000 -0.44890000
vn -0.03540000 -0.89820000 -0.43820000
vn -0.05120000 -0.89770000 -0.43770000
vn -0.04550000 -0.90400000 -0.42520000
vn -0.04970000 -0.90110000 -0.43080000
vn -0.00790000 -0.89860000 -0.43870000
vn 0.00790000 -0.89860000 -0.43860000
vn 0.00560000 -0.90270000 -0.43030000
vn -0.00010000 -0.90560000 -0.42420000
vn -0.00820000 -0.89920000 -0.43740000
vn -0.00550000 -0.90680000 -0.42160000
vn -0.00920000 -0.89990000 -0.43600000
vn -0.01020000 -0.90020000 -0.43530000
vn -0.01190000 -0.90040000 -0.43500000
vn -0.01180000 -0.90710000 -0.42060000
vn -0.01440000 -0.90030000 -0.43490000
vn -0.01940000 -0.90710000 -0.42050000
vn -0.02000000 -0.90020000 -0.43490000
vn -0.03150000 -0.90680000 -0.42030000
vn -0.03150000 -0.90000000 -0.43470000
vn -0.03280000 -0.89990000 -0.43490000
vn -0.03910000 -0.90600000 -0.42150000
vn -0.03430000 -0.89940000 -0.43570000
vn -0.03510000 -0.89890000 -0.43680000
vn -0.04960000 -0.88180000 -0.46900000
vn 0.00790000 -0.87380000 -0.48620000
vn -0.00790000 -0.87380000 -0.48610000
vn 0.00260000 -0.86750000 -0.49740000
vn -0.00260000 -0.86750000 -0.49740000
vn -0.00780000 -0.87070000 -0.49180000
vn -0.00790000 -0.86750000 -0.49740000
vn 0.00800000 -0.86740000 -0.49750000
vn 0.00790000 -0.87070000 -0.49180000
vn 0.05120000 -0.90620000 -0.41970000
vn 0.04600000 -0.90640000 -0.41990000
f 1//1 2//2 3//3
f 3//3 2//2 4//4
f 3//3 4//4 5//5
f 5//5 4//4 6//6
f 7//7 8//8 4//4
f 4//4 8//8 9//9
f 4//4 9//9 6//6
f 7//7 10//10 8//8
f 8//8 10//10 11//11
f 8//8 11//11 12//12
f 12//12 11//11 13//13
f 12//12 13//13 14//14
f 14//14 13//13 15//15
f 14//14 15//15 16//16
f 16//16 15//15 17//17
f 17//17 15//15 18//18
f 17//17 18//18 19//19
f 19//19 18//18 20//20
f 20//20 18//18 21//21
f 20//20 21//21 22//22
f 22//22 21//21 23//23
f 22//22 23//23 24//24
f 24//24 23//23 25//25
f 24//24 25//25 26//26
f 26//26 25//25 27//27
f 27//27 25//25 28//28
f 27//27 28//28 29//29
f 29//29 28//28 30//30
f 29//29 30//30 31//31
f 15//15 13//13 32//32
f 32//32 13//13 33//33
f 32//32 33//33 34//34
f 34//34 35//35 32//32
f 32//32 35//35 36//36
f 36//36 35//35 37//37
f 36//36 37//37 38//38
f 38//38 37//37 39//39
f 39//39 37//37 40//40
f 40//40 37//37 41//41
f 40//40 41//41 42//42
f 42//42 41//41 43//43
f 42//42 43//43 44//44
f 44//44 43//43 45//45
f 44//44 45//45 46//46
f 46//46 45//45 47//47
f 47//47 45//45 48//48
f 47//47 48//48 49//49
f 49//49 48//48 50//50
f 50//50 48//48 30//30
f 50//50 30//30 28//28
f 26//26 51//51 24//24
f 14//14 16//16 52//52
f 52//52 16//16 53//53
f 52//52 53//53 54//54
f 54//54 53//53 55//55
f 55//55 53//53 56//56
f 55//55 56//56 57//57
f 58//58 59//59 54//54
f 54//54 59//59 52//52
f 60//60 61//61 3//3
f 3//3 61//61 1//1