mtllib material.mtl
usemtl material_0
v 0.00330000 -0.15015000 0.20920000
v 0.00330000 -0.15015000 0.16360000
v 0.00330000 -0.14815000 0.20920000
v 0.00330000 -0.14815000 0.16360000
v -0.00330000 -0.14815000 0.20920000
v -0.00330000 -0.15015000 0.20920000
v -0.00320400 -0.14815000 0.20999000
v -0.00320400 -0.15015000 0.20999000
v -0.00292200 -0.14815000 0.21073400
v -0.00292200 -0.15015000 0.21073400
v -0.00247000 -0.14815000 0.21138800
v -0.00247000 -0.15015000 0.21138800
v -0.00187500 -0.14815000 0.21191600
v -0.00187500 -0.15015000 0.21191600
v -0.00117000 -0.14815000 0.21228600
v -0.00117000 -0.15015000 0.21228600
v -0.00039800 -0.14815000 0.21247600
v -0.00039800 -0.15015000 0.21247600
v 0.00039800 -0.14815000 0.21247600
v 0.00039800 -0.15015000 0.21247600
v 0.00117000 -0.14815000 0.21228600
v 0.00117000 -0.15015000 0.21228600
v 0.00187500 -0.14815000 0.21191600
v 0.00187500 -0.15015000 0.21191600
v 0.00247000 -0.14815000 0.21138800
v 0.00247000 -0.15015000 0.21138800
v 0.00292200 -0.14815000 0.21073400
v 0.00292200 -0.15015000 0.21073400
v 0.00320400 -0.14815000 0.20999000
v 0.00320400 -0.15015000 0.20999000
v 0.00330000 -0.14815000 0.20920000
v 0.00330000 -0.15015000 0.20920000
v -0.00330000 -0.15015000 0.16360000
v -0.00330000 -0.15015000 0.20920000
v -0.00330000 -0.14815000 0.16360000
v -0.00330000 -0.14815000 0.20920000
v 0.00330000 -0.14815000 0.16360000
v 0.00330000 -0.15015000 0.16360000
v 0.00320400 -0.14815000 0.16281000
v 0.00320400 -0.15015000 0.16281000
v 0.00292200 -0.14815000 0.16206600
v 0.00292200 -0.15015000 0.16206600
v 0.00247000 -0.14815000 0.16141200
v 0.00247000 -0.15015000 0.16141200
v 0.00187500 -0.14815000 0.16088400
v 0.00187500 -0.15015000 0.16088400
v 0.00117000 -0.14815000 0.16051400
v 0.00117000 -0.15015000 0.16051400
v 0.00039800 -0.14815000 0.16032400
v 0.00039800 -0.15015000 0.16032400
v -0.00039800 -0.14815000 0.16032400
v -0.00039800 -0.15015000 0.16032400
v -0.00117000 -0.14815000 0.16051400
v -0.00117000 -0.15015000 0.16051400
v -0.00187500 -0.14815000 0.16088400
v -0.00187500 -0.15015000 0.16088400
v -0.00247000 -0.14815000 0.16141200
v -0.00247000 -0.15015000 0.16141200
v -0.00292200 -0.14815000 0.16206600
v -0.00292200 -0.15015000 0.16206600
v -0.00320400 -0.14815000 0.16281000
v -0.00320400 -0.15015000 0.16281000
v -0.00330000 -0.14815000 0.16360000
v -0.00330000 -0.15015000 0.16360000
v 0.00320400 -0.14815000 0.16281000
v 0.00292200 -0.14815000 0.16206600
v 0.00330000 -0.14815000 0.16360000
v 0.00247000 -0.14815000 0.16141200
v 0.00247000 -0.14815000 0.21138800
v 0.00187500 -0.14815000 0.21191600
v 0.00187500 -0.14815000 0.16088400
v 0.00117000 -0.14815000 0.21228600
v 0.00117000 -0.14815000 0.16051400
v 0.00039800 -0.14815000 0.21247600
v 0.00039800 -0.14815000 0.16032400
v -0.00039800 -0.14815000 0.21247600
v -0.00039800 -0.14815000 0.16032400
v -0.00117000 -0.14815000 0.21228600
v -0.00117000 -0.14815000 0.16051400
v -0.00187500 -0.14815000 0.21191600
v -0.00187500 -0.14815000 0.16088400
v -0.00247000 -0.14815000 0.21138800
v -0.00247000 -0.14815000 0.16141200
v -0.00330000 -0.14815000 0.20920000
v -0.00330000 -0.14815000 0.16360000
v -0.00292200 -0.14815000 0.16206600
v -0.00320400 -0.14815000 0.16281000
v -0.00320400 -0.14815000 0.20999000
v -0.00292200 -0.14815000 0.21073400
v 0.00330000 -0.14815000 0.20920000
v 0.00292200 -0.14815000 0.21073400
v 0.00320400 -0.14815000 0.20999000
v -0.00320400 -0.15015000 0.16281000
v -0.00292200 -0.15015000 0.16206600
v -0.00330000 -0.15015000 0.16360000
v -0.00247000 -0.15015000 0.16141200
v -0.00247000 -0.15015000 0.21138800
v -0.00187500 -0.15015000 0.21191600
v -0.00187500 -0.15015000 0.16088400
v -0.00117000 -0.15015000 0.21228600
v -0.00117000 -0.15015000 0.16051400
v -0.00039800 -0.15015000 0.21247600
v -0.00039800 -0.15015000 0.16032400
v 0.00039800 -0.15015000 0.21247600
v 0.00039800 -0.15015000 0.16032400
v 0.00117000 -0.15015000 0.21228600
v 0.00117000 -0.15015000 0.16051400
v 0.00187500 -0.15015000 0.21191600
v 0.00187500 -0.15015000 0.16088400
v 0.00247000 -0.15015000 0.21138800
v 0.00247000 -0.15015000 0.16141200
v 0.00330000 -0.15015000 0.20920000
v 0.00330000 -0.15015000 0.16360000
v 0.00292200 -0.15015000 0.16206600
v 0.00320400 -0.15015000 0.16281000
v 0.00320400 -0.15015000 0.20999000
v 0.00292200 -0.15015000 0.21073400
v -0.00330000 -0.15015000 0.20920000
v -0.00292200 -0.15015000 0.21073400
v -0.00320400 -0.15015000 0.20999000
v 0.00330000 -0.08615000 0.20920000
v 0.00330000 -0.08615000 0.16360000
v 0.00330000 -0.08415000 0.20920000
v 0.00330000 -0.08415000 0.16360000
v -0.00330000 -0.08415000 0.20920000
v -0.00330000 -0.08615000 0.20920000
v -0.00320400 -0.08415000 0.20999000
v -0.00320400 -0.08615000 0.20999000
v -0.00292200 -0.08415000 0.21073400
v -0.00292200 -0.08615000 0.21073400
v -0.00247000 -0.08415000 0.21138800
v -0.00247000 -0.08615000 0.21138800
v -0.00187500 -0.08415000 0.21191600
v -0.00187500 -0.08615000 0.21191600
v -0.00117000 -0.08415000 0.21228600
v -0.00117000 -0.08615000 0.21228600
v -0.00039800 -0.08415000 0.21247600
v -0.00039800 -0.08615000 0.21247600
v 0.00039800 -0.08415000 0.21247600
v 0.00039800 -0.08615000 0.21247600
v 0.00117000 -0.08415000 0.21228600
v 0.00117000 -0.08615000 0.21228600
v 0.00187500 -0.08415000 0.21191600
v 0.00187500 -0.08615000 0.21191600
v 0.00247000 -0.08415000 0.21138800
v 0.00247000 -0.08615000 0.21138800
v 0.00292200 -0.08415000 0.21073400
v 0.00292200 -0.08615000 0.21073400
v 0.00320400 -0.08415000 0.20999000
v 0.00320400 -0.08615000 0.20999000
v 0.00330000 -0.08415000 0.20920000
v 0.00330000 -0.08615000 0.20920000
v -0.00330000 -0.08615000 0.16360000
v -0.00330000 -0.08615000 0.20920000
v -0.00330000 -0.08415000 0.16360000
v -0.00330000 -0.08415000 0.20920000
v 0.00330000 -0.08415000 0.16360000
v 0.00330000 -0.08615000 0.16360000
v 0.00320400 -0.08415000 0.16281000
v 0.00320400 -0.08615000 0.16281000
v 0.00292200 -0.08415000 0.16206600
v 0.00292200 -0.08615000 0.16206600
v 0.00247000 -0.08415000 0.16141200
v 0.00247000 -0.08615000 0.16141200
v 0.00187500 -0.08415000 0.16088400
v 0.00187500 -0.08615000 0.16088400
v 0.00117000 -0.08415000 0.16051400
v 0.00117000 -0.08615000 0.16051400
v 0.00039800 -0.08415000 0.16032400
v 0.00039800 -0.08615000 0.16032400
v -0.00039800 -0.08415000 0.16032400
v -0.00039800 -0.08615000 0.16032400
v -0.00117000 -0.08415000 0.16051400
v -0.00117000 -0.08615000 0.16051400
v -0.00187500 -0.08415000 0.16088400
v -0.00187500 -0.08615000 0.16088400
v -0.00247000 -0.08415000 0.16141200
v -0.00247000 -0.08615000 0.16141200
v -0.00292200 -0.08415000 0.16206600
v -0.00292200 -0.08615000 0.16206600
v -0.00320400 -0.08415000 0.16281000
v -0.00320400 -0.08615000 0.16281000
v -0.00330000 -0.08415000 0.16360000
v -0.00330000 -0.08615000 0.16360000
v 0.00320400 -0.08415000 0.16281000
v 0.00292200 -0.08415000 0.16206600
v 0.00330000 -0.08415000 0.16360000
v 0.00247000 -0.08415000 0.16141200
v 0.00247000 -0.08415000 0.21138800
v 0.00187500 -0.08415000 0.21191600
v 0.00187500 -0.08415000 0.16088400
v 0.00117000 -0.08415000 0.21228600
v 0.00117000 -0.08415000 0.16051400
v 0.00039800 -0.08415000 0.21247600
v 0.00039800 -0.08415000 0.16032400
v -0.00039800 -0.08415000 0.21247600
v -0.00039800 -0.08415000 0.16032400
v -0.00117000 -0.08415000 0.21228600
v -0.00117000 -0.08415000 0.16051400
v -0.00187500 -0.08415000 0.21191600
v -0.00187500 -0.08415000 0.16088400
v -0.00247000 -0.08415000 0.21138800
v -0.00247000 -0.08415000 0.16141200
v -0.00330000 -0.08415000 0.20920000
v -0.00330000 -0.08415000 0.16360000
v -0.00292200 -0.08415000 0.16206600
v -0.00320400 -0.08415000 0.16281000
v -0.00320400 -0.08415000 0.20999000
v -0.00292200 -0.08415000 0.21073400
v 0.00330000 -0.08415000 0.20920000
v 0.00292200 -0.08415000 0.21073400
v 0.00320400 -0.08415000 0.20999000
v -0.00320400 -0.08615000 0.16281000
v -0.00292200 -0.08615000 0.16206600
v -0.00330000 -0.08615000 0.16360000
v -0.00247000 -0.08615000 0.16141200
v -0.00247000 -0.08615000 0.21138800
v -0.00187500 -0.08615000 0.21191600
v -0.00187500 -0.08615000 0.16088400
v -0.00117000 -0.08615000 0.21228600
v -0.00117000 -0.08615000 0.16051400
v -0.00039800 -0.08615000 0.21247600
v -0.00039800 -0.08615000 0.16032400
v 0.00039800 -0.08615000 0.21247600
v 0.00039800 -0.08615000 0.16032400
v 0.00117000 -0.08615000 0.21228600
v 0.00117000 -0.08615000 0.16051400
v 0.00187500 -0.08615000 0.21191600
v 0.00187500 -0.08615000 0.16088400
v 0.00247000 -0.08615000 0.21138800
v 0.00247000 -0.08615000 0.16141200
v 0.00330000 -0.08615000 0.20920000
v 0.00330000 -0.08615000 0.16360000
v 0.00292200 -0.08615000 0.16206600
v 0.00320400 -0.08615000 0.16281000
v 0.00320400 -0.08615000 0.20999000
v 0.00292200 -0.08615000 0.21073400
v -0.00330000 -0.08615000 0.20920000
v -0.00292200 -0.08615000 0.21073400
v -0.00320400 -0.08615000 0.20999000
vn 1.00000000 -0.00000000 -0.00000000
vn 1.00000000 -0.00000000 -0.00000000
vn 1.00000000 -0.00000000 -0.00000000
vn 1.00000000 -0.00000000 -0.00000000
vn -1.00000000 -0.00000000 -0.00000000
vn -1.00000000 -0.00000000 -0.00000000
vn -0.97090000 -0.00000000 0.23930000
vn -0.97090000 -0.00000000 0.23930000
vn -0.88540000 -0.00000000 0.46470000
vn -0.88540000 -0.00000000 0.46470000
vn -0.74850000 -0.00000000 0.66310000
vn -0.74850000 -0.00000000 0.66310000
vn -0.56810000 -0.00000000 0.82300000
vn -0.56810000 -0.00000000 0.82300000
vn -0.35450000 -0.00000000 0.93500000
vn -0.35450000 -0.00000000 0.93500000
vn -0.12050000 -0.00000000 0.99270000
vn -0.12050000 -0.00000000 0.99270000
vn 0.12050000 -0.00000000 0.99270000
vn 0.12050000 -0.00000000 0.99270000
vn 0.35460000 -0.00000000 0.93500000
vn 0.35460000 -0.00000000 0.93500000
vn 0.56810000 -0.00000000 0.82300000
vn 0.56810000 -0.00000000 0.82300000
vn 0.74850000 -0.00000000 0.66310000
vn 0.74850000 -0.00000000 0.66310000
vn 0.88540000 -0.00000000 0.46470000
vn 0.88540000 -0.00000000 0.46470000
vn 0.97090000 -0.00000000 0.23930000
vn 0.97090000 -0.00000000 0.23930000
vn 1.00000000 -0.00000000 -0.00000000
vn 1.00000000 -0.00000000 -0.00000000
vn -1.00000000 -0.00000000 -0.00000000
vn -1.00000000 -0.00000000 -0.00000000
vn -1.00000000 -0.00000000 -0.00000000
vn -1.00000000 -0.00000000 -0.00000000
vn 1.00000000 -0.00000000 -0.00000000
vn 1.00000000 -0.00000000 -0.00000000
vn 0.97090000 -0.00000000 -0.23930000
vn 0.97090000 -0.00000000 -0.23930000
vn 0.88540000 -0.00000000 -0.46470000
vn 0.88550000 -0.00000000 -0.46470000
vn 0.74850000 -0.00000000 -0.66310000
vn 0.74850000 -0.00000000 -0.66310000
vn 0.56810000 -0.00000000 -0.82300000
vn 0.56810000 -0.00000000 -0.82300000
vn 0.35460000 -0.00000000 -0.93500000
vn 0.35460000 -0.00000000 -0.93500000
vn 0.12050000 -0.00000000 -0.99270000
vn 0.12060000 -0.00000000 -0.99270000
vn -0.12060000 -0.00000000 -0.99270000
vn -0.12060000 -0.00000000 -0.99270000
vn -0.35460000 -0.00000000 -0.93500000
vn -0.35460000 -0.00000000 -0.93500000
vn -0.56810000 -0.00000000 -0.82300000
vn -0.56810000 -0.00000000 -0.82300000
vn -0.74850000 -0.00000000 -0.66310000
vn -0.74850000 -0.00000000 -0.66310000
vn -0.88540000 -0.00000000 -0.46470000
vn -0.88540000 -0.00000000 -0.46470000
vn -0.97090000 -0.00000000 -0.23930000
vn -0.97090000 -0.00000000 -0.23930000
vn -1.00000000 -0.00010000 -0.00000000
vn -1.00000000 -0.00000000 -0.00000000
vn -0.00000000 1.00000000 -0.00000000
vn -0.00000000 1.00000000 -0.00000000
vn -0.00000000 1.00000000 -0.00000000
vn -0.00000000 1.00000000 -0.00000000
vn -0.00000000 1.00000000 -0.00000000
vn -0.00000000 1.00000000 -0.00000000
vn -0.00000000 1.00000000 -0.00000000
vn -0.00000000 1.00000000 -0.00000000
vn -0.00000000 1.00000000 -0.00000000
vn -0.00000000 1.00000000 -0.00000000
vn -0.00000000 1.00000000 -0.00000000
vn -0.00000000 1.00000000 -0.00000000
vn -0.00000000 1.00000000 -0.00000000
vn -0.00000000 1.00000000 -0.00000000
vn -0.00000000 1.00000000 -0.00000000
vn -0.00000000 1.00000000 -0.00000000
vn -0.00000000 1.00000000 -0.00000000
vn -0.00000000 1.00000000 -0.00000000
vn -0.00000000 1.00000000 -0.00000000
vn -0.00000000 1.00000000 -0.00000000
vn -0.00000000 1.00000000 -0.00000000
vn -0.00000000 1.00000000 -0.00000000
vn -0.00000000 1.00000000 -0.00000000
vn -0.00000000 1.00000000 -0.00000000
vn -0.00000000 1.00000000 -0.00000000
vn -0.00000000 1.00000000 -0.00000000
vn -0.00000000 1.00000000 -0.00000000
vn -0.00000000 1.00000000 -0.00000000
vn -0.00000000 -1.00000000 -0.00000000
vn -0.00000000 -1.00000000 -0.00000000
vn -0.00000000 -1.00000000 -0.00000000
vn -0.00000000 -1.00000000 -0.00000000
vn -0.00000000 -1.00000000 -0.00000000
vn -0.00000000 -1.00000000 -0.00000000
vn -0.00000000 -1.00000000 -0.00000000
vn -0.00000000 -1.00000000 -0.00000000
vn -0.00000000 -1.00000000 -0.00000000
vn -0.00000000 -1.00000000 -0.00000000
vn -0.00000000 -1.00000000 -0.00000000
vn -0.00000000 -1.00000000 -0.00000000
vn -0.00000000 -1.00000000 -0.00000000
vn -0.00000000 -1.00000000 -0.00000000
vn -0.00000000 -1.00000000 -0.00000000
vn -0.00000000 -1.00000000 -0.00000000
vn -0.00000000 -1.00000000 -0.00000000
vn -0.00000000 -1.00000000 -0.00000000
vn -0.00000000 -1.00000000 -0.00000000
vn -0.00000000 -1.00000000 -0.00000000
vn -0.00000000 -1.00000000 -0.00000000
vn -0.00000000 -1.00000000 -0.00000000
vn -0.00000000 -1.00000000 -0.00000000
vn -0.00000000 -1.00000000 -0.00000000
vn -0.00000000 -1.00000000 -0.00000000
vn -0.00000000 -1.00000000 -0.00000000
vn -0.00000000 -1.00000000 -0.00000000
vn -0.00000000 -1.00000000 -0.00000000
vn 1.00000000 -0.00000000 -0.00000000
vn 1.00000000 -0.00000000 -0.00000000
vn 1.00000000 -0.00000000 -0.00000000
vn 1.00000000 -0.00000000 -0.00000000
vn -1.00000000 -0.00000000 -0.00000000
vn -1.00000000 -0.00000000 -0.00000000
vn -0.97090000 -0.00000000 0.23930000
vn -0.97090000 -0.00000000 0.23930000
vn -0.88540000 -0.00000000 0.46470000
vn -0.88540000 -0.00000000 0.46470000
vn -0.74850000 -0.00000000 0.66310000
vn -0.74850000 -0.00000000 0.66310000
vn -0.56810000 -0.00000000 0.82300000
vn -0.56810000 -0.00000000 0.82300000
vn -0.35450000 -0.00000000 0.93500000
vn -0.35460000 -0.00000000 0.93500000
vn -0.12050000 -0.00000000 0.99270000
vn -0.12050000 -0.00000000 0.99270000
vn 0.12050000 -0.00000000 0.99270000
vn 0.12050000 -0.00000000 0.99270000
vn 0.35460000 -0.00000000 0.93500000
vn 0.35450000 -0.00000000 0.93500000
vn 0.56810000 -0.00000000 0.82300000
vn 0.56810000 -0.00000000 0.82300000
vn 0.74850000 -0.00000000 0.66310000
vn 0.74850000 -0.00000000 0.66310000
vn 0.88540000 -0.00000000 0.46470000
vn 0.88540000 -0.00000000 0.46470000
vn 0.97090000 -0.00000000 0.23930000
vn 0.97090000 -0.00000000 0.23930000
vn 1.00000000 -0.00000000 -0.00000000
vn 1.00000000 -0.00000000 -0.00000000
vn -1.00000000 -0.00000000 -0.00000000
vn -1.00000000 -0.00000000 -0.00000000
vn -1.00000000 -0.00000000 -0.00000000
vn -1.00000000 -0.00000000 -0.00000000
vn 1.00000000 -0.00000000 -0.00000000
vn 1.00000000 -0.00000000 -0.00000000
vn 0.97090000 -0.00000000 -0.23930000
vn 0.97090000 -0.00000000 -0.23930000
vn 0.88540000 -0.00000000 -0.46480000
vn 0.88550000 -0.00000000 -0.46470000
vn 0.74850000 -0.00000000 -0.66310000
vn 0.74850000 -0.00000000 -0.66310000
vn 0.56810000 -0.00000000 -0.82300000
vn 0.56810000 -0.00000000 -0.82300000
vn 0.35460000 -0.00000000 -0.93500000
vn 0.35460000 -0.00000000 -0.93500000
vn 0.12050000 -0.00000000 -0.99270000
vn 0.12060000 -0.00000000 -0.99270000
vn -0.12060000 -0.00000000 -0.99270000
vn -0.12060000 -0.00000000 -0.99270000
vn -0.35460000 -0.00000000 -0.93500000
vn -0.35460000 -0.00000000 -0.93500000
vn -0.56810000 -0.00000000 -0.82300000
vn -0.56810000 -0.00000000 -0.82300000
vn -0.74850000 -0.00000000 -0.66310000
vn -0.74850000 -0.00000000 -0.66310000
vn -0.88540000 -0.00000000 -0.46470000
vn -0.88540000 -0.00000000 -0.46480000
vn -0.97090000 -0.00000000 -0.23930000
vn -0.97090000 -0.00000000 -0.23930000
vn -1.00000000 -0.00000000 -0.00000000
vn -1.00000000 -0.00000000 -0.00000000
vn -0.00000000 1.00000000 -0.00000000
vn -0.00000000 1.00000000 -0.00000000
vn -0.00000000 1.00000000 -0.00000000
vn -0.00000000 1.00000000 -0.00000000
vn -0.00000000 1.00000000 -0.00000000
vn -0.00000000 1.00000000 -0.00000000
vn -0.00000000 1.00000000 -0.00000000
vn -0.00000000 1.00000000 -0.00000000
vn -0.00000000 1.00000000 -0.00000000
vn -0.00000000 1.00000000 -0.00000000
vn -0.00000000 1.00000000 -0.00000000
vn -0.00000000 1.00000000 -0.00000000
vn -0.00000000 1.00000000 -0.00000000
vn -0.00000000 1.00000000 -0.00000000
vn -0.00000000 1.00000000 -0.00000000
vn -0.00000000 1.00000000 -0.00000000
vn -0.00000000 1.00000000 -0.00000000
vn -0.00000000 1.00000000 -0.00000000
vn -0.00000000 1.00000000 -0.00000000
vn -0.00000000 1.00000000 -0.00000000
vn -0.00000000 1.00000000 -0.00000000
vn -0.00000000 1.00000000 -0.00000000
vn -0.00000000 1.00000000 -0.00000000
vn -0.00000000 1.00000000 -0.00000000
vn -0.00000000 1.00000000 -0.00000000
vn -0.00000000 1.00000000 -0.00000000
vn -0.00000000 1.00000000 -0.00000000
vn -0.00000000 1.00000000 -0.00000000
vn -0.00000000 -1.00000000 -0.00000000
vn -0.00000000 -1.00000000 -0.00000000
vn -0.00000000 -1.00000000 -0.00000000
vn -0.00000000 -1.00000000 -0.00000000
vn -0.00000000 -1.00000000 -0.00000000
vn -0.00000000 -1.00000000 -0.00000000
vn -0.00000000 -1.00000000 -0.00000000
vn -0.00000000 -1.00000000 -0.00000000
vn -0.00000000 -1.00000000 -0.00000000
vn -0.00000000 -1.00000000 -0.00000000
vn -0.00000000 -1.00000000 -0.00000000
vn -0.00000000 -1.00000000 -0.00000000
vn -0.00000000 -1.00000000 -0.00000000
vn -0.00000000 -1.00000000 -0.00000000
vn -0.00000000 -1.00000000 -0.00000000
vn -0.00000000 -1.00000000 -0.00000000
vn -0.00000000 -1.00000000 -0.00000000
vn -0.00000000 -1.00000000 -0.00000000
vn -0.00000000 -1.00000000 -0.00000000
vn -0.00000000 -1.00000000 -0.00000000
vn -0.00000000 -1.00000000 -0.00000000
vn -0.00000000 -1.00000000 -0.00000000
vn -0.00000000 -1.00000000 -0.00000000
vn -0.00000000 -1.00000000 -0.00000000
vn -0.00000000 -1.00000000 -0.00000000
vn -0.00000000 -1.00000000 -0.00000000
vn -0.00000000 -1.00000000 -0.00000000
vn -0.00000000 -1.00000000 -0.00000000
f 1//1 2//2 3//3
f 3//3 2//2 4//4
f 5//5 6//6 7//7
f 7//7 6//6 8//8
f 7//7 8//8 9//9
f 9//9 8//8 10//10
f 9//9 10//10 11//11
f 11//11 10//10 12//12
f 11//11 12//12 13//13
f 13//13 12//12 14//14
f 13//13 14//14 15//15
f 15//15 14//14 16//16
f 15//15 16//16 17//17
f 17//17 16//16 18//18
f 17//17 18//18 19//19
f 19//19 18//18 20//20
f 19//19 20//20 21//21
f 21//21 20//20 22//22
f 21//21 22//22 23//23
f 23//23 22//22 24//24
f 23//23 24//24 25//25
f 25//25 24//24 26//26
f 25//25 26//26 27//27
f 27//27 26//26 28//28
f 27//27 28//28 29//29
f 29//29 28//28 30//30
f 29//29 30//30 31//31
f 31//31 30//30 32//32
f 33//33 34//34 35//35
f 35//35 34//34 36//36
f 37//37 38//38 39//39
f 39//39 38//38 40//40
f 39//39 40//40 41//41
f 41//41 40//40 42//42
f 41//41 42//42 43//43
f 43//43 42//42 44//44
f 43//43 44//44 45//45
f 45//45 44//44 46//46
f 45//45 46//46 47//47
f 47//47 46//46 48//48
f 47//47 48//48 49//49
f 49//49 48//48 50//50
f 49//49 50//50 51//51
f 51//51 50//50 52//52
f 51//51 52//52 53//53
f 53//53 52//52 54//54
f 53//53 54//54 55//55
f 55//55 54//54 56//56
f 55//55 56//56 57//57
f 57//57 56//56 58//58
f 57//57 58//58 59//59
f 59//59 58//58 60//60
f 59//59 60//60 61//61
f 61//61 60//60 62//62
f 61//61 62//62 63//63
f 63//63 62//62 64//64
f 65//65 66//66 67//67
f 67//67 66//66 68//68
f 67//67 68//68 69//69
f 69//69 68//68 70//70
f 70//70 68//68 71//71
f 70//70 71//71 72//72
f 72//72 71//71 73//73
f 72//72 73//73 74//74
f 74//74 73//73 75//75
f 74//74 75//75 76//76
f 76//76 75//75 77//77
f 76//76 77//77 78//78
f 78//78 77//77 79//79
f 78//78 79//79 80//80
f 80//80 79//79 81//81
f 80//80 81//81 82//82
f 82//82 81//81 83//83
f 82//82 83//83 84//84
f 84//84 83//83 85//85
f 85//85 83//83 86//86
f 85//85 86//86 87//87
f 88//88 89//89 84//84
f 84//84 89//89 82//82
f 67//67 69//69 90//90
f 90//90 69//69 91//91
f 90//90 91//91 92//92
f 93//93 94//94 95//95
f 95//95 94//94 96//96
f 95//95 96//96 97//97
f 97//97 96//96 98//98
f 98//98 96//96 99//99
f 98//98 99//99 100//100
f 100//100 99//99 101//101
f 100//100 101//101 102//102
f 102//102 101//101 103//103
f 102//102 103//103 104//104
f 104//104 103//103 105//105
f 104//104 105//105 106//106
f 106//106 105//105 107//107
f 106//106 107//107 108//108
f 108//108 107//107 109//109
f 108//108 109//109 110//110
f 110//110 109//109 111//111
f 110//110 111//111 112//112
f 112//112 111//111 113//113
f 113//113 111//111 114//114
f 113//113 114//114 115//115
f 116//116 117//117 112//112
f 112//112 117//117 110//110
f 95//95 97//97 118//118
f 118//118 97//97 119//119
f 118//118 119//119 120//120
f 121//121 122//122 123//123
f 123//123 122//122 124//124
f 125//125 126//126 127//127
f 127//127 126//126 128//128
f 127//127 128//128 129//129
f 129//129 128//128 130//130
f 129//129 130//130 131//131
f 131//131 130//130 132//132
f 131//131 132//132 133//133
f 133//133 132//132 134//134
f 133//133 134//134 135//135
f 135//135 134//134 136//136
f 135//135 136//136 137//137
f 137//137 136//136 138//138
f 137//137 138//138 139//139
f 139//139 138//138 140//140
f 139//139 140//140 141//141
f 141//141 140//140 142//142
f 141//141 142//142 143//143
f 143//143 142//142 144//144
f 143//143 144//144 145//145
f 145//145 144//144 146//146
f 145//145 146//146 147//147
f 147//147 146//146 148//148
f 147//147 148//148 149//149
f 149//149 148//148 150//150
f 149//149 150//150 151//151
f 151//151 150//150 152//152
f 153//153 154//154 155//155
f 155//155 154//154 156//156
f 157//157 158//158 159//159
f 159//159 158//158 160//160
f 159//159 160//160 161//161
f 161//161 160//160 162//162
f 161//161 162//162 163//163
f 163//163 162//162 164//164
f 163//163 164//164 165//165
f 165//165 164//164 166//166
f 165//165 166//166 167//167
f 167//167 166//166 168//168
f 167//167 168//168 169//169
f 169//169 168//168 170//170
f 169//169 170//170 171//171
f 171//171 170//170 172//172
f 171//171 172//172 173//173
f 173//173 172//172 174//174
f 173//173 174//174 175//175
f 175//175 174//174 176//176
f 175//175 176//176 177//177
f 177//177 176//176 178//178
f 177//177 178//178 179//179
f 179//179 178//178 180//180
f 179//179 180//180 181//181
f 181//181 180//180 182//182
f 181//181 182//182 183//183
f 183//183 182//182 184//184
f 185//185 186//186 187//187
f 187//187 186//186 188//188
f 187//187 188//188 189//189
f 189//189 188//188 190//190
f 190//190 188//188 191//191
f 190//190 191//191 192//192
f 192//192 191//191 193//193
f 192//192 193//193 194//194
f 194//194 193//193 195//195
f 194//194 195//195 196//196
f 196//196 195//195 197//197
f 196//196 197//197 198//198
f 198//198 197//197 199//199
f 198//198 199//199 200//200
f 200//200 199//199 201//201
f 200//200 201//201 202//202
f 202//202 201//201 203//203
f 202//202 203//203 204//204
f 204//204 203//203 205//205
f 205//205 203//203 206//206
f 205//205 206//206 207//207
f 208//208 209//209 204//204
f 204//204 209//209 202//202
f 187//187 189//189 210//210
f 210//210 189//189 211//211
f 210//210 211//211 212//212
f 213//213 214//214 215//215
f 215//215 214//214 216//216
f 215//215 216//216 217//217
f 217//217 216//216 218//218
f 218//218 216//216 219//219
f 218//218 219//219 220//220
f 220//220 219//219 221//221
f 220//220 221//221 222//222
f 222//222 221//221 223//223
f 222//222 223//223 224//224
f 224//224 223//223 225//225
f 224//224 225//225 226//226
f 226//226 225//225 227//227
f 226//226 227//227 228//228
f 228//228 227//227 229//229
f 228//228 229//229 230//230
f 230//230 229//229 231//231
f 230//230 231//231 232//232
f 232//232 231//231 233//233
f 233//233 231//231 234//234
f 233//233 234//234 235//235
f 236//236 237//237 232//232
f 232//232 237//237 230//230
f 215//215 217//217 238//238
f 238//238 217//217 239//239
f 238//238 239//239 240//240