mtllib material.mtl
usemtl material_0
v -0.00049900 -0.03904700 0.06520000
v 0.00049900 -0.03904700 0.06520000
v -0.00454400 -0.03878500 0.06520000
v 0.00454400 -0.03878500 0.06520000
v -0.00854100 -0.03810400 0.06520000
v 0.00854100 -0.03810400 0.06520000
v -0.01244600 -0.03701300 0.06520000
v 0.01244600 -0.03701300 0.06520000
v -0.01621700 -0.03552400 0.06520000
v 0.01621600 -0.03552400 0.06520000
v -0.01981200 -0.03365100 0.06520000
v 0.01981200 -0.03365100 0.06520000
v -0.02319400 -0.03141500 0.06520000
v 0.02319400 -0.03141500 0.06520000
v -0.02632700 -0.02884100 0.06520000
v 0.02632700 -0.02884100 0.06520000
v -0.02917500 -0.02595600 0.06520000
v 0.02917500 -0.02595600 0.06520000
v -0.03170900 -0.02279100 0.06520000
v 0.03170900 -0.02279100 0.06520000
v -0.03390100 -0.01938100 0.06520000
v 0.03390100 -0.01938100 0.06520000
v -0.03572800 -0.01576100 0.06520000
v 0.03572800 -0.01576100 0.06520000
v -0.03716900 -0.01197200 0.06520000
v 0.03716900 -0.01197200 0.06520000
v -0.03821000 -0.00805400 0.06520000
v 0.03821000 -0.00805400 0.06520000
v -0.03884000 -0.00404900 0.06520000
v 0.03883900 -0.00404900 0.06520000
v -0.03905000 0.00000000 0.06520000
v 0.03905000 0.00000000 0.06520000
v -0.03884000 0.00404900 0.06520000
v 0.03883900 0.00404900 0.06520000
v -0.03821000 0.00805400 0.06520000
v 0.03821000 0.00805400 0.06520000
v -0.03716900 0.01197200 0.06520000
v 0.03716900 0.01197200 0.06520000
v -0.03572800 0.01576100 0.06520000
v 0.03572800 0.01576100 0.06520000
v -0.03390100 0.01938100 0.06520000
v 0.03390100 0.01938100 0.06520000
v -0.03170900 0.02279100 0.06520000
v 0.03170900 0.02279100 0.06520000
v -0.02917500 0.02595600 0.06520000
v 0.02917500 0.02595600 0.06520000
v -0.02632700 0.02884100 0.06520000
v 0.02632700 0.02884100 0.06520000
v -0.02319400 0.03141500 0.06520000
v 0.02319400 0.03141500 0.06520000
v -0.01981200 0.03365100 0.06520000
v 0.01981200 0.03365100 0.06520000
v -0.01621700 0.03552400 0.06520000
v 0.01621600 0.03552400 0.06520000
v -0.01244600 0.03701300 0.06520000
v 0.01244600 0.03701400 0.06520000
v -0.00854100 0.03810400 0.06520000
v 0.00854100 0.03810400 0.06520000
v -0.00454400 0.03878500 0.06520000
v 0.00454400 0.03878500 0.06520000
v -0.00049900 0.03904700 0.06520000
v 0.00049900 0.03904700 0.06520000
v 0.00050000 0.03924700 0.06500000
v 0.00050000 0.03924700 0.05500000
v 0.00050000 0.03922000 0.06510000
v 0.00050000 0.03922000 0.05490000
v 0.00050000 0.03914700 0.05482700
v 0.00050000 0.03914700 0.06517300
v 0.00050000 0.03904700 0.05480000
v 0.00050000 0.03904700 0.06520000
v 0.00050000 -0.03924700 0.06500000
v 0.00050000 -0.03924700 0.05500000
v 0.00456600 -0.03898300 0.06500000
v 0.00456600 -0.03898300 0.05500000
v 0.00858400 -0.03830000 0.06500000
v 0.00858400 -0.03830000 0.05500000
v 0.01250900 -0.03720300 0.06500000
v 0.01250900 -0.03720300 0.05500000
v 0.01629900 -0.03570600 0.06500000
v 0.01629900 -0.03570600 0.05500000
v 0.01991300 -0.03382400 0.06500000
v 0.01991300 -0.03382400 0.05500000
v 0.02331300 -0.03157700 0.06500000
v 0.02331300 -0.03157700 0.05500000
v 0.02646100 -0.02898900 0.06500000
v 0.02646100 -0.02898900 0.05500000
v 0.02932400 -0.02608900 0.06500000
v 0.02932400 -0.02608900 0.05500000
v 0.03187100 -0.02290800 0.06500000
v 0.03187100 -0.02290800 0.05500000
v 0.03407400 -0.01948000 0.06500000
v 0.03407400 -0.01948000 0.05500000
v 0.03591100 -0.01584200 0.06500000
v 0.03591100 -0.01584200 0.05500000
v 0.03736000 -0.01203400 0.06500000
v 0.03736000 -0.01203400 0.05500000
v 0.03840600 -0.00809500 0.06500000
v 0.03840600 -0.00809500 0.05500000
v 0.03903800 -0.00407000 0.06500000
v 0.03903800 -0.00407000 0.05500000
v 0.03925000 0.00000000 0.06500000
v 0.03925000 0.00000000 0.05500000
v 0.03903800 0.00407000 0.06500000
v 0.03903800 0.00407000 0.05500000
v 0.03840600 0.00809500 0.06500000
v 0.03840600 0.00809500 0.05500000
v 0.03736000 0.01203400 0.06500000
v 0.03736000 0.01203400 0.05500000
v 0.03591100 0.01584200 0.06500000
v 0.03591100 0.01584200 0.05500000
v 0.03407400 0.01948000 0.06500000
v 0.03407400 0.01948000 0.05500000
v 0.03187100 0.02290800 0.06500000
v 0.03187100 0.02290800 0.05500000
v 0.02932400 0.02608900 0.06500000
v 0.02932400 0.02608900 0.05500000
v 0.02646100 0.02898900 0.06500000
v 0.02646100 0.02898900 0.05500000
v 0.02331300 0.03157700 0.06500000
v 0.02331300 0.03157700 0.05500000
v 0.01991300 0.03382400 0.06500000
v 0.01991300 0.03382400 0.05500000
v 0.01629900 0.03570600 0.06500000
v 0.01629900 0.03570600 0.05500000
v 0.01250900 0.03720300 0.06500000
v 0.01250900 0.03720300 0.05500000
v 0.00858400 0.03830000 0.06500000
v 0.00858400 0.03830000 0.05500000
v 0.00456600 0.03898300 0.06500000
v 0.00456600 0.03898300 0.05500000
v 0.00050000 0.03924700 0.06500000
v 0.00050000 0.03924700 0.05500000
v 0.00050000 -0.03904700 0.05480000
v 0.00050000 -0.03914700 0.05482700
v 0.00050000 -0.03904700 0.06520000
v 0.00050000 -0.03914700 0.06517300
v 0.00050000 -0.03922000 0.05490000
v 0.00050000 -0.03922000 0.06510000
v 0.00050000 -0.03924700 0.06500000
v 0.00050000 -0.03924700 0.05500000
v 0.00050000 -0.03904700 0.05480000
v 0.00050000 -0.03904700 0.06520000
v 0.00049900 -0.03904700 0.05480000
v 0.00049900 -0.03904700 0.06520000
v -0.00049900 -0.03904700 0.05480000
v -0.00049900 -0.03904700 0.06520000
v -0.00050000 -0.03904700 0.05480000
v -0.00050000 -0.03904700 0.06520000
v -0.00050000 -0.03924700 0.06500000
v -0.00050000 -0.03924700 0.05500000
v -0.00050000 -0.03922000 0.06510000
v -0.00050000 -0.03922000 0.05490000
v -0.00050000 -0.03914700 0.05482700
v -0.00050000 -0.03914700 0.06517300
v -0.00050000 -0.03904700 0.05480000
v -0.00050000 -0.03904700 0.06520000
v -0.00050000 0.03924700 0.06500000
v -0.00050000 0.03924700 0.05500000
v -0.00456700 0.03898300 0.06500000
v -0.00456700 0.03898300 0.05500000
v -0.00858400 0.03830000 0.06500000
v -0.00858400 0.03830000 0.05500000
v -0.01250900 0.03720300 0.06500000
v -0.01250900 0.03720300 0.05500000
v -0.01629900 0.03570600 0.06500000
v -0.01629900 0.03570600 0.05500000
v -0.01991300 0.03382400 0.06500000
v -0.01991300 0.03382400 0.05500000
v -0.02331300 0.03157700 0.06500000
v -0.02331300 0.03157700 0.05500000
v -0.02646100 0.02898900 0.06500000
v -0.02646100 0.02898900 0.05500000
v -0.02932400 0.02608900 0.06500000
v -0.02932400 0.02608900 0.05500000
v -0.03187100 0.02290800 0.06500000
v -0.03187100 0.02290800 0.05500000
v -0.03407500 0.01948000 0.06500000
v -0.03407500 0.01948000 0.05500000
v -0.03591100 0.01584200 0.06500000
v -0.03591100 0.01584200 0.05500000
v -0.03736000 0.01203400 0.06500000
v -0.03736000 0.01203400 0.05500000
v -0.03840600 0.00809500 0.06500000
v -0.03840600 0.00809500 0.05500000
v -0.03903800 0.00407000 0.06500000
v -0.03903800 0.00407000 0.05500000
v -0.03925000 0.00000000 0.06500000
v -0.03925000 0.00000000 0.05500000
v -0.03903800 -0.00407000 0.06500000
v -0.03903800 -0.00407000 0.05500000
v -0.03840600 -0.00809500 0.06500000
v -0.03840600 -0.00809500 0.05500000
v -0.03736000 -0.01203400 0.06500000
v -0.03736000 -0.01203400 0.05500000
v -0.03591100 -0.01584200 0.06500000
v -0.03591100 -0.01584200 0.05500000
v -0.03407500 -0.01948000 0.06500000
v -0.03407500 -0.01948000 0.05500000
v -0.03187100 -0.02290800 0.06500000
v -0.03187100 -0.02290800 0.05500000
v -0.02932400 -0.02608900 0.06500000
v -0.02932400 -0.02608900 0.05500000
v -0.02646100 -0.02898900 0.06500000
v -0.02646100 -0.02898900 0.05500000
v -0.02331300 -0.03157700 0.06500000
v -0.02331300 -0.03157700 0.05500000
v -0.01991300 -0.03382400 0.06500000
v -0.01991300 -0.03382400 0.05500000
v -0.01629900 -0.03570600 0.06500000
v -0.01629900 -0.03570600 0.05500000
v -0.01250900 -0.03720300 0.06500000
v -0.01250900 -0.03720300 0.05500000
v -0.00858400 -0.03830000 0.06500000
v -0.00858400 -0.03830000 0.05500000
v -0.00456700 -0.03898300 0.06500000
v -0.00456700 -0.03898300 0.05500000
v -0.00050000 -0.03924700 0.06500000
v -0.00050000 -0.03924700 0.05500000
v -0.00050000 0.03904700 0.05480000
v -0.00050000 0.03914700 0.05482700
v -0.00050000 0.03904700 0.06520000
v -0.00050000 0.03914700 0.06517300
v -0.00050000 0.03922000 0.05490000
v -0.00050000 0.03922000 0.06510000
v -0.00050000 0.03924700 0.06500000
v -0.00050000 0.03924700 0.05500000
v -0.00050000 0.03904700 0.05480000
v -0.00049900 0.03904700 0.06520000
v -0.00049900 0.03904700 0.05480000
v 0.00049900 0.03904700 0.06520000
v 0.00049900 0.03904700 0.05480000
v 0.00050000 0.03904700 0.06520000
v 0.00050000 0.03904700 0.05480000
v -0.00050000 0.03904700 0.06520000
v 0.00049900 -0.03904700 0.05480000
v -0.00049900 -0.03904700 0.05480000
v 0.00454400 -0.03878500 0.05480000
v -0.00454400 -0.03878500 0.05480000
v 0.00854100 -0.03810400 0.05480000
v -0.00854100 -0.03810400 0.05480000
v 0.01244600 -0.03701300 0.05480000
v -0.01244600 -0.03701300 0.05480000
v 0.01621600 -0.03552400 0.05480000
v -0.01621700 -0.03552400 0.05480000
v 0.01981200 -0.03365100 0.05480000
v -0.01981200 -0.03365100 0.05480000
v 0.02319400 -0.03141500 0.05480000
v -0.02319400 -0.03141500 0.05480000
v 0.02632700 -0.02884100 0.05480000
v -0.02632700 -0.02884100 0.05480000
v 0.02917500 -0.02595600 0.05480000
v -0.02917500 -0.02595600 0.05480000
v 0.03170900 -0.02279100 0.05480000
v -0.03170900 -0.02279100 0.05480000
v 0.03390100 -0.01938100 0.05480000
v -0.03390100 -0.01938100 0.05480000
v 0.03572800 -0.01576100 0.05480000
v -0.03572800 -0.01576100 0.05480000
v 0.03716900 -0.01197200 0.05480000
v -0.03716900 -0.01197200 0.05480000
v 0.03821000 -0.00805400 0.05480000
v -0.03821000 -0.00805400 0.05480000
v 0.03883900 -0.00404900 0.05480000
v -0.03884000 -0.00404900 0.05480000
v 0.03905000 0.00000000 0.05480000
v -0.03905000 0.00000000 0.05480000
v 0.03883900 0.00404900 0.05480000
v -0.03884000 0.00404900 0.05480000
v 0.03821000 0.00805400 0.05480000
v -0.03821000 0.00805400 0.05480000
v 0.03716900 0.01197200 0.05480000
v -0.03716900 0.01197200 0.05480000
v 0.03572800 0.01576100 0.05480000
v -0.03572800 0.01576100 0.05480000
v 0.03390100 0.01938100 0.05480000
v -0.03390100 0.01938100 0.05480000
v 0.03170900 0.02279100 0.05480000
v -0.03170900 0.02279100 0.05480000
v 0.02917500 0.02595600 0.05480000
v -0.02917500 0.02595600 0.05480000
v 0.02632700 0.02884100 0.05480000
v -0.02632700 0.02884100 0.05480000
v 0.02319400 0.03141500 0.05480000
v -0.02319400 0.03141500 0.05480000
v 0.01981200 0.03365100 0.05480000
v -0.01981200 0.03365100 0.05480000
v 0.01621600 0.03552400 0.05480000
v -0.01621700 0.03552400 0.05480000
v 0.01244600 0.03701400 0.05480000
v -0.01244600 0.03701300 0.05480000
v 0.00854100 0.03810400 0.05480000
v -0.00854100 0.03810400 0.05480000
v 0.00454400 0.03878500 0.05480000
v -0.00454400 0.03878500 0.05480000
v 0.00049900 0.03904700 0.05480000
v -0.00049900 0.03904700 0.05480000
v 0.00049900 0.03904700 0.06520000
v 0.00454400 0.03878500 0.06520000
v 0.00454400 0.03878500 0.06520000
v 0.00050000 0.03904700 0.06520000
v 0.00050000 0.03904700 0.06520000
v 0.00455600 0.03888400 0.06517300
v 0.00050000 0.03914700 0.06517300
v 0.00456400 0.03895700 0.06510000
v 0.00050000 0.03922000 0.06510000
v 0.00456600 0.03898300 0.06500000
v 0.00050000 0.03924700 0.06500000
v 0.00856300 0.03820200 0.06517300
v 0.00854100 0.03810400 0.06520000
v 0.01247700 0.03710800 0.06517300
v 0.01244600 0.03701400 0.06520000
v 0.01625800 0.03561500 0.06517300
v 0.01621600 0.03552400 0.06520000
v 0.01986300 0.03373700 0.06517300
v 0.01981200 0.03365100 0.06520000
v 0.02325400 0.03149600 0.06517300
v 0.02319400 0.03141500 0.06520000
v 0.02639400 0.02891500 0.06517300
v 0.02632700 0.02884100 0.06520000
v 0.02925000 0.02602300 0.06517300
v 0.02917500 0.02595600 0.06520000
v 0.03179000 0.02285000 0.06517300
v 0.03170900 0.02279100 0.06520000
v 0.03398800 0.01943100 0.06517300
v 0.03390100 0.01938100 0.06520000
v 0.03581900 0.01580200 0.06517300
v 0.03572800 0.01576100 0.06520000
v 0.03726500 0.01200300 0.06517300
v 0.03716900 0.01197200 0.06520000
v 0.03830800 0.00807500 0.06517300
v 0.03821000 0.00805400 0.06520000
v 0.03893900 0.00405900 0.06517300
v 0.03883900 0.00404900 0.06520000
v 0.03915000 0.00000000 0.06517300
v 0.03905000 0.00000000 0.06520000
v 0.03883900 -0.00404900 0.06520000
v 0.03893900 -0.00405900 0.06517300
v 0.03821000 -0.00805400 0.06520000
v 0.03830800 -0.00807500 0.06517300
v 0.03716900 -0.01197200 0.06520000
v 0.03726500 -0.01200300 0.06517300
v 0.03572800 -0.01576100 0.06520000
v 0.03581900 -0.01580200 0.06517300
v 0.03390100 -0.01938100 0.06520000
v 0.03398800 -0.01943100 0.06517300
v 0.03170900 -0.02279100 0.06520000
v 0.03179000 -0.02285000 0.06517300
v 0.02917500 -0.02595600 0.06520000
v 0.02925000 -0.02602300 0.06517300
v 0.02632700 -0.02884100 0.06520000
v 0.02639400 -0.02891500 0.06517300
v 0.02319400 -0.03141500 0.06520000
v 0.02325400 -0.03149600 0.06517300
v 0.01981200 -0.03365100 0.06520000
v 0.01986300 -0.03373700 0.06517300
v 0.01621600 -0.03552400 0.06520000
v 0.01625800 -0.03561500 0.06517300
v 0.01244600 -0.03701300 0.06520000
v 0.01247700 -0.03710800 0.06517300
v 0.00854100 -0.03810400 0.06520000
v 0.00856300 -0.03820200 0.06517300
v 0.00454400 -0.03878500 0.06520000
v 0.00454400 -0.03878500 0.06520000
v 0.00455600 -0.03888400 0.06517300
v 0.00050000 -0.03904700 0.06520000
v 0.00050000 -0.03904700 0.06520000
v 0.00050000 -0.03914700 0.06517300
v 0.00049900 -0.03904700 0.06520000
v 0.00456400 -0.03895700 0.06510000
v 0.00050000 -0.03922000 0.06510000
v 0.00456600 -0.03898300 0.06500000
v 0.00050000 -0.03924700 0.06500000
v 0.00858400 -0.03830000 0.06500000
v 0.00857800 -0.03827400 0.06510000
v 0.01250900 -0.03720300 0.06500000
v 0.01250000 -0.03717800 0.06510000
v 0.01629900 -0.03570600 0.06500000
v 0.01628800 -0.03568100 0.06510000
v 0.01991300 -0.03382400 0.06500000
v 0.01990000 -0.03380000 0.06510000
v 0.02331300 -0.03157700 0.06500000
v 0.02329700 -0.03155500 0.06510000
v 0.02646100 -0.02898900 0.06500000
v 0.02644300 -0.02896900 0.06510000
v 0.02932400 -0.02608900 0.06500000
v 0.02930400 -0.02607100 0.06510000
v 0.03187100 -0.02290800 0.06500000
v 0.03184900 -0.02289300 0.06510000
v 0.03407400 -0.01948000 0.06500000
v 0.03405100 -0.01946700 0.06510000
v 0.03591100 -0.01584200 0.06500000
v 0.03588600 -0.01583200 0.06510000
v 0.03736000 -0.01203400 0.06500000
v 0.03733400 -0.01202500 0.06510000
v 0.03840600 -0.00809500 0.06500000
v 0.03838000 -0.00809000 0.06510000
v 0.03903800 -0.00407000 0.06500000
v 0.03901200 -0.00406700 0.06510000
v 0.03925000 0.00000000 0.06500000
v 0.03922300 0.00000000 0.06510000
v 0.03901200 0.00406700 0.06510000
v 0.03903800 0.00407000 0.06500000
v 0.03838000 0.00809000 0.06510000
v 0.03840600 0.00809500 0.06500000
v 0.03733400 0.01202500 0.06510000
v 0.03736000 0.01203400 0.06500000
v 0.03588600 0.01583200 0.06510000
v 0.03591100 0.01584200 0.06500000
v 0.03405100 0.01946700 0.06510000
v 0.03407400 0.01948000 0.06500000
v 0.03184900 0.02289300 0.06510000
v 0.03187100 0.02290800 0.06500000
v 0.02930400 0.02607200 0.06510000
v 0.02932400 0.02608900 0.06500000
v 0.02644300 0.02896900 0.06510000
v 0.02646100 0.02898900 0.06500000
v 0.02329700 0.03155500 0.06510000
v 0.02331300 0.03157700 0.06500000
v 0.01990000 0.03380000 0.06510000
v 0.01991300 0.03382400 0.06500000
v 0.01628800 0.03568100 0.06510000
v 0.01629900 0.03570600 0.06500000
v 0.01250000 0.03717800 0.06510000
v 0.01250900 0.03720300 0.06500000
v 0.00857800 0.03827400 0.06510000
v 0.00858400 0.03830000 0.06500000
v -0.00049900 -0.03904700 0.06520000
v -0.00454400 -0.03878500 0.06520000
v -0.00454400 -0.03878500 0.06520000
v -0.00050000 -0.03904700 0.06520000
v -0.00050000 -0.03904700 0.06520000
v -0.00455600 -0.03888400 0.06517300
v -0.00050000 -0.03914700 0.06517300
v -0.00456400 -0.03895700 0.06510000
v -0.00050000 -0.03922000 0.06510000
v -0.00456700 -0.03898300 0.06500000
v -0.00050000 -0.03924700 0.06500000
v -0.00856300 -0.03820200 0.06517300
v -0.00854100 -0.03810400 0.06520000
v -0.01247800 -0.03710800 0.06517300
v -0.01244600 -0.03701300 0.06520000
v -0.01625800 -0.03561500 0.06517300
v -0.01621700 -0.03552400 0.06520000
v -0.01986300 -0.03373700 0.06517300
v -0.01981200 -0.03365100 0.06520000
v -0.02325400 -0.03149600 0.06517300
v -0.02319400 -0.03141500 0.06520000
v -0.02639400 -0.02891500 0.06517300
v -0.02632700 -0.02884100 0.06520000
v -0.02925000 -0.02602300 0.06517300
v -0.02917500 -0.02595600 0.06520000
v -0.03179000 -0.02285000 0.06517300
v -0.03170900 -0.02279100 0.06520000
v -0.03398800 -0.01943100 0.06517300
v -0.03390100 -0.01938100 0.06520000
v -0.03581900 -0.01580200 0.06517300
v -0.03572800 -0.01576100 0.06520000
v -0.03726500 -0.01200300 0.06517300
v -0.03716900 -0.01197200 0.06520000
v -0.03830800 -0.00807500 0.06517300
v -0.03821000 -0.00805400 0.06520000
v -0.03893900 -0.00405900 0.06517300
v -0.03884000 -0.00404900 0.06520000
v -0.03915000 0.00000000 0.06517300
v -0.03905000 0.00000000 0.06520000
v -0.03884000 0.00404900 0.06520000
v -0.03893900 0.00405900 0.06517300
v -0.03821000 0.00805400 0.06520000
v -0.03830800 0.00807500 0.06517300
v -0.03716900 0.01197200 0.06520000
v -0.03726500 0.01200300 0.06517300
v -0.03572800 0.01576100 0.06520000
v -0.03581900 0.01580200 0.06517300
v -0.03390100 0.01938100 0.06520000
v -0.03398800 0.01943100 0.06517300
v -0.03170900 0.02279100 0.06520000
v -0.03179000 0.02285000 0.06517300
v -0.02917500 0.02595600 0.06520000
v -0.02925000 0.02602300 0.06517300
v -0.02632700 0.02884100 0.06520000
v -0.02639400 0.02891500 0.06517300
v -0.02319400 0.03141500 0.06520000
v -0.02325400 0.03149600 0.06517300
v -0.01981200 0.03365100 0.06520000
v -0.01986300 0.03373700 0.06517300
v -0.01621700 0.03552400 0.06520000
v -0.01625800 0.03561500 0.06517300
v -0.01244600 0.03701300 0.06520000
v -0.01247800 0.03710800 0.06517300
v -0.00854100 0.03810400 0.06520000
v -0.00856300 0.03820200 0.06517300
v -0.00454400 0.03878500 0.06520000
v -0.00454400 0.03878500 0.06520000
v -0.00455600 0.03888400 0.06517300
v -0.00050000 0.03904700 0.06520000
v -0.00050000 0.03904700 0.06520000
v -0.00050000 0.03914700 0.06517300
v -0.00049900 0.03904700 0.06520000
v -0.00456400 0.03895700 0.06510000
v -0.00050000 0.03922000 0.06510000
v -0.00456700 0.03898300 0.06500000
v -0.00050000 0.03924700 0.06500000
v -0.00858400 0.03830000 0.06500000
v -0.00857800 0.03827400 0.06510000
v -0.01250900 0.03720300 0.06500000
v -0.01250100 0.03717800 0.06510000
v -0.01629900 0.03570600 0.06500000
v -0.01628800 0.03568100 0.06510000
v -0.01991300 0.03382400 0.06500000
v -0.01990000 0.03380000 0.06510000
v -0.02331300 0.03157700 0.06500000
v -0.02329700 0.03155500 0.06510000
v -0.02646100 0.02898900 0.06500000
v -0.02644300 0.02896900 0.06510000
v -0.02932400 0.02608900 0.06500000
v -0.02930400 0.02607200 0.06510000
v -0.03187100 0.02290800 0.06500000
v -0.03184900 0.02289300 0.06510000
v -0.03407500 0.01948000 0.06500000
v -0.03405100 0.01946700 0.06510000
v -0.03591100 0.01584200 0.06500000
v -0.03588600 0.01583200 0.06510000
v -0.03736000 0.01203400 0.06500000
v -0.03733400 0.01202500 0.06510000
v -0.03840600 0.00809500 0.06500000
v -0.03838000 0.00809000 0.06510000
v -0.03903800 0.00407000 0.06500000
v -0.03901200 0.00406700 0.06510000
v -0.03925000 0.00000000 0.06500000
v -0.03922300 0.00000000 0.06510000
v -0.03901200 -0.00406700 0.06510000
v -0.03903800 -0.00407000 0.06500000
v -0.03838000 -0.00809000 0.06510000
v -0.03840600 -0.00809500 0.06500000
v -0.03733400 -0.01202500 0.06510000
v -0.03736000 -0.01203400 0.06500000
v -0.03588600 -0.01583200 0.06510000
v -0.03591100 -0.01584200 0.06500000
v -0.03405100 -0.01946700 0.06510000
v -0.03407500 -0.01948000 0.06500000
v -0.03184900 -0.02289300 0.06510000
v -0.03187100 -0.02290800 0.06500000
v -0.02930400 -0.02607200 0.06510000
v -0.02932400 -0.02608900 0.06500000
v -0.02644300 -0.02896900 0.06510000
v -0.02646100 -0.02898900 0.06500000
v -0.02329700 -0.03155500 0.06510000
v -0.02331300 -0.03157700 0.06500000
v -0.01990000 -0.03380000 0.06510000
v -0.01991300 -0.03382400 0.06500000
v -0.01628800 -0.03568100 0.06510000
v -0.01629900 -0.03570600 0.06500000
v -0.01250100 -0.03717800 0.06510000
v -0.01250900 -0.03720300 0.06500000
v -0.00857800 -0.03827400 0.06510000
v -0.00858400 -0.03830000 0.06500000
v -0.00050000 -0.03914700 0.05482700
v -0.00455600 -0.03888400 0.05482700
v -0.00050000 -0.03904700 0.05480000
v -0.00050000 -0.03904700 0.05480000
v -0.00454400 -0.03878500 0.05480000
v -0.00049900 -0.03904700 0.05480000
v -0.00456400 -0.03895700 0.05490000
v -0.00050000 -0.03922000 0.05490000
v -0.00456700 -0.03898300 0.05500000
v -0.00050000 -0.03924700 0.05500000
v -0.00858400 -0.03830000 0.05500000
v -0.00857800 -0.03827400 0.05490000
v -0.00856300 -0.03820200 0.05482700
v -0.00854100 -0.03810400 0.05480000
v -0.01247800 -0.03710800 0.05482700
v -0.01244600 -0.03701300 0.05480000
v -0.01625800 -0.03561500 0.05482700
v -0.01621700 -0.03552400 0.05480000
v -0.01986300 -0.03373700 0.05482700
v -0.01981200 -0.03365100 0.05480000
v -0.02325400 -0.03149600 0.05482700
v -0.02319400 -0.03141500 0.05480000
v -0.02639400 -0.02891500 0.05482700
v -0.02632700 -0.02884100 0.05480000
v -0.02925000 -0.02602300 0.05482700
v -0.02917500 -0.02595600 0.05480000
v -0.03179000 -0.02285000 0.05482700
v -0.03170900 -0.02279100 0.05480000
v -0.03398800 -0.01943100 0.05482700
v -0.03390100 -0.01938100 0.05480000
v -0.03581900 -0.01580200 0.05482700
v -0.03572800 -0.01576100 0.05480000
v -0.03726500 -0.01200300 0.05482700
v -0.03716900 -0.01197200 0.05480000
v -0.03830800 -0.00807500 0.05482700
v -0.03821000 -0.00805400 0.05480000
v -0.03893900 -0.00405900 0.05482700
v -0.03884000 -0.00404900 0.05480000
v -0.03915000 0.00000000 0.05482700
v -0.03905000 0.00000000 0.05480000
v -0.03884000 0.00404900 0.05480000
v -0.03893900 0.00405900 0.05482700
v -0.03821000 0.00805400 0.05480000
v -0.03830800 0.00807500 0.05482700
v -0.03716900 0.01197200 0.05480000
v -0.03726500 0.01200300 0.05482700
v -0.03572800 0.01576100 0.05480000
v -0.03581900 0.01580200 0.05482700
v -0.03390100 0.01938100 0.05480000
v -0.03398800 0.01943100 0.05482700
v -0.03170900 0.02279100 0.05480000
v -0.03179000 0.02285000 0.05482700
v -0.02917500 0.02595600 0.05480000
v -0.02925000 0.02602300 0.05482700
v -0.02632700 0.02884100 0.05480000
v -0.02639400 0.02891500 0.05482700
v -0.02319400 0.03141500 0.05480000
v -0.02325400 0.03149600 0.05482700
v -0.01981200 0.03365100 0.05480000
v -0.01986300 0.03373700 0.05482700
v -0.01621700 0.03552400 0.05480000
v -0.01625800 0.03561500 0.05482700
v -0.01244600 0.03701300 0.05480000
v -0.01247800 0.03710800 0.05482700
v -0.00854100 0.03810400 0.05480000
v -0.00856300 0.03820200 0.05482700
v -0.00454400 0.03878500 0.05480000
v -0.00455600 0.03888400 0.05482700
v -0.00050000 0.03904700 0.05480000
v -0.00050000 0.03904700 0.05480000
v -0.00050000 0.03914700 0.05482700
v -0.00456400 0.03895700 0.05490000
v -0.00050000 0.03922000 0.05490000
v -0.00456700 0.03898300 0.05500000
v -0.00050000 0.03924700 0.05500000
v -0.01250900 -0.03720300 0.05500000
v -0.01250100 -0.03717800 0.05490000
v -0.01629900 -0.03570600 0.05500000
v -0.01628800 -0.03568100 0.05490000
v -0.01991300 -0.03382400 0.05500000
v -0.01990000 -0.03380000 0.05490000
v -0.02331300 -0.03157700 0.05500000
v -0.02329700 -0.03155500 0.05490000
v -0.02646100 -0.02898900 0.05500000
v -0.02644300 -0.02896900 0.05490000
v -0.02932400 -0.02608900 0.05500000
v -0.02930400 -0.02607200 0.05490000
v -0.03187100 -0.02290800 0.05500000
v -0.03184900 -0.02289300 0.05490000
v -0.03407500 -0.01948000 0.05500000
v -0.03405100 -0.01946700 0.05490000
v -0.03591100 -0.01584200 0.05500000
v -0.03588600 -0.01583200 0.05490000
v -0.03736000 -0.01203400 0.05500000
v -0.03733400 -0.01202500 0.05490000
v -0.03840600 -0.00809500 0.05500000
v -0.03838000 -0.00809000 0.05490000
v -0.03903800 -0.00407000 0.05500000
v -0.03901200 -0.00406700 0.05490000
v -0.03925000 0.00000000 0.05500000
v -0.03922300 0.00000000 0.05490000
v -0.03901200 0.00406700 0.05490000
v -0.03903800 0.00407000 0.05500000
v -0.03838000 0.00809000 0.05490000
v -0.03840600 0.00809500 0.05500000
v -0.03733400 0.01202500 0.05490000
v -0.03736000 0.01203400 0.05500000
v -0.03588600 0.01583200 0.05490000
v -0.03591100 0.01584200 0.05500000
v -0.03405100 0.01946700 0.05490000
v -0.03407500 0.01948000 0.05500000
v -0.03184900 0.02289300 0.05490000
v -0.03187100 0.02290800 0.05500000
v -0.02930400 0.02607200 0.05490000
v -0.02932400 0.02608900 0.05500000
v -0.02644300 0.02896900 0.05490000
v -0.02646100 0.02898900 0.05500000
v -0.02329700 0.03155500 0.05490000
v -0.02331300 0.03157700 0.05500000
v -0.01990000 0.03380000 0.05490000
v -0.01991300 0.03382400 0.05500000
v -0.01628800 0.03568100 0.05490000
v -0.01629900 0.03570600 0.05500000
v -0.01250100 0.03717800 0.05490000
v -0.01250900 0.03720300 0.05500000
v -0.00857800 0.03827400 0.05490000
v -0.00858400 0.03830000 0.05500000
v -0.00049900 0.03904700 0.05480000
v 0.00050000 0.03914700 0.05482700
v 0.00455600 0.03888400 0.05482700
v 0.00050000 0.03904700 0.05480000
v 0.00454400 0.03878500 0.05480000
v 0.00049900 0.03904700 0.05480000
v 0.00456400 0.03895700 0.05490000
v 0.00050000 0.03922000 0.05490000
v 0.00456600 0.03898300 0.05500000
v 0.00050000 0.03924700 0.05500000
v 0.00858400 0.03830000 0.05500000
v 0.00857800 0.03827400 0.05490000
v 0.00856300 0.03820200 0.05482700
v 0.00854100 0.03810400 0.05480000
v 0.01247700 0.03710800 0.05482700
v 0.01244600 0.03701400 0.05480000
v 0.01625800 0.03561500 0.05482700
v 0.01621600 0.03552400 0.05480000
v 0.01986300 0.03373700 0.05482700
v 0.01981200 0.03365100 0.05480000
v 0.02325400 0.03149600 0.05482700
v 0.02319400 0.03141500 0.05480000
v 0.02639400 0.02891500 0.05482700
v 0.02632700 0.02884100 0.05480000
v 0.02925000 0.02602300 0.05482700
v 0.02917500 0.02595600 0.05480000
v 0.03179000 0.02285000 0.05482700
v 0.03170900 0.02279100 0.05480000
v 0.03398800 0.01943100 0.05482700
v 0.03390100 0.01938100 0.05480000
v 0.03581900 0.01580200 0.05482700
v 0.03572800 0.01576100 0.05480000
v 0.03726500 0.01200300 0.05482700
v 0.03716900 0.01197200 0.05480000
v 0.03830800 0.00807500 0.05482700
v 0.03821000 0.00805400 0.05480000
v 0.03893900 0.00405900 0.05482700
v 0.03883900 0.00404900 0.05480000
v 0.03915000 0.00000000 0.05482700
v 0.03905000 0.00000000 0.05480000
v 0.03883900 -0.00404900 0.05480000
v 0.03893900 -0.00405900 0.05482700
v 0.03821000 -0.00805400 0.05480000
v 0.03830800 -0.00807500 0.05482700
v 0.03716900 -0.01197200 0.05480000
v 0.03726500 -0.01200300 0.05482700
v 0.03572800 -0.01576100 0.05480000
v 0.03581900 -0.01580200 0.05482700
v 0.03390100 -0.01938100 0.05480000
v 0.03398800 -0.01943100 0.05482700
v 0.03170900 -0.02279100 0.05480000
v 0.03179000 -0.02285000 0.05482700
v 0.02917500 -0.02595600 0.05480000
v 0.02925000 -0.02602300 0.05482700
v 0.02632700 -0.02884100 0.05480000
v 0.02639400 -0.02891500 0.05482700
v 0.02319400 -0.03141500 0.05480000
v 0.02325400 -0.03149600 0.05482700
v 0.01981200 -0.03365100 0.05480000
v 0.01986300 -0.03373700 0.05482700
v 0.01621600 -0.03552400 0.05480000
v 0.01625800 -0.03561500 0.05482700
v 0.01244600 -0.03701300 0.05480000
v 0.01247700 -0.03710800 0.05482700
v 0.00854100 -0.03810400 0.05480000
v 0.00856300 -0.03820200 0.05482700
v 0.00454400 -0.03878500 0.05480000
v 0.00454400 -0.03878500 0.05480000
v 0.00455600 -0.03888400 0.05482700
v 0.00050000 -0.03904700 0.05480000
v 0.00050000 -0.03904700 0.05480000
v 0.00050000 -0.03914700 0.05482700
v 0.00456400 -0.03895700 0.05490000
v 0.00050000 -0.03922000 0.05490000
v 0.00456600 -0.03898300 0.05500000
v 0.00050000 -0.03924700 0.05500000
v 0.01250900 0.03720300 0.05500000
v 0.01250000 0.03717800 0.05490000
v 0.01629900 0.03570600 0.05500000
v 0.01628800 0.03568100 0.05490000
v 0.01991300 0.03382400 0.05500000
v 0.01990000 0.03380000 0.05490000
v 0.02331300 0.03157700 0.05500000
v 0.02329700 0.03155500 0.05490000
v 0.02646100 0.02898900 0.05500000
v 0.02644300 0.02896900 0.05490000
v 0.02932400 0.02608900 0.05500000
v 0.02930400 0.02607200 0.05490000
v 0.03187100 0.02290800 0.05500000
v 0.03184900 0.02289300 0.05490000
v 0.03407400 0.01948000 0.05500000
v 0.03405100 0.01946700 0.05490000
v 0.03591100 0.01584200 0.05500000
v 0.03588600 0.01583200 0.05490000
v 0.03736000 0.01203400 0.05500000
v 0.03733400 0.01202500 0.05490000
v 0.03840600 0.00809500 0.05500000
v 0.03838000 0.00809000 0.05490000
v 0.03903800 0.00407000 0.05500000
v 0.03901200 0.00406700 0.05490000
v 0.03925000 0.00000000 0.05500000
v 0.03922300 0.00000000 0.05490000
v 0.03901200 -0.00406700 0.05490000
v 0.03903800 -0.00407000 0.05500000
v 0.03838000 -0.00809000 0.05490000
v 0.03840600 -0.00809500 0.05500000
v 0.03733400 -0.01202500 0.05490000
v 0.03736000 -0.01203400 0.05500000
v 0.03588600 -0.01583200 0.05490000
v 0.03591100 -0.01584200 0.05500000
v 0.03405100 -0.01946700 0.05490000
v 0.03407400 -0.01948000 0.05500000
v 0.03184900 -0.02289300 0.05490000
v 0.03187100 -0.02290800 0.05500000
v 0.02930400 -0.02607100 0.05490000
v 0.02932400 -0.02608900 0.05500000
v 0.02644300 -0.02896900 0.05490000
v 0.02646100 -0.02898900 0.05500000
v 0.02329700 -0.03155500 0.05490000
v 0.02331300 -0.03157700 0.05500000
v 0.01990000 -0.03380000 0.05490000
v 0.01991300 -0.03382400 0.05500000
v 0.01628800 -0.03568100 0.05490000
v 0.01629900 -0.03570600 0.05500000
v 0.01250000 -0.03717800 0.05490000
v 0.01250900 -0.03720300 0.05500000
v 0.00857800 -0.03827400 0.05490000
v 0.00858400 -0.03830000 0.05500000
v 0.00049900 -0.03904700 0.05480000
vn -0.00000000 -0.00000000 1.00000000
vn -0.00000000 -0.00000000 1.00000000
vn -0.00000000 -0.00000000 1.00000000
vn -0.00000000 -0.00000000 1.00000000
vn -0.00000000 -0.00000000 1.00000000
vn -0.00000000 -0.00000000 1.00000000
vn -0.00000000 -0.00000000 1.00000000
vn -0.00000000 -0.00000000 1.00000000
vn -0.00000000 -0.00000000 1.00000000
vn -0.00000000 -0.00000000 1.00000000
vn -0.00000000 -0.00000000 1.00000000
vn -0.00000000 -0.00000000 1.00000000
vn -0.00000000 -0.00000000 1.00000000
vn -0.00000000 -0.00000000 1.00000000
vn -0.00000000 -0.00000000 1.00000000
vn -0.00000000 -0.00000000 1.00000000
vn -0.00000000 -0.00000000 1.00000000
vn -0.00000000 -0.00000000 1.00000000
vn -0.00000000 -0.00000000 1.00000000
vn -0.00000000 -0.00000000 1.00000000
vn -0.00000000 -0.00000000 1.00000000
vn -0.00000000 -0.00000000 1.00000000
vn -0.00000000 -0.00000000 1.00000000
vn -0.00000000 -0.00000000 1.00000000
vn -0.00000000 -0.00000000 1.00000000
vn -0.00000000 -0.00000000 1.00000000
vn -0.00000000 -0.00000000 1.00000000
vn -0.00000000 -0.00000000 1.00000000
vn -0.00000000 -0.00000000 1.00000000
vn -0.00000000 -0.00000000 1.00000000
vn -0.00000000 -0.00000000 1.00000000
vn -0.00000000 -0.00000000 1.00000000
vn -0.00000000 -0.00000000 1.00000000
vn -0.00000000 -0.00000000 1.00000000
vn -0.00000000 -0.00000000 1.00000000
vn -0.00000000 -0.00000000 1.00000000
vn -0.00000000 -0.00000000 1.00000000
vn -0.00000000 -0.00000000 1.00000000
vn -0.00000000 -0.00000000 1.00000000
vn -0.00000000 -0.00000000 1.00000000
vn -0.00000000 -0.00000000 1.00000000
vn -0.00000000 -0.00000000 1.00000000
vn -0.00000000 -0.00000000 1.00000000
vn -0.00000000 -0.00000000 1.00000000
vn -0.00000000 -0.00000000 1.00000000
vn -0.00000000 -0.00000000 1.00000000
vn -0.00000000 -0.00000000 1.00000000
vn -0.00000000 -0.00000000 1.00000000
vn -0.00000000 -0.00000000 1.00000000
vn -0.00000000 -0.00000000 1.00000000
vn -0.00000000 -0.00000000 1.00000000
vn -0.00000000 -0.00000000 1.00000000
vn -0.00000000 -0.00000000 1.00000000
vn -0.00000000 -0.00000000 1.00000000
vn -0.00000000 -0.00000000 1.00000000
vn -0.00000000 -0.00000000 1.00000000
vn -0.00000000 -0.00000000 1.00000000
vn -0.00000000 -0.00000000 1.00000000
vn -0.00000000 -0.00000000 1.00000000
vn -0.00000000 -0.00000000 1.00000000
vn -0.00000000 -0.00000000 1.00000000
vn -0.00000000 -0.00000000 1.00000000
vn -1.00000000 -0.00000000 -0.00000000
vn -1.00000000 -0.00000000 -0.00000000
vn -1.00000000 -0.00000000 -0.00000000
vn -1.00000000 -0.00000000 -0.00000000
vn -1.00000000 -0.00000000 -0.00000000
vn -1.00000000 -0.00000000 -0.00000000
vn -1.00000000 -0.00000000 -0.00000000
vn -1.00000000 -0.00000000 -0.00000000
vn 0.01280000 -0.99990000 -0.00000000
vn 0.01280000 -0.99990000 -0.00000000
vn 0.11630000 -0.99320000 -0.00000000
vn 0.11630000 -0.99320000 -0.00000000
vn 0.21870000 -0.97580000 -0.00000000
vn 0.21870000 -0.97580000 -0.00000000
vn 0.31870000 -0.94790000 -0.00000000
vn 0.31870000 -0.94790000 -0.00000000
vn 0.41530000 -0.90970000 -0.00000000
vn 0.41530000 -0.90970000 -0.00000000
vn 0.50730000 -0.86170000 -0.00000000
vn 0.50730000 -0.86170000 -0.00000000
vn 0.59390000 -0.80450000 -0.00000000
vn 0.59390000 -0.80450000 -0.00000000
vn 0.67420000 -0.73860000 -0.00000000
vn 0.67420000 -0.73860000 -0.00000000
vn 0.74710000 -0.66470000 -0.00000000
vn 0.74710000 -0.66470000 -0.00000000
vn 0.81200000 -0.58370000 -0.00000000
vn 0.81200000 -0.58370000 -0.00000000
vn 0.86810000 -0.49630000 -0.00000000
vn 0.86810000 -0.49630000 -0.00000000
vn 0.91490000 -0.40360000 -0.00000000
vn 0.91490000 -0.40360000 -0.00000000
vn 0.95180000 -0.30660000 -0.00000000
vn 0.95180000 -0.30660000 -0.00000000
vn 0.97850000 -0.20620000 -0.00000000
vn 0.97850000 -0.20620000 -0.00000000
vn 0.99460000 -0.10370000 -0.00000000
vn 0.99460000 -0.10370000 -0.00000000
vn 1.00000000 -0.00000000 -0.00000000
vn 1.00000000 -0.00000000 -0.00000000
vn 0.99460000 0.10370000 -0.00000000
vn 0.99460000 0.10370000 -0.00000000
vn 0.97850000 0.20630000 -0.00000000
vn 0.97850000 0.20620000 -0.00000000
vn 0.95180000 0.30660000 -0.00000000
vn 0.95180000 0.30660000 -0.00000000
vn 0.91490000 0.40360000 -0.00000000
vn 0.91490000 0.40360000 -0.00000000
vn 0.86810000 0.49630000 -0.00000000
vn 0.86810000 0.49630000 -0.00000000
vn 0.81200000 0.58370000 -0.00000000
vn 0.81200000 0.58370000 -0.00000000
vn 0.74710000 0.66470000 -0.00000000
vn 0.74710000 0.66470000 -0.00000000
vn 0.67420000 0.73860000 -0.00000000
vn 0.67420000 0.73860000 -0.00000000
vn 0.59390000 0.80450000 -0.00000000
vn 0.59390000 0.80450000 -0.00000000
vn 0.50730000 0.86170000 -0.00000000
vn 0.50730000 0.86170000 -0.00000000
vn 0.41530000 0.90970000 -0.00000000
vn 0.41530000 0.90970000 -0.00000000
vn 0.31870000 0.94790000 -0.00000000
vn 0.31870000 0.94790000 -0.00000000
vn 0.21870000 0.97580000 -0.00000000
vn 0.21870000 0.97580000 -0.00000000
vn 0.11630000 0.99320000 -0.00000000
vn 0.11630000 0.99320000 -0.00000000
vn 0.01280000 0.99990000 -0.00000000
vn 0.01280000 0.99990000 -0.00000000
vn -1.00000000 -0.00000000 -0.00000000
vn -1.00000000 -0.00000000 -0.00000000
vn -1.00000000 -0.00000000 -0.00000000
vn -1.00000000 -0.00000000 -0.00000000
vn -1.00000000 -0.00000000 -0.00000000
vn -1.00000000 -0.00000000 -0.00000000
vn -1.00000000 -0.00000000 -0.00000000
vn -1.00000000 -0.00000000 -0.00000000
vn -0.00000000 -1.00000000 -0.00000000
vn -0.00000000 -1.00000000 -0.00000000
vn -0.00000000 -1.00000000 -0.00000000
vn -0.00000000 -1.00000000 -0.00000000
vn -0.00000000 -1.00000000 -0.00000000
vn -0.00000000 -1.00000000 -0.00000000
vn -0.00000000 -1.00000000 -0.00000000
vn -0.00000000 -1.00000000 -0.00000000
vn 1.00000000 -0.00000000 -0.00000000
vn 1.00000000 -0.00000000 -0.00000000
vn 1.00000000 -0.00000000 -0.00000000
vn 1.00000000 -0.00000000 -0.00000000
vn 1.00000000 -0.00000000 -0.00000000
vn 1.00000000 -0.00000000 -0.00000000
vn 1.00000000 -0.00000000 -0.00000000
vn 1.00000000 -0.00000000 -0.00000000
vn -0.01280000 0.99990000 -0.00000000
vn -0.01280000 0.99990000 -0.00000000
vn -0.11630000 0.99320000 -0.00000000
vn -0.11630000 0.99320000 -0.00000000
vn -0.21870000 0.97580000 -0.00000000
vn -0.21870000 0.97580000 -0.00000000
vn -0.31870000 0.94790000 -0.00000000
vn -0.31870000 0.94790000 -0.00000000
vn -0.41530000 0.90970000 -0.00000000
vn -0.41530000 0.90970000 -0.00000000
vn -0.50730000 0.86170000 -0.00000000
vn -0.50730000 0.86170000 -0.00000000
vn -0.59390000 0.80450000 -0.00000000
vn -0.59390000 0.80450000 -0.00000000
vn -0.67420000 0.73860000 -0.00000000
vn -0.67420000 0.73860000 -0.00000000
vn -0.74710000 0.66470000 -0.00000000
vn -0.74710000 0.66470000 -0.00000000
vn -0.81200000 0.58370000 -0.00000000
vn -0.81200000 0.58370000 -0.00000000
vn -0.86810000 0.49630000 -0.00000000
vn -0.86810000 0.49630000 -0.00000000
vn -0.91490000 0.40360000 -0.00000000
vn -0.91490000 0.40360000 -0.00000000
vn -0.95180000 0.30660000 -0.00000000
vn -0.95180000 0.30660000 -0.00000000
vn -0.97850000 0.20620000 -0.00000000
vn -0.97850000 0.20620000 -0.00000000
vn -0.99460000 0.10370000 -0.00000000
vn -0.99460000 0.10370000 -0.00000000
vn -1.00000000 -0.00000000 -0.00000000
vn -1.00000000 -0.00000000 -0.00000000
vn -0.99460000 -0.10370000 -0.00000000
vn -0.99460000 -0.10370000 -0.00000000
vn -0.97850000 -0.20620000 -0.00000000
vn -0.97850000 -0.20620000 -0.00000000
vn -0.95180000 -0.30660000 -0.00000000
vn -0.95180000 -0.30660000 -0.00000000
vn -0.91490000 -0.40360000 -0.00000000
vn -0.91490000 -0.40360000 -0.00000000
vn -0.86810000 -0.49630000 -0.00000000
vn -0.86810000 -0.49630000 -0.00000000
vn -0.81200000 -0.58370000 -0.00000000
vn -0.81200000 -0.58370000 -0.00000000
vn -0.74710000 -0.66470000 -0.00000000
vn -0.74710000 -0.66470000 -0.00000000
vn -0.67420000 -0.73860000 -0.00000000
vn -0.67420000 -0.73860000 -0.00000000
vn -0.59390000 -0.80450000 -0.00000000
vn -0.59390000 -0.80450000 -0.00000000
vn -0.50730000 -0.86170000 -0.00000000
vn -0.50730000 -0.86170000 -0.00000000
vn -0.41530000 -0.90970000 -0.00000000
vn -0.41530000 -0.90970000 -0.00000000
vn -0.31870000 -0.94790000 -0.00000000
vn -0.31870000 -0.94790000 -0.00000000
vn -0.21870000 -0.97580000 -0.00000000
vn -0.21870000 -0.97580000 -0.00000000
vn -0.11630000 -0.99320000 -0.00000000
vn -0.11630000 -0.99320000 -0.00000000
vn -0.01280000 -0.99990000 -0.00000000
vn -0.01280000 -0.99990000 -0.00000000
vn 1.00000000 -0.00000000 -0.00000000
vn 1.00000000 -0.00000000 -0.00000000
vn 1.00000000 -0.00000000 -0.00000000
vn 1.00000000 -0.00000000 -0.00000000
vn 1.00000000 -0.00000000 -0.00000000
vn 1.00000000 -0.00000000 -0.00000000
vn 1.00000000 -0.00000000 -0.00000000
vn 1.00000000 -0.00000000 -0.00000000
vn -0.00000000 1.00000000 -0.00000000
vn -0.00000000 1.00000000 -0.00000000
vn -0.00000000 1.00000000 -0.00000000
vn -0.00000000 1.00000000 -0.00000000
vn -0.00000000 1.00000000 -0.00000000
vn -0.00000000 1.00000000 -0.00000000
vn -0.00000000 1.00000000 -0.00000000
vn -0.00000000 1.00000000 -0.00000000
vn -0.00000000 -0.00000000 -1.00000000
vn -0.00000000 -0.00000000 -1.00000000
vn -0.00000000 -0.00000000 -1.00000000
vn -0.00000000 -0.00000000 -1.00000000
vn -0.00000000 -0.00000000 -1.00000000
vn -0.00000000 -0.00000000 -1.00000000
vn -0.00000000 -0.00000000 -1.00000000
vn -0.00000000 -0.00000000 -1.00000000
vn -0.00000000 -0.00000000 -1.00000000
vn -0.00000000 -0.00000000 -1.00000000
vn -0.00000000 -0.00000000 -1.00000000
vn -0.00000000 -0.00000000 -1.00000000
vn -0.00000000 -0.00000000 -1.00000000
vn -0.00000000 -0.00000000 -1.00000000
vn -0.00000000 -0.00000000 -1.00000000
vn -0.00000000 -0.00000000 -1.00000000
vn -0.00000000 -0.00000000 -1.00000000
vn -0.00000000 -0.00000000 -1.00000000
vn -0.00000000 -0.00000000 -1.00000000
vn -0.00000000 -0.00000000 -1.00000000
vn -0.00000000 -0.00000000 -1.00000000
vn -0.00000000 -0.00000000 -1.00000000
vn -0.00000000 -0.00000000 -1.00000000
vn -0.00000000 -0.00000000 -1.00000000
vn -0.00000000 -0.00000000 -1.00000000
vn -0.00000000 -0.00000000 -1.00000000
vn -0.00000000 -0.00000000 -1.00000000
vn -0.00000000 -0.00000000 -1.00000000
vn -0.00000000 -0.00000000 -1.00000000
vn -0.00000000 -0.00000000 -1.00000000
vn -0.00000000 -0.00000000 -1.00000000
vn -0.00000000 -0.00000000 -1.00000000
vn -0.00000000 -0.00000000 -1.00000000
vn -0.00000000 -0.00000000 -1.00000000
vn -0.00000000 -0.00000000 -1.00000000
vn -0.00000000 -0.00000000 -1.00000000
vn -0.00000000 -0.00000000 -1.00000000
vn -0.00000000 -0.00000000 -1.00000000
vn -0.00000000 -0.00000000 -1.00000000
vn -0.00000000 -0.00000000 -1.00000000
vn -0.00000000 -0.00000000 -1.00000000
vn -0.00000000 -0.00000000 -1.00000000
vn -0.00000000 -0.00000000 -1.00000000
vn -0.00000000 -0.00000000 -1.00000000
vn -0.00000000 -0.00000000 -1.00000000
vn -0.00000000 -0.00000000 -1.00000000
vn -0.00000000 -0.00000000 -1.00000000
vn -0.00000000 -0.00000000 -1.00000000
vn -0.00000000 -0.00000000 -1.00000000
vn -0.00000000 -0.00000000 -1.00000000
vn -0.00000000 -0.00000000 -1.00000000
vn -0.00000000 -0.00000000 -1.00000000
vn -0.00000000 -0.00000000 -1.00000000
vn -0.00000000 -0.00000000 -1.00000000
vn -0.00000000 -0.00000000 -1.00000000
vn -0.00000000 -0.00000000 -1.00000000
vn -0.00000000 -0.00000000 -1.00000000
vn -0.00000000 -0.00000000 -1.00000000
vn -0.00000000 -0.00000000 -1.00000000
vn -0.00000000 -0.00000000 -1.00000000
vn -0.00000000 -0.00000000 -1.00000000
vn -0.00000000 -0.00000000 -1.00000000
vn -0.00000000 -0.00000000 1.00000000
vn -0.00000000 0.00030000 1.00000000
vn -0.00000000 -0.00000000 1.00000000
vn -0.00000000 0.00040000 1.00000000
vn -0.00000000 -0.00000000 1.00000000
vn 0.05820000 0.49680000 0.86590000
vn 0.00640000 0.50010000 0.86590000
vn 0.10080000 0.86020000 0.50000000
vn 0.01110000 0.86600000 0.50000000
vn 0.11630000 0.99320000 0.00010000
vn 0.01280000 0.99990000 0.00020000
vn 0.10940000 0.48800000 0.86590000
vn 0.00010000 0.00030000 1.00000000
vn 0.15940000 0.47410000 0.86590000
vn 0.00010000 0.00030000 1.00000000
vn 0.20770000 0.45500000 0.86590000
vn 0.00010000 0.00020000 1.00000000
vn 0.25380000 0.43100000 0.86590000
vn 0.00020000 0.00030000 1.00000000
vn 0.29710000 0.40240000 0.86590000
vn 0.00020000 0.00030000 1.00000000
vn 0.33720000 0.36940000 0.86590000
vn 0.00020000 0.00020000 1.00000000
vn 0.37370000 0.33250000 0.86590000
vn 0.00020000 0.00020000 1.00000000
vn 0.40620000 0.29190000 0.86590000
vn 0.00030000 0.00020000 1.00000000
vn 0.43420000 0.24830000 0.86590000
vn 0.00020000 0.00010000 1.00000000
vn 0.45760000 0.20190000 0.86590000
vn 0.00030000 0.00010000 1.00000000
vn 0.47610000 0.15340000 0.86590000
vn 0.00030000 0.00010000 1.00000000
vn 0.48940000 0.10320000 0.86590000
vn 0.00030000 0.00010000 1.00000000
vn 0.49750000 0.05190000 0.86590000
vn 0.00030000 -0.00000000 1.00000000
vn 0.50010000 -0.00000000 0.86590000
vn 0.00040000 -0.00000000 1.00000000
vn 0.00030000 -0.00000000 1.00000000
vn 0.49750000 -0.05190000 0.86590000
vn 0.00030000 -0.00010000 1.00000000
vn 0.48940000 -0.10320000 0.86590000
vn 0.00020000 -0.00010000 1.00000000
vn 0.47600000 -0.15330000 0.86590000
vn 0.00030000 -0.00010000 1.00000000
vn 0.45760000 -0.20190000 0.86590000
vn 0.00030000 -0.00020000 1.00000000
vn 0.43420000 -0.24820000 0.86590000
vn 0.00030000 -0.00020000 1.00000000
vn 0.40610000 -0.29190000 0.86590000
vn 0.00020000 -0.00020000 1.00000000
vn 0.37370000 -0.33250000 0.86590000
vn 0.00020000 -0.00020000 1.00000000
vn 0.33720000 -0.36940000 0.86590000
vn 0.00020000 -0.00030000 1.00000000
vn 0.29710000 -0.40240000 0.86590000
vn 0.00020000 -0.00030000 1.00000000
vn 0.25380000 -0.43100000 0.86590000
vn 0.00010000 -0.00030000 1.00000000
vn 0.20770000 -0.45500000 0.86590000
vn 0.00010000 -0.00030000 1.00000000
vn 0.15940000 -0.47410000 0.86590000
vn 0.00010000 -0.00030000 1.00000000
vn 0.10940000 -0.48810000 0.86590000
vn -0.00000000 -0.00000000 1.00000000
vn -0.00000000 -0.00030000 1.00000000
vn 0.05820000 -0.49680000 0.86590000
vn -0.00000000 -0.00000000 1.00000000
vn -0.00000000 -0.00030000 1.00000000
vn 0.00640000 -0.50010000 0.86590000
vn -0.00000000 -0.00000000 1.00000000
vn 0.10080000 -0.86020000 0.50000000
vn 0.01110000 -0.86600000 0.50000000
vn 0.11630000 -0.99320000 0.00010000
vn 0.01270000 -0.99990000 0.00010000
vn 0.21870000 -0.97580000 0.00020000
vn 0.18940000 -0.84510000 0.50000000
vn 0.31870000 -0.94790000 0.00020000
vn 0.27600000 -0.82090000 0.50000000
vn 0.41530000 -0.90970000 0.00010000
vn 0.35960000 -0.78790000 0.49990000
vn 0.50730000 -0.86170000 0.00010000
vn 0.43940000 -0.74630000 0.50000000
vn 0.59400000 -0.80450000 0.00020000
vn 0.51440000 -0.69670000 0.50000000
vn 0.67420000 -0.73860000 0.00010000
vn 0.58380000 -0.63960000 0.50000000
vn 0.74710000 -0.66470000 0.00020000
vn 0.64700000 -0.57570000 0.50000000
vn 0.81200000 -0.58370000 0.00020000
vn 0.70320000 -0.50550000 0.50000000
vn 0.86810000 -0.49630000 0.00010000
vn 0.75180000 -0.42980000 0.50000000
vn 0.91490000 -0.40360000 0.00020000
vn 0.79240000 -0.34960000 0.49990000
vn 0.95180000 -0.30660000 0.00020000
vn 0.82430000 -0.26550000 0.50000000
vn 0.97850000 -0.20620000 0.00010000
vn 0.84740000 -0.17860000 0.50000000
vn 0.99460000 -0.10370000 0.00010000
vn 0.86140000 -0.08980000 0.50000000
vn 1.00000000 -0.00000000 0.00010000
vn 0.86600000 -0.00000000 0.50000000
vn 0.86140000 0.08980000 0.50000000
vn 0.99460000 0.10370000 0.00020000
vn 0.84740000 0.17860000 0.50000000
vn 0.97850000 0.20620000 0.00020000
vn 0.82430000 0.26550000 0.50010000
vn 0.95180000 0.30660000 0.00020000
vn 0.79240000 0.34950000 0.50000000
vn 0.91490000 0.40360000 0.00020000
vn 0.75180000 0.42980000 0.50000000
vn 0.86810000 0.49630000 0.00010000
vn 0.70320000 0.50550000 0.49990000
vn 0.81200000 0.58370000 0.00020000
vn 0.64700000 0.57570000 0.50000000
vn 0.74710000 0.66470000 0.00010000
vn 0.58380000 0.63960000 0.50000000
vn 0.67410000 0.73860000 0.00020000
vn 0.51440000 0.69670000 0.49990000
vn 0.59390000 0.80450000 0.00010000
vn 0.43940000 0.74630000 0.49990000
vn 0.50730000 0.86180000 0.00010000
vn 0.35960000 0.78790000 0.49990000
vn 0.41530000 0.90970000 0.00020000
vn 0.27600000 0.82090000 0.50000000
vn 0.31870000 0.94790000 0.00010000
vn 0.18940000 0.84510000 0.50000000
vn 0.21870000 0.97580000 0.00020000
vn -0.00000000 -0.00000000 1.00000000
vn -0.00000000 -0.00030000 1.00000000
vn -0.00000000 -0.00000000 1.00000000
vn -0.00000000 -0.00000000 1.00000000
vn -0.00000000 -0.00040000 1.00000000
vn -0.05820000 -0.49680000 0.86590000
vn -0.00640000 -0.50010000 0.86590000
vn -0.10080000 -0.86010000 0.50000000
vn -0.01110000 -0.86590000 0.50000000
vn -0.11630000 -0.99320000 -0.00000000
vn -0.01270000 -0.99990000 0.00020000
vn -0.10940000 -0.48810000 0.86590000
vn -0.00000000 -0.00030000 1.00000000
vn -0.15940000 -0.47410000 0.86590000
vn -0.00010000 -0.00030000 1.00000000
vn -0.20770000 -0.45500000 0.86590000
vn -0.00010000 -0.00020000 1.00000000
vn -0.25370000 -0.43100000 0.86590000
vn -0.00020000 -0.00030000 1.00000000
vn -0.29710000 -0.40240000 0.86590000
vn -0.00020000 -0.00020000 1.00000000
vn -0.33720000 -0.36940000 0.86590000
vn -0.00020000 -0.00020000 1.00000000
vn -0.37370000 -0.33250000 0.86590000
vn -0.00020000 -0.00020000 1.00000000
vn -0.40620000 -0.29190000 0.86590000
vn -0.00030000 -0.00020000 1.00000000
vn -0.43420000 -0.24820000 0.86590000
vn -0.00030000 -0.00010000 1.00000000
vn -0.45760000 -0.20190000 0.86590000
vn -0.00030000 -0.00010000 1.00000000
vn -0.47610000 -0.15330000 0.86590000
vn -0.00030000 -0.00010000 1.00000000
vn -0.48940000 -0.10320000 0.86590000
vn -0.00030000 -0.00010000 1.00000000
vn -0.49750000 -0.05190000 0.86590000
vn -0.00030000 -0.00000000 1.00000000
vn -0.50020000 -0.00000000 0.86590000
vn -0.00030000 -0.00000000 1.00000000
vn -0.00030000 -0.00000000 1.00000000
vn -0.49740000 0.05190000 0.86590000
vn -0.00030000 0.00010000 1.00000000
vn -0.48940000 0.10320000 0.86590000
vn -0.00030000 0.00010000 1.00000000
vn -0.47610000 0.15330000 0.86590000
vn -0.00020000 0.00010000 1.00000000
vn -0.45760000 0.20190000 0.86590000
vn -0.00020000 0.00010000 1.00000000
vn -0.43420000 0.24820000 0.86590000
vn -0.00030000 0.00020000 1.00000000
vn -0.40620000 0.29190000 0.86590000
vn -0.00020000 0.00020000 1.00000000
vn -0.37370000 0.33250000 0.86590000
vn -0.00030000 0.00020000 1.00000000
vn -0.33720000 0.36940000 0.86590000
vn -0.00020000 0.00020000 1.00000000
vn -0.29710000 0.40240000 0.86590000
vn -0.00020000 0.00020000 1.00000000
vn -0.25380000 0.43100000 0.86590000
vn -0.00010000 0.00020000 1.00000000
vn -0.20770000 0.45500000 0.86590000
vn -0.00010000 0.00030000 1.00000000
vn -0.15940000 0.47410000 0.86590000
vn -0.00010000 0.00030000 1.00000000
vn -0.10940000 0.48810000 0.86590000
vn -0.00000000 -0.00000000 1.00000000
vn -0.00000000 0.00030000 1.00000000
vn -0.05820000 0.49680000 0.86590000
vn -0.00000000 0.00040000 1.00000000
vn -0.00000000 -0.00000000 1.00000000
vn -0.00640000 0.50010000 0.86590000
vn -0.00000000 -0.00000000 1.00000000
vn -0.10080000 0.86020000 0.49990000
vn -0.01110000 0.86600000 0.50000000
vn -0.11630000 0.99320000 0.00010000
vn -0.01270000 0.99990000 0.00020000
vn -0.21870000 0.97580000 0.00010000
vn -0.18940000 0.84510000 0.50000000
vn -0.31870000 0.94790000 0.00020000
vn -0.27600000 0.82080000 0.50000000
vn -0.41530000 0.90970000 -0.00000000
vn -0.35970000 0.78790000 0.49990000
vn -0.50730000 0.86170000 0.00010000
vn -0.43940000 0.74630000 0.50000000
vn -0.59390000 0.80450000 0.00020000
vn -0.51440000 0.69670000 0.50000000
vn -0.67420000 0.73860000 0.00020000
vn -0.58380000 0.63970000 0.50000000
vn -0.74710000 0.66470000 0.00010000
vn -0.64700000 0.57570000 0.50000000
vn -0.81200000 0.58370000 0.00020000
vn -0.70320000 0.50550000 0.50000000
vn -0.86810000 0.49630000 0.00010000
vn -0.75180000 0.42980000 0.50000000
vn -0.91490000 0.40360000 0.00020000
vn -0.79240000 0.34960000 0.49990000
vn -0.95180000 0.30660000 0.00020000
vn -0.82430000 0.26550000 0.50000000
vn -0.97850000 0.20620000 0.00010000
vn -0.84740000 0.17860000 0.50000000
vn -0.99460000 0.10370000 0.00020000
vn -0.86140000 0.08980000 0.50000000
vn -1.00000000 -0.00000000 0.00020000
vn -0.86600000 -0.00000000 0.50000000
vn -0.86140000 -0.08980000 0.50000000
vn -0.99460000 -0.10370000 0.00020000
vn -0.84740000 -0.17860000 0.50000000
vn -0.97850000 -0.20620000 0.00010000
vn -0.82430000 -0.26550000 0.50000000
vn -0.95180000 -0.30660000 0.00020000
vn -0.79240000 -0.34960000 0.50000000
vn -0.91490000 -0.40360000 0.00020000
vn -0.75190000 -0.42980000 0.50000000
vn -0.86810000 -0.49630000 0.00010000
vn -0.70320000 -0.50550000 0.50000000
vn -0.81200000 -0.58370000 0.00020000
vn -0.64700000 -0.57560000 0.50000000
vn -0.74710000 -0.66470000 0.00010000
vn -0.58390000 -0.63960000 0.50000000
vn -0.67420000 -0.73860000 0.00020000
vn -0.51440000 -0.69670000 0.50000000
vn -0.59390000 -0.80450000 0.00010000
vn -0.43940000 -0.74630000 0.49990000
vn -0.50730000 -0.86180000 0.00020000
vn -0.35960000 -0.78790000 0.49990000
vn -0.41530000 -0.90970000 0.00010000
vn -0.27600000 -0.82090000 0.50000000
vn -0.31870000 -0.94790000 0.00010000
vn -0.18940000 -0.84510000 0.50000000
vn -0.21870000 -0.97580000 0.00020000
vn -0.00640000 -0.49990000 -0.86610000
vn -0.05820000 -0.49660000 -0.86600000
vn -0.00000000 -0.00010000 -1.00000000
vn -0.00000000 -0.00000000 -1.00000000
vn -0.00000000 -0.00000000 -1.00000000
vn -0.00000000 -0.00000000 -1.00000000
vn -0.10080000 -0.86020000 -0.49990000
vn -0.01110000 -0.86600000 -0.50000000
vn -0.11630000 -0.99320000 0.00010000
vn -0.01280000 -0.99990000 -0.00000000
vn -0.21870000 -0.97580000 -0.00000000
vn -0.18940000 -0.84510000 -0.50000000
vn -0.10930000 -0.48780000 -0.86610000
vn -0.00000000 -0.00000000 -1.00000000
vn -0.15930000 -0.47390000 -0.86600000
vn -0.00000000 -0.00010000 -1.00000000
vn -0.20760000 -0.45480000 -0.86600000
vn -0.00000000 -0.00000000 -1.00000000
vn -0.25370000 -0.43090000 -0.86600000
vn -0.00000000 -0.00000000 -1.00000000
vn -0.29690000 -0.40220000 -0.86610000
vn -0.00000000 -0.00000000 -1.00000000
vn -0.33710000 -0.36920000 -0.86610000
vn -0.00000000 -0.00000000 -1.00000000
vn -0.37350000 -0.33230000 -0.86610000
vn -0.00000000 -0.00000000 -1.00000000
vn -0.40600000 -0.29180000 -0.86600000
vn -0.00010000 -0.00000000 -1.00000000
vn -0.43400000 -0.24810000 -0.86610000
vn -0.00000000 -0.00000000 -1.00000000
vn -0.45740000 -0.20180000 -0.86600000
vn -0.00000000 -0.00000000 -1.00000000
vn -0.47590000 -0.15330000 -0.86600000
vn -0.00010000 -0.00000000 -1.00000000
vn -0.48920000 -0.10310000 -0.86600000
vn -0.00000000 -0.00000000 -1.00000000
vn -0.49720000 -0.05180000 -0.86610000
vn -0.00000000 -0.00000000 -1.00000000
vn -0.50000000 -0.00000000 -0.86600000
vn -0.00000000 -0.00000000 -1.00000000
vn -0.00000000 -0.00000000 -1.00000000
vn -0.49730000 0.05180000 -0.86600000
vn -0.00000000 -0.00000000 -1.00000000
vn -0.48920000 0.10310000 -0.86600000
vn -0.00000000 -0.00000000 -1.00000000
vn -0.47590000 0.15330000 -0.86610000
vn -0.00010000 -0.00000000 -1.00000000
vn -0.45740000 0.20180000 -0.86600000
vn -0.00000000 -0.00000000 -1.00000000
vn -0.43410000 0.24810000 -0.86600000
vn -0.00010000 -0.00000000 -1.00000000
vn -0.40600000 0.29180000 -0.86600000
vn -0.00000000 -0.00000000 -1.00000000
vn -0.37360000 0.33230000 -0.86600000
vn -0.00010000 -0.00000000 -1.00000000
vn -0.33710000 0.36930000 -0.86600000
vn -0.00000000 -0.00000000 -1.00000000
vn -0.29700000 0.40220000 -0.86600000
vn -0.00000000 -0.00000000 -1.00000000
vn -0.25370000 0.43080000 -0.86600000
vn -0.00000000 -0.00000000 -1.00000000
vn -0.20770000 0.45480000 -0.86600000
vn -0.00000000 0.00010000 -1.00000000
vn -0.15940000 0.47390000 -0.86610000
vn -0.00000000 0.00010000 -1.00000000
vn -0.10940000 0.48780000 -0.86610000
vn -0.00000000 -0.00000000 -1.00000000
vn -0.05820000 0.49660000 -0.86600000
vn -0.00000000 -0.00000000 -1.00000000
vn -0.00000000 0.00010000 -1.00000000
vn -0.00640000 0.49990000 -0.86600000
vn -0.10080000 0.86020000 -0.49990000
vn -0.01100000 0.86600000 -0.50000000
vn -0.11630000 0.99320000 -0.00000000
vn -0.01270000 0.99990000 -0.00000000
vn -0.31870000 -0.94790000 -0.00000000
vn -0.27600000 -0.82090000 -0.50000000
vn -0.41530000 -0.90970000 -0.00000000
vn -0.35970000 -0.78790000 -0.49990000
vn -0.50730000 -0.86180000 -0.00000000
vn -0.43940000 -0.74630000 -0.50000000
vn -0.59390000 -0.80450000 -0.00010000
vn -0.51440000 -0.69670000 -0.50000000
vn -0.67420000 -0.73860000 -0.00000000
vn -0.58380000 -0.63960000 -0.50000000
vn -0.74710000 -0.66470000 -0.00000000
vn -0.64700000 -0.57570000 -0.50000000
vn -0.81200000 -0.58370000 -0.00000000
vn -0.70320000 -0.50550000 -0.50000000
vn -0.86810000 -0.49630000 -0.00000000
vn -0.75180000 -0.42980000 -0.50000000
vn -0.91490000 -0.40360000 -0.00000000
vn -0.79240000 -0.34950000 -0.50000000
vn -0.95180000 -0.30660000 -0.00000000
vn -0.82430000 -0.26550000 -0.50000000
vn -0.97850000 -0.20630000 -0.00000000
vn -0.84740000 -0.17860000 -0.50000000
vn -0.99460000 -0.10370000 -0.00000000
vn -0.86140000 -0.08980000 -0.50000000
vn -1.00000000 -0.00000000 -0.00000000
vn -0.86600000 -0.00000000 -0.50000000
vn -0.86130000 0.08980000 -0.50000000
vn -0.99460000 0.10370000 -0.00000000
vn -0.84740000 0.17860000 -0.50000000
vn -0.97850000 0.20630000 -0.00000000
vn -0.82430000 0.26550000 -0.50000000
vn -0.95180000 0.30660000 -0.00000000
vn -0.79230000 0.34950000 -0.50000000
vn -0.91490000 0.40360000 -0.00000000
vn -0.75180000 0.42980000 -0.50000000
vn -0.86810000 0.49630000 -0.00000000
vn -0.70320000 0.50550000 -0.50000000
vn -0.81200000 0.58370000 -0.00000000
vn -0.64700000 0.57560000 -0.50000000
vn -0.74710000 0.66470000 -0.00000000
vn -0.58390000 0.63960000 -0.50000000
vn -0.67420000 0.73860000 -0.00000000
vn -0.51440000 0.69670000 -0.50000000
vn -0.59390000 0.80450000 -0.00000000
vn -0.43940000 0.74630000 -0.50000000
vn -0.50730000 0.86180000 -0.00000000
vn -0.35960000 0.78780000 -0.50000000
vn -0.41530000 0.90970000 0.00010000
vn -0.27600000 0.82080000 -0.50010000
vn -0.31870000 0.94790000 -0.00010000
vn -0.18940000 0.84510000 -0.50000000
vn -0.21870000 0.97580000 -0.00000000
vn -0.00000000 -0.00000000 -1.00000000
vn 0.00640000 0.49990000 -0.86600000
vn 0.05820000 0.49660000 -0.86600000
vn -0.00000000 -0.00000000 -1.00000000
vn -0.00000000 -0.00000000 -1.00000000
vn -0.00000000 -0.00000000 -1.00000000
vn 0.10080000 0.86020000 -0.49990000
vn 0.01100000 0.86590000 -0.50010000
vn 0.11630000 0.99320000 0.00010000
vn 0.01270000 0.99990000 -0.00010000
vn 0.21870000 0.97580000 -0.00000000
vn 0.18940000 0.84510000 -0.50000000
vn 0.10930000 0.48780000 -0.86610000
vn -0.00000000 -0.00000000 -1.00000000
vn 0.15930000 0.47390000 -0.86600000
vn -0.00000000 -0.00000000 -1.00000000
vn 0.20760000 0.45480000 -0.86600000
vn -0.00000000 -0.00000000 -1.00000000
vn 0.25370000 0.43080000 -0.86610000
vn -0.00000000 -0.00000000 -1.00000000
vn 0.29700000 0.40220000 -0.86600000
vn -0.00000000 -0.00000000 -1.00000000
vn 0.33710000 0.36920000 -0.86600000
vn 0.00010000 -0.00000000 -1.00000000
vn 0.37350000 0.33230000 -0.86600000
vn -0.00000000 -0.00000000 -1.00000000
vn 0.40600000 0.29180000 -0.86600000
vn 0.00010000 -0.00000000 -1.00000000
vn 0.43400000 0.24810000 -0.86610000
vn -0.00000000 -0.00000000 -1.00000000
vn 0.45740000 0.20180000 -0.86600000
vn 0.00010000 -0.00000000 -1.00000000
vn 0.47590000 0.15330000 -0.86610000
vn -0.00000000 -0.00000000 -1.00000000
vn 0.48920000 0.10310000 -0.86600000
vn 0.00010000 -0.00000000 -1.00000000
vn 0.49730000 0.05180000 -0.86610000
vn -0.00000000 -0.00000000 -1.00000000
vn 0.50000000 -0.00000000 -0.86600000
vn -0.00000000 -0.00000000 -1.00000000
vn -0.00000000 -0.00000000 -1.00000000
vn 0.49730000 -0.05180000 -0.86610000
vn -0.00000000 -0.00000000 -1.00000000
vn 0.48920000 -0.10310000 -0.86600000
vn 0.00010000 -0.00000000 -1.00000000
vn 0.47590000 -0.15330000 -0.86600000
vn -0.00000000 -0.00000000 -1.00000000
vn 0.45740000 -0.20180000 -0.86600000
vn -0.00000000 -0.00000000 -1.00000000
vn 0.43400000 -0.24810000 -0.86610000
vn 0.00010000 -0.00000000 -1.00000000
vn 0.40600000 -0.29180000 -0.86610000
vn 0.00010000 -0.00000000 -1.00000000
vn 0.37350000 -0.33230000 -0.86610000
vn -0.00000000 -0.00000000 -1.00000000
vn 0.33710000 -0.36930000 -0.86600000
vn -0.00000000 -0.00000000 -1.00000000
vn 0.29700000 -0.40220000 -0.86610000
vn -0.00000000 -0.00000000 -1.00000000
vn 0.25370000 -0.43080000 -0.86610000
vn -0.00000000 -0.00000000 -1.00000000
vn 0.20770000 -0.45480000 -0.86600000
vn -0.00000000 -0.00010000 -1.00000000
vn 0.15940000 -0.47390000 -0.86600000
vn -0.00000000 -0.00000000 -1.00000000
vn 0.10940000 -0.48780000 -0.86610000
vn -0.00000000 -0.00010000 -1.00000000
vn -0.00000000 -0.00000000 -1.00000000
vn 0.05820000 -0.49660000 -0.86600000
vn -0.00000000 -0.00000000 -1.00000000
vn -0.00000000 -0.00010000 -1.00000000
vn 0.00640000 -0.49990000 -0.86610000
vn 0.10080000 -0.86020000 -0.49990000
vn 0.01100000 -0.86600000 -0.50000000
vn 0.11630000 -0.99320000 0.00010000
vn 0.01280000 -0.99990000 -0.00000000
vn 0.31870000 0.94790000 0.00010000
vn 0.27600000 0.82090000 -0.50000000
vn 0.41530000 0.90970000 -0.00000000
vn 0.35960000 0.78780000 -0.50000000
vn 0.50730000 0.86180000 -0.00000000
vn 0.43940000 0.74630000 -0.50000000
vn 0.59390000 0.80450000 -0.00000000
vn 0.51440000 0.69670000 -0.50000000
vn 0.67420000 0.73860000 -0.00010000
vn 0.58390000 0.63960000 -0.50000000
vn 0.74710000 0.66470000 0.00010000
vn 0.64700000 0.57570000 -0.50000000
vn 0.81200000 0.58370000 -0.00000000
vn 0.70320000 0.50550000 -0.50000000
vn 0.86810000 0.49630000 -0.00000000
vn 0.75180000 0.42980000 -0.50000000
vn 0.91490000 0.40360000 -0.00000000
vn 0.79240000 0.34950000 -0.50000000
vn 0.95180000 0.30660000 -0.00000000
vn 0.82430000 0.26550000 -0.50000000
vn 0.97850000 0.20620000 -0.00000000
vn 0.84740000 0.17860000 -0.50000000
vn 0.99460000 0.10370000 -0.00000000
vn 0.86140000 0.08980000 -0.50000000
vn 1.00000000 -0.00000000 -0.00010000
vn 0.86600000 -0.00000000 -0.50000000
vn 0.86140000 -0.08980000 -0.50000000
vn 0.99460000 -0.10370000 -0.00000000
vn 0.84740000 -0.17860000 -0.50000000
vn 0.97850000 -0.20630000 -0.00000000
vn 0.82430000 -0.26550000 -0.50000000
vn 0.95180000 -0.30660000 -0.00000000
vn 0.79230000 -0.34950000 -0.50000000
vn 0.91490000 -0.40360000 -0.00000000
vn 0.75180000 -0.42980000 -0.50000000
vn 0.86810000 -0.49630000 -0.00000000
vn 0.70320000 -0.50550000 -0.50000000
vn 0.81200000 -0.58370000 -0.00000000
vn 0.64700000 -0.57560000 -0.50000000
vn 0.74710000 -0.66470000 -0.00000000
vn 0.58390000 -0.63960000 -0.50000000
vn 0.67420000 -0.73860000 -0.00000000
vn 0.51440000 -0.69670000 -0.50000000
vn 0.59390000 -0.80450000 -0.00000000
vn 0.43940000 -0.74630000 -0.50000000
vn 0.50730000 -0.86180000 -0.00010000
vn 0.35960000 -0.78780000 -0.50000000
vn 0.41530000 -0.90970000 -0.00000000
vn 0.27600000 -0.82080000 -0.50010000
vn 0.31870000 -0.94790000 -0.00000000
vn 0.18940000 -0.84510000 -0.50000000
vn 0.21870000 -0.97580000 -0.00000000
vn -0.00000000 -0.00000000 -1.00000000
f 1//1 2//2 3//3
f 3//3 2//2 4//4
f 3//3 4//4 5//5
f 5//5 4//4 6//6
f 5//5 6//6 7//7
f 7//7 6//6 8//8
f 7//7 8//8 9//9
f 9//9 8//8 10//10
f 9//9 10//10 11//11
f 11//11 10//10 12//12
f 11//11 12//12 13//13
f 13//13 12//12 14//14
f 13//13 14//14 15//15
f 15//15 14//14 16//16
f 15//15 16//16 17//17
f 17//17 16//16 18//18
f 17//17 18//18 19//19
f 19//19 18//18 20//20
f 19//19 20//20 21//21
f 21//21 20//20 22//22
f 21//21 22//22 23//23
f 23//23 22//22 24//24
f 23//23 24//24 25//25
f 25//25 24//24 26//26
f 25//25 26//26 27//27
f 27//27 26//26 28//28
f 27//27 28//28 29//29
f 29//29 28//28 30//30
f 29//29 30//30 31//31
f 31//31 30//30 32//32
f 31//31 32//32 33//33
f 33//33 32//32 34//34
f 33//33 34//34 35//35
f 35//35 34//34 36//36
f 35//35 36//36 37//37
f 37//37 36//36 38//38
f 37//37 38//38 39//39
f 39//39 38//38 40//40
f 39//39 40//40 41//41
f 41//41 40//40 42//42
f 41//41 42//42 43//43
f 43//43 42//42 44//44
f 43//43 44//44 45//45
f 45//45 44//44 46//46
f 45//45 46//46 47//47
f 47//47 46//46 48//48
f 47//47 48//48 49//49
f 49//49 48//48 50//50
f 49//49 50//50 51//51
f 51//51 50//50 52//52
f 51//51 52//52 53//53
f 53//53 52//52 54//54
f 53//53 54//54 55//55
f 55//55 54//54 56//56
f 55//55 56//56 57//57
f 57//57 56//56 58//58
f 57//57 58//58 59//59
f 59//59 58//58 60//60
f 59//59 60//60 61//61
f 61//61 60//60 62//62
f 63//63 64//64 65//65
f 65//65 64//64 66//66
f 65//65 66//66 67//67
f 65//65 67//67 68//68
f 68//68 67//67 69//69
f 68//68 69//69 70//70
f 71//71 72//72 73//73
f 73//73 72//72 74//74
f 73//73 74//74 75//75
f 75//75 74//74 76//76
f 75//75 76//76 77//77
f 77//77 76//76 78//78
f 77//77 78//78 79//79
f 79//79 78//78 80//80
f 79//79 80//80 81//81
f 81//81 80//80 82//82
f 81//81 82//82 83//83
f 83//83 82//82 84//84
f 83//83 84//84 85//85
f 85//85 84//84 86//86
f 85//85 86//86 87//87
f 87//87 86//86 88//88
f 87//87 88//88 89//89
f 89//89 88//88 90//90
f 89//89 90//90 91//91
f 91//91 90//90 92//92
f 91//91 92//92 93//93
f 93//93 92//92 94//94
f 93//93 94//94 95//95
f 95//95 94//94 96//96
f 95//95 96//96 97//97
f 97//97 96//96 98//98
f 97//97 98//98 99//99
f 99//99 98//98 100//100
f 99//99 100//100 101//101
f 101//101 100//100 102//102
f 101//101 102//102 103//103
f 103//103 102//102 104//104
f 103//103 104//104 105//105
f 105//105 104//104 106//106
f 105//105 106//106 107//107
f 107//107 106//106 108//108
f 107//107 108//108 109//109
f 109//109 108//108 110//110
f 109//109 110//110 111//111
f 111//111 110//110 112//112
f 111//111 112//112 113//113
f 113//113 112//112 114//114
f 113//113 114//114 115//115
f 115//115 114//114 116//116
f 115//115 116//116 117//117
f 117//117 116//116 118//118
f 117//117 118//118 119//119
f 119//119 118//118 120//120
f 119//119 120//120 121//121
f 121//121 120//120 122//122
f 121//121 122//122 123//123
f 123//123 122//122 124//124
f 123//123 124//124 125//125
f 125//125 124//124 126//126
f 125//125 126//126 127//127
f 127//127 126//126 128//128
f 127//127 128//128 129//129
f 129//129 128//128 130//130
f 129//129 130//130 131//131
f 131//131 130//130 132//132
f 133//133 134//134 135//135
f 135//135 134//134 136//136
f 136//136 134//134 137//137
f 136//136 137//137 138//138
f 138//138 137//137 139//139
f 139//139 137//137 140//140
f 141//141 142//142 143//143
f 143//143 142//142 144//144
f 143//143 144//144 145//145
f 145//145 144//144 146//146
f 145//145 146//146 147//147
f 147//147 146//146 148//148
f 149//149 150//150 151//151
f 151//151 150//150 152//152
f 151//151 152//152 153//153
f 151//151 153//153 154//154
f 154//154 153//153 155//155
f 154//154 155//155 156//156
f 157//157 158//158 159//159
f 159//159 158//158 160//160
f 159//159 160//160 161//161
f 161//161 160//160 162//162
f 161//161 162//162 163//163
f 163//163 162//162 164//164
f 163//163 164//164 165//165
f 165//165 164//164 166//166
f 165//165 166//166 167//167
f 167//167 166//166 168//168
f 167//167 168//168 169//169
f 169//169 168//168 170//170
f 169//169 170//170 171//171
f 171//171 170//170 172//172
f 171//171 172//172 173//173
f 173//173 172//172 174//174
f 173//173 174//174 175//175
f 175//175 174//174 176//176
f 175//175 176//176 177//177
f 177//177 176//176 178//178
f 177//177 178//178 179//179
f 179//179 178//178 180//180
f 179//179 180//180 181//181
f 181//181 180//180 182//182
f 181//181 182//182 183//183
f 183//183 182//182 184//184
f 183//183 184//184 185//185
f 185//185 184//184 186//186
f 185//185 186//186 187//187
f 187//187 186//186 188//188
f 187//187 188//188 189//189
f 189//189 188//188 190//190
f 189//189 190//190 191//191
f 191//191 190//190 192//192
f 191//191 192//192 193//193
f 193//193 192//192 194//194
f 193//193 194//194 195//195
f 195//195 194//194 196//196
f 195//195 196//196 197//197
f 197//197 196//196 198//198
f 197//197 198//198 199//199
f 199//199 198//198 200//200
f 199//199 200//200 201//201
f 201//201 200//200 202//202
f 201//201 202//202 203//203
f 203//203 202//202 204//204
f 203//203 204//204 205//205
f 205//205 204//204 206//206
f 205//205 206//206 207//207
f 207//207 206//206 208//208
f 207//207 208//208 209//209
f 209//209 208//208 210//210
f 209//209 210//210 211//211
f 211//211 210//210 212//212
f 211//211 212//212 213//213
f 213//213 212//212 214//214
f 213//213 214//214 215//215
f 215//215 214//214 216//216
f 215//215 216//216 217//217
f 217//217 216//216 218//218
f 219//219 220//220 221//221
f 221//221 220//220 222//222
f 222//222 220//220 223//223
f 222//222 223//223 224//224
f 224//224 223//223 225//225
f 225//225 223//223 226//226
f 227//227 228//228 229//229
f 229//229 228//228 230//230
f 229//229 230//230 231//231
f 231//231 230//230 232//232
f 231//231 232//232 233//233
f 227//227 234//234 228//228
f 235//235 236//236 237//237
f 237//237 236//236 238//238
f 237//237 238//238 239//239
f 239//239 238//238 240//240
f 239//239 240//240 241//241
f 241//241 240//240 242//242
f 241//241 242//242 243//243
f 243//243 242//242 244//244
f 243//243 244//244 245//245
f 245//245 244//244 246//246
f 245//245 246//246 247//247
f 247//247 246//246 248//248
f 247//247 248//248 249//249
f 249//249 248//248 250//250
f 249//249 250//250 251//251
f 251//251 250//250 252//252
f 251//251 252//252 253//253
f 253//253 252//252 254//254
f 253//253 254//254 255//255
f 255//255 254//254 256//256
f 255//255 256//256 257//257
f 257//257 256//256 258//258
f 257//257 258//258 259//259
f 259//259 258//258 260//260
f 259//259 260//260 261//261
f 261//261 260//260 262//262
f 261//261 262//262 263//263
f 263//263 262//262 264//264
f 263//263 264//264 265//265
f 265//265 264//264 266//266
f 265//265 266//266 267//267
f 267//267 266//266 268//268
f 267//267 268//268 269//269
f 269//269 268//268 270//270
f 269//269 270//270 271//271
f 271//271 270//270 272//272
f 271//271 272//272 273//273
f 273//273 272//272 274//274
f 273//273 274//274 275//275
f 275//275 274//274 276//276
f 275//275 276//276 277//277
f 277//277 276//276 278//278
f 277//277 278//278 279//279
f 279//279 278//278 280//280
f 279//279 280//280 281//281
f 281//281 280//280 282//282
f 281//281 282//282 283//283
f 283//283 282//282 284//284
f 283//283 284//284 285//285
f 285//285 284//284 286//286
f 285//285 286//286 287//287
f 287//287 286//286 288//288
f 287//287 288//288 289//289
f 289//289 288//288 290//290
f 289//289 290//290 291//291
f 291//291 290//290 292//292
f 291//291 292//292 293//293
f 293//293 292//292 294//294
f 293//293 294//294 295//295
f 295//295 294//294 296//296
f 297//297 299//299 301//301
f 300//300 298//298 302//302
f 300//300 302//302 303//303
f 303//303 302//302 304//304
f 303//303 304//304 305//305
f 305//305 304//304 306//306
f 305//305 306//306 307//307
f 302//302 298//298 308//308
f 308//308 298//298 309//309
f 308//308 309//309 310//310
f 310//310 309//309 311//311
f 310//310 311//311 312//312
f 312//312 311//311 313//313
f 312//312 313//313 314//314
f 314//314 313//313 315//315
f 314//314 315//315 316//316
f 316//316 315//315 317//317
f 316//316 317//317 318//318
f 318//318 317//317 319//319
f 318//318 319//319 320//320
f 320//320 319//319 321//321
f 320//320 321//321 322//322
f 322//322 321//321 323//323
f 322//322 323//323 324//324
f 324//324 323//323 325//325
f 324//324 325//325 326//326
f 326//326 325//325 327//327
f 326//326 327//327 328//328
f 328//328 327//327 329//329
f 328//328 329//329 330//330
f 330//330 329//329 331//331
f 330//330 331//331 332//332
f 332//332 331//331 333//333
f 332//332 333//333 334//334
f 334//334 333//333 335//335
f 334//334 335//335 336//336
f 334//334 336//336 337//337
f 337//337 336//336 338//338
f 337//337 338//338 339//339
f 339//339 338//338 340//340
f 339//339 340//340 341//341
f 341//341 340//340 342//342
f 341//341 342//342 343//343
f 343//343 342//342 344//344
f 343//343 344//344 345//345
f 345//345 344//344 346//346
f 345//345 346//346 347//347
f 347//347 346//346 348//348
f 347//347 348//348 349//349
f 349//349 348//348 350//350
f 349//349 350//350 351//351
f 351//351 350//350 352//352
f 351//351 352//352 353//353
f 353//353 352//352 354//354
f 353//353 354//354 355//355
f 355//355 354//354 356//356
f 355//355 356//356 357//357
f 357//357 356//356 358//358
f 357//357 358//358 359//359
f 359//359 358//358 360//360
f 359//359 360//360 361//361
f 361//361 360//360 363//363
f 361//361 363//363 364//364
f 364//364 363//363 366//366
f 364//364 366//366 367//367
f 362//362 368//368 365//365
f 364//364 367//367 369//369
f 369//369 367//367 370//370
f 369//369 370//370 371//371
f 371//371 370//370 372//372
f 371//371 373//373 369//369
f 369//369 373//373 374//374
f 369//369 374//374 364//364
f 364//364 374//374 361//361
f 373//373 375//375 374//374
f 374//374 375//375 376//376
f 374//374 376//376 361//361
f 361//361 376//376 359//359
f 375//375 377//377 376//376
f 376//376 377//377 378//378
f 376//376 378//378 359//359
f 359//359 378//378 357//357
f 377//377 379//379 378//378
f 378//378 379//379 380//380
f 378//378 380//380 357//357
f 357//357 380//380 355//355
f 379//379 381//381 380//380
f 380//380 381//381 382//382
f 380//380 382//382 355//355
f 355//355 382//382 353//353
f 381//381 383//383 382//382
f 382//382 383//383 384//384
f 382//382 384//384 353//353
f 353//353 384//384 351//351
f 383//383 385//385 384//384
f 384//384 385//385 386//386
f 384//384 386//386 351//351
f 351//351 386//386 349//349
f 385//385 387//387 386//386
f 386//386 387//387 388//388
f 386//386 388//388 349//349
f 349//349 388//388 347//347
f 387//387 389//389 388//388
f 388//388 389//389 390//390
f 388//388 390//390 347//347
f 347//347 390//390 345//345
f 389//389 391//391 390//390
f 390//390 391//391 392//392
f 390//390 392//392 345//345
f 345//345 392//392 343//343
f 391//391 393//393 392//392
f 392//392 393//393 394//394
f 392//392 394//394 343//343
f 343//343 394//394 341//341
f 393//393 395//395 394//394
f 394//394 395//395 396//396
f 394//394 396//396 341//341
f 341//341 396//396 339//339
f 395//395 397//397 396//396
f 396//396 397//397 398//398
f 396//396 398//398 339//339
f 339//339 398//398 337//337
f 397//397 399//399 398//398
f 398//398 399//399 400//400
f 398//398 400//400 337//337
f 337//337 400//400 334//334
f 400//400 399//399 401//401
f 401//401 399//399 402//402
f 401//401 402//402 403//403
f 403//403 402//402 404//404
f 403//403 404//404 405//405
f 405//405 404//404 406//406
f 405//405 406//406 407//407
f 407//407 406//406 408//408
f 407//407 408//408 409//409
f 409//409 408//408 410//410
f 409//409 410//410 411//411
f 411//411 410//410 412//412
f 411//411 412//412 413//413
f 413//413 412//412 414//414
f 413//413 414//414 415//415
f 415//415 414//414 416//416
f 415//415 416//416 417//417
f 417//417 416//416 418//418
f 417//417 418//418 419//419
f 419//419 418//418 420//420
f 419//419 420//420 421//421
f 421//421 420//420 422//422
f 421//421 422//422 423//423
f 423//423 422//422 424//424
f 423//423 424//424 425//425
f 425//425 424//424 426//426
f 425//425 426//426 304//304
f 304//304 426//426 306//306
f 425//425 304//304 302//302
f 425//425 302//302 308//308
f 423//423 425//425 308//308
f 423//423 308//308 310//310
f 421//421 423//423 310//310
f 421//421 310//310 312//312
f 419//419 421//421 312//312
f 419//419 312//312 314//314
f 417//417 419//419 314//314
f 417//417 314//314 316//316
f 415//415 417//417 316//316
f 415//415 316//316 318//318
f 413//413 415//415 318//318
f 413//413 318//318 320//320
f 411//411 413//413 320//320
f 411//411 320//320 322//322
f 409//409 411//411 322//322
f 409//409 322//322 324//324
f 407//407 409//409 324//324
f 407//407 324//324 326//326
f 405//405 407//407 326//326
f 405//405 326//326 328//328
f 403//403 405//405 328//328
f 403//403 328//328 330//330
f 401//401 403//403 330//330
f 401//401 330//330 332//332
f 400//400 401//401 332//332
f 400//400 332//332 334//334
f 427//427 429//429 430//430
f 431//431 428//428 432//432
f 431//431 432//432 433//433
f 433//433 432//432 434//434
f 433//433 434//434 435//435
f 435//435 434//434 436//436
f 435//435 436//436 437//437
f 432//432 428//428 438//438
f 438//438 428//428 439//439
f 438//438 439//439 440//440
f 440//440 439//439 441//441
f 440//440 441//441 442//442
f 442//442 441//441 443//443
f 442//442 443//443 444//444
f 444//444 443//443 445//445
f 444//444 445//445 446//446
f 446//446 445//445 447//447
f 446//446 447//447 448//448
f 448//448 447//447 449//449
f 448//448 449//449 450//450
f 450//450 449//449 451//451
f 450//450 451//451 452//452
f 452//452 451//451 453//453
f 452//452 453//453 454//454
f 454//454 453//453 455//455
f 454//454 455//455 456//456
f 456//456 455//455 457//457
f 456//456 457//457 458//458
f 458//458 457//457 459//459
f 458//458 459//459 460//460
f 460//460 459//459 461//461
f 460//460 461//461 462//462
f 462//462 461//461 463//463
f 462//462 463//463 464//464
f 464//464 463//463 465//465
f 464//464 465//465 466//466
f 464//464 466//466 467//467
f 467//467 466//466 468//468
f 467//467 468//468 469//469
f 469//469 468//468 470//470
f 469//469 470//470 471//471
f 471//471 470//470 472//472
f 471//471 472//472 473//473
f 473//473 472//472 474//474
f 473//473 474//474 475//475
f 475//475 474//474 476//476
f 475//475 476//476 477//477
f 477//477 476//476 478//478
f 477//477 478//478 479//479
f 479//479 478//478 480//480
f 479//479 480//480 481//481
f 481//481 480//480 482//482
f 481//481 482//482 483//483
f 483//483 482//482 484//484
f 483//483 484//484 485//485
f 485//485 484//484 486//486
f 485//485 486//486 487//487
f 487//487 486//486 488//488
f 487//487 488//488 489//489
f 489//489 488//488 490//490
f 489//489 490//490 491//491
f 491//491 490//490 493//493
f 491//491 493//493 494//494
f 494//494 493//493 495//495
f 494//494 495//495 497//497
f 492//492 498//498 496//496
f 494//494 497//497 499//499
f 499//499 497//497 500//500
f 499//499 500//500 501//501
f 501//501 500//500 502//502
f 501//501 503//503 499//499
f 499//499 503//503 504//504
f 499//499 504//504 494//494
f 494//494 504//504 491//491
f 503//503 505//505 504//504
f 504//504 505//505 506//506
f 504//504 506//506 491//491
f 491//491 506//506 489//489
f 505//505 507//507 506//506
f 506//506 507//507 508//508
f 506//506 508//508 489//489
f 489//489 508//508 487//487
f 507//507 509//509 508//508
f 508//508 509//509 510//510
f 508//508 510//510 487//487
f 487//487 510//510 485//485
f 509//509 511//511 510//510
f 510//510 511//511 512//512
f 510//510 512//512 485//485
f 485//485 512//512 483//483
f 511//511 513//513 512//512
f 512//512 513//513 514//514
f 512//512 514//514 483//483
f 483//483 514//514 481//481
f 513//513 515//515 514//514
f 514//514 515//515 516//516
f 514//514 516//516 481//481
f 481//481 516//516 479//479
f 515//515 517//517 516//516
f 516//516 517//517 518//518
f 516//516 518//518 479//479
f 479//479 518//518 477//477
f 517//517 519//519 518//518
f 518//518 519//519 520//520
f 518//518 520//520 477//477
f 477//477 520//520 475//475
f 519//519 521//521 520//520
f 520//520 521//521 522//522
f 520//520 522//522 475//475
f 475//475 522//522 473//473
f 521//521 523//523 522//522
f 522//522 523//523 524//524
f 522//522 524//524 473//473
f 473//473 524//524 471//471
f 523//523 525//525 524//524
f 524//524 525//525 526//526
f 524//524 526//526 471//471
f 471//471 526//526 469//469
f 525//525 527//527 526//526
f 526//526 527//527 528//528
f 526//526 528//528 469//469
f 469//469 528//528 467//467
f 527//527 529//529 528//528
f 528//528 529//529 530//530
f 528//528 530//530 467//467
f 467//467 530//530 464//464
f 530//530 529//529 531//531
f 531//531 529//529 532//532
f 531//531 532//532 533//533
f 533//533 532//532 534//534
f 533//533 534//534 535//535
f 535//535 534//534 536//536
f 535//535 536//536 537//537
f 537//537 536//536 538//538
f 537//537 538//538 539//539
f 539//539 538//538 540//540
f 539//539 540//540 541//541
f 541//541 540//540 542//542
f 541//541 542//542 543//543
f 543//543 542//542 544//544
f 543//543 544//544 545//545
f 545//545 544//544 546//546
f 545//545 546//546 547//547
f 547//547 546//546 548//548
f 547//547 548//548 549//549
f 549//549 548//548 550//550
f 549//549 550//550 551//551
f 551//551 550//550 552//552
f 551//551 552//552 553//553
f 553//553 552//552 554//554
f 553//553 554//554 555//555
f 555//555 554//554 556//556
f 555//555 556//556 434//434
f 434//434 556//556 436//436
f 555//555 434//434 432//432
f 555//555 432//432 438//438
f 553//553 555//555 438//438
f 553//553 438//438 440//440
f 551//551 553//553 440//440
f 551//551 440//440 442//442
f 549//549 551//551 442//442
f 549//549 442//442 444//444
f 547//547 549//549 444//444
f 547//547 444//444 446//446
f 545//545 547//547 446//446
f 545//545 446//446 448//448
f 543//543 545//545 448//448
f 543//543 448//448 450//450
f 541//541 543//543 450//450
f 541//541 450//450 452//452
f 539//539 541//541 452//452
f 539//539 452//452 454//454
f 537//537 539//539 454//454
f 537//537 454//454 456//456
f 535//535 537//537 456//456
f 535//535 456//456 458//458
f 533//533 535//535 458//458
f 533//533 458//458 460//460
f 531//531 533//533 460//460
f 531//531 460//460 462//462
f 530//530 531//531 462//462
f 530//530 462//462 464//464
f 557//557 558//558 559//559
f 559//559 558//558 561//561
f 560//560 561//561 562//562
f 558//558 557//557 563//563
f 563//563 557//557 564//564
f 563//563 564//564 565//565
f 565//565 564//564 566//566
f 565//565 567//567 563//563
f 563//563 567//567 568//568
f 563//563 568//568 558//558
f 558//558 568//568 569//569
f 558//558 569//569 561//561
f 561//561 569//569 570//570
f 570//570 569//569 571//571
f 570//570 571//571 572//572
f 572//572 571//571 573//573
f 572//572 573//573 574//574
f 574//574 573//573 575//575
f 574//574 575//575 576//576
f 576//576 575//575 577//577
f 576//576 577//577 578//578
f 578//578 577//577 579//579
f 578//578 579//579 580//580
f 580//580 579//579 581//581
f 580//580 581//581 582//582
f 582//582 581//581 583//583
f 582//582 583//583 584//584
f 584//584 583//583 585//585
f 584//584 585//585 586//586
f 586//586 585//585 587//587
f 586//586 587//587 588//588
f 588//588 587//587 589//589
f 588//588 589//589 590//590
f 590//590 589//589 591//591
f 590//590 591//591 592//592
f 592//592 591//591 593//593
f 592//592 593//593 594//594
f 594//594 593//593 595//595
f 594//594 595//595 596//596
f 596//596 595//595 597//597
f 597//597 595//595 598//598
f 597//597 598//598 599//599
f 599//599 598//598 600//600
f 599//599 600//600 601//601
f 601//601 600//600 602//602
f 601//601 602//602 603//603
f 603//603 602//602 604//604
f 603//603 604//604 605//605
f 605//605 604//604 606//606
f 605//605 606//606 607//607
f 607//607 606//606 608//608
f 607//607 608//608 609//609
f 609//609 608//608 610//610
f 609//609 610//610 611//611
f 611//611 610//610 612//612
f 611//611 612//612 613//613
f 613//613 612//612 614//614
f 613//613 614//614 615//615
f 615//615 614//614 616//616
f 615//615 616//616 617//617
f 617//617 616//616 618//618
f 617//617 618//618 619//619
f 619//619 618//618 620//620
f 619//619 620//620 621//621
f 621//621 620//620 622//622
f 621//621 622//622 623//623
f 623//623 622//622 624//624
f 623//623 624//624 626//626
f 626//626 624//624 627//627
f 627//627 624//624 628//628
f 627//627 628//628 629//629
f 629//629 628//628 630//630
f 629//629 630//630 631//631
f 567//567 632//632 568//568
f 568//568 632//632 633//633
f 568//568 633//633 569//569
f 569//569 633//633 571//571
f 632//632 634//634 633//633
f 633//633 634//634 635//635
f 633//633 635//635 571//571
f 571//571 635//635 573//573
f 634//634 636//636 635//635
f 635//635 636//636 637//637
f 635//635 637//637 573//573
f 573//573 637//637 575//575
f 636//636 638//638 637//637
f 637//637 638//638 639//639
f 637//637 639//639 575//575
f 575//575 639//639 577//577
f 638//638 640//640 639//639
f 639//639 640//640 641//641
f 639//639 641//641 577//577
f 577//577 641//641 579//579
f 640//640 642//642 641//641
f 641//641 642//642 643//643
f 641//641 643//643 579//579
f 579//579 643//643 581//581
f 642//642 644//644 643//643
f 643//643 644//644 645//645
f 643//643 645//645 581//581
f 581//581 645//645 583//583
f 644//644 646//646 645//645
f 645//645 646//646 647//647
f 645//645 647//647 583//583
f 583//583 647//647 585//585
f 646//646 648//648 647//647
f 647//647 648//648 649//649
f 647//647 649//649 585//585
f 585//585 649//649 587//587
f 648//648 650//650 649//649
f 649//649 650//650 651//651
f 649//649 651//651 587//587
f 587//587 651//651 589//589
f 650//650 652//652 651//651
f 651//651 652//652 653//653
f 651//651 653//653 589//589
f 589//589 653//653 591//591
f 652//652 654//654 653//653
f 653//653 654//654 655//655
f 653//653 655//655 591//591
f 591//591 655//655 593//593
f 654//654 656//656 655//655
f 655//655 656//656 657//657
f 655//655 657//657 593//593
f 593//593 657//657 595//595
f 657//657 656//656 658//658
f 658//658 656//656 659//659
f 658//658 659//659 660//660
f 660//660 659//659 661//661
f 660//660 661//661 662//662
f 662//662 661//661 663//663
f 662//662 663//663 664//664
f 664//664 663//663 665//665
f 664//664 665//665 666//666
f 666//666 665//665 667//667
f 666//666 667//667 668//668
f 668//668 667//667 669//669
f 668//668 669//669 670//670
f 670//670 669//669 671//671
f 670//670 671//671 672//672
f 672//672 671//671 673//673
f 672//672 673//673 674//674
f 674//674 673//673 675//675
f 674//674 675//675 676//676
f 676//676 675//675 677//677
f 676//676 677//677 678//678
f 678//678 677//677 679//679
f 678//678 679//679 680//680
f 680//680 679//679 681//681
f 680//680 681//681 682//682
f 682//682 681//681 683//683
f 682//682 683//683 628//628
f 628//628 683//683 630//630
f 625//625 684//684 623//623
f 598//598 595//595 657//657
f 598//598 657//657 658//658
f 600//600 598//598 658//658
f 600//600 658//658 660//660
f 602//602 600//600 660//660
f 602//602 660//660 662//662
f 604//604 602//602 662//662
f 604//604 662//662 664//664
f 606//606 604//604 664//664
f 606//606 664//664 666//666
f 608//608 606//606 666//666
f 608//608 666//666 668//668
f 610//610 608//608 668//668
f 610//610 668//668 670//670
f 612//612 610//610 670//670
f 612//612 670//670 672//672
f 614//614 612//612 672//672
f 614//614 672//672 674//674
f 616//616 614//614 674//674
f 616//616 674//674 676//676
f 618//618 616//616 676//676
f 618//618 676//676 678//678
f 620//620 618//618 678//678
f 620//620 678//678 680//680
f 622//622 620//620 680//680
f 622//622 680//680 682//682
f 624//624 622//622 682//682
f 624//624 682//682 628//628
f 685//685 686//686 687//687
f 687//687 686//686 688//688
f 687//687 688//688 689//689
f 686//686 685//685 690//690
f 690//690 685//685 691//691
f 690//690 691//691 692//692
f 692//692 691//691 693//693
f 692//692 694//694 690//690
f 690//690 694//694 695//695
f 690//690 695//695 686//686
f 686//686 695//695 696//696
f 686//686 696//696 688//688
f 688//688 696//696 697//697
f 697//697 696//696 698//698
f 697//697 698//698 699//699
f 699//699 698//698 700//700
f 699//699 700//700 701//701
f 701//701 700//700 702//702
f 701//701 702//702 703//703
f 703//703 702//702 704//704
f 703//703 704//704 705//705
f 705//705 704//704 706//706
f 705//705 706//706 707//707
f 707//707 706//706 708//708
f 707//707 708//708 709//709
f 709//709 708//708 710//710
f 709//709 710//710 711//711
f 711//711 710//710 712//712
f 711//711 712//712 713//713
f 713//713 712//712 714//714
f 713//713 714//714 715//715
f 715//715 714//714 716//716
f 715//715 716//716 717//717
f 717//717 716//716 718//718
f 717//717 718//718 719//719
f 719//719 718//718 720//720
f 719//719 720//720 721//721
f 721//721 720//720 722//722
f 721//721 722//722 723//723
f 723//723 722//722 724//724
f 724//724 722//722 725//725
f 724//724 725//725 726//726
f 726//726 725//725 727//727
f 726//726 727//727 728//728
f 728//728 727//727 729//729
f 728//728 729//729 730//730
f 730//730 729//729 731//731
f 730//730 731//731 732//732
f 732//732 731//731 733//733
f 732//732 733//733 734//734
f 734//734 733//733 735//735
f 734//734 735//735 736//736
f 736//736 735//735 737//737
f 736//736 737//737 738//738
f 738//738 737//737 739//739
f 738//738 739//739 740//740
f 740//740 739//739 741//741
f 740//740 741//741 742//742
f 742//742 741//741 743//743
f 742//742 743//743 744//744
f 744//744 743//743 745//745
f 744//744 745//745 746//746
f 746//746 745//745 747//747
f 746//746 747//747 748//748
f 748//748 747//747 749//749
f 748//748 749//749 750//750
f 750//750 749//749 752//752
f 750//750 752//752 754//754
f 754//754 752//752 755//755
f 755//755 752//752 756//756
f 755//755 756//756 757//757
f 757//757 756//756 758//758
f 757//757 758//758 759//759
f 694//694 760//760 695//695
f 695//695 760//760 761//761
f 695//695 761//761 696//696
f 696//696 761//761 698//698
f 760//760 762//762 761//761
f 761//761 762//762 763//763
f 761//761 763//763 698//698
f 698//698 763//763 700//700
f 762//762 764//764 763//763
f 763//763 764//764 765//765
f 763//763 765//765 700//700
f 700//700 765//765 702//702
f 764//764 766//766 765//765
f 765//765 766//766 767//767
f 765//765 767//767 702//702
f 702//702 767//767 704//704
f 766//766 768//768 767//767
f 767//767 768//768 769//769
f 767//767 769//769 704//704
f 704//704 769//769 706//706
f 768//768 770//770 769//769
f 769//769 770//770 771//771
f 769//769 771//771 706//706
f 706//706 771//771 708//708
f 770//770 772//772 771//771
f 771//771 772//772 773//773
f 771//771 773//773 708//708
f 708//708 773//773 710//710
f 772//772 774//774 773//773
f 773//773 774//774 775//775
f 773//773 775//775 710//710
f 710//710 775//775 712//712
f 774//774 776//776 775//775
f 775//775 776//776 777//777
f 775//775 777//777 712//712
f 712//712 777//777 714//714
f 776//776 778//778 777//777
f 777//777 778//778 779//779
f 777//777 779//779 714//714
f 714//714 779//779 716//716
f 778//778 780//780 779//779
f 779//779 780//780 781//781
f 779//779 781//781 716//716
f 716//716 781//781 718//718
f 780//780 782//782 781//781
f 781//781 782//782 783//783
f 781//781 783//783 718//718
f 718//718 783//783 720//720
f 782//782 784//784 783//783
f 783//783 784//784 785//785
f 783//783 785//785 720//720
f 720//720 785//785 722//722
f 785//785 784//784 786//786
f 786//786 784//784 787//787
f 786//786 787//787 788//788
f 788//788 787//787 789//789
f 788//788 789//789 790//790
f 790//790 789//789 791//791
f 790//790 791//791 792//792
f 792//792 791//791 793//793
f 792//792 793//793 794//794
f 794//794 793//793 795//795
f 794//794 795//795 796//796
f 796//796 795//795 797//797
f 796//796 797//797 798//798
f 798//798 797//797 799//799
f 798//798 799//799 800//800
f 800//800 799//799 801//801
f 800//800 801//801 802//802
f 802//802 801//801 803//803
f 802//802 803//803 804//804
f 804//804 803//803 805//805
f 804//804 805//805 806//806
f 806//806 805//805 807//807
f 806//806 807//807 808//808
f 808//808 807//807 809//809
f 808//808 809//809 810//810
f 810//810 809//809 811//811
f 810//810 811//811 756//756
f 756//756 811//811 758//758
f 753//753 812//812 751//751
f 725//725 722//722 785//785
f 725//725 785//785 786//786
f 727//727 725//725 786//786
f 727//727 786//786 788//788
f 729//729 727//727 788//788
f 729//729 788//788 790//790
f 731//731 729//729 790//790
f 731//731 790//790 792//792
f 733//733 731//731 792//792
f 733//733 792//792 794//794
f 735//735 733//733 794//794
f 735//735 794//794 796//796
f 737//737 735//735 796//796
f 737//737 796//796 798//798
f 739//739 737//737 798//798
f 739//739 798//798 800//800
f 741//741 739//739 800//800
f 741//741 800//800 802//802
f 743//743 741//741 802//802
f 743//743 802//802 804//804
f 745//745 743//743 804//804
f 745//745 804//804 806//806
f 747//747 745//745 806//806
f 747//747 806//806 808//808
f 749//749 747//747 808//808
f 749//749 808//808 810//810
f 752//752 749//749 810//810
f 752//752 810//810 756//756