mtllib material.mtl
usemtl material_0
v -0.00397300 0.02170300 -0.04388800
v -0.00401600 0.02187900 -0.04377800
v -0.00368200 0.02144000 -0.04400200
v 0.00055200 0.02244100 -0.04362100
v -0.00064200 0.02406000 -0.04281700
v 0.00054900 0.02486600 -0.04240000
v -0.00064200 0.02486200 -0.04240100
v -0.00055500 0.02583700 -0.04188100
v -0.00124000 0.02583400 -0.04187300
v -0.00192300 0.02582900 -0.04186000
v -0.00269200 0.02484200 -0.04236200
v -0.00260600 0.02582200 -0.04184100
v -0.00309500 0.02573500 -0.04186700
v -0.00289700 0.02478500 -0.04238400
v -0.00331600 0.02563900 -0.04190700
v -0.00304700 0.02464600 -0.04245100
v -0.00372300 0.02534300 -0.04204400
v -0.00310500 0.02446100 -0.04254400
v -0.00400700 0.02495300 -0.04223600
v -0.00413100 0.02444600 -0.04249600
v -0.00413100 0.02376800 -0.04284600
v -0.00310600 0.02368800 -0.04293900
v -0.00310700 0.02334900 -0.04311000
v 0.00034500 0.02175400 -0.04395000
v -0.00064200 0.02244100 -0.04362100
v -0.00064200 0.02325300 -0.04322400
v -0.00067700 0.02228500 -0.04369500
v -0.00021600 0.02125100 -0.04418500
v -0.00078200 0.02215100 -0.04375800
v -0.00097800 0.02106300 -0.04426500
v -0.00092300 0.02207300 -0.04379400
v -0.00106800 0.02204900 -0.04380300
v -0.00152000 0.02105900 -0.04425700
v -0.00161000 0.02204600 -0.04379500
v -0.00206200 0.02105500 -0.04424500
v -0.00215300 0.02204100 -0.04378200
v -0.00260300 0.02105000 -0.04423000
v -0.00269500 0.02203400 -0.04376700
v -0.00318700 0.02115000 -0.04416000
v -0.00295900 0.02211500 -0.04371800
v -0.00305700 0.02221600 -0.04366600
v -0.00368200 0.02144000 -0.04400200
v -0.00310300 0.02231200 -0.04361700
v -0.00401600 0.02187900 -0.04377800
v -0.00311800 0.02241600 -0.04356600
v -0.00413300 0.02240200 -0.04352100
v -0.00311000 0.02280900 -0.04337600
v -0.00413100 0.02308700 -0.04318700
v 0.00054700 0.02583700 -0.04188000
v -0.00055400 0.02631700 -0.04161800
v 0.00054700 0.02631700 -0.04161800
v 0.00018000 0.02727100 -0.04108300
v 0.00054700 0.02679400 -0.04135100
v 0.00054700 0.02727000 -0.04108200
v -0.00055400 0.02679400 -0.04135100
v -0.00018700 0.02727100 -0.04108300
v -0.00055400 0.02727000 -0.04108200
v 0.00123200 0.02583400 -0.04187300
v 0.00123200 0.02486600 -0.04239100
v 0.00191600 0.02582900 -0.04186000
v 0.00191400 0.02486100 -0.04237800
v 0.00259900 0.02582100 -0.04184100
v 0.00259700 0.02485100 -0.04236000
v 0.00280700 0.02479400 -0.04238300
v 0.00309000 0.02573400 -0.04186700
v 0.00295500 0.02466300 -0.04244600
v 0.00354300 0.02549200 -0.04197400
v 0.00302300 0.02447500 -0.04254000
v 0.00389500 0.02513200 -0.04214700
v 0.00412400 0.02444600 -0.04249700
v 0.00412400 0.02331500 -0.04307400
v 0.00302300 0.02333000 -0.04312300
v 0.00302300 0.02219000 -0.04367900
v 0.00412400 0.02217400 -0.04363100
v 0.00302400 0.02104100 -0.04421800
v 0.00412400 0.02102400 -0.04417000
vn 0.48800000 0.62630000 -0.60790000
vn 0.11170000 0.48650000 -0.86650000
vn 0.05720000 0.51390000 -0.85590000
vn 0.00710000 0.43430000 -0.90070000
vn -0.00820000 0.45500000 -0.89050000
vn 0.00700000 0.46530000 -0.88510000
vn -0.00810000 0.46530000 -0.88510000
vn -0.00710000 0.47770000 -0.87850000
vn -0.01590000 0.47770000 -0.87840000
vn -0.02460000 0.47760000 -0.87820000
vn -0.03450000 0.46500000 -0.88460000
vn -0.03330000 0.47760000 -0.87800000
vn -0.03970000 0.47640000 -0.87830000
vn -0.03710000 0.46430000 -0.88490000
vn -0.04250000 0.47520000 -0.87880000
vn -0.03900000 0.46250000 -0.88580000
vn -0.04760000 0.47140000 -0.88060000
vn -0.03970000 0.46010000 -0.88700000
vn -0.05120000 0.46650000 -0.88300000
vn -0.05280000 0.46000000 -0.88640000
vn -0.05280000 0.45130000 -0.89080000
vn -0.03970000 0.45020000 -0.89200000
vn -0.03970000 0.44590000 -0.89420000
vn 0.00440000 0.42550000 -0.90490000
vn -0.00820000 0.43430000 -0.90070000
vn -0.00820000 0.44470000 -0.89570000
vn -0.00860000 0.43230000 -0.90170000
vn -0.00280000 0.41910000 -0.90790000
vn -0.00990000 0.43060000 -0.90250000
vn -0.01250000 0.41670000 -0.90900000
vn -0.01170000 0.42960000 -0.90300000
vn -0.01370000 0.42930000 -0.90310000
vn -0.01940000 0.41660000 -0.90890000
vn -0.02060000 0.42930000 -0.90290000
vn -0.02640000 0.41660000 -0.90870000
vn -0.02750000 0.42920000 -0.90280000
vn -0.03330000 0.41650000 -0.90850000
vn -0.03450000 0.42910000 -0.90260000
vn -0.04070000 0.41780000 -0.90760000
vn -0.03760000 0.43010000 -0.90200000
vn -0.03900000 0.43140000 -0.90130000
vn -0.04710000 0.42150000 -0.90560000
vn -0.03970000 0.43270000 -0.90070000
vn -0.05130000 0.42720000 -0.90270000
vn -0.03990000 0.43400000 -0.90000000
vn -0.05280000 0.43380000 -0.89940000
vn -0.03980000 0.43900000 -0.89760000
vn -0.05280000 0.44260000 -0.89520000
vn 0.00700000 0.47770000 -0.87850000
vn -0.00710000 0.48390000 -0.87510000
vn 0.00700000 0.48390000 -0.87510000
vn 0.00230000 0.49600000 -0.86830000
vn 0.00700000 0.49000000 -0.87170000
vn 0.00700000 0.49600000 -0.86830000
vn -0.00710000 0.49000000 -0.87170000
vn -0.00240000 0.49610000 -0.86830000
vn -0.00710000 0.49610000 -0.86830000
vn 0.01580000 0.47770000 -0.87840000
vn 0.01570000 0.46530000 -0.88500000
vn 0.02450000 0.47760000 -0.87820000
vn 0.02450000 0.46520000 -0.88490000
vn 0.03320000 0.47750000 -0.87800000
vn 0.03310000 0.46510000 -0.88460000
vn 0.03590000 0.46440000 -0.88490000
vn 0.03950000 0.47640000 -0.87830000
vn 0.03780000 0.46270000 -0.88570000
vn 0.04540000 0.47330000 -0.87970000
vn 0.03880000 0.46030000 -0.88690000
vn 0.04980000 0.46870000 -0.88190000
vn 0.05280000 0.46000000 -0.88640000
vn 0.05270000 0.44550000 -0.89370000
vn 0.03870000 0.44570000 -0.89440000
vn 0.03870000 0.43110000 -0.90150000
vn 0.05270000 0.43090000 -0.90090000
vn 0.03870000 0.41640000 -0.90840000
vn 0.05270000 0.41620000 -0.90770000
f 2//2 3//3 1//1
f 4//4 5//5 6//6
f 6//6 5//5 7//7
f 6//6 7//7 8//8
f 8//8 7//7 9//9
f 9//9 7//7 10//10
f 10//10 7//7 11//11
f 10//10 11//11 12//12
f 12//12 11//11 13//13
f 13//13 11//11 14//14
f 13//13 14//14 15//15
f 15//15 14//14 16//16
f 15//15 16//16 17//17
f 17//17 16//16 18//18
f 17//17 18//18 19//19
f 19//19 18//18 20//20
f 20//20 18//18 21//21
f 21//21 18//18 22//22
f 21//21 22//22 23//23
f 24//24 25//25 4//4
f 4//4 25//25 26//26
f 4//4 26//26 5//5
f 25//25 24//24 27//27
f 27//27 24//24 28//28
f 27//27 28//28 29//29
f 29//29 28//28 30//30
f 29//29 30//30 31//31
f 31//31 30//30 32//32
f 32//32 30//30 33//33
f 32//32 33//33 34//34
f 34//34 33//33 35//35
f 34//34 35//35 36//36
f 36//36 35//35 37//37
f 36//36 37//37 38//38
f 38//38 37//37 39//39
f 38//38 39//39 40//40
f 40//40 39//39 41//41
f 41//41 39//39 42//42
f 41//41 42//42 43//43
f 43//43 42//42 44//44
f 43//43 44//44 45//45
f 45//45 44//44 46//46
f 45//45 46//46 47//47
f 47//47 46//46 48//48
f 47//47 48//48 23//23
f 23//23 48//48 21//21
f 6//6 8//8 49//49
f 49//49 8//8 50//50
f 49//49 50//50 51//51
f 51//51 50//50 52//52
f 51//51 52//52 53//53
f 53//53 52//52 54//54
f 50//50 55//55 52//52
f 52//52 55//55 56//56
f 56//56 55//55 57//57
f 49//49 58//58 6//6
f 6//6 58//58 59//59
f 59//59 58//58 60//60
f 59//59 60//60 61//61
f 61//61 60//60 62//62
f 61//61 62//62 63//63
f 63//63 62//62 64//64
f 64//64 62//62 65//65
f 64//64 65//65 66//66
f 66//66 65//65 67//67
f 66//66 67//67 68//68
f 68//68 67//67 69//69
f 68//68 69//69 70//70
f 70//70 71//71 68//68
f 68//68 71//71 72//72
f 72//72 71//71 73//73
f 73//73 71//71 74//74
f 73//73 74//74 75//75
f 75//75 74//74 76//76