mtllib material.mtl
usemtl material_0
v -0.03923400 -0.00412400 0.05380000
v -0.03947600 0.00000000 0.05480000
v -0.03945000 0.00000000 0.05380000
v -0.03945000 0.00000000 0.05380000
v -0.03947600 0.00000000 0.05480000
v -0.03926000 0.00412600 0.05480000
v -0.03923400 0.00412400 0.05380000
v -0.03861400 0.00820800 0.05480000
v -0.03858800 0.00820200 0.05380000
v -0.03754400 0.01219900 0.05480000
v -0.03751900 0.01219100 0.05380000
v -0.03606300 0.01605600 0.05480000
v -0.03604000 0.01604600 0.05380000
v -0.03418700 0.01973800 0.05480000
v -0.03416500 0.01972500 0.05380000
v -0.03193700 0.02320400 0.05480000
v -0.03191600 0.02318800 0.05380000
v -0.02933700 0.02641500 0.05480000
v -0.02931700 0.02639700 0.05380000
v -0.02641500 0.02933700 0.05480000
v -0.02639700 0.02931700 0.05380000
v -0.02320400 0.03193700 0.05480000
v -0.02318800 0.03191600 0.05380000
v -0.01973800 0.03418700 0.05480000
v -0.01972500 0.03416500 0.05380000
v -0.01605600 0.03606300 0.05480000
v -0.01604600 0.03603900 0.05380000
v -0.01219900 0.03754400 0.05480000
v -0.01219100 0.03751900 0.05380000
v -0.00820800 0.03861400 0.05480000
v -0.00820200 0.03858800 0.05380000
v -0.00412600 0.03926000 0.05480000
v -0.00412400 0.03923400 0.05380000
v 0.00000000 0.03947600 0.05480000
v 0.00000000 0.03945000 0.05380000
v 0.00412600 0.03926000 0.05480000
v 0.00412400 0.03923400 0.05380000
v 0.00820700 0.03861400 0.05480000
v 0.00820200 0.03858800 0.05380000
v 0.01219900 0.03754400 0.05480000
v 0.01219100 0.03751900 0.05380000
v 0.01605600 0.03606300 0.05480000
v 0.01604600 0.03603900 0.05380000
v 0.01973800 0.03418700 0.05480000
v 0.01972500 0.03416500 0.05380000
v 0.02320400 0.03193700 0.05480000
v 0.02318800 0.03191600 0.05380000
v 0.02641500 0.02933700 0.05480000
v 0.02639700 0.02931700 0.05380000
v 0.02933700 0.02641500 0.05480000
v 0.02931700 0.02639700 0.05380000
v 0.03193700 0.02320400 0.05480000
v 0.03191600 0.02318800 0.05380000
v 0.03418700 0.01973800 0.05480000
v 0.03416500 0.01972500 0.05380000
v 0.03606300 0.01605600 0.05480000
v 0.03603900 0.01604600 0.05380000
v 0.03754400 0.01219900 0.05480000
v 0.03751900 0.01219100 0.05380000
v 0.03861400 0.00820800 0.05480000
v 0.03858800 0.00820200 0.05380000
v 0.03926000 0.00412600 0.05480000
v 0.03923400 0.00412400 0.05380000
v 0.03947600 0.00000000 0.05480000
v 0.03945000 0.00000000 0.05380000
v 0.03926000 -0.00412600 0.05480000
v 0.03923400 -0.00412400 0.05380000
v 0.03861400 -0.00820800 0.05480000
v 0.03858800 -0.00820200 0.05380000
v 0.03754400 -0.01219900 0.05480000
v 0.03751900 -0.01219100 0.05380000
v 0.03606300 -0.01605600 0.05480000
v 0.03603900 -0.01604600 0.05380000
v 0.03418700 -0.01973800 0.05480000
v 0.03416500 -0.01972500 0.05380000
v 0.03193700 -0.02320400 0.05480000
v 0.03191600 -0.02318800 0.05380000
v 0.02933700 -0.02641500 0.05480000
v 0.02931700 -0.02639700 0.05380000
v 0.02641500 -0.02933700 0.05480000
v 0.02639700 -0.02931700 0.05380000
v 0.02320400 -0.03193700 0.05480000
v 0.02318800 -0.03191600 0.05380000
v 0.01973800 -0.03418700 0.05480000
v 0.01972500 -0.03416500 0.05380000
v 0.01605600 -0.03606300 0.05480000
v 0.01604600 -0.03603900 0.05380000
v 0.01219900 -0.03754400 0.05480000
v 0.01219100 -0.03751900 0.05380000
v 0.00820800 -0.03861400 0.05480000
v 0.00820200 -0.03858800 0.05380000
v 0.00412600 -0.03926000 0.05480000
v 0.00412400 -0.03923400 0.05380000
v 0.00000000 -0.03947600 0.05480000
v 0.00000000 -0.03945000 0.05380000
v -0.00412600 -0.03926000 0.05480000
v -0.00412400 -0.03923400 0.05380000
v -0.00820800 -0.03861400 0.05480000
v -0.00820200 -0.03858800 0.05380000
v -0.01219900 -0.03754400 0.05480000
v -0.01219100 -0.03751900 0.05380000
v -0.01605600 -0.03606300 0.05480000
v -0.01604600 -0.03603900 0.05380000
v -0.01973800 -0.03418700 0.05480000
v -0.01972500 -0.03416500 0.05380000
v -0.02320400 -0.03193700 0.05480000
v -0.02318800 -0.03191600 0.05380000
v -0.02641500 -0.02933700 0.05480000
v -0.02639700 -0.02931700 0.05380000
v -0.02933700 -0.02641500 0.05480000
v -0.02931700 -0.02639700 0.05380000
v -0.03193700 -0.02320400 0.05480000
v -0.03191600 -0.02318800 0.05380000
v -0.03418700 -0.01973800 0.05480000
v -0.03416500 -0.01972500 0.05380000
v -0.03606300 -0.01605600 0.05480000
v -0.03604000 -0.01604600 0.05380000
v -0.03754400 -0.01219900 0.05480000
v -0.03751900 -0.01219100 0.05380000
v -0.03861400 -0.00820800 0.05480000
v -0.03858800 -0.00820200 0.05380000
v -0.03926000 -0.00412600 0.05480000
v -0.03926000 -0.00412600 0.05480000
v 0.03926000 -0.00412600 0.05480000
v -0.03947600 0.00000000 0.05480000
v 0.03947600 0.00000000 0.05480000
v -0.03926000 0.00412600 0.05480000
v 0.03926000 0.00412600 0.05480000
v -0.03861400 0.00820800 0.05480000
v 0.03861400 0.00820800 0.05480000
v -0.03754400 0.01219900 0.05480000
v 0.03754400 0.01219900 0.05480000
v -0.03606300 0.01605600 0.05480000
v 0.03606300 0.01605600 0.05480000
v -0.03418700 0.01973800 0.05480000
v 0.03418700 0.01973800 0.05480000
v -0.03193700 0.02320400 0.05480000
v 0.03193700 0.02320400 0.05480000
v -0.02933700 0.02641500 0.05480000
v 0.02933700 0.02641500 0.05480000
v -0.02641500 0.02933700 0.05480000
v 0.02641500 0.02933700 0.05480000
v -0.02320400 0.03193700 0.05480000
v 0.02320400 0.03193700 0.05480000
v -0.01973800 0.03418700 0.05480000
v 0.01973800 0.03418700 0.05480000
v -0.01605600 0.03606300 0.05480000
v 0.01605600 0.03606300 0.05480000
v -0.01219900 0.03754400 0.05480000
v 0.01219900 0.03754400 0.05480000
v -0.00820800 0.03861400 0.05480000
v 0.00820700 0.03861400 0.05480000
v -0.00412600 0.03926000 0.05480000
v 0.00412600 0.03926000 0.05480000
v 0.00000000 0.03947600 0.05480000
v 0.03861400 -0.00820800 0.05480000
v -0.03861400 -0.00820800 0.05480000
v 0.03754400 -0.01219900 0.05480000
v -0.03754400 -0.01219900 0.05480000
v 0.03606300 -0.01605600 0.05480000
v -0.03606300 -0.01605600 0.05480000
v 0.03418700 -0.01973800 0.05480000
v -0.03418700 -0.01973800 0.05480000
v 0.03193700 -0.02320400 0.05480000
v -0.03193700 -0.02320400 0.05480000
v 0.02933700 -0.02641500 0.05480000
v -0.02933700 -0.02641500 0.05480000
v 0.02641500 -0.02933700 0.05480000
v -0.02641500 -0.02933700 0.05480000
v 0.02320400 -0.03193700 0.05480000
v -0.02320400 -0.03193700 0.05480000
v 0.01973800 -0.03418700 0.05480000
v -0.01973800 -0.03418700 0.05480000
v 0.01605600 -0.03606300 0.05480000
v -0.01605600 -0.03606300 0.05480000
v 0.01219900 -0.03754400 0.05480000
v -0.01219900 -0.03754400 0.05480000
v 0.00820800 -0.03861400 0.05480000
v -0.00820800 -0.03861400 0.05480000
v 0.00412600 -0.03926000 0.05480000
v -0.00412600 -0.03926000 0.05480000
v 0.00000000 -0.03947600 0.05480000
v -0.03923400 0.00412400 0.05380000
v 0.03923400 0.00412400 0.05380000
v -0.03945000 0.00000000 0.05380000
v 0.03945000 0.00000000 0.05380000
v -0.03923400 -0.00412400 0.05380000
v 0.03923400 -0.00412400 0.05380000
v -0.03858800 -0.00820200 0.05380000
v 0.03858800 -0.00820200 0.05380000
v -0.03751900 -0.01219100 0.05380000
v 0.03751900 -0.01219100 0.05380000
v -0.03604000 -0.01604600 0.05380000
v 0.03603900 -0.01604600 0.05380000
v -0.03416500 -0.01972500 0.05380000
v 0.03416500 -0.01972500 0.05380000
v -0.03191600 -0.02318800 0.05380000
v 0.03191600 -0.02318800 0.05380000
v -0.02931700 -0.02639700 0.05380000
v 0.02931700 -0.02639700 0.05380000
v -0.02639700 -0.02931700 0.05380000
v 0.02639700 -0.02931700 0.05380000
v -0.02318800 -0.03191600 0.05380000
v 0.02318800 -0.03191600 0.05380000
v -0.01972500 -0.03416500 0.05380000
v 0.01972500 -0.03416500 0.05380000
v -0.01604600 -0.03603900 0.05380000
v 0.01604600 -0.03603900 0.05380000
v -0.01219100 -0.03751900 0.05380000
v 0.01219100 -0.03751900 0.05380000
v -0.00820200 -0.03858800 0.05380000
v 0.00820200 -0.03858800 0.05380000
v -0.00412400 -0.03923400 0.05380000
v 0.00412400 -0.03923400 0.05380000
v 0.00000000 -0.03945000 0.05380000
v 0.03858800 0.00820200 0.05380000
v -0.03858800 0.00820200 0.05380000
v 0.03751900 0.01219100 0.05380000
v -0.03751900 0.01219100 0.05380000
v 0.03603900 0.01604600 0.05380000
v -0.03604000 0.01604600 0.05380000
v 0.03416500 0.01972500 0.05380000
v -0.03416500 0.01972500 0.05380000
v 0.03191600 0.02318800 0.05380000
v -0.03191600 0.02318800 0.05380000
v 0.02931700 0.02639700 0.05380000
v -0.02931700 0.02639700 0.05380000
v 0.02639700 0.02931700 0.05380000
v -0.02639700 0.02931700 0.05380000
v 0.02318800 0.03191600 0.05380000
v -0.02318800 0.03191600 0.05380000
v 0.01972500 0.03416500 0.05380000
v -0.01972500 0.03416500 0.05380000
v 0.01604600 0.03603900 0.05380000
v -0.01604600 0.03603900 0.05380000
v 0.01219100 0.03751900 0.05380000
v -0.01219100 0.03751900 0.05380000
v 0.00820200 0.03858800 0.05380000
v -0.00820200 0.03858800 0.05380000
v 0.00412400 0.03923400 0.05380000
v -0.00412400 0.03923400 0.05380000
v 0.00000000 0.03945000 0.05380000
vn -0.99420000 -0.10450000 -0.02620000
vn -0.99970000 -0.00000000 -0.02620000
vn -0.99970000 -0.00000000 -0.02620000
vn -0.99970000 -0.00000000 -0.02620000
vn -0.99970000 -0.00000000 -0.02620000
vn -0.99420000 0.10450000 -0.02620000
vn -0.99420000 0.10450000 -0.02620000
vn -0.97780000 0.20780000 -0.02610000
vn -0.97780000 0.20780000 -0.02610000
vn -0.95070000 0.30890000 -0.02620000
vn -0.95070000 0.30890000 -0.02620000
vn -0.91320000 0.40660000 -0.02610000
vn -0.91320000 0.40660000 -0.02610000
vn -0.86570000 0.49980000 -0.02620000
vn -0.86570000 0.49980000 -0.02620000
vn -0.80870000 0.58760000 -0.02620000
vn -0.80870000 0.58760000 -0.02620000
vn -0.74290000 0.66890000 -0.02620000
vn -0.74290000 0.66890000 -0.02620000
vn -0.66890000 0.74290000 -0.02620000
vn -0.66890000 0.74290000 -0.02620000
vn -0.58760000 0.80870000 -0.02620000
vn -0.58760000 0.80870000 -0.02620000
vn -0.49980000 0.86570000 -0.02620000
vn -0.49980000 0.86570000 -0.02620000
vn -0.40660000 0.91320000 -0.02620000
vn -0.40660000 0.91320000 -0.02620000
vn -0.30890000 0.95070000 -0.02620000
vn -0.30890000 0.95070000 -0.02620000
vn -0.20780000 0.97780000 -0.02620000
vn -0.20780000 0.97780000 -0.02620000
vn -0.10450000 0.99420000 -0.02610000
vn -0.10450000 0.99420000 -0.02610000
vn -0.00000000 0.99970000 -0.02620000
vn -0.00000000 0.99970000 -0.02620000
vn 0.10450000 0.99420000 -0.02610000
vn 0.10450000 0.99420000 -0.02610000
vn 0.20780000 0.97780000 -0.02620000
vn 0.20780000 0.97780000 -0.02620000
vn 0.30890000 0.95070000 -0.02620000
vn 0.30890000 0.95070000 -0.02620000
vn 0.40660000 0.91320000 -0.02620000
vn 0.40660000 0.91320000 -0.02620000
vn 0.49980000 0.86570000 -0.02620000
vn 0.49980000 0.86570000 -0.02620000
vn 0.58760000 0.80870000 -0.02620000
vn 0.58760000 0.80870000 -0.02620000
vn 0.66890000 0.74290000 -0.02620000
vn 0.66890000 0.74290000 -0.02620000
vn 0.74290000 0.66890000 -0.02620000
vn 0.74290000 0.66890000 -0.02620000
vn 0.80870000 0.58760000 -0.02620000
vn 0.80870000 0.58760000 -0.02620000
vn 0.86570000 0.49980000 -0.02610000
vn 0.86570000 0.49980000 -0.02610000
vn 0.91320000 0.40660000 -0.02620000
vn 0.91320000 0.40660000 -0.02620000
vn 0.95070000 0.30890000 -0.02620000
vn 0.95070000 0.30890000 -0.02620000
vn 0.97780000 0.20780000 -0.02620000
vn 0.97780000 0.20780000 -0.02620000
vn 0.99420000 0.10450000 -0.02620000
vn 0.99420000 0.10450000 -0.02620000
vn 0.99970000 -0.00000000 -0.02620000
vn 0.99970000 -0.00000000 -0.02620000
vn 0.99420000 -0.10450000 -0.02620000
vn 0.99420000 -0.10450000 -0.02620000
vn 0.97780000 -0.20780000 -0.02620000
vn 0.97780000 -0.20780000 -0.02620000
vn 0.95070000 -0.30890000 -0.02620000
vn 0.95070000 -0.30890000 -0.02620000
vn 0.91320000 -0.40660000 -0.02610000
vn 0.91320000 -0.40660000 -0.02610000
vn 0.86570000 -0.49980000 -0.02620000
vn 0.86570000 -0.49980000 -0.02620000
vn 0.80870000 -0.58760000 -0.02620000
vn 0.80870000 -0.58760000 -0.02610000
vn 0.74290000 -0.66890000 -0.02620000
vn 0.74290000 -0.66890000 -0.02620000
vn 0.66890000 -0.74290000 -0.02620000
vn 0.66890000 -0.74290000 -0.02620000
vn 0.58760000 -0.80870000 -0.02620000
vn 0.58760000 -0.80870000 -0.02620000
vn 0.49980000 -0.86570000 -0.02620000
vn 0.49980000 -0.86570000 -0.02620000
vn 0.40660000 -0.91320000 -0.02620000
vn 0.40660000 -0.91320000 -0.02620000
vn 0.30890000 -0.95070000 -0.02620000
vn 0.30890000 -0.95070000 -0.02620000
vn 0.20780000 -0.97780000 -0.02620000
vn 0.20780000 -0.97780000 -0.02620000
vn 0.10450000 -0.99420000 -0.02620000
vn 0.10450000 -0.99420000 -0.02620000
vn -0.00000000 -0.99970000 -0.02620000
vn -0.00000000 -0.99970000 -0.02620000
vn -0.10450000 -0.99420000 -0.02620000
vn -0.10450000 -0.99420000 -0.02620000
vn -0.20780000 -0.97780000 -0.02620000
vn -0.20780000 -0.97780000 -0.02620000
vn -0.30890000 -0.95070000 -0.02620000
vn -0.30890000 -0.95070000 -0.02620000
vn -0.40660000 -0.91320000 -0.02620000
vn -0.40660000 -0.91320000 -0.02620000
vn -0.49980000 -0.86570000 -0.02620000
vn -0.49980000 -0.86570000 -0.02620000
vn -0.58760000 -0.80870000 -0.02620000
vn -0.58760000 -0.80870000 -0.02620000
vn -0.66890000 -0.74290000 -0.02620000
vn -0.66890000 -0.74290000 -0.02620000
vn -0.74290000 -0.66890000 -0.02620000
vn -0.74290000 -0.66890000 -0.02620000
vn -0.80870000 -0.58760000 -0.02620000
vn -0.80870000 -0.58760000 -0.02620000
vn -0.86570000 -0.49980000 -0.02620000
vn -0.86570000 -0.49980000 -0.02620000
vn -0.91320000 -0.40660000 -0.02620000
vn -0.91320000 -0.40660000 -0.02620000
vn -0.95070000 -0.30890000 -0.02620000
vn -0.95070000 -0.30890000 -0.02620000
vn -0.97780000 -0.20780000 -0.02610000
vn -0.97780000 -0.20780000 -0.02610000
vn -0.99420000 -0.10450000 -0.02620000
vn -0.00000000 -0.00000000 1.00000000
vn -0.00000000 -0.00000000 1.00000000
vn -0.00000000 -0.00000000 1.00000000
vn -0.00000000 -0.00000000 1.00000000
vn -0.00000000 -0.00000000 1.00000000
vn -0.00000000 -0.00000000 1.00000000
vn -0.00000000 -0.00000000 1.00000000
vn -0.00000000 -0.00000000 1.00000000
vn -0.00000000 -0.00000000 1.00000000
vn -0.00000000 -0.00000000 1.00000000
vn -0.00000000 -0.00000000 1.00000000
vn -0.00000000 -0.00000000 1.00000000
vn -0.00000000 -0.00000000 1.00000000
vn -0.00000000 -0.00000000 1.00000000
vn -0.00000000 -0.00000000 1.00000000
vn -0.00000000 -0.00000000 1.00000000
vn -0.00000000 -0.00000000 1.00000000
vn -0.00000000 -0.00000000 1.00000000
vn -0.00000000 -0.00000000 1.00000000
vn -0.00000000 -0.00000000 1.00000000
vn -0.00000000 -0.00000000 1.00000000
vn -0.00000000 -0.00000000 1.00000000
vn -0.00000000 -0.00000000 1.00000000
vn -0.00000000 -0.00000000 1.00000000
vn -0.00000000 -0.00000000 1.00000000
vn -0.00000000 -0.00000000 1.00000000
vn -0.00000000 -0.00000000 1.00000000
vn -0.00000000 -0.00000000 1.00000000
vn -0.00000000 -0.00000000 1.00000000
vn -0.00000000 -0.00000000 1.00000000
vn -0.00000000 -0.00000000 1.00000000
vn -0.00000000 -0.00000000 1.00000000
vn -0.00000000 -0.00000000 1.00000000
vn -0.00000000 -0.00000000 1.00000000
vn -0.00000000 -0.00000000 1.00000000
vn -0.00000000 -0.00000000 1.00000000
vn -0.00000000 -0.00000000 1.00000000
vn -0.00000000 -0.00000000 1.00000000
vn -0.00000000 -0.00000000 1.00000000
vn -0.00000000 -0.00000000 1.00000000
vn -0.00000000 -0.00000000 1.00000000
vn -0.00000000 -0.00000000 1.00000000
vn -0.00000000 -0.00000000 1.00000000
vn -0.00000000 -0.00000000 1.00000000
vn -0.00000000 -0.00000000 1.00000000
vn -0.00000000 -0.00000000 1.00000000
vn -0.00000000 -0.00000000 1.00000000
vn -0.00000000 -0.00000000 1.00000000
vn -0.00000000 -0.00000000 1.00000000
vn -0.00000000 -0.00000000 1.00000000
vn -0.00000000 -0.00000000 1.00000000
vn -0.00000000 -0.00000000 1.00000000
vn -0.00000000 -0.00000000 1.00000000
vn -0.00000000 -0.00000000 1.00000000
vn -0.00000000 -0.00000000 1.00000000
vn -0.00000000 -0.00000000 1.00000000
vn -0.00000000 -0.00000000 1.00000000
vn -0.00000000 -0.00000000 1.00000000
vn -0.00000000 -0.00000000 1.00000000
vn -0.00000000 -0.00000000 1.00000000
vn -0.00000000 -0.00000000 -1.00000000
vn -0.00000000 -0.00000000 -1.00000000
vn -0.00000000 -0.00000000 -1.00000000
vn -0.00000000 -0.00000000 -1.00000000
vn -0.00000000 -0.00000000 -1.00000000
vn -0.00000000 -0.00000000 -1.00000000
vn -0.00000000 -0.00000000 -1.00000000
vn -0.00000000 -0.00000000 -1.00000000
vn -0.00000000 -0.00000000 -1.00000000
vn -0.00000000 -0.00000000 -1.00000000
vn -0.00000000 -0.00000000 -1.00000000
vn -0.00000000 -0.00000000 -1.00000000
vn -0.00000000 -0.00000000 -1.00000000
vn -0.00000000 -0.00000000 -1.00000000
vn -0.00000000 -0.00000000 -1.00000000
vn -0.00000000 -0.00000000 -1.00000000
vn -0.00000000 -0.00000000 -1.00000000
vn -0.00000000 -0.00000000 -1.00000000
vn -0.00000000 -0.00000000 -1.00000000
vn -0.00000000 -0.00000000 -1.00000000
vn -0.00000000 -0.00000000 -1.00000000
vn -0.00000000 -0.00000000 -1.00000000
vn -0.00000000 -0.00000000 -1.00000000
vn -0.00000000 -0.00000000 -1.00000000
vn -0.00000000 -0.00000000 -1.00000000
vn -0.00000000 -0.00000000 -1.00000000
vn -0.00000000 -0.00000000 -1.00000000
vn -0.00000000 -0.00000000 -1.00000000
vn -0.00000000 -0.00000000 -1.00000000
vn -0.00000000 -0.00000000 -1.00000000
vn -0.00000000 -0.00000000 -1.00000000
vn -0.00000000 -0.00000000 -1.00000000
vn -0.00000000 -0.00000000 -1.00000000
vn -0.00000000 -0.00000000 -1.00000000
vn -0.00000000 -0.00000000 -1.00000000
vn -0.00000000 -0.00000000 -1.00000000
vn -0.00000000 -0.00000000 -1.00000000
vn -0.00000000 -0.00000000 -1.00000000
vn -0.00000000 -0.00000000 -1.00000000
vn -0.00000000 -0.00000000 -1.00000000
vn -0.00000000 -0.00000000 -1.00000000
vn -0.00000000 -0.00000000 -1.00000000
vn -0.00000000 -0.00000000 -1.00000000
vn -0.00000000 -0.00000000 -1.00000000
vn -0.00000000 -0.00000000 -1.00000000
vn -0.00000000 -0.00000000 -1.00000000
vn -0.00000000 -0.00000000 -1.00000000
vn -0.00000000 -0.00000000 -1.00000000
vn -0.00000000 -0.00000000 -1.00000000
vn -0.00000000 -0.00000000 -1.00000000
vn -0.00000000 -0.00000000 -1.00000000
vn -0.00000000 -0.00000000 -1.00000000
vn -0.00000000 -0.00000000 -1.00000000
vn -0.00000000 -0.00000000 -1.00000000
vn -0.00000000 -0.00000000 -1.00000000
vn -0.00000000 -0.00000000 -1.00000000
vn -0.00000000 -0.00000000 -1.00000000
vn -0.00000000 -0.00000000 -1.00000000
vn -0.00000000 -0.00000000 -1.00000000
vn -0.00000000 -0.00000000 -1.00000000
f 1//1 2//2 3//3
f 4//4 5//5 6//6
f 4//4 6//6 7//7
f 7//7 6//6 8//8
f 7//7 8//8 9//9
f 9//9 8//8 10//10
f 9//9 10//10 11//11
f 11//11 10//10 12//12
f 11//11 12//12 13//13
f 13//13 12//12 14//14
f 13//13 14//14 15//15
f 15//15 14//14 16//16
f 15//15 16//16 17//17
f 17//17 16//16 18//18
f 17//17 18//18 19//19
f 19//19 18//18 20//20
f 19//19 20//20 21//21
f 21//21 20//20 22//22
f 21//21 22//22 23//23
f 23//23 22//22 24//24
f 23//23 24//24 25//25
f 25//25 24//24 26//26
f 25//25 26//26 27//27
f 27//27 26//26 28//28
f 27//27 28//28 29//29
f 29//29 28//28 30//30
f 29//29 30//30 31//31
f 31//31 30//30 32//32
f 31//31 32//32 33//33
f 33//33 32//32 34//34
f 33//33 34//34 35//35
f 35//35 34//34 36//36
f 35//35 36//36 37//37
f 37//37 36//36 38//38
f 37//37 38//38 39//39
f 39//39 38//38 40//40
f 39//39 40//40 41//41
f 41//41 40//40 42//42
f 41//41 42//42 43//43
f 43//43 42//42 44//44
f 43//43 44//44 45//45
f 45//45 44//44 46//46
f 45//45 46//46 47//47
f 47//47 46//46 48//48
f 47//47 48//48 49//49
f 49//49 48//48 50//50
f 49//49 50//50 51//51
f 51//51 50//50 52//52
f 51//51 52//52 53//53
f 53//53 52//52 54//54
f 53//53 54//54 55//55
f 55//55 54//54 56//56
f 55//55 56//56 57//57
f 57//57 56//56 58//58
f 57//57 58//58 59//59
f 59//59 58//58 60//60
f 59//59 60//60 61//61
f 61//61 60//60 62//62
f 61//61 62//62 63//63
f 63//63 62//62 64//64
f 63//63 64//64 65//65
f 65//65 64//64 66//66
f 65//65 66//66 67//67
f 67//67 66//66 68//68
f 67//67 68//68 69//69
f 69//69 68//68 70//70
f 69//69 70//70 71//71
f 71//71 70//70 72//72
f 71//71 72//72 73//73
f 73//73 72//72 74//74
f 73//73 74//74 75//75
f 75//75 74//74 76//76
f 75//75 76//76 77//77
f 77//77 76//76 78//78
f 77//77 78//78 79//79
f 79//79 78//78 80//80
f 79//79 80//80 81//81
f 81//81 80//80 82//82
f 81//81 82//82 83//83
f 83//83 82//82 84//84
f 83//83 84//84 85//85
f 85//85 84//84 86//86
f 85//85 86//86 87//87
f 87//87 86//86 88//88
f 87//87 88//88 89//89
f 89//89 88//88 90//90
f 89//89 90//90 91//91
f 91//91 90//90 92//92
f 91//91 92//92 93//93
f 93//93 92//92 94//94
f 93//93 94//94 95//95
f 95//95 94//94 96//96
f 95//95 96//96 97//97
f 97//97 96//96 98//98
f 97//97 98//98 99//99
f 99//99 98//98 100//100
f 99//99 100//100 101//101
f 101//101 100//100 102//102
f 101//101 102//102 103//103
f 103//103 102//102 104//104
f 103//103 104//104 105//105
f 105//105 104//104 106//106
f 105//105 106//106 107//107
f 107//107 106//106 108//108
f 107//107 108//108 109//109
f 109//109 108//108 110//110
f 109//109 110//110 111//111
f 111//111 110//110 112//112
f 111//111 112//112 113//113
f 113//113 112//112 114//114
f 113//113 114//114 115//115
f 115//115 114//114 116//116
f 115//115 116//116 117//117
f 117//117 116//116 118//118
f 117//117 118//118 119//119
f 119//119 118//118 120//120
f 119//119 120//120 121//121
f 121//121 120//120 122//122
f 121//121 122//122 1//1
f 1//1 122//122 2//2
f 123//123 124//124 125//125
f 125//125 124//124 126//126
f 125//125 126//126 127//127
f 127//127 126//126 128//128
f 127//127 128//128 129//129
f 129//129 128//128 130//130
f 129//129 130//130 131//131
f 131//131 130//130 132//132
f 131//131 132//132 133//133
f 133//133 132//132 134//134
f 133//133 134//134 135//135
f 135//135 134//134 136//136
f 135//135 136//136 137//137
f 137//137 136//136 138//138
f 137//137 138//138 139//139
f 139//139 138//138 140//140
f 139//139 140//140 141//141
f 141//141 140//140 142//142
f 141//141 142//142 143//143
f 143//143 142//142 144//144
f 143//143 144//144 145//145
f 145//145 144//144 146//146
f 145//145 146//146 147//147
f 147//147 146//146 148//148
f 147//147 148//148 149//149
f 149//149 148//148 150//150
f 149//149 150//150 151//151
f 151//151 150//150 152//152
f 151//151 152//152 153//153
f 153//153 152//152 154//154
f 153//153 154//154 155//155
f 124//124 123//123 156//156
f 156//156 123//123 157//157
f 156//156 157//157 158//158
f 158//158 157//157 159//159
f 158//158 159//159 160//160
f 160//160 159//159 161//161
f 160//160 161//161 162//162
f 162//162 161//161 163//163
f 162//162 163//163 164//164
f 164//164 163//163 165//165
f 164//164 165//165 166//166
f 166//166 165//165 167//167
f 166//166 167//167 168//168
f 168//168 167//167 169//169
f 168//168 169//169 170//170
f 170//170 169//169 171//171
f 170//170 171//171 172//172
f 172//172 171//171 173//173
f 172//172 173//173 174//174
f 174//174 173//173 175//175
f 174//174 175//175 176//176
f 176//176 175//175 177//177
f 176//176 177//177 178//178
f 178//178 177//177 179//179
f 178//178 179//179 180//180
f 180//180 179//179 181//181
f 180//180 181//181 182//182
f 183//183 184//184 185//185
f 185//185 184//184 186//186
f 185//185 186//186 187//187
f 187//187 186//186 188//188
f 187//187 188//188 189//189
f 189//189 188//188 190//190
f 189//189 190//190 191//191
f 191//191 190//190 192//192
f 191//191 192//192 193//193
f 193//193 192//192 194//194
f 193//193 194//194 195//195
f 195//195 194//194 196//196
f 195//195 196//196 197//197
f 197//197 196//196 198//198
f 197//197 198//198 199//199
f 199//199 198//198 200//200
f 199//199 200//200 201//201
f 201//201 200//200 202//202
f 201//201 202//202 203//203
f 203//203 202//202 204//204
f 203//203 204//204 205//205
f 205//205 204//204 206//206
f 205//205 206//206 207//207
f 207//207 206//206 208//208
f 207//207 208//208 209//209
f 209//209 208//208 210//210
f 209//209 210//210 211//211
f 211//211 210//210 212//212
f 211//211 212//212 213//213
f 213//213 212//212 214//214
f 213//213 214//214 215//215
f 184//184 183//183 216//216
f 216//216 183//183 217//217
f 216//216 217//217 218//218
f 218//218 217//217 219//219
f 218//218 219//219 220//220
f 220//220 219//219 221//221
f 220//220 221//221 222//222
f 222//222 221//221 223//223
f 222//222 223//223 224//224
f 224//224 223//223 225//225
f 224//224 225//225 226//226
f 226//226 225//225 227//227
f 226//226 227//227 228//228
f 228//228 227//227 229//229
f 228//228 229//229 230//230
f 230//230 229//229 231//231
f 230//230 231//231 232//232
f 232//232 231//231 233//233
f 232//232 233//233 234//234
f 234//234 233//233 235//235
f 234//234 235//235 236//236
f 236//236 235//235 237//237
f 236//236 237//237 238//238
f 238//238 237//237 239//239
f 238//238 239//239 240//240
f 240//240 239//239 241//241
f 240//240 241//241 242//242