mtllib material.mtl
usemtl material_0
v -0.01594800 0.02399800 0.07170400
v -0.01345000 0.02399800 0.07364100
v -0.01643000 0.02399800 0.07189800
v -0.01345000 0.02399800 0.08235900
v -0.01643000 0.02399800 0.08410200
v -0.01594800 0.02399800 0.08429600
v -0.01543300 0.02399800 0.08435800
v -0.01491900 0.02399800 0.08428700
v -0.01444000 0.02399800 0.08408500
v -0.01403000 0.02399800 0.08376700
v -0.01371500 0.02399800 0.08335400
v -0.01351700 0.02399800 0.08287300
v -0.01543300 0.02399800 0.07164100
v -0.01491900 0.02399800 0.07171300
v -0.01444000 0.02399800 0.07191500
v -0.01403000 0.02399800 0.07223300
v -0.01371500 0.02399800 0.07264600
v -0.01351700 0.02399800 0.07312600
v -0.01731000 0.02399800 0.07248400
v -0.01731000 0.02399800 0.08351600
v -0.01809200 0.02399800 0.07319700
v -0.01809200 0.02399800 0.08280300
v -0.01875800 0.02399800 0.07401900
v -0.01875800 0.02399800 0.08198100
v -0.01929200 0.02399800 0.07493200
v -0.01929200 0.02399800 0.08106800
v -0.01968200 0.02399800 0.07591500
v -0.01968200 0.02399800 0.08008500
v -0.01992000 0.02399800 0.07694500
v -0.01992000 0.02399800 0.07905500
v -0.02000000 0.02399800 0.07800000
v 0.01351700 0.02399800 0.07312600
v 0.01371500 0.02399800 0.07264600
v 0.01345000 0.02399800 0.07364100
v 0.01403000 0.02399800 0.07223300
v 0.01444000 0.02399800 0.07191500
v 0.01491800 0.02399800 0.07171300
v 0.01543300 0.02399800 0.07164100
v 0.01594800 0.02399800 0.07170400
v 0.01643000 0.02399800 0.07189800
v 0.01643000 0.02399800 0.08410200
v 0.01345000 0.02399800 0.08235900
v 0.01594800 0.02399800 0.08429600
v 0.01543300 0.02399800 0.08435800
v 0.01731000 0.02399800 0.08351600
v 0.01731000 0.02399800 0.07248400
v 0.01809200 0.02399800 0.08280300
v 0.01809200 0.02399800 0.07319700
v 0.01875800 0.02399800 0.08198100
v 0.01875800 0.02399800 0.07401900
v 0.01929200 0.02399800 0.08106800
v 0.01929200 0.02399800 0.07493200
v 0.01968200 0.02399800 0.08008500
v 0.01968200 0.02399800 0.07591500
v 0.01992000 0.02399800 0.07905500
v 0.01992000 0.02399800 0.07694500
v 0.02000000 0.02399800 0.07800000
v 0.01491800 0.02399800 0.08428700
v 0.01444000 0.02399800 0.08408500
v 0.01403000 0.02399800 0.08376700
v 0.01371500 0.02399800 0.08335400
v 0.01351700 0.02399800 0.08287300
v 0.01092800 0.03060600 0.08500000
v -0.01092800 0.03060600 0.08500000
v 0.01300000 0.02978500 0.08500000
v -0.01300000 0.02978500 0.08500000
v 0.01300000 0.02749800 0.08500000
v -0.01300000 0.02749800 0.08500000
v -0.00880500 0.03128300 0.08500000
v 0.00880500 0.03128300 0.08500000
v -0.00664000 0.03181300 0.08500000
v 0.00664000 0.03181300 0.08500000
v -0.00444400 0.03219300 0.08500000
v 0.00444400 0.03219300 0.08500000
v -0.00222700 0.03242200 0.08500000
v 0.00222700 0.03242200 0.08500000
v 0.00000000 0.03249800 0.08500000
v 0.01932400 0.02549800 0.08100000
v 0.01969700 0.02549800 0.08003700
v 0.01700000 0.02549800 0.08100000
v 0.01992400 0.02549800 0.07903000
v 0.02000000 0.02549800 0.07800000
v 0.01992400 0.02549800 0.07697000
v 0.01700000 0.02549800 0.07500000
v 0.01633200 0.02549800 0.07507500
v 0.01569800 0.02549800 0.07529700
v 0.01969700 0.02549800 0.07596300
v 0.01932400 0.02549800 0.07500000
v 0.01512900 0.02549800 0.07565400
v 0.01465400 0.02549800 0.07612900
v 0.01429700 0.02549800 0.07669800
v 0.01407500 0.02549800 0.07733200
v 0.01400000 0.02549800 0.07800000
v 0.01407500 0.02549800 0.07866700
v 0.01429700 0.02549800 0.07930200
v 0.01465400 0.02549800 0.07987000
v 0.01512900 0.02549800 0.08034500
v 0.01569800 0.02549800 0.08070300
v 0.01633200 0.02549800 0.08092500
v -0.01932500 0.02612900 0.08100000
v -0.01856500 0.02667400 0.08100000
v -0.01932500 0.02549800 0.08100000
v -0.01700000 0.02549800 0.08100000
v -0.01779000 0.02719700 0.08100000
v -0.01700000 0.02769700 0.08100000
v -0.01700000 0.02769700 0.08100000
v -0.01646700 0.02801700 0.08095200
v -0.01700000 0.02549800 0.08100000
v -0.01633200 0.02549800 0.08092500
v -0.01592600 0.02832800 0.08080100
v -0.01569800 0.02549800 0.08070300
v -0.01541100 0.02861200 0.08054400
v -0.01513000 0.02549800 0.08034500
v -0.01495200 0.02885400 0.08019200
v -0.01465500 0.02549800 0.07987000
v -0.01456700 0.02905100 0.07975300
v -0.01429700 0.02549800 0.07930200
v -0.01425800 0.02920300 0.07921700
v -0.01407500 0.02549800 0.07866700
v -0.01406500 0.02929700 0.07861600
v -0.01400000 0.02549800 0.07800000
v -0.01400000 0.02932800 0.07800000
v -0.01406500 0.02929700 0.07738300
v -0.01407500 0.02549800 0.07733200
v -0.01425800 0.02920300 0.07678300
v -0.01429700 0.02549800 0.07669800
v -0.01456700 0.02905100 0.07624700
v -0.01465500 0.02549800 0.07612900
v -0.01495200 0.02885400 0.07580800
v -0.01513000 0.02549800 0.07565400
v -0.01541100 0.02861200 0.07545600
v -0.01569800 0.02549800 0.07529700
v -0.01592600 0.02832800 0.07519900
v -0.01633200 0.02549800 0.07507500
v -0.01646700 0.02801700 0.07504800
v -0.01700000 0.02549800 0.07500000
v -0.01700000 0.02769700 0.07500000
v -0.01700000 0.02769700 0.07500000
v -0.01779000 0.02719700 0.07500000
v -0.01700000 0.02549800 0.07500000
v -0.01856500 0.02667400 0.07500000
v -0.01932500 0.02549800 0.07500000
v -0.01932500 0.02612900 0.07500000
v -0.01932500 0.02549800 0.07500000
v -0.01969700 0.02549800 0.07596300
v -0.01700000 0.02549800 0.07500000
v -0.01992400 0.02549800 0.07697000
v -0.02000000 0.02549800 0.07800000
v -0.01992400 0.02549800 0.07903000
v -0.01700000 0.02549800 0.08100000
v -0.01633200 0.02549800 0.08092500
v -0.01569800 0.02549800 0.08070300
v -0.01969700 0.02549800 0.08003700
v -0.01932500 0.02549800 0.08100000
v -0.01513000 0.02549800 0.08034500
v -0.01465500 0.02549800 0.07987000
v -0.01429700 0.02549800 0.07930200
v -0.01407500 0.02549800 0.07866700
v -0.01400000 0.02549800 0.07800000
v -0.01407500 0.02549800 0.07733200
v -0.01429700 0.02549800 0.07669800
v -0.01465500 0.02549800 0.07612900
v -0.01513000 0.02549800 0.07565400
v -0.01569800 0.02549800 0.07529700
v -0.01633200 0.02549800 0.07507500
v 0.01643000 0.02749800 0.08410200
v 0.01562300 0.02749800 0.08449000
v 0.01562300 0.02749800 0.08449000
v 0.01594800 0.02749800 0.08429600
v 0.01594800 0.02749800 0.08429600
v 0.01543300 0.02749800 0.08435800
v 0.01477300 0.02749800 0.08477200
v 0.01491800 0.02749800 0.08428700
v 0.01389400 0.02749800 0.08494300
v 0.01444000 0.02749800 0.08408500
v 0.01300000 0.02749800 0.08500000
v 0.01403000 0.02749800 0.08376700
v 0.01371500 0.02749800 0.08335400
v 0.01351700 0.02749800 0.08287300
v -0.01300000 0.02749800 0.08500000
v -0.01351700 0.02749800 0.08287300
v -0.01371500 0.02749800 0.08335400
v -0.01403000 0.02749800 0.08376700
v -0.01444000 0.02749800 0.08408500
v -0.01389400 0.02749800 0.08494300
v -0.01491900 0.02749800 0.08428700
v -0.01477300 0.02749800 0.08477200
v -0.01543300 0.02749800 0.08435800
v -0.01562300 0.02749800 0.08449000
v -0.01562300 0.02749800 0.08449000
v -0.01594800 0.02749800 0.08429600
v -0.01594800 0.02749800 0.08429600
v -0.01643000 0.02749800 0.08410200
v 0.01345000 0.02749800 0.08235900
v -0.01345000 0.02749800 0.08235900
v 0.01345000 0.02749800 0.07364100
v -0.01345000 0.02749800 0.07364100
v 0.01351700 0.02749800 0.07312600
v -0.01351700 0.02749800 0.07312600
v 0.01300000 0.02749800 0.07100000
v -0.01300000 0.02749800 0.07100000
v -0.01371500 0.02749800 0.07264600
v -0.01403000 0.02749800 0.07223300
v -0.01444000 0.02749800 0.07191500
v -0.01389400 0.02749800 0.07105700
v -0.01491900 0.02749800 0.07171300
v -0.01477300 0.02749800 0.07122800
v -0.01543300 0.02749800 0.07164100
v -0.01562300 0.02749800 0.07151000
v -0.01562300 0.02749800 0.07151000
v -0.01594800 0.02749800 0.07170400
v -0.01594800 0.02749800 0.07170400
v -0.01643000 0.02749800 0.07189800
v 0.01389400 0.02749800 0.07105700
v 0.01444000 0.02749800 0.07191500
v 0.01403000 0.02749800 0.07223300
v 0.01371500 0.02749800 0.07264600
v 0.01491800 0.02749800 0.07171300
v 0.01477300 0.02749800 0.07122800
v 0.01543300 0.02749800 0.07164100
v 0.01562300 0.02749800 0.07151000
v 0.01562300 0.02749800 0.07151000
v 0.01594800 0.02749800 0.07170400
v 0.01594800 0.02749800 0.07170400
v 0.01643000 0.02749800 0.07189800
v 0.01345000 0.02749800 0.08235900
v 0.01345000 0.02399800 0.08235900
v 0.01351700 0.02749800 0.08287300
v 0.01351700 0.02399800 0.08287300
v 0.01371500 0.02399800 0.08335400
v 0.01371500 0.02749800 0.08335400
v 0.01403000 0.02399800 0.08376700
v 0.01403000 0.02749800 0.08376700
v 0.01444000 0.02399800 0.08408500
v 0.01444000 0.02749800 0.08408500
v 0.01491800 0.02399800 0.08428700
v 0.01491800 0.02749800 0.08428700
v 0.01543300 0.02399800 0.08435800
v 0.01543300 0.02749800 0.08435800
v 0.01594800 0.02399800 0.08429600
v 0.01594800 0.02749800 0.08429600
v 0.01643000 0.02749800 0.08410200
v 0.01643000 0.02399800 0.08410200
v -0.01643000 0.02749800 0.08410200
v -0.01643000 0.02399800 0.08410200
v -0.01594800 0.02749800 0.08429600
v -0.01594800 0.02399800 0.08429600
v -0.01543300 0.02399800 0.08435800
v -0.01543300 0.02749800 0.08435800
v -0.01491900 0.02399800 0.08428700
v -0.01491900 0.02749800 0.08428700
v -0.01444000 0.02399800 0.08408500
v -0.01444000 0.02749800 0.08408500
v -0.01403000 0.02399800 0.08376700
v -0.01403000 0.02749800 0.08376700
v -0.01371500 0.02399800 0.08335400
v -0.01371500 0.02749800 0.08335400
v -0.01351700 0.02399800 0.08287300
v -0.01351700 0.02749800 0.08287300
v -0.01345000 0.02749800 0.08235900
v -0.01345000 0.02399800 0.08235900
v 0.01345000 0.02399800 0.07364100
v 0.01345000 0.02399800 0.08235900
v 0.01345000 0.02749800 0.07364100
v 0.01345000 0.02749800 0.08235900
v 0.01643000 0.02749800 0.07189800
v 0.01643000 0.02399800 0.07189800
v 0.01594800 0.02749800 0.07170400
v 0.01594800 0.02399800 0.07170400
v 0.01543300 0.02399800 0.07164100
v 0.01543300 0.02749800 0.07164100
v 0.01491800 0.02399800 0.07171300
v 0.01491800 0.02749800 0.07171300
v 0.01444000 0.02399800 0.07191500
v 0.01444000 0.02749800 0.07191500
v 0.01403000 0.02399800 0.07223300
v 0.01403000 0.02749800 0.07223300
v 0.01371500 0.02399800 0.07264600
v 0.01371500 0.02749800 0.07264600
v 0.01351700 0.02399800 0.07312600
v 0.01351700 0.02749800 0.07312600
v 0.01345000 0.02749800 0.07364100
v 0.01345000 0.02399800 0.07364100
v -0.01345000 0.02749800 0.07364100
v -0.01345000 0.02749800 0.08235900
v -0.01345000 0.02399800 0.07364100
v -0.01345000 0.02399800 0.08235900
v -0.01345000 0.02749800 0.07364100
v -0.01345000 0.02399800 0.07364100
v -0.01351700 0.02749800 0.07312600
v -0.01351700 0.02399800 0.07312600
v -0.01371500 0.02399800 0.07264600
v -0.01371500 0.02749800 0.07264600
v -0.01403000 0.02399800 0.07223300
v -0.01403000 0.02749800 0.07223300
v -0.01444000 0.02399800 0.07191500
v -0.01444000 0.02749800 0.07191500
v -0.01491900 0.02399800 0.07171300
v -0.01491900 0.02749800 0.07171300
v -0.01543300 0.02399800 0.07164100
v -0.01543300 0.02749800 0.07164100
v -0.01594800 0.02399800 0.07170400
v -0.01594800 0.02749800 0.07170400
v -0.01643000 0.02749800 0.07189800
v -0.01643000 0.02399800 0.07189800
v 0.01300000 0.02749800 0.07100000
v 0.01300000 0.02978500 0.07100000
v 0.01389400 0.02749800 0.07105700
v 0.01396600 0.02934400 0.07106800
v 0.01477300 0.02749800 0.07122800
v 0.01492900 0.02886500 0.07127200
v 0.01562300 0.02749800 0.07151000
v 0.01586000 0.02836500 0.07161100
v 0.01643000 0.02749800 0.07189800
v 0.01673000 0.02786100 0.07207800
v 0.01643000 0.02399800 0.07189800
v 0.01731000 0.02399800 0.07248400
v 0.01751800 0.02737300 0.07265400
v 0.01809200 0.02399800 0.07319700
v 0.01820500 0.02692000 0.07332000
v 0.01875800 0.02399800 0.07401900
v 0.01881200 0.02650000 0.07410200
v 0.01929200 0.02399800 0.07493200
v 0.01932400 0.02612900 0.07500000
v 0.01932400 0.02549800 0.07500000
v 0.01968200 0.02399800 0.07591500
v 0.01969700 0.02549800 0.07596300
v 0.01992000 0.02399800 0.07694500
v 0.01992400 0.02549800 0.07697000
v 0.02000000 0.02399800 0.07800000
v 0.02000000 0.02549800 0.07800000
v 0.01992400 0.02549800 0.07903000
v 0.01992000 0.02399800 0.07905500
v 0.01969700 0.02549800 0.08003700
v 0.01968200 0.02399800 0.08008500
v 0.01932400 0.02549800 0.08100000
v 0.01929200 0.02399800 0.08106800
v 0.01932400 0.02612900 0.08100000
v 0.01881200 0.02650000 0.08189800
v 0.01875800 0.02399800 0.08198100
v 0.01820500 0.02692000 0.08268000
v 0.01809200 0.02399800 0.08280300
v 0.01751800 0.02737300 0.08334600
v 0.01731000 0.02399800 0.08351600
v 0.01673000 0.02786100 0.08392200
v 0.01643000 0.02399800 0.08410200
v 0.01643000 0.02749800 0.08410200
v 0.01586000 0.02836500 0.08438900
v 0.01562300 0.02749800 0.08449000
v 0.01492900 0.02886500 0.08472800
v 0.01477300 0.02749800 0.08477200
v 0.01396600 0.02934400 0.08493200
v 0.01389400 0.02749800 0.08494300
v 0.01300000 0.02978500 0.08500000
v 0.01300000 0.02749800 0.08500000
v -0.01932500 0.02549800 0.07500000
v -0.01932500 0.02612900 0.07500000
v -0.01929200 0.02399800 0.07493200
v -0.01881200 0.02650000 0.07410200
v -0.01875800 0.02399800 0.07401900
v -0.01820500 0.02692000 0.07332000
v -0.01809200 0.02399800 0.07319700
v -0.01751800 0.02737300 0.07265400
v -0.01731000 0.02399800 0.07248400
v -0.01673000 0.02786100 0.07207800
v -0.01643000 0.02399800 0.07189800
v -0.01643000 0.02749800 0.07189800
v -0.01586000 0.02836500 0.07161100
v -0.01562300 0.02749800 0.07151000
v -0.01492900 0.02886500 0.07127200
v -0.01477300 0.02749800 0.07122800
v -0.01396600 0.02934400 0.07106800
v -0.01389400 0.02749800 0.07105700
v -0.01300000 0.02978500 0.07100000
v -0.01300000 0.02749800 0.07100000
v -0.01968200 0.02399800 0.07591500
v -0.01969700 0.02549800 0.07596300
v -0.01992000 0.02399800 0.07694500
v -0.01992400 0.02549800 0.07697000
v -0.02000000 0.02399800 0.07800000
v -0.02000000 0.02549800 0.07800000
v -0.01992400 0.02549800 0.07903000
v -0.01992000 0.02399800 0.07905500
v -0.01969700 0.02549800 0.08003700
v -0.01968200 0.02399800 0.08008500
v -0.01932500 0.02549800 0.08100000
v -0.01929200 0.02399800 0.08106800
v -0.01932500 0.02612900 0.08100000
v -0.01881200 0.02650000 0.08189800
v -0.01875800 0.02399800 0.08198100
v -0.01820500 0.02692000 0.08268000
v -0.01809200 0.02399800 0.08280300
v -0.01751800 0.02737300 0.08334600
v -0.01731000 0.02399800 0.08351600
v -0.01673000 0.02786100 0.08392200
v -0.01643000 0.02399800 0.08410200
v -0.01643000 0.02749800 0.08410200
v -0.01586000 0.02836500 0.08438900
v -0.01562300 0.02749800 0.08449000
v -0.01492900 0.02886500 0.08472800
v -0.01477300 0.02749800 0.08477200
v -0.01396600 0.02934400 0.08493200
v -0.01389400 0.02749800 0.08494300
v -0.01300000 0.02978500 0.08500000
v -0.01300000 0.02749800 0.08500000
v 0.01700000 0.02769700 0.08100000
v 0.01779000 0.02719700 0.08100000
v 0.01700000 0.02549800 0.08100000
v 0.01856500 0.02667400 0.08100000
v 0.01932400 0.02549800 0.08100000
v 0.01932400 0.02612900 0.08100000
v 0.01700000 0.02769700 0.07500000
v 0.01646700 0.02801700 0.07504800
v 0.01700000 0.02549800 0.07500000
v 0.01633200 0.02549800 0.07507500
v 0.01592600 0.02832800 0.07519900
v 0.01569800 0.02549800 0.07529700
v 0.01541100 0.02861200 0.07545600
v 0.01512900 0.02549800 0.07565400
v 0.01495200 0.02885400 0.07580800
v 0.01465400 0.02549800 0.07612900
v 0.01456600 0.02905100 0.07624700
v 0.01429700 0.02549800 0.07669800
v 0.01425800 0.02920300 0.07678300
v 0.01407500 0.02549800 0.07733200
v 0.01406500 0.02929700 0.07738300
v 0.01400000 0.02549800 0.07800000
v 0.01400000 0.02932800 0.07800000
v 0.01406500 0.02929700 0.07861600
v 0.01407500 0.02549800 0.07866700
v 0.01425800 0.02920300 0.07921700
v 0.01429700 0.02549800 0.07930200
v 0.01456600 0.02905100 0.07975300
v 0.01465400 0.02549800 0.07987000
v 0.01495200 0.02885400 0.08019200
v 0.01512900 0.02549800 0.08034500
v 0.01541100 0.02861200 0.08054400
v 0.01569800 0.02549800 0.08070300
v 0.01592600 0.02832800 0.08080100
v 0.01633200 0.02549800 0.08092500
v 0.01646700 0.02801700 0.08095200
v 0.01700000 0.02549800 0.08100000
v 0.01700000 0.02769700 0.08100000
v 0.01932400 0.02612900 0.07500000
v 0.01856500 0.02667400 0.07500000
v 0.01932400 0.02549800 0.07500000
v 0.01700000 0.02549800 0.07500000
v 0.01779000 0.02719700 0.07500000
v 0.01700000 0.02769700 0.07500000
v -0.01092800 0.03060600 0.07100000
v 0.01092800 0.03060600 0.07100000
v -0.01300000 0.02978500 0.07100000
v 0.01300000 0.02978500 0.07100000
v -0.01300000 0.02749800 0.07100000
v 0.01300000 0.02749800 0.07100000
v 0.00880500 0.03128300 0.07100000
v -0.00880500 0.03128300 0.07100000
v 0.00664000 0.03181300 0.07100000
v -0.00664000 0.03181300 0.07100000
v 0.00444400 0.03219300 0.07100000
v -0.00444400 0.03219300 0.07100000
v 0.00222700 0.03242200 0.07100000
v -0.00222700 0.03242200 0.07100000
v 0.00000000 0.03249800 0.07100000
v 0.01092800 0.03060600 0.07100000
v 0.01300000 0.02978500 0.08500000
v 0.01300000 0.02978500 0.07100000
v 0.01396600 0.02934400 0.08493200
v 0.01396600 0.02934400 0.07106800
v 0.01396600 0.02934400 0.07106800
v 0.01396600 0.02934400 0.07106800
v 0.01400000 0.02932800 0.07800000
v 0.01400000 0.02932800 0.07800000
v 0.01400000 0.02932800 0.07800000
v 0.01406500 0.02929700 0.07738300
v 0.01092800 0.03060600 0.08500000
v 0.00880500 0.03128300 0.07100000
v 0.00880500 0.03128300 0.08500000
v 0.00664000 0.03181300 0.07100000
v 0.00664000 0.03181300 0.08500000
v 0.00444400 0.03219300 0.07100000
v 0.00444400 0.03219300 0.08500000
v 0.00222700 0.03242200 0.07100000
v 0.00222700 0.03242200 0.08500000
v 0.00000000 0.03249800 0.08500000
v 0.00000000 0.03249800 0.07100000
v -0.00222700 0.03242200 0.08500000
v -0.00222700 0.03242200 0.07100000
v -0.00444400 0.03219300 0.07100000
v -0.00444400 0.03219300 0.08500000
v -0.00664000 0.03181300 0.07100000
v -0.00664000 0.03181300 0.08500000
v -0.00880500 0.03128300 0.07100000
v -0.00880500 0.03128300 0.08500000
v -0.01092800 0.03060600 0.07100000
v -0.01092800 0.03060600 0.08500000
v -0.01300000 0.02978500 0.07100000
v -0.01300000 0.02978500 0.08500000
v -0.01396600 0.02934400 0.07106800
v -0.01396600 0.02934400 0.07106800
v -0.01396600 0.02934400 0.08493200
v -0.01400000 0.02932800 0.07800000
v -0.01400000 0.02932800 0.07800000
v -0.01406500 0.02929700 0.07861600
v -0.01492900 0.02886500 0.07127200
v -0.01456700 0.02905100 0.07624700
v -0.01425800 0.02920300 0.07678300
v -0.01406500 0.02929700 0.07738300
v -0.01586000 0.02836500 0.07161100
v -0.01541100 0.02861200 0.07545600
v -0.01495200 0.02885400 0.07580800
v -0.01673000 0.02786100 0.07207800
v -0.01646700 0.02801700 0.07504800
v -0.01592600 0.02832800 0.07519900
v -0.01700000 0.02769700 0.07500000
v -0.01751800 0.02737300 0.07265400
v -0.01779000 0.02719700 0.07500000
v -0.01820500 0.02692000 0.07332000
v -0.01856500 0.02667400 0.07500000
v -0.01881200 0.02650000 0.07410200
v -0.01932500 0.02612900 0.07500000
v -0.01425800 0.02920300 0.07921700
v -0.01456700 0.02905100 0.07975300
v -0.01492900 0.02886500 0.08472800
v -0.01495200 0.02885400 0.08019200
v -0.01541100 0.02861200 0.08054400
v -0.01586000 0.02836500 0.08438900
v -0.01592600 0.02832800 0.08080100
v -0.01646700 0.02801700 0.08095200
v -0.01673000 0.02786100 0.08392200
v -0.01700000 0.02769700 0.08100000
v -0.01751800 0.02737300 0.08334600
v -0.01779000 0.02719700 0.08100000
v -0.01820500 0.02692000 0.08268000
v -0.01856500 0.02667400 0.08100000
v -0.01881200 0.02650000 0.08189800
v -0.01932500 0.02612900 0.08100000
v 0.01492900 0.02886500 0.08472800
v 0.01456600 0.02905100 0.07975300
v 0.01425800 0.02920300 0.07921700
v 0.01406500 0.02929700 0.07861600
v 0.01586000 0.02836500 0.08438900
v 0.01541100 0.02861200 0.08054400
v 0.01495200 0.02885400 0.08019200
v 0.01673000 0.02786100 0.08392200
v 0.01646700 0.02801700 0.08095200
v 0.01592600 0.02832800 0.08080100
v 0.01700000 0.02769700 0.08100000
v 0.01751800 0.02737300 0.08334600
v 0.01779000 0.02719700 0.08100000
v 0.01820500 0.02692000 0.08268000
v 0.01856500 0.02667400 0.08100000
v 0.01881200 0.02650000 0.08189800
v 0.01932400 0.02612900 0.08100000
v 0.01425800 0.02920300 0.07678300
v 0.01456600 0.02905100 0.07624700
v 0.01492900 0.02886500 0.07127200
v 0.01495200 0.02885400 0.07580800
v 0.01541100 0.02861200 0.07545600
v 0.01586000 0.02836500 0.07161100
v 0.01592600 0.02832800 0.07519900
v 0.01646700 0.02801700 0.07504800
v 0.01673000 0.02786100 0.07207800
v 0.01700000 0.02769700 0.07500000
v 0.01751800 0.02737300 0.07265400
v 0.01779000 0.02719700 0.07500000
v 0.01820500 0.02692000 0.07332000
v 0.01856500 0.02667400 0.07500000
v 0.01881200 0.02650000 0.07410200
v 0.01932400 0.02612900 0.07500000
vn -0.00000000 -1.00000000 -0.00000000
vn -0.00000000 -1.00000000 -0.00000000
vn -0.00000000 -1.00000000 -0.00000000
vn -0.00000000 -1.00000000 -0.00000000
vn -0.00000000 -1.00000000 -0.00000000
vn -0.00000000 -1.00000000 -0.00000000
vn -0.00000000 -1.00000000 -0.00000000
vn -0.00000000 -1.00000000 -0.00000000
vn -0.00000000 -1.00000000 -0.00000000
vn -0.00000000 -1.00000000 -0.00000000
vn -0.00000000 -1.00000000 -0.00000000
vn -0.00000000 -1.00000000 -0.00000000
vn -0.00000000 -1.00000000 -0.00000000
vn -0.00000000 -1.00000000 -0.00000000
vn -0.00000000 -1.00000000 -0.00000000
vn -0.00000000 -1.00000000 -0.00000000
vn -0.00000000 -1.00000000 -0.00000000
vn -0.00000000 -1.00000000 -0.00000000
vn -0.00000000 -1.00000000 -0.00000000
vn -0.00000000 -1.00000000 -0.00000000
vn -0.00000000 -1.00000000 -0.00000000
vn -0.00000000 -1.00000000 -0.00000000
vn -0.00000000 -1.00000000 -0.00000000
vn -0.00000000 -1.00000000 -0.00000000
vn -0.00000000 -1.00000000 -0.00000000
vn -0.00000000 -1.00000000 -0.00000000
vn -0.00000000 -1.00000000 -0.00000000
vn -0.00000000 -1.00000000 -0.00000000
vn -0.00000000 -1.00000000 -0.00000000
vn -0.00000000 -1.00000000 -0.00000000
vn -0.00000000 -1.00000000 -0.00000000
vn -0.00000000 -1.00000000 -0.00000000
vn -0.00000000 -1.00000000 -0.00000000
vn -0.00000000 -1.00000000 -0.00000000
vn -0.00000000 -1.00000000 -0.00000000
vn -0.00000000 -1.00000000 -0.00000000
vn -0.00000000 -1.00000000 -0.00000000
vn -0.00000000 -1.00000000 -0.00000000
vn -0.00000000 -1.00000000 -0.00000000
vn -0.00000000 -1.00000000 -0.00000000
vn -0.00000000 -1.00000000 -0.00000000
vn -0.00000000 -1.00000000 -0.00000000
vn -0.00000000 -1.00000000 -0.00000000
vn -0.00000000 -1.00000000 -0.00000000
vn -0.00000000 -1.00000000 -0.00000000
vn -0.00000000 -1.00000000 -0.00000000
vn -0.00000000 -1.00000000 -0.00000000
vn -0.00000000 -1.00000000 -0.00000000
vn -0.00000000 -1.00000000 -0.00000000
vn -0.00000000 -1.00000000 -0.00000000
vn -0.00000000 -1.00000000 -0.00000000
vn -0.00000000 -1.00000000 -0.00000000
vn -0.00000000 -1.00000000 -0.00000000
vn -0.00000000 -1.00000000 -0.00000000
vn -0.00000000 -1.00000000 -0.00000000
vn -0.00000000 -1.00000000 -0.00000000
vn -0.00000000 -1.00000000 -0.00000000
vn -0.00000000 -1.00000000 -0.00000000
vn -0.00000000 -1.00000000 -0.00000000
vn -0.00000000 -1.00000000 -0.00000000
vn -0.00000000 -1.00000000 -0.00000000
vn -0.00000000 -1.00000000 -0.00000000
vn -0.00000000 -0.00000000 1.00000000
vn -0.00000000 -0.00000000 1.00000000
vn -0.00000000 -0.00000000 1.00000000
vn -0.00000000 -0.00000000 1.00000000
vn -0.00000000 -0.00000000 1.00000000
vn -0.00000000 -0.00000000 1.00000000
vn -0.00000000 -0.00000000 1.00000000
vn -0.00000000 -0.00000000 1.00000000
vn -0.00000000 -0.00000000 1.00000000
vn -0.00000000 -0.00000000 1.00000000
vn -0.00000000 -0.00000000 1.00000000
vn -0.00000000 -0.00000000 1.00000000
vn -0.00000000 -0.00000000 1.00000000
vn -0.00000000 -0.00000000 1.00000000
vn -0.00000000 -0.00000000 1.00000000
vn -0.00000000 1.00000000 -0.00000000
vn -0.00000000 1.00000000 -0.00000000
vn -0.00000000 1.00000000 -0.00000000
vn -0.00000000 1.00000000 -0.00000000
vn -0.00000000 1.00000000 -0.00000000
vn -0.00000000 1.00000000 -0.00000000
vn -0.00000000 1.00000000 -0.00000000
vn -0.00000000 1.00000000 -0.00000000
vn -0.00000000 1.00000000 -0.00000000
vn -0.00000000 1.00000000 -0.00000000
vn -0.00000000 1.00000000 -0.00000000
vn -0.00000000 1.00000000 -0.00000000
vn -0.00000000 1.00000000 -0.00000000
vn -0.00000000 1.00000000 -0.00000000
vn -0.00000000 1.00000000 -0.00000000
vn -0.00000000 1.00000000 -0.00000000
vn -0.00000000 1.00000000 -0.00000000
vn -0.00000000 1.00000000 -0.00000000
vn -0.00000000 1.00000000 -0.00000000
vn -0.00000000 1.00000000 -0.00000000
vn -0.00000000 1.00000000 -0.00000000
vn -0.00000000 1.00000000 -0.00000000
vn -0.00000000 -0.00000000 -1.00000000
vn -0.00000000 -0.00000000 -1.00000000
vn -0.00000000 -0.00000000 -1.00000000
vn -0.00000000 -0.00000000 -1.00000000
vn -0.00000000 -0.00000000 -1.00000000
vn -0.00000000 -0.00000000 -1.00000000
vn 0.00010000 -0.00000000 -1.00000000
vn -0.17760000 -0.00000000 -0.98410000
vn -0.00000000 -0.00000000 -1.00000000
vn -0.22250000 -0.00000000 -0.97490000
vn -0.35800000 -0.00000000 -0.93370000
vn -0.43390000 -0.00000000 -0.90100000
vn -0.52990000 -0.00000000 -0.84810000
vn -0.62350000 -0.00000000 -0.78180000
vn -0.68270000 -0.00000000 -0.73070000
vn -0.78180000 -0.00000000 -0.62350000
vn -0.81130000 -0.00000000 -0.58460000
vn -0.90100000 -0.00000000 -0.43390000
vn -0.91400000 -0.00000000 -0.40580000
vn -0.97490000 0.00010000 -0.22250000
vn -0.97860000 -0.00000000 -0.20560000
vn -1.00000000 -0.00010000 -0.00000000
vn -1.00000000 -0.00000000 -0.00000000
vn -0.97860000 -0.00000000 0.20560000
vn -0.97490000 0.00010000 0.22250000
vn -0.91400000 -0.00000000 0.40580000
vn -0.90100000 -0.00000000 0.43390000
vn -0.81130000 -0.00000000 0.58460000
vn -0.78180000 0.00010000 0.62350000
vn -0.68270000 -0.00000000 0.73070000
vn -0.62350000 -0.00000000 0.78180000
vn -0.52980000 -0.00000000 0.84810000
vn -0.43390000 -0.00000000 0.90100000
vn -0.35790000 -0.00000000 0.93370000
vn -0.22260000 -0.00000000 0.97490000
vn -0.17760000 -0.00000000 0.98410000
vn -0.00010000 -0.00000000 1.00000000
vn -0.00000000 -0.00000000 1.00000000
vn -0.00000000 -0.00000000 1.00000000
vn -0.00000000 -0.00000000 1.00000000
vn -0.00000000 -0.00000000 1.00000000
vn -0.00000000 -0.00000000 1.00000000
vn -0.00000000 -0.00000000 1.00000000
vn -0.00000000 -0.00000000 1.00000000
vn -0.00000000 1.00000000 -0.00000000
vn -0.00000000 1.00000000 -0.00000000
vn -0.00000000 1.00000000 -0.00000000
vn -0.00000000 1.00000000 -0.00000000
vn -0.00000000 1.00000000 -0.00000000
vn -0.00000000 1.00000000 -0.00000000
vn -0.00000000 1.00000000 -0.00000000
vn -0.00000000 1.00000000 -0.00000000
vn -0.00000000 1.00000000 -0.00000000
vn -0.00000000 1.00000000 -0.00000000
vn -0.00000000 1.00000000 -0.00000000
vn -0.00000000 1.00000000 -0.00000000
vn -0.00000000 1.00000000 -0.00000000
vn -0.00000000 1.00000000 -0.00000000
vn -0.00000000 1.00000000 -0.00000000
vn -0.00000000 1.00000000 -0.00000000
vn -0.00000000 1.00000000 -0.00000000
vn -0.00000000 1.00000000 -0.00000000
vn -0.00000000 1.00000000 -0.00000000
vn -0.00000000 1.00000000 -0.00000000
vn -0.00000000 1.00000000 -0.00000000
vn -0.00000000 1.00000000 -0.00000000
vn -0.00000000 -1.00000000 -0.00010000
vn -0.00000000 -1.00000000 -0.00010000
vn -0.00000000 -1.00000000 -0.00000000
vn -0.00000000 -1.00000000 -0.00010000
vn -0.00000000 -1.00000000 -0.00000000
vn -0.00000000 -1.00000000 -0.00000000
vn -0.00000000 -1.00000000 -0.00000000
vn -0.00000000 -1.00000000 -0.00000000
vn -0.00000000 -1.00000000 -0.00000000
vn -0.00000000 -1.00000000 -0.00000000
vn -0.00000000 -1.00000000 -0.00000000
vn -0.00000000 -1.00000000 -0.00000000
vn -0.00000000 -1.00000000 -0.00000000
vn -0.00000000 -1.00000000 -0.00000000
vn -0.00000000 -1.00000000 -0.00000000
vn -0.00000000 -1.00000000 -0.00000000
vn -0.00000000 -1.00000000 -0.00000000
vn -0.00000000 -1.00000000 -0.00000000
vn -0.00000000 -1.00000000 -0.00000000
vn -0.00000000 -1.00000000 -0.00000000
vn -0.00000000 -1.00000000 -0.00000000
vn -0.00000000 -1.00000000 -0.00000000
vn -0.00000000 -1.00000000 -0.00000000
vn -0.00000000 -1.00000000 -0.00000000
vn -0.00000000 -1.00000000 0.00010000
vn -0.00000000 -1.00000000 0.00010000
vn -0.00000000 -1.00000000 -0.00000000
vn -0.00000000 -1.00000000 0.00010000
vn -0.00000000 -1.00000000 -0.00000000
vn -0.00000000 -1.00000000 -0.00000000
vn -0.00000000 -1.00000000 -0.00000000
vn -0.00000000 -1.00000000 -0.00000000
vn -0.00000000 -1.00000000 -0.00000000
vn -0.00000000 -1.00000000 -0.00000000
vn -0.00000000 -1.00000000 -0.00000000
vn -0.00000000 -1.00000000 -0.00000000
vn -0.00000000 -1.00000000 -0.00000000
vn -0.00000000 -1.00000000 -0.00000000
vn -0.00000000 -1.00000000 -0.00000000
vn -0.00000000 -1.00000000 -0.00000000
vn -0.00000000 -1.00000000 -0.00000000
vn -0.00000000 -1.00000000 -0.00000000
vn -0.00000000 -1.00000000 -0.00000000
vn -0.00000000 -1.00000000 -0.00000000
vn -0.00000000 -1.00000000 -0.00010000
vn -0.00000000 -1.00000000 -0.00010000
vn -0.00000000 -1.00000000 -0.00000000
vn -0.00000000 -1.00000000 -0.00010000
vn -0.00000000 -1.00000000 -0.00000000
vn -0.00000000 -1.00000000 -0.00000000
vn -0.00000000 -1.00000000 -0.00000000
vn -0.00000000 -1.00000000 -0.00000000
vn -0.00000000 -1.00000000 -0.00000000
vn -0.00000000 -1.00000000 -0.00000000
vn -0.00000000 -1.00000000 -0.00000000
vn -0.00000000 -1.00000000 -0.00000000
vn -0.00000000 -1.00000000 0.00010000
vn -0.00000000 -1.00000000 -0.00000000
vn -0.00000000 -1.00000000 0.00010000
vn -0.00000000 -1.00000000 0.00010000
vn -1.00000000 -0.00000000 -0.00000000
vn -1.00000000 -0.00000000 -0.00000000
vn -0.96630000 -0.00000000 0.25740000
vn -0.96630000 -0.00000000 0.25740000
vn -0.86750000 -0.00000000 0.49750000
vn -0.86750000 -0.00000000 0.49750000
vn -0.71010000 -0.00000000 0.70410000
vn -0.71010000 -0.00000000 0.70410000
vn -0.50500000 -0.00000000 0.86310000
vn -0.50500000 -0.00000000 0.86310000
vn -0.26570000 -0.00000000 0.96400000
vn -0.26570000 -0.00000000 0.96400000
vn -0.00860000 -0.00000000 1.00000000
vn -0.00860000 -0.00000000 1.00000000
vn 0.24910000 -0.00000000 0.96850000
vn 0.24910000 -0.00000000 0.96850000
vn 0.49000000 -0.00000000 0.87170000
vn 0.49010000 -0.00000000 0.87170000
vn -0.49000000 -0.00000000 0.87170000
vn -0.49000000 -0.00000000 0.87170000
vn -0.24910000 -0.00000000 0.96850000
vn -0.24910000 -0.00000000 0.96850000
vn 0.00860000 -0.00000000 1.00000000
vn 0.00860000 -0.00000000 1.00000000
vn 0.26570000 -0.00000000 0.96400000
vn 0.26570000 -0.00000000 0.96400000
vn 0.50500000 -0.00000000 0.86310000
vn 0.50500000 -0.00000000 0.86310000
vn 0.71010000 -0.00000000 0.70410000
vn 0.71010000 -0.00000000 0.70410000
vn 0.86740000 -0.00000000 0.49750000
vn 0.86740000 -0.00000000 0.49750000
vn 0.96630000 -0.00000000 0.25740000
vn 0.96630000 -0.00000000 0.25740000
vn 1.00000000 -0.00000000 -0.00000000
vn 1.00000000 -0.00000000 -0.00000000
vn -1.00000000 -0.00000000 -0.00000000
vn -1.00000000 -0.00000000 -0.00000000
vn -1.00000000 -0.00000000 -0.00000000
vn -1.00000000 -0.00000000 -0.00000000
vn 0.49010000 -0.00000000 -0.87170000
vn 0.49010000 -0.00000000 -0.87170000
vn 0.24910000 -0.00000000 -0.96850000
vn 0.24910000 -0.00000000 -0.96850000
vn -0.00870000 -0.00000000 -1.00000000
vn -0.00870000 -0.00000000 -1.00000000
vn -0.26580000 -0.00000000 -0.96400000
vn -0.26580000 -0.00000000 -0.96400000
vn -0.50490000 -0.00000000 -0.86320000
vn -0.50490000 -0.00000000 -0.86320000
vn -0.71020000 -0.00000000 -0.70400000
vn -0.71020000 -0.00000000 -0.70400000
vn -0.86750000 -0.00000000 -0.49740000
vn -0.86750000 -0.00000000 -0.49740000
vn -0.96630000 -0.00000000 -0.25740000
vn -0.96630000 -0.00000000 -0.25740000
vn -1.00000000 -0.00000000 -0.00000000
vn -1.00000000 -0.00000000 -0.00000000
vn 1.00000000 -0.00000000 -0.00000000
vn 1.00000000 -0.00000000 -0.00000000
vn 1.00000000 -0.00000000 -0.00000000
vn 1.00000000 -0.00000000 -0.00000000
vn 1.00000000 -0.00000000 -0.00000000
vn 1.00000000 -0.00000000 -0.00000000
vn 0.96630000 -0.00000000 -0.25740000
vn 0.96630000 -0.00000000 -0.25740000
vn 0.86750000 -0.00000000 -0.49750000
vn 0.86750000 -0.00000000 -0.49750000
vn 0.71020000 -0.00000000 -0.70400000
vn 0.71020000 -0.00000000 -0.70400000
vn 0.50490000 -0.00000000 -0.86320000
vn 0.50490000 -0.00000000 -0.86320000
vn 0.26580000 -0.00000000 -0.96400000
vn 0.26580000 -0.00000000 -0.96400000
vn 0.00870000 -0.00000000 -1.00000000
vn 0.00870000 -0.00000000 -1.00000000
vn -0.24910000 -0.00000000 -0.96850000
vn -0.24910000 -0.00000000 -0.96850000
vn -0.49010000 -0.00000000 -0.87170000
vn -0.49010000 -0.00000000 -0.87170000
vn -0.00000000 -0.00000000 -1.00000000
vn 0.00010000 -0.00000000 -1.00000000
vn 0.12760000 -0.00010000 -0.99180000
vn 0.13800000 -0.00000000 -0.99040000
vn 0.25330000 -0.00000000 -0.96740000
vn 0.27560000 -0.00000000 -0.96130000
vn 0.37470000 -0.00000000 -0.92710000
vn 0.40860000 -0.00000000 -0.91270000
vn 0.48990000 -0.00000000 -0.87180000
vn 0.53290000 -0.00000000 -0.84620000
vn 0.49000000 -0.00000000 -0.87170000
vn 0.61570000 -0.00000000 -0.78800000
vn 0.64550000 -0.00000000 -0.76380000
vn 0.72740000 -0.00010000 -0.68620000
vn 0.74360000 -0.00000000 -0.66860000
vn 0.82250000 -0.00010000 -0.56870000
vn 0.83050000 -0.00000000 -0.55700000
vn 0.89880000 -0.00000000 -0.43830000
vn 0.90350000 -0.00000000 -0.42860000
vn 0.90360000 -0.00000000 -0.42840000
vn 0.95460000 0.00010000 -0.29790000
vn 0.95670000 0.00010000 -0.29090000
vn 0.98860000 -0.00010000 -0.15060000
vn 0.98910000 0.00010000 -0.14690000
vn 1.00000000 -0.00000000 -0.00000000
vn 1.00000000 -0.00000000 -0.00000000
vn 0.98910000 0.00010000 0.14700000
vn 0.98860000 -0.00010000 0.15070000
vn 0.95670000 0.00010000 0.29100000
vn 0.95460000 -0.00010000 0.29790000
vn 0.90360000 -0.00000000 0.42840000
vn 0.89880000 -0.00000000 0.43830000
vn 0.90350000 -0.00000000 0.42860000
vn 0.83050000 -0.00000000 0.55710000
vn 0.82250000 -0.00000000 0.56870000
vn 0.74360000 -0.00000000 0.66860000
vn 0.72740000 -0.00010000 0.68620000
vn 0.64550000 -0.00000000 0.76380000
vn 0.61570000 -0.00000000 0.78800000
vn 0.53290000 -0.00000000 0.84620000
vn 0.49000000 -0.00000000 0.87170000
vn 0.49000000 -0.00000000 0.87170000
vn 0.40860000 -0.00000000 0.91270000
vn 0.37470000 -0.00000000 0.92710000
vn 0.27570000 -0.00000000 0.96130000
vn 0.25310000 -0.00010000 0.96740000
vn 0.13790000 -0.00000000 0.99040000
vn 0.12750000 -0.00010000 0.99180000
vn -0.00000000 -0.00000000 1.00000000
vn -0.00000000 -0.00000000 1.00000000
vn -0.90350000 -0.00000000 -0.42860000
vn -0.90350000 -0.00000000 -0.42860000
vn -0.89880000 -0.00000000 -0.43830000
vn -0.83050000 -0.00000000 -0.55700000
vn -0.82250000 -0.00000000 -0.56870000
vn -0.74360000 -0.00000000 -0.66860000
vn -0.72740000 -0.00010000 -0.68620000
vn -0.64550000 -0.00000000 -0.76380000
vn -0.61570000 -0.00000000 -0.78800000
vn -0.53280000 -0.00000000 -0.84620000
vn -0.49000000 -0.00000000 -0.87170000
vn -0.48990000 -0.00000000 -0.87180000
vn -0.40860000 -0.00000000 -0.91270000
vn -0.37470000 -0.00000000 -0.92710000
vn -0.27570000 -0.00000000 -0.96130000
vn -0.25330000 -0.00000000 -0.96740000
vn -0.13800000 -0.00000000 -0.99040000
vn -0.12760000 -0.00010000 -0.99180000
vn -0.00000000 -0.00000000 -1.00000000
vn -0.00000000 -0.00000000 -1.00000000
vn -0.95460000 -0.00000000 -0.29790000
vn -0.95670000 -0.00000000 -0.29100000
vn -0.98860000 -0.00020000 -0.15060000
vn -0.98910000 -0.00000000 -0.14700000
vn -1.00000000 -0.00000000 -0.00000000
vn -1.00000000 -0.00000000 -0.00000000
vn -0.98910000 0.00010000 0.14700000
vn -0.98860000 -0.00010000 0.15070000
vn -0.95670000 0.00010000 0.29100000
vn -0.95460000 -0.00000000 0.29790000
vn -0.90360000 -0.00000000 0.42840000
vn -0.89880000 -0.00000000 0.43830000
vn -0.90350000 -0.00000000 0.42860000
vn -0.83050000 -0.00000000 0.55700000
vn -0.82250000 -0.00010000 0.56870000
vn -0.74360000 -0.00000000 0.66860000
vn -0.72740000 -0.00000000 0.68620000
vn -0.64550000 -0.00000000 0.76380000
vn -0.61570000 -0.00000000 0.78800000
vn -0.53290000 -0.00000000 0.84620000
vn -0.49000000 -0.00000000 0.87170000
vn -0.49000000 -0.00000000 0.87170000
vn -0.40860000 -0.00000000 0.91270000
vn -0.37470000 -0.00000000 0.92710000
vn -0.27570000 -0.00000000 0.96130000
vn -0.25320000 -0.00010000 0.96740000
vn -0.13790000 -0.00000000 0.99040000
vn -0.12710000 -0.00040000 0.99190000
vn -0.00000000 -0.00000000 1.00000000
vn -0.00000000 -0.00000000 1.00000000
vn -0.00000000 -0.00000000 -1.00000000
vn -0.00000000 -0.00000000 -1.00000000
vn -0.00000000 -0.00000000 -1.00000000
vn -0.00000000 -0.00000000 -1.00000000
vn -0.00000000 -0.00000000 -1.00000000
vn -0.00000000 -0.00000000 -1.00000000
vn -0.00000000 -0.00000000 1.00000000
vn 0.17760000 -0.00000000 0.98410000
vn 0.00010000 -0.00000000 1.00000000
vn 0.22260000 -0.00000000 0.97490000
vn 0.35790000 -0.00000000 0.93370000
vn 0.43390000 -0.00000000 0.90100000
vn 0.52980000 -0.00000000 0.84810000
vn 0.62350000 -0.00000000 0.78180000
vn 0.68270000 -0.00000000 0.73070000
vn 0.78180000 -0.00000000 0.62350000
vn 0.81140000 -0.00000000 0.58460000
vn 0.90100000 -0.00000000 0.43390000
vn 0.91400000 -0.00000000 0.40580000
vn 0.97490000 -0.00000000 0.22250000
vn 0.97860000 -0.00000000 0.20560000
vn 1.00000000 -0.00000000 -0.00000000
vn 1.00000000 -0.00000000 -0.00000000
vn 0.97860000 -0.00000000 -0.20560000
vn 0.97490000 0.00010000 -0.22250000
vn 0.91400000 -0.00000000 -0.40580000
vn 0.90100000 0.00010000 -0.43390000
vn 0.81130000 -0.00000000 -0.58460000
vn 0.78180000 -0.00000000 -0.62350000
vn 0.68270000 -0.00000000 -0.73070000
vn 0.62350000 0.00010000 -0.78180000
vn 0.52990000 -0.00000000 -0.84810000
vn 0.43390000 -0.00000000 -0.90100000
vn 0.35800000 -0.00000000 -0.93370000
vn 0.22250000 -0.00000000 -0.97490000
vn 0.17760000 -0.00000000 -0.98410000
vn -0.00000000 -0.00000000 -1.00000000
vn -0.00010000 -0.00000000 -1.00000000
vn -0.00000000 -0.00000000 1.00000000
vn -0.00000000 -0.00000000 1.00000000
vn -0.00000000 -0.00000000 1.00000000
vn -0.00000000 -0.00000000 1.00000000
vn -0.00000000 -0.00000000 1.00000000
vn -0.00000000 -0.00000000 1.00000000
vn -0.00000000 -0.00000000 -1.00000000
vn -0.00000000 -0.00000000 -1.00000000
vn -0.00000000 -0.00000000 -1.00000000
vn -0.00000000 -0.00000000 -1.00000000
vn -0.00000000 -0.00000000 -1.00000000
vn -0.00000000 -0.00000000 -1.00000000
vn -0.00000000 -0.00000000 -1.00000000
vn -0.00000000 -0.00000000 -1.00000000
vn -0.00000000 -0.00000000 -1.00000000
vn -0.00000000 -0.00000000 -1.00000000
vn -0.00000000 -0.00000000 -1.00000000
vn -0.00000000 -0.00000000 -1.00000000
vn -0.00000000 -0.00000000 -1.00000000
vn -0.00000000 -0.00000000 -1.00000000
vn -0.00000000 -0.00000000 -1.00000000
vn 0.33630000 0.94180000 -0.00000000
vn 0.40000000 0.91650000 -0.00000000
vn 0.40000000 0.91650000 -0.00000000
vn 0.42970000 0.90300000 -0.00000000
vn 0.42970000 0.90300000 -0.00000000
vn 0.42980000 0.90290000 -0.00000000
vn 0.42990000 0.90290000 -0.00000000
vn 0.43080000 0.90250000 -0.00000000
vn 0.43070000 0.90250000 -0.00000000
vn 0.43090000 0.90240000 -0.00000000
vn 0.43270000 0.90150000 -0.00000000
vn 0.33630000 0.94180000 -0.00000000
vn 0.27090000 0.96260000 -0.00000000
vn 0.27090000 0.96260000 -0.00000000
vn 0.20430000 0.97890000 -0.00000000
vn 0.20430000 0.97890000 -0.00000000
vn 0.13670000 0.99060000 -0.00000000
vn 0.13670000 0.99060000 -0.00000000
vn 0.06850000 0.99760000 -0.00000000
vn 0.06850000 0.99760000 -0.00000000
vn -0.00000000 1.00000000 -0.00000000
vn -0.00000000 1.00000000 -0.00000000
vn -0.06850000 0.99760000 -0.00000000
vn -0.06850000 0.99760000 -0.00000000
vn -0.13670000 0.99060000 -0.00000000
vn -0.13670000 0.99060000 -0.00000000
vn -0.20430000 0.97890000 -0.00000000
vn -0.20430000 0.97890000 -0.00000000
vn -0.27090000 0.96260000 -0.00000000
vn -0.27090000 0.96260000 -0.00000000
vn -0.33620000 0.94180000 -0.00000000
vn -0.33630000 0.94180000 -0.00000000
vn -0.40000000 0.91650000 -0.00000000
vn -0.40000000 0.91650000 -0.00000000
vn -0.42970000 0.90300000 -0.00000000
vn -0.42980000 0.90290000 -0.00000000
vn -0.42970000 0.90300000 -0.00000000
vn -0.43080000 0.90250000 -0.00000000
vn -0.43070000 0.90250000 -0.00000000
vn -0.43280000 0.90150000 -0.00000000
vn -0.45950000 0.88820000 -0.00000000
vn -0.44820000 0.89400000 -0.00000000
vn -0.43870000 0.89860000 -0.00000000
vn -0.43270000 0.90150000 -0.00000000
vn -0.48800000 0.87280000 -0.00000000
vn -0.47410000 0.88050000 -0.00000000
vn -0.46000000 0.88790000 -0.00000000
vn -0.51480000 0.85730000 -0.00000000
vn -0.50650000 0.86220000 -0.00000000
vn -0.49010000 0.87170000 -0.00000000
vn -0.52310000 0.85230000 -0.00000000
vn -0.53900000 0.84230000 -0.00000000
vn -0.54740000 0.83690000 -0.00000000
vn -0.56020000 0.82840000 -0.00000000
vn -0.57120000 0.82080000 0.00010000
vn -0.57880000 0.81550000 -0.00000000
vn -0.59460000 0.80400000 -0.00000000
vn -0.43870000 0.89860000 -0.00000000
vn -0.44820000 0.89390000 -0.00000000
vn -0.45940000 0.88820000 -0.00000000
vn -0.46000000 0.88790000 -0.00000000
vn -0.47420000 0.88040000 -0.00000000
vn -0.48800000 0.87290000 -0.00000000
vn -0.49010000 0.87170000 -0.00000000
vn -0.50660000 0.86220000 -0.00000000
vn -0.51480000 0.85730000 -0.00000000
vn -0.52310000 0.85230000 -0.00000000
vn -0.53900000 0.84230000 -0.00000000
vn -0.54740000 0.83690000 -0.00000000
vn -0.56010000 0.82840000 -0.00000000
vn -0.57120000 0.82080000 -0.00010000
vn -0.57880000 0.81550000 -0.00000000
vn -0.59460000 0.80400000 -0.00000000
vn 0.45940000 0.88820000 -0.00000000
vn 0.44820000 0.89400000 -0.00000000
vn 0.43870000 0.89860000 -0.00000000
vn 0.43270000 0.90150000 -0.00000000
vn 0.48800000 0.87290000 -0.00000000
vn 0.47410000 0.88050000 -0.00000000
vn 0.46010000 0.88790000 -0.00000000
vn 0.51480000 0.85730000 -0.00000000
vn 0.50670000 0.86210000 -0.00000000
vn 0.49000000 0.87170000 -0.00000000
vn 0.52310000 0.85230000 -0.00000000
vn 0.53900000 0.84230000 -0.00000000
vn 0.54740000 0.83690000 -0.00000000
vn 0.56010000 0.82840000 -0.00000000
vn 0.57120000 0.82080000 -0.00010000
vn 0.57880000 0.81540000 -0.00000000
vn 0.59460000 0.80400000 -0.00000000
vn 0.43870000 0.89860000 -0.00000000
vn 0.44820000 0.89390000 -0.00000000
vn 0.45940000 0.88820000 -0.00000000
vn 0.46000000 0.88790000 -0.00000000
vn 0.47420000 0.88040000 -0.00000000
vn 0.48800000 0.87280000 -0.00000000
vn 0.49010000 0.87170000 -0.00000000
vn 0.50650000 0.86220000 -0.00000000
vn 0.51480000 0.85730000 -0.00000000
vn 0.52310000 0.85220000 -0.00000000
vn 0.53900000 0.84230000 -0.00000000
vn 0.54740000 0.83690000 -0.00000000
vn 0.56020000 0.82840000 -0.00000000
vn 0.57120000 0.82080000 0.00010000
vn 0.57880000 0.81540000 -0.00000000
vn 0.59460000 0.80400000 -0.00000000
f 1//1 2//2 3//3
f 3//3 2//2 4//4
f 3//3 4//4 5//5
f 5//5 4//4 6//6
f 6//6 4//4 7//7
f 7//7 4//4 8//8
f 8//8 4//4 9//9
f 9//9 4//4 10//10
f 10//10 4//4 11//11
f 11//11 4//4 12//12
f 1//1 13//13 2//2
f 2//2 13//13 14//14
f 2//2 14//14 15//15
f 15//15 16//16 2//2
f 2//2 16//16 17//17
f 2//2 17//17 18//18
f 3//3 5//5 19//19
f 19//19 5//5 20//20
f 19//19 20//20 21//21
f 21//21 20//20 22//22
f 21//21 22//22 23//23
f 23//23 22//22 24//24
f 23//23 24//24 25//25
f 25//25 24//24 26//26
f 25//25 26//26 27//27
f 27//27 26//26 28//28
f 27//27 28//28 29//29
f 29//29 28//28 30//30
f 29//29 30//30 31//31
f 32//32 33//33 34//34
f 34//34 33//33 35//35
f 34//34 35//35 36//36
f 36//36 37//37 34//34
f 34//34 37//37 38//38
f 34//34 38//38 39//39
f 39//39 40//40 34//34
f 34//34 40//40 41//41
f 34//34 41//41 42//42
f 42//42 41//41 43//43
f 42//42 43//43 44//44
f 41//41 40//40 45//45
f 45//45 40//40 46//46
f 45//45 46//46 47//47
f 47//47 46//46 48//48
f 47//47 48//48 49//49
f 49//49 48//48 50//50
f 49//49 50//50 51//51
f 51//51 50//50 52//52
f 51//51 52//52 53//53
f 53//53 52//52 54//54
f 53//53 54//54 55//55
f 55//55 54//54 56//56
f 55//55 56//56 57//57
f 44//44 58//58 42//42
f 42//42 58//58 59//59
f 42//42 59//59 60//60
f 60//60 61//61 42//42
f 42//42 61//61 62//62
f 63//63 64//64 65//65
f 65//65 64//64 66//66
f 65//65 66//66 67//67
f 67//67 66//66 68//68
f 64//64 63//63 69//69
f 69//69 63//63 70//70
f 69//69 70//70 71//71
f 71//71 70//70 72//72
f 71//71 72//72 73//73
f 73//73 72//72 74//74
f 73//73 74//74 75//75
f 75//75 74//74 76//76
f 75//75 76//76 77//77
f 78//78 79//79 80//80
f 80//80 79//79 81//81
f 80//80 81//81 82//82
f 83//83 84//84 82//82
f 82//82 84//84 85//85
f 82//82 85//85 86//86
f 83//83 87//87 84//84
f 84//84 87//87 88//88
f 86//86 89//89 82//82
f 82//82 89//89 90//90
f 82//82 90//90 91//91
f 91//91 92//92 82//82
f 82//82 92//92 93//93
f 82//82 93//93 94//94
f 94//94 95//95 82//82
f 82//82 95//95 96//96
f 82//82 96//96 97//97
f 97//97 98//98 82//82
f 82//82 98//98 99//99
f 82//82 99//99 80//80
f 100//100 101//101 102//102
f 102//102 101//101 103//103
f 103//103 101//101 104//104
f 103//103 104//104 105//105
f 106//106 107//107 108//108
f 108//108 107//107 109//109
f 109//109 107//107 110//110
f 109//109 110//110 111//111
f 111//111 110//110 112//112
f 111//111 112//112 113//113
f 113//113 112//112 114//114
f 113//113 114//114 115//115
f 115//115 114//114 116//116
f 115//115 116//116 117//117
f 117//117 116//116 118//118
f 117//117 118//118 119//119
f 119//119 118//118 120//120
f 119//119 120//120 121//121
f 121//121 120//120 122//122
f 121//121 122//122 123//123
f 121//121 123//123 124//124
f 124//124 123//123 125//125
f 124//124 125//125 126//126
f 126//126 125//125 127//127
f 126//126 127//127 128//128
f 128//128 127//127 129//129
f 128//128 129//129 130//130
f 130//130 129//129 131//131
f 130//130 131//131 132//132
f 132//132 131//131 133//133
f 132//132 133//133 134//134
f 134//134 133//133 135//135
f 134//134 135//135 136//136
f 136//136 135//135 137//137
f 138//138 139//139 140//140
f 140//140 139//139 141//141
f 140//140 141//141 142//142
f 142//142 141//141 143//143
f 144//144 145//145 146//146
f 146//146 145//145 147//147
f 146//146 147//147 148//148
f 149//149 150//150 148//148
f 148//148 150//150 151//151
f 148//148 151//151 152//152
f 149//149 153//153 150//150
f 150//150 153//153 154//154
f 152//152 155//155 148//148
f 148//148 155//155 156//156
f 148//148 156//156 157//157
f 157//157 158//158 148//148
f 148//148 158//158 159//159
f 148//148 159//159 160//160
f 160//160 161//161 148//148
f 148//148 161//161 162//162
f 148//148 162//162 163//163
f 163//163 164//164 148//148
f 148//148 164//164 165//165
f 148//148 165//165 146//146
f 166//166 167//167 169//169
f 170//170 168//168 171//171
f 171//171 168//168 172//172
f 171//171 172//172 173//173
f 173//173 172//172 174//174
f 173//173 174//174 175//175
f 175//175 174//174 176//176
f 175//175 176//176 177//177
f 177//177 176//176 178//178
f 178//178 176//176 179//179
f 179//179 176//176 180//180
f 179//179 180//180 181//181
f 181//181 180//180 182//182
f 182//182 180//180 183//183
f 183//183 180//180 184//184
f 184//184 180//180 185//185
f 184//184 185//185 186//186
f 186//186 185//185 187//187
f 186//186 187//187 188//188
f 188//188 187//187 189//189
f 188//188 189//189 192//192
f 191//191 190//190 193//193
f 179//179 181//181 194//194
f 194//194 181//181 195//195
f 194//194 195//195 196//196
f 196//196 195//195 197//197
f 196//196 197//197 198//198
f 198//198 197//197 199//199
f 198//198 199//199 200//200
f 200//200 199//199 201//201
f 201//201 199//199 202//202
f 201//201 202//202 203//203
f 203//203 204//204 201//201
f 201//201 204//204 205//205
f 205//205 204//204 206//206
f 205//205 206//206 207//207
f 207//207 206//206 208//208
f 207//207 208//208 209//209
f 209//209 208//208 212//212
f 210//210 211//211 213//213
f 214//214 215//215 200//200
f 200//200 215//215 216//216
f 200//200 216//216 217//217
f 215//215 214//214 218//218
f 218//218 214//214 219//219
f 218//218 219//219 220//220
f 220//220 219//219 221//221
f 220//220 221//221 223//223
f 224//224 222//222 225//225
f 217//217 198//198 200//200
f 226//226 227//227 228//228
f 228//228 227//227 229//229
f 228//228 229//229 230//230
f 228//228 230//230 231//231
f 231//231 230//230 232//232
f 231//231 232//232 233//233
f 233//233 232//232 234//234
f 233//233 234//234 235//235
f 235//235 234//234 236//236
f 235//235 236//236 237//237
f 237//237 236//236 238//238
f 237//237 238//238 239//239
f 239//239 238//238 240//240
f 239//239 240//240 241//241
f 241//241 240//240 242//242
f 242//242 240//240 243//243
f 244//244 245//245 246//246
f 246//246 245//245 247//247
f 246//246 247//247 248//248
f 246//246 248//248 249//249
f 249//249 248//248 250//250
f 249//249 250//250 251//251
f 251//251 250//250 252//252
f 251//251 252//252 253//253
f 253//253 252//252 254//254
f 253//253 254//254 255//255
f 255//255 254//254 256//256
f 255//255 256//256 257//257
f 257//257 256//256 258//258
f 257//257 258//258 259//259
f 259//259 258//258 260//260
f 260//260 258//258 261//261
f 262//262 263//263 264//264
f 264//264 263//263 265//265
f 266//266 267//267 268//268
f 268//268 267//267 269//269
f 268//268 269//269 270//270
f 268//268 270//270 271//271
f 271//271 270//270 272//272
f 271//271 272//272 273//273
f 273//273 272//272 274//274
f 273//273 274//274 275//275
f 275//275 274//274 276//276
f 275//275 276//276 277//277
f 277//277 276//276 278//278
f 277//277 278//278 279//279
f 279//279 278//278 280//280
f 279//279 280//280 281//281
f 281//281 280//280 282//282
f 282//282 280//280 283//283
f 284//284 285//285 286//286
f 286//286 285//285 287//287
f 288//288 289//289 290//290
f 290//290 289//289 291//291
f 290//290 291//291 292//292
f 290//290 292//292 293//293
f 293//293 292//292 294//294
f 293//293 294//294 295//295
f 295//295 294//294 296//296
f 295//295 296//296 297//297
f 297//297 296//296 298//298
f 297//297 298//298 299//299
f 299//299 298//298 300//300
f 299//299 300//300 301//301
f 301//301 300//300 302//302
f 301//301 302//302 303//303
f 303//303 302//302 304//304
f 304//304 302//302 305//305
f 306//306 307//307 308//308
f 308//308 307//307 309//309
f 308//308 309//309 310//310
f 310//310 309//309 311//311
f 310//310 311//311 312//312
f 312//312 311//311 313//313
f 312//312 313//313 314//314
f 314//314 313//313 315//315
f 314//314 315//315 316//316
f 316//316 315//315 317//317
f 317//317 315//315 318//318
f 317//317 318//318 319//319
f 319//319 318//318 320//320
f 319//319 320//320 321//321
f 321//321 320//320 322//322
f 321//321 322//322 323//323
f 323//323 322//322 324//324
f 323//323 324//324 325//325
f 323//323 325//325 326//326
f 326//326 325//325 327//327
f 326//326 327//327 328//328
f 328//328 327//327 329//329
f 328//328 329//329 330//330
f 330//330 329//329 331//331
f 330//330 331//331 332//332
f 330//330 332//332 333//333
f 333//333 332//332 334//334
f 333//333 334//334 335//335
f 335//335 334//334 336//336
f 335//335 336//336 337//337
f 337//337 336//336 338//338
f 337//337 338//338 339//339
f 337//337 339//339 340//340
f 340//340 339//339 341//341
f 340//340 341//341 342//342
f 342//342 341//341 343//343
f 342//342 343//343 344//344
f 344//344 343//343 345//345
f 344//344 345//345 346//346
f 346//346 345//345 347//347
f 347//347 345//345 348//348
f 347//347 348//348 349//349
f 349//349 348//348 350//350
f 349//349 350//350 351//351
f 351//351 350//350 352//352
f 351//351 352//352 353//353
f 353//353 352//352 354//354
f 353//353 354//354 355//355
f 356//356 357//357 358//358
f 358//358 357//357 359//359
f 358//358 359//359 360//360
f 360//360 359//359 361//361
f 360//360 361//361 362//362
f 362//362 361//361 363//363
f 362//362 363//363 364//364
f 364//364 363//363 365//365
f 364//364 365//365 366//366
f 366//366 365//365 367//367
f 367//367 365//365 368//368
f 367//367 368//368 369//369
f 369//369 368//368 370//370
f 369//369 370//370 371//371
f 371//371 370//370 372//372
f 371//371 372//372 373//373
f 373//373 372//372 374//374
f 373//373 374//374 375//375
f 358//358 376//376 356//356
f 356//356 376//376 377//377
f 377//377 376//376 378//378
f 377//377 378//378 379//379
f 379//379 378//378 380//380
f 379//379 380//380 381//381
f 381//381 380//380 382//382
f 382//382 380//380 383//383
f 382//382 383//383 384//384
f 384//384 383//383 385//385
f 384//384 385//385 386//386
f 386//386 385//385 387//387
f 386//386 387//387 388//388
f 388//388 387//387 389//389
f 389//389 387//387 390//390
f 389//389 390//390 391//391
f 391//391 390//390 392//392
f 391//391 392//392 393//393
f 393//393 392//392 394//394
f 393//393 394//394 395//395
f 395//395 394//394 396//396
f 395//395 396//396 397//397
f 395//395 397//397 398//398
f 398//398 397//397 399//399
f 398//398 399//399 400//400
f 400//400 399//399 401//401
f 400//400 401//401 402//402
f 402//402 401//401 403//403
f 402//402 403//403 404//404
f 404//404 403//403 405//405
f 406//406 407//407 408//408
f 408//408 407//407 409//409
f 408//408 409//409 410//410
f 410//410 409//409 411//411
f 412//412 413//413 414//414
f 414//414 413//413 415//415
f 415//415 413//413 416//416
f 415//415 416//416 417//417
f 417//417 416//416 418//418
f 417//417 418//418 419//419
f 419//419 418//418 420//420
f 419//419 420//420 421//421
f 421//421 420//420 422//422
f 421//421 422//422 423//423
f 423//423 422//422 424//424
f 423//423 424//424 425//425
f 425//425 424//424 426//426
f 425//425 426//426 427//427
f 427//427 426//426 428//428
f 427//427 428//428 429//429
f 427//427 429//429 430//430
f 430//430 429//429 431//431
f 430//430 431//431 432//432
f 432//432 431//431 433//433
f 432//432 433//433 434//434
f 434//434 433//433 435//435
f 434//434 435//435 436//436
f 436//436 435//435 437//437
f 436//436 437//437 438//438
f 438//438 437//437 439//439
f 438//438 439//439 440//440
f 440//440 439//439 441//441
f 440//440 441//441 442//442
f 442//442 441//441 443//443
f 444//444 445//445 446//446
f 446//446 445//445 447//447
f 447//447 445//445 448//448
f 447//447 448//448 449//449
f 450//450 451//451 452//452
f 452//452 451//451 453//453
f 452//452 453//453 454//454
f 454//454 453//453 455//455
f 451//451 450//450 456//456
f 456//456 450//450 457//457
f 456//456 457//457 458//458
f 458//458 457//457 459//459
f 458//458 459//459 460//460
f 460//460 459//459 461//461
f 460//460 461//461 462//462
f 462//462 461//461 463//463
f 462//462 463//463 464//464
f 465//465 466//466 467//467
f 467//467 466//466 468//468
f 467//467 468//468 470//470
f 469//469 468//468 472//472
f 471//471 474//474 475//475
f 466//466 465//465 476//476
f 476//476 465//465 477//477
f 476//476 477//477 478//478
f 478//478 477//477 479//479
f 478//478 479//479 480//480
f 480//480 479//479 481//481
f 480//480 481//481 482//482
f 482//482 481//481 483//483
f 482//482 483//483 484//484
f 484//484 483//483 485//485
f 485//485 483//483 486//486
f 485//485 486//486 487//487
f 487//487 486//486 488//488
f 487//487 488//488 489//489
f 487//487 489//489 490//490
f 490//490 489//489 491//491
f 490//490 491//491 492//492
f 492//492 491//491 493//493
f 492//492 493//493 494//494
f 494//494 493//493 495//495
f 494//494 495//495 496//496
f 496//496 495//495 497//497
f 496//496 497//497 498//498
f 498//498 497//497 499//499
f 498//498 499//499 501//501
f 501//501 499//499 502//502
f 501//501 503//503 504//504
f 505//505 506//506 499//499
f 499//499 506//506 507//507
f 499//499 507//507 508//508
f 509//509 510//510 505//505
f 505//505 510//510 511//511
f 505//505 511//511 506//506
f 512//512 513//513 509//509
f 509//509 513//513 514//514
f 509//509 514//514 510//510
f 513//513 512//512 515//515
f 515//515 512//512 516//516
f 515//515 516//516 517//517
f 517//517 516//516 518//518
f 517//517 518//518 519//519
f 519//519 518//518 520//520
f 519//519 520//520 521//521
f 508//508 503//503 500//500
f 504//504 522//522 501//501
f 501//501 522//522 523//523
f 501//501 523//523 524//524
f 524//524 523//523 525//525
f 524//524 525//525 526//526
f 524//524 526//526 527//527
f 527//527 526//526 528//528
f 527//527 528//528 529//529
f 527//527 529//529 530//530
f 530//530 529//529 531//531
f 530//530 531//531 532//532
f 532//532 531//531 533//533
f 532//532 533//533 534//534
f 534//534 533//533 535//535
f 534//534 535//535 536//536
f 536//536 535//535 537//537
f 538//538 539//539 468//468
f 468//468 539//539 540//540
f 468//468 540//540 541//541
f 542//542 543//543 538//538
f 538//538 543//543 544//544
f 538//538 544//544 539//539
f 545//545 546//546 542//542
f 542//542 546//546 547//547
f 542//542 547//547 543//543
f 546//546 545//545 548//548
f 548//548 545//545 549//549
f 548//548 549//549 550//550
f 550//550 549//549 551//551
f 550//550 551//551 552//552
f 552//552 551//551 553//553
f 552//552 553//553 554//554
f 541//541 473//473 468//468
f 475//475 555//555 470//470
f 470//470 555//555 556//556
f 470//470 556//556 557//557
f 557//557 556//556 558//558
f 557//557 558//558 559//559
f 557//557 559//559 560//560
f 560//560 559//559 561//561
f 560//560 561//561 562//562
f 560//560 562//562 563//563
f 563//563 562//562 564//564
f 563//563 564//564 565//565
f 565//565 564//564 566//566
f 565//565 566//566 567//567
f 567//567 566//566 568//568
f 567//567 568//568 569//569
f 569//569 568//568 570//570