mtllib material.mtl
usemtl material_0
v -0.02564100 -0.00959100 0.07518000
v -0.02564100 -0.00959100 0.07518000
v -0.02561700 -0.00963200 0.07559800
v -0.02561700 -0.00963200 0.07559800
v -0.02561700 -0.00963200 0.07559800
v -0.02567700 -0.00952700 0.07600000
v -0.02567700 -0.00952700 0.07600000
v -0.02561700 -0.00963200 0.07640200
v -0.02561700 -0.00963200 0.07640200
v -0.02561700 -0.00963200 0.07640200
v -0.02564100 -0.00959100 0.07681900
v -0.02564100 -0.00959100 0.07681900
v -0.02554500 -0.00975600 0.07719400
v -0.02554500 -0.00975600 0.07719400
v -0.02554500 -0.00975600 0.07719400
v -0.02553100 -0.00978100 0.07761300
v -0.02553100 -0.00978100 0.07761300
v -0.02540400 -0.01000100 0.07794700
v -0.02540400 -0.01000100 0.07794700
v -0.02535300 -0.01009000 0.07835400
v -0.02535300 -0.01009000 0.07835400
v -0.02535300 -0.01009000 0.07835400
v -0.02519800 -0.01035800 0.07863700
v -0.02519800 -0.01035800 0.07863700
v -0.02519800 -0.01035800 0.07863700
v -0.02511100 -0.01050900 0.07901900
v -0.02511100 -0.01050900 0.07901900
v -0.02511100 -0.01050900 0.07901900
v -0.02493300 -0.01081700 0.07924300
v -0.02493300 -0.01081700 0.07924300
v -0.02481300 -0.01102400 0.07958800
v -0.02481300 -0.01102400 0.07958800
v -0.02461900 -0.01136100 0.07974400
v -0.02461900 -0.01136100 0.07974400
v -0.02461900 -0.01136100 0.07974400
v -0.02447000 -0.01161800 0.08004100
v -0.02447000 -0.01161800 0.08004100
v -0.02447000 -0.01161800 0.08004100
v -0.02426400 -0.01197500 0.08012600
v -0.02426400 -0.01197500 0.08012600
v -0.02409200 -0.01227400 0.08036500
v -0.02409200 -0.01227400 0.08036500
v -0.02388200 -0.01263700 0.08037400
v -0.02388200 -0.01263700 0.08037400
v -0.02388200 -0.01263700 0.08037400
v -0.02369100 -0.01296800 0.08054800
v -0.02369100 -0.01296800 0.08054800
v -0.02369100 -0.01296800 0.08054800
v -0.02348300 -0.01332800 0.08048200
v -0.02348300 -0.01332800 0.08048200
v -0.02348300 -0.01332800 0.08048200
v -0.02328000 -0.01368000 0.08058500
v -0.02328000 -0.01368000 0.08058500
v -0.02328000 -0.01368000 0.08058500
v -0.02308200 -0.01402300 0.08044600
v -0.02308200 -0.01402300 0.08044600
v -0.02287200 -0.01438600 0.08047400
v -0.02287200 -0.01438600 0.08047400
v -0.02287200 -0.01438600 0.08047400
v -0.02269000 -0.01470300 0.08026700
v -0.02269000 -0.01470300 0.08026700
v -0.02269000 -0.01470300 0.08026700
v -0.02248100 -0.01506400 0.08022000
v -0.02248100 -0.01506400 0.08022000
v -0.02248100 -0.01506400 0.08022000
v -0.02232000 -0.01534300 0.07995100
v -0.02232000 -0.01534300 0.07995100
v -0.02232000 -0.01534300 0.07995100
v -0.02211900 -0.01569100 0.07983000
v -0.02211900 -0.01569100 0.07983000
v -0.02198400 -0.01592400 0.07950800
v -0.02198400 -0.01592400 0.07950800
v -0.02179700 -0.01624900 0.07931700
v -0.02179700 -0.01624900 0.07931700
v -0.02179700 -0.01624900 0.07931700
v -0.02169300 -0.01642800 0.07895200
v -0.02169300 -0.01642800 0.07895200
v -0.02169300 -0.01642800 0.07895200
v -0.02152600 -0.01671700 0.07869800
v -0.02152600 -0.01671700 0.07869800
v -0.02152600 -0.01671700 0.07869800
v -0.02145700 -0.01683700 0.07830100
v -0.02145700 -0.01683700 0.07830100
v -0.02145700 -0.01683700 0.07830100
v -0.02131500 -0.01708300 0.07799100
v -0.02131500 -0.01708300 0.07799100
v -0.02131500 -0.01708300 0.07799100
v -0.02128200 -0.01714000 0.07757600
v -0.02128200 -0.01714000 0.07757600
v -0.02128200 -0.01714000 0.07757600
v -0.02117100 -0.01733300 0.07722100
v -0.02117100 -0.01733300 0.07722100
v -0.02117100 -0.01733300 0.07722100
v -0.02117500 -0.01732500 0.07680100
v -0.02117500 -0.01732500 0.07680100
v -0.02117500 -0.01732500 0.07680100
v -0.02109700 -0.01746000 0.07641100
v -0.02109700 -0.01746000 0.07641100
v -0.02113900 -0.01738700 0.07600000
v -0.02113900 -0.01738700 0.07600000
v -0.02109700 -0.01746000 0.07558900
v -0.02109700 -0.01746000 0.07558900
v -0.02109700 -0.01746000 0.07558900
v -0.02117500 -0.01732500 0.07519900
v -0.02117500 -0.01732500 0.07519900
v -0.02117500 -0.01732500 0.07519900
v -0.02117100 -0.01733300 0.07477900
v -0.02117100 -0.01733300 0.07477900
v -0.02117100 -0.01733300 0.07477900
v -0.02128200 -0.01714000 0.07442300
v -0.02128200 -0.01714000 0.07442300
v -0.02128200 -0.01714000 0.07442300
v -0.02131500 -0.01708300 0.07400900
v -0.02131500 -0.01708300 0.07400900
v -0.02131500 -0.01708300 0.07400900
v -0.02145700 -0.01683700 0.07369900
v -0.02145700 -0.01683700 0.07369900
v -0.02145700 -0.01683700 0.07369900
v -0.02152600 -0.01671700 0.07330200
v -0.02152600 -0.01671700 0.07330200
v -0.02152600 -0.01671700 0.07330200
v -0.02169300 -0.01642800 0.07304800
v -0.02169300 -0.01642800 0.07304800
v -0.02179700 -0.01624900 0.07268300
v -0.02179700 -0.01624900 0.07268300
v -0.02198400 -0.01592400 0.07249200
v -0.02198400 -0.01592400 0.07249200
v -0.02211900 -0.01569100 0.07217000
v -0.02211900 -0.01569100 0.07217000
v -0.02232000 -0.01534300 0.07204900
v -0.02232000 -0.01534300 0.07204900
v -0.02232000 -0.01534300 0.07204900
v -0.02248100 -0.01506400 0.07178000
v -0.02248100 -0.01506400 0.07178000
v -0.02248100 -0.01506400 0.07178000
v -0.02269000 -0.01470300 0.07173300
v -0.02269000 -0.01470300 0.07173300
v -0.02269000 -0.01470300 0.07173300
v -0.02287200 -0.01438600 0.07152600
v -0.02287200 -0.01438600 0.07152600
v -0.02287200 -0.01438600 0.07152600
v -0.02308200 -0.01402300 0.07155400
v -0.02308200 -0.01402300 0.07155400
v -0.02328000 -0.01368000 0.07141500
v -0.02328000 -0.01368000 0.07141500
v -0.02328000 -0.01368000 0.07141500
v -0.02348300 -0.01332800 0.07151800
v -0.02348300 -0.01332800 0.07151800
v -0.02348300 -0.01332800 0.07151800
v -0.02369100 -0.01296800 0.07145200
v -0.02369100 -0.01296800 0.07145200
v -0.02369100 -0.01296800 0.07145200
v -0.02388200 -0.01263700 0.07162600
v -0.02388200 -0.01263700 0.07162600
v -0.02388200 -0.01263700 0.07162600
v -0.02409200 -0.01227400 0.07163500
v -0.02409200 -0.01227400 0.07163500
v -0.02426400 -0.01197500 0.07187400
v -0.02426400 -0.01197500 0.07187400
v -0.02447000 -0.01161800 0.07195800
v -0.02447000 -0.01161800 0.07195800
v -0.02447000 -0.01161800 0.07195800
v -0.02461900 -0.01136100 0.07225500
v -0.02461900 -0.01136100 0.07225500
v -0.02461900 -0.01136100 0.07225500
v -0.02481300 -0.01102400 0.07241200
v -0.02481300 -0.01102400 0.07241200
v -0.02493300 -0.01081700 0.07275700
v -0.02493300 -0.01081700 0.07275700
v -0.02511100 -0.01050900 0.07298000
v -0.02511100 -0.01050900 0.07298000
v -0.02511100 -0.01050900 0.07298000
v -0.02519800 -0.01035800 0.07336300
v -0.02519800 -0.01035800 0.07336300
v -0.02519800 -0.01035800 0.07336300
v -0.02535300 -0.01009000 0.07364600
v -0.02535300 -0.01009000 0.07364600
v -0.02535300 -0.01009000 0.07364600
v -0.02540400 -0.01000100 0.07405300
v -0.02540400 -0.01000100 0.07405300
v -0.02540400 -0.01000100 0.07405300
v -0.02553100 -0.00978100 0.07438700
v -0.02553100 -0.00978100 0.07438700
v -0.02554500 -0.00975600 0.07480600
v -0.02554500 -0.00975600 0.07480600
v -0.02554500 -0.00975600 0.07480600
vn -0.86600000 -0.50000000 -0.00000000
vn -0.86600000 -0.50010000 -0.00000000
vn -0.86600000 -0.50000000 -0.00000000
vn -0.86610000 -0.49990000 -0.00000000
vn -0.86600000 -0.50010000 -0.00000000
vn -0.86600000 -0.50000000 -0.00000000
vn -0.86610000 -0.49990000 -0.00000000
vn -0.86600000 -0.50000000 -0.00000000
vn -0.86600000 -0.50010000 -0.00000000
vn -0.86610000 -0.49990000 -0.00000000
vn -0.86600000 -0.50000000 -0.00000000
vn -0.86600000 -0.50010000 -0.00000000
vn -0.86600000 -0.50010000 -0.00000000
vn -0.86610000 -0.49990000 -0.00000000
vn -0.86600000 -0.50000000 -0.00000000
vn -0.86600000 -0.50000000 -0.00000000
vn -0.86610000 -0.49990000 -0.00000000
vn -0.86610000 -0.49990000 -0.00000000
vn -0.86590000 -0.50020000 -0.00010000
vn -0.86590000 -0.50020000 -0.00010000
vn -0.86610000 -0.49990000 -0.00000000
vn -0.86600000 -0.50000000 -0.00000000
vn -0.86590000 -0.50020000 -0.00020000
vn -0.86590000 -0.50020000 -0.00010000
vn -0.86600000 -0.50000000 -0.00000000
vn -0.86600000 -0.50010000 -0.00010000
vn -0.86590000 -0.50020000 -0.00020000
vn -0.86600000 -0.50000000 -0.00000000
vn -0.86600000 -0.50010000 -0.00010000
vn -0.86590000 -0.50020000 -0.00020000
vn -0.86600000 -0.50010000 -0.00010000
vn -0.86590000 -0.50020000 -0.00030000
vn -0.86600000 -0.50010000 -0.00010000
vn -0.86590000 -0.50020000 -0.00030000
vn -0.86600000 -0.50000000 -0.00020000
vn -0.86600000 -0.50000000 0.00020000
vn -0.86590000 -0.50020000 -0.00030000
vn -0.86600000 -0.50000000 -0.00020000
vn -0.86600000 -0.50000000 0.00020000
vn -0.86600000 -0.50000000 -0.00020000
vn -0.86600000 -0.50000000 -0.00010000
vn -0.86600000 -0.50000000 0.00020000
vn -0.86600000 -0.50000000 -0.00000000
vn -0.86600000 -0.50000000 -0.00010000
vn -0.86600000 -0.50000000 0.00020000
vn -0.86600000 -0.50000000 -0.00000000
vn -0.86600000 -0.50010000 -0.00020000
vn -0.86600000 -0.50000000 -0.00010000
vn -0.86600000 -0.50000000 0.00010000
vn -0.86600000 -0.50010000 -0.00020000
vn -0.86600000 -0.50000000 -0.00000000
vn -0.86600000 -0.50010000 -0.00020000
vn -0.86600000 -0.50000000 -0.00000000
vn -0.86600000 -0.50000000 0.00010000
vn -0.86600000 -0.50000000 0.00010000
vn -0.86600000 -0.50000000 -0.00000000
vn -0.86600000 -0.50000000 0.00010000
vn -0.86600000 -0.50000000 -0.00000000
vn -0.86590000 -0.50020000 0.00030000
vn -0.86600000 -0.50010000 0.00010000
vn -0.86590000 -0.50020000 0.00030000
vn -0.86600000 -0.50000000 0.00010000
vn -0.86600000 -0.50000000 0.00010000
vn -0.86600000 -0.50010000 0.00010000
vn -0.86590000 -0.50020000 0.00030000
vn -0.86600000 -0.50010000 0.00010000
vn -0.86600000 -0.50000000 -0.00000000
vn -0.86600000 -0.50000000 0.00010000
vn -0.86600000 -0.50000000 0.00010000
vn -0.86600000 -0.50000000 -0.00000000
vn -0.86600000 -0.50000000 0.00010000
vn -0.86600000 -0.50000000 -0.00000000
vn -0.86600000 -0.50000000 0.00010000
vn -0.86600000 -0.50010000 0.00010000
vn -0.86600000 -0.50000000 -0.00000000
vn -0.86600000 -0.50000000 0.00010000
vn -0.86600000 -0.50000000 -0.00010000
vn -0.86600000 -0.50010000 0.00010000
vn -0.86600000 -0.50000000 -0.00010000
vn -0.86600000 -0.50010000 0.00010000
vn -0.86610000 -0.49990000 -0.00010000
vn -0.86600000 -0.50000000 -0.00000000
vn -0.86600000 -0.50000000 -0.00010000
vn -0.86610000 -0.49990000 -0.00010000
vn -0.86600000 -0.50010000 -0.00000000
vn -0.86600000 -0.50000000 -0.00000000
vn -0.86610000 -0.49990000 -0.00010000
vn -0.86600000 -0.50010000 -0.00000000
vn -0.86600000 -0.50000000 -0.00000000
vn -0.86590000 -0.50020000 0.00010000
vn -0.86590000 -0.50020000 -0.00000000
vn -0.86600000 -0.50010000 -0.00000000
vn -0.86590000 -0.50020000 0.00010000
vn -0.86590000 -0.50020000 0.00010000
vn -0.86600000 -0.50010000 -0.00000000
vn -0.86590000 -0.50020000 -0.00000000
vn -0.86600000 -0.50010000 -0.00000000
vn -0.86590000 -0.50020000 -0.00000000
vn -0.86600000 -0.50010000 -0.00000000
vn -0.86590000 -0.50020000 -0.00000000
vn -0.86620000 -0.49980000 0.00010000
vn -0.86600000 -0.50010000 -0.00000000
vn -0.86590000 -0.50020000 -0.00000000
vn -0.86590000 -0.50010000 -0.00010000
vn -0.86620000 -0.49980000 0.00010000
vn -0.86600000 -0.50010000 -0.00000000
vn -0.86620000 -0.49980000 0.00010000
vn -0.86590000 -0.50010000 -0.00010000
vn -0.86600000 -0.50010000 -0.00000000
vn -0.86600000 -0.50010000 -0.00000000
vn -0.86590000 -0.50010000 -0.00010000
vn -0.86610000 -0.49990000 -0.00000000
vn -0.86600000 -0.50010000 -0.00000000
vn -0.86610000 -0.49990000 0.00010000
vn -0.86610000 -0.49990000 -0.00000000
vn -0.86600000 -0.50000000 0.00010000
vn -0.86610000 -0.49990000 -0.00000000
vn -0.86610000 -0.49990000 0.00010000
vn -0.86600000 -0.50000000 0.00010000
vn -0.86610000 -0.49990000 0.00010000
vn -0.86600000 -0.50000000 -0.00010000
vn -0.86600000 -0.50000000 0.00010000
vn -0.86600000 -0.50000000 -0.00010000
vn -0.86600000 -0.50000000 -0.00010000
vn -0.86600000 -0.50000000 -0.00000000
vn -0.86600000 -0.50000000 -0.00010000
vn -0.86600000 -0.50000000 -0.00000000
vn -0.86600000 -0.50000000 -0.00000000
vn -0.86600000 -0.50000000 -0.00010000
vn -0.86600000 -0.50010000 -0.00010000
vn -0.86600000 -0.50000000 -0.00000000
vn -0.86600000 -0.50000000 -0.00010000
vn -0.86600000 -0.50010000 -0.00030000
vn -0.86600000 -0.50000000 -0.00010000
vn -0.86600000 -0.50010000 -0.00010000
vn -0.86600000 -0.50010000 -0.00010000
vn -0.86600000 -0.50010000 -0.00030000
vn -0.86600000 -0.50000000 -0.00010000
vn -0.86600000 -0.50010000 -0.00030000
vn -0.86600000 -0.50000000 -0.00010000
vn -0.86600000 -0.50000000 -0.00000000
vn -0.86600000 -0.50000000 -0.00010000
vn -0.86600000 -0.50000000 -0.00000000
vn -0.86600000 -0.50000000 -0.00010000
vn -0.86600000 -0.50000000 -0.00000000
vn -0.86600000 -0.50000000 0.00020000
vn -0.86600000 -0.50000000 0.00020000
vn -0.86600000 -0.50000000 -0.00010000
vn -0.86600000 -0.50000000 -0.00000000
vn -0.86600000 -0.50000000 0.00020000
vn -0.86600000 -0.50000000 -0.00000000
vn -0.86600000 -0.50000000 0.00010000
vn -0.86600000 -0.50000000 -0.00020000
vn -0.86600000 -0.50000000 -0.00000000
vn -0.86600000 -0.50000000 0.00010000
vn -0.86600000 -0.50000000 -0.00020000
vn -0.86600000 -0.50000000 0.00010000
vn -0.86600000 -0.50000000 -0.00020000
vn -0.86600000 -0.50010000 0.00020000
vn -0.86600000 -0.50000000 -0.00020000
vn -0.86610000 -0.49990000 -0.00010000
vn -0.86600000 -0.50010000 0.00020000
vn -0.86600000 -0.50010000 0.00020000
vn -0.86600000 -0.50010000 0.00010000
vn -0.86610000 -0.49990000 -0.00010000
vn -0.86610000 -0.49990000 -0.00010000
vn -0.86600000 -0.50010000 0.00010000
vn -0.86590000 -0.50020000 0.00020000
vn -0.86600000 -0.50010000 0.00010000
vn -0.86600000 -0.50010000 0.00010000
vn -0.86590000 -0.50020000 0.00020000
vn -0.86590000 -0.50030000 0.00020000
vn -0.86600000 -0.50010000 0.00010000
vn -0.86590000 -0.50030000 0.00020000
vn -0.86590000 -0.50020000 0.00020000
vn -0.86590000 -0.50030000 0.00020000
vn -0.86600000 -0.50010000 0.00010000
vn -0.86600000 -0.50000000 -0.00000000
vn -0.86610000 -0.49990000 -0.00000000
vn -0.86600000 -0.50000000 -0.00000000
vn -0.86600000 -0.50010000 0.00010000
vn -0.86610000 -0.49990000 -0.00000000
vn -0.86600000 -0.50000000 -0.00000000
vn -0.86600000 -0.50000000 -0.00000000
vn -0.86600000 -0.50010000 -0.00000000
vn -0.86610000 -0.49990000 -0.00000000
f 1//1 3//3 6//6
f 7//7 4//4 10//10
f 6//6 8//8 11//11
f 12//12 9//9 13//13
f 11//11 15//15 16//16
f 17//17 14//14 18//18
f 17//17 18//18 21//21
f 20//20 19//19 24//24
f 22//22 25//25 28//28
f 27//27 23//23 30//30
f 26//26 29//29 31//31
f 31//31 29//29 33//33
f 32//32 34//34 37//37
f 38//38 35//35 40//40
f 36//36 39//39 42//42
f 42//42 39//39 45//45
f 41//41 44//44 48//48
f 46//46 43//43 51//51
f 47//47 50//50 52//52
f 54//54 49//49 55//55
f 53//53 56//56 58//58
f 57//57 55//55 62//62
f 59//59 61//61 65//65
f 64//64 60//60 66//66
f 63//63 68//68 69//69
f 70//70 67//67 72//72
f 70//70 72//72 75//75
f 73//73 71//71 76//76
f 74//74 78//78 80//80
f 79//79 77//77 83//83
f 81//81 84//84 87//87
f 86//86 82//82 89//89
f 85//85 88//88 92//92
f 93//93 90//90 94//94
f 91//91 96//96 98//98
f 97//97 95//95 99//99
f 98//98 100//100 103//103
f 102//102 99//99 106//106
f 101//101 105//105 107//107
f 108//108 104//104 111//111
f 109//109 110//110 113//113
f 115//115 112//112 117//117
f 114//114 118//118 120//120
f 119//119 116//116 122//122
f 121//121 123//123 124//124
f 124//124 123//123 126//126
f 125//125 127//127 128//128
f 128//128 127//127 131//131
f 129//129 132//132 134//134
f 135//135 130//130 136//136
f 133//133 137//137 139//139
f 140//140 138//138 142//142
f 141//141 143//143 145//145
f 144//144 142//142 148//148
f 146//146 147//147 150//150
f 151//151 149//149 154//154
f 152//152 155//155 157//157
f 156//156 153//153 158//158
f 156//156 158//158 160//160
f 162//162 159//159 163//163
f 161//161 165//165 166//166
f 167//167 164//164 169//169
f 167//167 169//169 170//170
f 171//171 168//168 175//175
f 172//172 174//174 176//176
f 177//177 173//173 181//181
f 178//178 180//180 183//183
f 182//182 179//179 186//186
f 183//183 184//184 1//1
f 2//2 185//185 5//5