mtllib material.mtl
usemtl material_0
v -0.00321100 0.02529800 0.05209900
v -0.00321100 0.02914800 0.05020200
v -0.00368700 0.02528400 0.05208500
v -0.00463700 0.02909900 0.05015800
v -0.00416200 0.02526800 0.05207000
v -0.00463800 0.02525100 0.05205200
v -0.00315000 0.02932700 0.05011100
v -0.00397600 0.03034400 0.04953200
v -0.00446900 0.02977800 0.04981000
v -0.00339800 0.03063300 0.04940100
v -0.00304700 0.02942000 0.05006600
v -0.00284600 0.02947700 0.05004300
v -0.00283300 0.03072500 0.04937300
v -0.00071400 0.02950800 0.05007500
v -0.00071400 0.03075500 0.04940400
v 0.00071300 0.02950800 0.05007500
v 0.00071300 0.03075500 0.04940400
v 0.00142700 0.03074900 0.04939800
v 0.00248700 0.02948400 0.05005100
v 0.00214000 0.03073800 0.04938700
v 0.00285400 0.03072400 0.04937300
v 0.00293500 0.02946500 0.05004600
v 0.00346500 0.03061500 0.04940800
v 0.00313000 0.02935300 0.05009800
v 0.00407900 0.03026400 0.04957000
v 0.00321000 0.02915300 0.05020000
v 0.00464200 0.02910000 0.05015800
v 0.00463700 0.02808600 0.05067900
v 0.00321000 0.02692300 0.05132600
v 0.00463700 0.02687900 0.05127900
v 0.00411600 0.02575000 0.05184700
v 0.00451200 0.02628500 0.05157300
v 0.00071400 0.02697000 0.05136300
v -0.00071500 0.02696700 0.05136500
v -0.00052100 0.02623300 0.05172000
v 0.00001100 0.02566000 0.05199300
v 0.00074500 0.02683400 0.05142900
v 0.00052600 0.02541700 0.05210500
v 0.00083500 0.02672100 0.05148300
v 0.00095200 0.02665800 0.05151200
v 0.00107700 0.02663800 0.05152100
v 0.00107100 0.02533800 0.05213600
v 0.00220000 0.02531700 0.05212400
v 0.00285300 0.02661000 0.05149100
v 0.00285100 0.02530400 0.05211000
v 0.00299800 0.02663300 0.05147500
v 0.00354600 0.02541600 0.05203000
v 0.00310600 0.02669800 0.05144000
v 0.00318500 0.02680500 0.05138400
v 0.00449300 0.02972900 0.04983400
v -0.00071400 0.03126900 0.04912000
v 0.00071300 0.03126900 0.04912000
v -0.00023800 0.03229300 0.04854400
v 0.00023800 0.03229300 0.04854400
v 0.00071300 0.03178100 0.04883300
v 0.00071300 0.03229100 0.04854200
v -0.00071400 0.03229100 0.04854200
v -0.00071400 0.03178100 0.04883300
vn -0.03540000 0.42020000 0.90670000
vn -0.03540000 0.46280000 0.88580000
vn -0.04070000 0.42010000 0.90660000
vn -0.05120000 0.46220000 0.88530000
vn -0.04600000 0.41990000 0.90640000
vn -0.05120000 0.41970000 0.90620000
vn -0.03480000 0.46470000 0.88480000
vn -0.04390000 0.47590000 0.87840000
vn -0.04930000 0.46970000 0.88150000
vn -0.03750000 0.47910000 0.87690000
vn -0.03360000 0.46570000 0.88430000
vn -0.03150000 0.46630000 0.88400000
vn -0.03130000 0.48010000 0.87660000
vn -0.00800000 0.46670000 0.88440000
vn -0.00790000 0.48050000 0.87700000
vn 0.00790000 0.46670000 0.88440000
vn 0.00790000 0.48050000 0.87700000
vn 0.01570000 0.48040000 0.87690000
vn 0.02740000 0.46640000 0.88410000
vn 0.02360000 0.48030000 0.87680000
vn 0.03150000 0.48020000 0.87660000
vn 0.03240000 0.46620000 0.88410000
vn 0.03830000 0.47890000 0.87700000
vn 0.03460000 0.46500000 0.88470000
vn 0.04500000 0.47500000 0.87880000
vn 0.03550000 0.46280000 0.88580000
vn 0.05120000 0.46220000 0.88530000
vn 0.05120000 0.45100000 0.89100000
vn 0.03550000 0.43820000 0.89820000
vn 0.05120000 0.43770000 0.89770000
vn 0.04540000 0.42520000 0.90390000
vn 0.04970000 0.43120000 0.90090000
vn 0.00790000 0.43870000 0.89860000
vn -0.00790000 0.43870000 0.89860000
vn -0.00570000 0.43050000 0.90260000
vn 0.00010000 0.42420000 0.90560000
vn 0.00820000 0.43720000 0.89930000
vn 0.00580000 0.42160000 0.90680000
vn 0.00910000 0.43590000 0.89990000
vn 0.01040000 0.43520000 0.90030000
vn 0.01190000 0.43500000 0.90040000
vn 0.01180000 0.42060000 0.90720000
vn 0.02430000 0.42040000 0.90700000
vn 0.03150000 0.43470000 0.90000000
vn 0.03150000 0.42030000 0.90680000
vn 0.03310000 0.43490000 0.89980000
vn 0.03910000 0.42150000 0.90600000
vn 0.03430000 0.43570000 0.89950000
vn 0.03520000 0.43680000 0.89890000
vn 0.04950000 0.46910000 0.88180000
vn -0.00790000 0.48610000 0.87380000
vn 0.00790000 0.48620000 0.87380000
vn -0.00260000 0.49740000 0.86750000
vn 0.00260000 0.49740000 0.86750000
vn 0.00790000 0.49180000 0.87070000
vn 0.00790000 0.49740000 0.86750000
vn -0.00790000 0.49740000 0.86750000
vn -0.00780000 0.49180000 0.87070000
f 1//1 2//2 3//3
f 3//3 2//2 4//4
f 3//3 4//4 5//5
f 5//5 4//4 6//6
f 7//7 8//8 2//2
f 2//2 8//8 9//9
f 2//2 9//9 4//4
f 8//8 7//7 10//10
f 10//10 7//7 11//11
f 10//10 11//11 12//12
f 10//10 12//12 13//13
f 13//13 12//12 14//14
f 13//13 14//14 15//15
f 15//15 14//14 16//16
f 15//15 16//16 17//17
f 17//17 16//16 18//18
f 18//18 16//16 19//19
f 18//18 19//19 20//20
f 20//20 19//19 21//21
f 21//21 19//19 22//22
f 21//21 22//22 23//23
f 23//23 22//22 24//24
f 23//23 24//24 25//25
f 25//25 24//24 26//26
f 25//25 26//26 27//27
f 27//27 26//26 28//28
f 28//28 26//26 29//29
f 28//28 29//29 30//30
f 30//30 29//29 31//31
f 30//30 31//31 32//32
f 16//16 14//14 33//33
f 33//33 14//14 34//34
f 33//33 34//34 35//35
f 35//35 36//36 33//33
f 33//33 36//36 37//37
f 37//37 36//36 38//38
f 37//37 38//38 39//39
f 39//39 38//38 40//40
f 40//40 38//38 41//41
f 41//41 38//38 42//42
f 41//41 42//42 43//43
f 41//41 43//43 44//44
f 44//44 43//43 45//45
f 44//44 45//45 46//46
f 46//46 45//45 47//47
f 46//46 47//47 48//48
f 48//48 47//47 49//49
f 49//49 47//47 31//31
f 49//49 31//31 29//29
f 27//27 50//50 25//25
f 15//15 17//17 51//51
f 51//51 17//17 52//52
f 51//51 52//52 53//53
f 53//53 52//52 54//54
f 54//54 52//52 55//55
f 54//54 55//55 56//56
f 57//57 58//58 53//53
f 53//53 58//58 51//51